<?xml version="1.0" standalone="no"?>
<!DOCTYPE svg PUBLIC "-//W3C//DTD SVG 20010904//EN"
 "http://www.w3.org/TR/2001/REC-SVG-20010904/DTD/svg10.dtd">
<svg version="1.0" xmlns="http://www.w3.org/2000/svg" width="2048" height="2048" viewBox="-539 -571 2048 1876">
<g transform="translate(-539,1140) scale(1,-1)" fill="#000000" stroke="none">
<path d="M1100 954v-528q0 -151 -213 -148q0 57 -55 84q-47 23 -180 45v51q163 -16 267 -16q60 0 60 59v453h-850l-20 52h410v493q201 -9 201 -49q0 -24 -84 -55v-389h343v682q213 -3 213 -51q0 -30 -92 -58v-223h374l101 139q95 -91 139 -151l-25 -39h-589v-299h600l106 139
q81 -68 146 -149l-23 -42h-829zM1395 874q261 -110 389 -243q92 -96 92 -168q0 -80 -72 -80q-44 0 -78 76q-93 193 -358 377zM139 279q254 210 418 573q179 -77 179 -117q0 -27 -101 -30q-177 -299 -465 -465zM141 -102q890 160 1301 696q156 -83 156 -127q0 -25 -58 -25
l-47 4q-320 -326 -721 -464q-243 -84 -604 -136z" />
</g>
</svg>
