<?xml version="1.0" standalone="no"?>
<!DOCTYPE svg PUBLIC "-//W3C//DTD SVG 20010904//EN"
 "http://www.w3.org/TR/2001/REC-SVG-20010904/DTD/svg10.dtd">
<svg version="1.0" xmlns="http://www.w3.org/2000/svg" width="2048" height="2048" viewBox="-539 -571 2048 1876">
<g transform="translate(-539,1140) scale(1,-1)" fill="#000000" stroke="none">
<path d="M402 854q-112 -333 -283 -610l-47 35q207 392 326 907h-287l-16 51h307v455q203 -3 203 -50q0 -27 -88 -55v-350h112l88 131q49 -45 131 -143l-26 -39h-305v-213q289 -184 289 -346q0 -78 -66 -78q-49 0 -68 76q-39 153 -155 283v-1055h-115v1001zM1385 430v-412h340
l106 135q93 -83 137 -145l-26 -41h-1221l-25 51h570v412h-414l-23 51h437v336q199 -6 199 -55q0 -25 -80 -56v-225h274l99 133q77 -81 120 -141l-22 -43h-471zM1266 911v367h-402l-22 51h424v363q203 -7 203 -54q0 -26 -84 -57v-252h264l88 125q51 -49 121 -133l-25 -43
h-448v-367h340l94 125q74 -64 135 -137l-22 -39h-1139l-23 51h496z" />
</g>
</svg>
