<?xml version="1.0" standalone="no"?>
<!DOCTYPE svg PUBLIC "-//W3C//DTD SVG 20010904//EN"
 "http://www.w3.org/TR/2001/REC-SVG-20010904/DTD/svg10.dtd">
<svg version="1.0" xmlns="http://www.w3.org/2000/svg" width="2048" height="2048" viewBox="-539 -571 2048 1876">
<g transform="translate(-539,1140) scale(1,-1)" fill="#000000" stroke="none">
<path d="M1073 1585q373 -428 901 -676q-62 -56 -92 -125q-523 303 -840 752q-326 -548 -905 -836l-33 43q555 325 881 959q180 -43 180 -82q0 -26 -92 -35zM1077 940v-311h479l101 131q85 -74 143 -141l-23 -41h-700v-596h541l112 141l37 -37q56 -56 103 -116l-25 -40h-1645
l-24 52h780v596h-674l-22 51h696v311h-334l-20 51h645l94 113q59 -50 135 -129l-20 -35h-379zM450 498q270 -169 270 -334q0 -88 -74 -88q-54 0 -69 86q-24 140 -158 301zM1278 66q109 180 196 440q176 -74 176 -117q0 -25 -84 -29q-110 -175 -248 -321z" />
</g>
</svg>
