<?xml version="1.0" standalone="no"?>
<!DOCTYPE svg PUBLIC "-//W3C//DTD SVG 20010904//EN"
 "http://www.w3.org/TR/2001/REC-SVG-20010904/DTD/svg10.dtd">
<svg version="1.0" xmlns="http://www.w3.org/2000/svg" viewBox="-539 -571 2048 1876">
<g transform="translate(-539,1140) scale(1,-1)" fill="#000000" stroke="none">
<path d="M1073 739v-702h592l117 156q73 -68 149 -166l-22 -41h-1749l-27 51h811v702h-608l-21 52h629v593h-713l-22 52h1366l114 148q83 -75 150 -158l-23 -42h-743v-593h403l111 137q89 -79 145 -149l-22 -40h-637zM1266 598q335 -157 335 -322q0 -86 -76 -86q-51 0 -69 57
q-56 170 -219 312z" />
</g>
</svg>
