<?xml version="1.0" standalone="no"?>
<!DOCTYPE svg PUBLIC "-//W3C//DTD SVG 20010904//EN"
 "http://www.w3.org/TR/2001/REC-SVG-20010904/DTD/svg10.dtd">
<svg version="1.0" xmlns="http://www.w3.org/2000/svg" width="2048" height="2048" viewBox="-539 -571 2048 1876">
<g transform="translate(-539,1140) scale(1,-1)" fill="#d9534f" stroke="none">
<path d="M547 846h940l76 88q127 -90 127 -121q0 -16 -21 -28l-49 -31v-566h-117v76h-440v-176q0 -48 31 -58q46 -18 301 -18q267 0 305 29q48 39 69 313l58 -16v-70q-3 -154 24 -196q15 -26 66 -29q-6 -96 -94 -115q-96 -18 -457 -18q-318 0 -369 33q-51 27 -51 133v188h-415
v-131h-115v776q43 -15 131 -63zM1503 543h-440v-228h440v228zM1503 594v201h-440v-201h440zM946 795h-415v-201h415v201zM531 315h415v228h-415v-228zM956 1434v254q211 -3 211 -45q0 -25 -90 -53v-156h485l98 127q75 -62 136 -139l-23 -40h-1485l-20 52h688zM1161 1059
q71 130 129 315q178 -67 178 -108q0 -28 -88 -31q-67 -92 -153 -176h440l106 131q92 -85 138 -141l-25 -41h-1735l-16 51h1026zM600 1366q242 -95 242 -221q0 -74 -74 -74q-54 0 -63 66q-16 104 -130 190z" />
</g>
</svg>
