<?xml version="1.0" standalone="no"?>
<!DOCTYPE svg PUBLIC "-//W3C//DTD SVG 20010904//EN"
 "http://www.w3.org/TR/2001/REC-SVG-20010904/DTD/svg10.dtd">
<svg version="1.0" xmlns="http://www.w3.org/2000/svg" width="2048" height="2048" viewBox="-539 -571 2048 1876">
<g transform="translate(-539,1140) scale(1,-1)" fill="#d9534f" stroke="none">
<path d="M841 829q-86 186 -133 529q-12 99 -32 117q-31 27 -107 30v62q45 6 123 6q156 0 156 -96l-11 -140q0 -235 90 -456l416 235q49 26 49 45q0 29 -71 82l41 41q204 -102 204 -190q0 -31 -41 -53q-16 -9 -92 -40q-486 -200 -705 -363q-204 -153 -204 -294q0 -110 121 -157
q117 -46 370 -46q208 0 426 43q14 3 55 14q22 5 31 5q57 0 88 -21q35 -24 35 -65q0 -54 -86 -66q-223 -31 -473 -31q-382 0 -531 90q-122 75 -122 232q0 246 403 487z" />
</g>
</svg>
