<?xml version="1.0" encoding="UTF-8" standalone="no"?>
<!-- Generator: Adobe Illustrator 22.0.1, SVG Export Plug-In . SVG Version: 6.00 Build 0)  -->

<svg
   xmlns:dc="http://purl.org/dc/elements/1.1/"
   xmlns:cc="http://creativecommons.org/ns#"
   xmlns:rdf="http://www.w3.org/1999/02/22-rdf-syntax-ns#"
   xmlns:svg="http://www.w3.org/2000/svg"
   xmlns="http://www.w3.org/2000/svg"
   xmlns:sodipodi="http://sodipodi.sourceforge.net/DTD/sodipodi-0.dtd"
   xmlns:inkscape="http://www.inkscape.org/namespaces/inkscape"
   version="1.1"
   id="Слой_1"
   x="0px"
   y="0px"
   viewBox="0 0 490.88828 559.27775"
   xml:space="preserve"
   sodipodi:docname="BFU.svg"
   width="490.88828"
   height="559.27777"
   inkscape:version="0.92.3 (2405546, 2018-03-11)"><metadata
   id="metadata23"><rdf:RDF><cc:Work
       rdf:about=""><dc:format>image/svg+xml</dc:format><dc:type
         rdf:resource="http://purl.org/dc/dcmitype/StillImage" /><dc:title /></cc:Work></rdf:RDF></metadata><defs
   id="defs21" /><sodipodi:namedview
   pagecolor="#ffffff"
   bordercolor="#666666"
   borderopacity="1"
   objecttolerance="10"
   gridtolerance="10"
   guidetolerance="10"
   inkscape:pageopacity="0"
   inkscape:pageshadow="2"
   inkscape:window-width="1920"
   inkscape:window-height="1039"
   id="namedview19"
   showgrid="false"
   fit-margin-top="43"
   fit-margin-left="48"
   fit-margin-right="48"
   fit-margin-bottom="43"
   inkscape:zoom="2.2425466"
   inkscape:cx="263.39978"
   inkscape:cy="270.43722"
   inkscape:window-x="0"
   inkscape:window-y="0"
   inkscape:window-maximized="1"
   inkscape:current-layer="Слой_1"
   showguides="true"
   inkscape:guide-bbox="true"><sodipodi:guide
     position="238.42774,639.18213"
     orientation="1,0"
     id="guide15"
     inkscape:locked="false" /><sodipodi:guide
     position="-27.341544,291.36329"
     orientation="0,1"
     id="guide17"
     inkscape:locked="false" /></sodipodi:namedview>
<g
   id="g16"
   transform="translate(-51.58084,-142.525)">
	<g
   id="g14">
		<path
   d="m 298,658.8 c -63.2,0 -126.3,0 -189.5,0 -2.1,0 -4.6,0.1 -6.3,-0.9 -1.4,-0.8 -2.8,-3.3 -2.6,-4.8 3.9,-24.2 8.2,-48.4 12.2,-72.6 5.6,-34.1 11.1,-68.1 16.6,-102.2 4.7,-29.1 9.4,-58.3 14.1,-87.5 2.5,-15.6 5,-31.1 7.5,-46.7 4.8,-30 9.7,-59.9 14.6,-89.9 1.5,-9.3 3,-18.6 4.2,-28 0.6,-5.1 2.8,-7.9 7.9,-9.2 35.5,-9.6 71,-19 106.3,-29.2 10.5,-3 19.9,-3.1 30.4,0.1 35.7,11.1 71.7,21.5 107.7,31.9 5,1.4 7,4 7.7,8.8 4.6,29.7 9.3,59.3 14,89 4.7,30 9.4,60 14,90 5,32.3 10,64.6 15,96.9 4.8,31 9.5,62 14.2,93 2.7,18 5.5,36.1 8.1,54.1 1,6.6 0.3,7.2 -6.3,7.2 -63.1,0 -126.5,0 -189.8,0 z m -190.2,-7.2 c 126.6,0 252.8,0 379.4,0 -1.9,-13.1 -3.7,-25.8 -5.7,-38.6 -4.9,-31.6 -9.8,-63.3 -14.7,-94.9 -5,-32.5 -10.1,-64.9 -15.1,-97.4 -4.7,-30 -9.3,-60 -13.9,-90 -5.2,-33.3 -10.5,-66.6 -15.5,-99.9 -0.5,-3.1 -1.8,-4.2 -4.4,-4.9 -9.2,-2.6 -18.5,-5.2 -27.7,-7.9 -29.7,-8.8 -59.4,-17.6 -89.1,-26.3 -1.8,-0.5 -3.9,-0.3 -5.7,0.2 -14.6,3.9 -29.1,8 -43.6,12 -24,6.6 -47.9,13.1 -71.9,19.8 -1.4,0.4 -3.3,1.9 -3.5,3.2 -2.5,14.4 -4.8,28.8 -7.1,43.2 -4.5,28.2 -8.8,56.4 -13.3,84.6 -3.1,19.5 -6.6,38.9 -9.7,58.4 -4.1,25.7 -8.1,51.5 -12.2,77.2 -3.5,21.6 -7.2,43.2 -10.8,64.8 -4.1,24.7 -8,49.5 -12,74.2 -1.3,7.3 -2.4,14.7 -3.5,22.3 z"
   id="path2"
   inkscape:connector-curvature="0" />
		<path
   d="m 247.2,321.4 c 15.2,-1.4 29.1,-2.8 43.2,-4.1 0.1,-1.3 0.3,-2.4 0.3,-3.5 -1,-25.3 -1.8,-50.6 -3.2,-75.9 -0.3,-5.4 -2.6,-10.9 -4.9,-15.9 -2.4,-5.3 -0.5,-10.2 5.3,-9.5 7,0.9 13.9,3.1 20.5,5.6 4.3,1.7 5,5.7 4.4,10.5 -1.6,12 -2.4,24 -3.6,37 12.7,-2.7 24,-4.7 35.1,-7.6 9.2,-2.4 17.8,-2.2 25.8,2.9 2.5,1.6 4.1,4.4 6.1,6.6 -2.5,1.4 -4.9,3.7 -7.5,4 -18.3,2.1 -36.5,6.4 -55.1,4.5 -1,-0.1 -2,0 -3.8,0 0,13.1 0,26.1 0,39.9 3.7,-0.2 8,-0.1 12.2,-0.6 25.3,-3.1 50.4,-7.2 75.8,-9.3 12.9,-1.1 24.7,4.6 33.8,14.3 3.7,3.9 2.4,7.7 -2.9,8.6 -5.5,0.9 -11.2,1.2 -16.9,1.3 -34.6,0.6 -69.3,1.2 -103.9,1.7 -0.8,0 -1.6,0.1 -3.2,0.3 1.7,1.1 2.8,1.8 3.8,2.5 5.9,3.8 6.4,6.2 4.7,13 -1.6,6.2 -2.9,12.6 -3.2,19 -0.6,15.5 -0.2,31 -1,46.4 -0.2,4.4 -2.5,9 -4.8,12.9 -2.9,4.9 -7.9,4.7 -10.7,-0.2 -4.5,-7.9 -7.2,-16.1 -3.5,-25.2 0.7,-1.8 1.2,-3.8 1.3,-5.8 0.8,-18.9 2.7,-37.9 -3.2,-56.5 -1.2,-3.8 -2.9,-4.9 -7.1,-4.6 -23.8,1.8 -47.3,5.5 -70.4,11.2 -6.8,1.7 -13.2,1.5 -19.5,-1.3 -5.9,-2.6 -11.7,-5.5 -17.4,-8.6 -1.3,-0.7 -2.6,-3.1 -2.4,-4.4 0.3,-1.4 2.3,-2.9 3.9,-3.3 2.9,-0.7 5.9,-0.8 8.9,-0.9 15.5,-0.7 30.9,-1.3 47.1,-2 -0.5,-5.9 -0.8,-11 -1.2,-16 -0.8,-9.3 -1.3,-18.6 -2.7,-27.8 -0.7,-5 -2.7,-9.8 -4.6,-14.5 -2,-4.6 -0.3,-8.9 4.6,-8.3 6.5,0.8 12.9,2.6 19.1,4.9 4.7,1.7 4.2,6.2 3.9,10.7 -1.4,15.8 -2.2,31.7 -3.1,48 z"
   id="path4"
   inkscape:connector-curvature="0" />
		<path
   d="m 191.3,512.4 c 3.1,-1.4 5.4,-2.5 7.8,-3.5 44.3,-18.6 85,-43.3 121.7,-74.4 6,-5 11.2,-10.9 16.6,-16.5 5.6,-5.9 8.5,-13 8.6,-21.2 0,-1.5 0.1,-3 0.4,-4.5 1.1,-6 3.8,-7.6 9.6,-5.5 8.8,3.2 15.2,9.4 20.6,16.8 1.9,2.6 2.6,5.3 -0.3,8 -21.5,19.7 -42.6,39.8 -67,55.9 -31.2,20.7 -65,35.5 -101.2,44.8 -4.5,1.1 -9.2,1.2 -13.8,1.7 -0.7,0 -1.4,-0.7 -3,-1.6 z"
   id="path6"
   inkscape:connector-curvature="0" />
		<path
   d="m 190.5,435.6 c 1.2,-1.3 2.3,-2.7 3.5,-4 13.7,-15.8 26.5,-32.1 35.3,-51.2 1.9,-4.1 2.8,-8.8 3.4,-13.4 0.4,-3.2 1.5,-5.2 4.5,-4.2 7,2.3 14.3,4.5 20.7,8 5.6,3.1 4.9,7.9 0.2,12.2 -4.2,3.8 -8.2,7.8 -11.8,12.1 -13.7,16.1 -28.7,30.6 -47.6,40.5 -2.2,1.2 -4.9,1.4 -7.3,2 -0.3,-0.5 -0.6,-1.3 -0.9,-2 z"
   id="path8"
   inkscape:connector-curvature="0" />
		<path
   d="m 302,570.9 c 0,20.6 0,41.3 0,61.9 0,1.8 0.2,4 -0.6,5.3 -1,1.6 -3.2,3.4 -4.8,3.4 -1.7,0 -3.9,-1.8 -4.8,-3.4 -0.9,-1.5 -0.7,-3.9 -0.7,-5.8 0,-41 0,-81.9 0,-122.9 0,-0.3 0,-0.7 0,-1 0,-5.8 1.8,-8.5 5.5,-8.5 3.7,0 5.5,2.7 5.5,8.5 -0.1,20.9 -0.1,41.7 -0.1,62.5 z"
   id="path10"
   inkscape:connector-curvature="0" />
		<path
   d="m 350.8,344.5 c 5.1,0.6 9,0.4 12.5,1.6 12.1,4.1 24.3,8 36,13.2 11.6,5.2 17.3,17.6 15.9,30.2 -0.4,3.8 -2.5,6.4 -6.2,5.5 -5.1,-1.2 -10.8,-2.4 -14.6,-5.5 -10,-8.2 -19.3,-17.3 -28.7,-26.3 -4.3,-4.1 -8.2,-8.8 -12.1,-13.3 -1,-1.1 -1.4,-2.7 -2.8,-5.4 z"
   id="path12"
   inkscape:connector-curvature="0" />
	</g>
</g>
<rect
   style="fill:none"
   id="rect35"
   width="501.21582"
   height="563.64496"
   x="45.630066"
   y="-48.881447" /><path
   style="fill:#ffffff;fill-opacity:1;stroke:#000000;stroke-width:0.4459216;stroke-opacity:0"
   d="m 56.313783,508.15902 c 0,-0.53171 0.1999,-2.1872 0.444223,-3.67885 0.244322,-1.49161 1.958854,-12.14329 3.81007,-23.67037 6.460734,-40.22943 10.926466,-67.55517 16.032523,-98.10275 2.828649,-16.92273 8.059525,-49.22975 11.624169,-71.79338 3.564644,-22.56364 8.668978,-54.16833 11.342964,-70.23266 2.673988,-16.06432 7.791028,-47.86968 11.371208,-70.67857 6.39583,-40.74701 10.76576,-67.99273 12.86223,-80.193633 0.88627,-5.157893 1.24144,-6.351788 2.16401,-7.27436 1.23815,-1.238157 5.65683,-2.490323 103.74215,-29.398481 9.08952,-2.493565 16.15331,-4.201247 17.37838,-4.201247 2.08464,0 7.2513,1.477268 66.30188,18.957248 15.20593,4.501214 33.36609,9.802628 40.35591,11.78092 6.98982,1.978293 13.35186,3.890525 14.13786,4.249405 0.786,0.35888 1.73358,1.241316 2.10573,1.960968 0.37214,0.719653 1.69485,8.001321 2.93935,16.18148 1.2445,8.18017 4.7534,30.82587 7.79755,50.32379 3.04415,19.49793 8.04578,51.70462 11.11473,71.57042 3.06896,19.86581 13.19931,85.28251 22.51191,145.37045 9.31259,60.08794 17.84745,115.57173 18.96636,123.29733 1.11891,7.72559 2.1497,14.59835 2.29066,15.27281 l 0.25629,1.22629 H 246.08886 56.313783 Z m 192.303697,-11.50067 1.6722,-1.7675 v -66.22758 c 0,-73.06901 0.15565,-69.01785 -2.70865,-70.49904 -3.3563,-1.73561 -6.6816,-0.036 -7.51283,3.83984 -0.33109,1.54381 -0.48042,22.38715 -0.47994,66.98929 4.4e-4,60.75321 0.0488,64.84392 0.78036,66.30002 0.42882,0.8535 1.482,2.02185 2.3404,2.59634 2.08272,1.39386 3.75435,1.04546 5.90846,-1.23137 z M 152.18693,370.39888 c 6.46216,-0.88098 24.21995,-6.16926 38.34926,-11.42044 34.90165,-12.97125 66.84496,-31.47256 94.98339,-55.01362 14.42222,-12.06586 39.88243,-35.29812 40.61114,-37.05738 0.76182,-1.83921 0.21743,-3.68719 -2.00272,-6.79846 -4.29044,-6.01251 -11.17985,-11.92382 -16.94147,-14.53626 -8.01083,-3.63229 -10.9546,-2.46795 -12.3076,4.86795 -0.24365,1.32108 -0.44301,3.48878 -0.44301,4.81711 0,6.03132 -2.68003,13.06664 -7.01745,18.42143 -3.9459,4.87144 -17.2665,17.78416 -23.9741,23.24002 -21.81904,17.74725 -44.80891,33.32732 -69.34081,46.99175 -9.99475,5.56715 -31.10461,15.8924 -43.40278,21.22916 l -10.62753,4.6118 1.03101,0.83486 c 1.10794,0.89716 3.40964,0.85813 11.08267,-0.18792 z m -2.86494,-78.6859 c 14.60815,-7.87964 27.44005,-18.92132 44.79575,-38.54616 3.36193,-3.80148 8.0493,-8.75359 10.41636,-11.00469 9.76379,-9.28545 7.59449,-12.76972 -12.14457,-19.50625 -4.00842,-1.36799 -7.76626,-2.48726 -8.35074,-2.48726 -1.61737,0 -2.31758,1.53588 -3.28795,7.21192 -1.05279,6.15817 -2.25668,9.50561 -5.98549,16.6429 -7.06675,13.52638 -18.8425,29.93346 -32.73156,45.60467 -2.3246,2.6229 -2.82078,3.44283 -2.6046,4.30416 l 0.26705,1.06403 3.01241,-0.67049 c 1.65683,-0.36877 4.63283,-1.54454 6.61334,-2.61283 z m 99.75573,-5.26753 c 0.78921,-0.33628 1.85308,-1.08877 2.36416,-1.67221 2.2132,-2.52656 4.81946,-8.21975 5.57838,-12.1856 0.23711,-1.23906 0.61755,-12.9884 0.84542,-26.10965 0.44826,-25.81124 0.6986,-28.92986 3.16046,-39.37169 2.17172,-9.21119 1.70261,-10.83944 -4.27104,-14.82436 -1.82461,-1.21717 -3.32343,-2.34177 -3.33072,-2.49912 -0.0202,-0.43526 12.96851,-0.77407 49.70702,-1.29664 62.52484,-0.88934 72.15027,-1.26596 76.16821,-2.98023 1.87726,-0.80095 2.53695,-1.69974 2.53695,-3.45646 0,-1.84897 -1.04718,-3.41535 -4.394,-6.57258 -3.89486,-3.6742 -7.61072,-6.2146 -12.27507,-8.39199 -10.63681,-4.96543 -14.86477,-4.81222 -69.57384,2.52112 -14.95976,2.00525 -27.4791,3.45755 -31.14595,3.61308 l -6.13143,0.26008 v -20.07297 -20.07297 l 10.14472,0.22125 c 11.2252,0.24482 15.8165,-0.12268 34.67041,-2.77513 5.88616,-0.82809 11.74883,-1.64031 13.02815,-1.80493 2.36676,-0.30455 7.93016,-3.2138 7.93016,-4.14688 0,-0.25244 -1.16477,-1.77748 -2.58838,-3.38897 -3.11786,-3.52936 -7.04485,-5.60771 -12.76927,-6.75811 -4.83036,-0.97073 -9.60093,-0.64063 -17.03295,1.17859 -8.60622,2.10664 -32.29571,7.09863 -33.68657,7.09863 -0.4342,0 -0.53729,-0.45936 -0.37529,-1.67221 0.12285,-0.91971 0.63713,-6.48816 1.14284,-12.37432 0.50572,-5.88617 1.31594,-14.083095 1.8005,-18.215398 1.09339,-9.324521 0.72496,-11.858275 -2.04067,-14.033715 -1.34956,-1.061561 -11.91532,-4.593026 -16.94571,-5.663877 -1.96205,-0.417675 -4.73917,-0.785335 -6.17137,-0.817021 -2.42759,-0.05371 -2.69526,0.04452 -3.95093,1.449852 -1.23359,1.380627 -1.33008,1.717988 -1.14677,4.009515 0.12811,1.60156 0.87413,4.060577 2.07285,6.832488 3.10773,7.186297 3.49455,9.52067 4.27016,25.769266 1.16368,24.37822 2.52583,60.84783 2.38435,63.83744 l -0.13382,2.82785 -21.54927,2.02124 c -11.85211,1.11168 -21.62375,1.90075 -21.71477,1.75348 -0.19693,-0.31864 1.80102,-34.16052 2.44896,-41.48137 1.21386,-13.71483 0.71026,-15.43482 -5.12884,-17.51694 -5.06208,-1.80504 -13.18152,-3.81715 -16.73662,-4.14756 -2.9581,-0.27493 -3.0746,-0.24629 -4.40345,1.08257 -1.91507,1.91507 -1.80685,3.76516 0.58343,9.97351 2.46507,6.4026 3.20751,9.43368 4.07945,16.65463 0.84184,6.97159 3.31131,38.26405 3.04253,38.55398 -0.10438,0.11259 -11.06734,0.64975 -24.36212,1.19367 -31.78976,1.3006 -32.98416,1.45107 -34.9153,4.39835 -0.67216,1.02585 -0.66352,1.21837 0.12471,2.78081 0.7595,1.50548 1.67287,2.10182 8.85401,5.78078 11.09161,5.68232 14.44674,6.87948 20.05572,7.1562 4.78651,0.23615 5.04592,0.19569 18.94299,-2.95414 19.17595,-4.34631 51.0999,-8.97308 61.91279,-8.97308 4.99845,0 5.98154,1.38207 8.24982,11.59792 1.76054,7.92911 2.2359,13.4905 2.19127,25.63654 -0.0616,16.76634 -0.69514,25.53092 -2.14349,29.65379 -2.37583,6.76303 -1.91492,13.73295 1.38059,20.87762 2.07556,4.49982 3.5228,6.53573 5.2522,7.38862 1.75094,0.86351 2.19179,0.87535 3.99443,0.10725 z m 112.5859,-35.17781 c 1.56028,-1.45644 2.02032,-3.98149 1.76629,-9.69478 -0.25606,-5.7589 -1.39154,-9.81365 -3.96943,-14.17462 -2.12097,-3.58801 -6.39952,-7.66668 -10.06038,-9.59041 -4.29028,-2.25448 -15.66864,-6.65671 -28.43184,-11.00014 -9.33891,-3.17811 -11.33932,-3.7064 -15.70458,-4.14746 -2.75135,-0.27799 -5.11421,-0.39369 -5.25078,-0.25711 -0.68295,0.68296 1.94142,4.78339 6.11213,9.54987 4.57103,5.22397 17.88587,18.27503 27.10608,26.56908 11.05066,9.94063 12.41018,10.79842 20.51239,12.94219 5.00218,1.32353 6.32681,1.29065 7.92012,-0.19662 z"
   id="path901"
   inkscape:connector-curvature="0" /><path
   style="fill:#ffffff;fill-opacity:1;stroke:#000000;stroke-width:0.4459216;stroke-opacity:0"
   d="m 56.313783,507.77986 c 0,-1.57674 8.226391,-52.74366 18.280478,-113.70181 3.903547,-23.66729 9.819113,-60.08794 13.145703,-80.93477 3.326589,-20.84684 6.655892,-41.61564 7.39845,-46.15289 7.962026,-48.65033 10.810166,-66.3173 17.576646,-109.02784 8.76544,-55.32807 11.72143,-73.219722 12.26489,-74.235175 0.75749,-1.415388 2.19924,-2.293278 5.18454,-3.156902 13.72238,-3.969777 102.1667,-28.344265 110.61869,-30.485551 2.49701,-0.632612 5.43202,-1.150203 6.52223,-1.150203 2.07856,0 10.05925,2.264133 60.50816,17.166272 16.06433,4.745252 35.93014,10.566159 44.14624,12.935349 8.21611,2.36919 15.54037,4.652418 16.27614,5.073842 0.73577,0.421424 1.58229,1.271919 1.88115,1.88999 0.62837,1.299521 0.54842,0.81211 7.92696,48.328538 35.28263,227.21327 57.74902,372.85923 57.74902,374.37737 0,0.26171 -71.4385,0.41975 -189.73965,0.41975 H 56.313783 Z m 192.134067,-11.30354 1.91124,-1.94743 -0.20824,-65.72119 c -0.11453,-36.14666 -0.38334,-66.51746 -0.59736,-67.49066 -0.74172,-3.37291 -4.91457,-4.83985 -7.39136,-2.59839 -2.43456,2.20325 -2.29039,-1.41405 -2.46674,61.89174 -0.0895,32.12865 0.007,62.09994 0.21532,66.60287 l 0.37806,8.18714 1.6495,1.51168 c 2.39099,2.19117 4.03977,2.0808 6.50958,-0.43576 z M 156.86911,369.33831 c 2.69782,-0.61932 8.59098,-2.23793 13.09589,-3.5969 43.15243,-13.01754 81.39753,-33.53007 115.55249,-61.97589 16.74279,-13.94416 40.2037,-35.56843 40.67707,-37.49265 0.59441,-2.41628 -1.78627,-6.30333 -7.23295,-11.80955 -6.03686,-6.10286 -12.79561,-10.08499 -17.903,-10.54811 -2.2752,-0.20631 -2.6477,-0.11497 -3.66012,0.89745 -1.48076,1.48076 -2.37714,4.79048 -2.92682,10.80673 -0.68812,7.53162 -2.31923,11.95827 -6.40916,17.39391 -3.2012,4.25446 -19.09176,19.57199 -26.40182,25.44974 -20.22539,16.26249 -39.96255,29.75229 -62.42903,42.66851 -10.28879,5.91513 -34.19825,17.81019 -48.14176,23.95072 -5.63113,2.47987 -10.34094,4.61138 -10.46624,4.73668 -0.1253,0.1253 0.0674,0.43079 0.42814,0.67887 1.10585,0.76037 10.43238,0.0767 15.81731,-1.15951 z m -12.17377,-75.77408 c 5.372,-1.89611 14.50898,-7.58847 22.65292,-14.11284 5.87231,-4.70448 16.23043,-14.79178 23.55607,-22.94016 3.08691,-3.4336 8.33281,-9.05221 11.65756,-12.4858 6.22732,-6.43119 7.95017,-9.00274 7.42729,-11.08606 -0.83801,-3.33891 -6.09938,-6.3059 -18.429,-10.39249 l -7.72789,-2.56138 -0.89666,0.89667 c -0.61653,0.61653 -1.2416,2.5607 -2.00075,6.22297 -1.44921,6.99126 -2.06917,8.79209 -5.15476,14.97316 -6.61147,13.24415 -16.17095,27.06054 -30.03528,43.41021 -7.79865,9.19664 -7.97044,10.51853 -1.0495,8.07572 z m 105.37138,-7.86454 c 1.55176,-0.93907 3.70572,-4.318 5.3886,-8.4531 1.56335,-3.84143 1.82698,-7.58309 2.40348,-34.11301 0.48718,-22.41913 0.80566,-26.31308 2.89357,-35.37922 1.38741,-6.02444 1.4649,-9.55216 0.25345,-11.53901 -0.48097,-0.78883 -2.38653,-2.48541 -4.23459,-3.77019 -1.84805,-1.28477 -3.36009,-2.47496 -3.36009,-2.64486 0,-0.552 11.08237,-0.86165 54.84835,-1.5325 44.43808,-0.68115 62.2685,-1.21633 67.3123,-2.02035 5.13221,-0.81812 7.06235,-2.76342 5.79011,-5.83558 -0.7606,-1.83666 -5.30315,-6.36987 -9.09282,-9.07412 -3.63768,-2.5958 -10.3977,-5.79423 -14.08138,-6.66245 -6.57644,-1.55003 -18.43138,-0.75278 -49.48228,3.32769 -33.46981,4.39834 -38.19294,4.95986 -44.25792,5.26168 l -6.13162,0.30514 2e-4,-20.14806 1.9e-4,-20.14806 11.92841,0.0584 c 12.66955,0.062 12.66583,0.0623 33.88989,-2.83092 8.61439,-1.1743 13.74184,-2.07754 15.10108,-2.66018 2.3764,-1.01864 4.6311,-2.53454 4.6311,-3.11361 0,-0.21958 -1.22483,-1.70859 -2.72185,-3.3089 -6.97281,-7.45396 -16.11029,-8.68683 -33.62076,-4.53625 -11.5676,2.74192 -29.52582,6.35213 -29.87255,6.00539 -0.2993,-0.2993 0.39685,-8.49856 2.28461,-26.90813 1.53285,-14.948409 1.29666,-17.433504 -1.84289,-19.390113 -1.91968,-1.196376 -12.87839,-4.741251 -17.17953,-5.557164 -5.60754,-1.063732 -7.82607,-0.943066 -9.16189,0.498315 -0.60735,0.655341 -1.21048,1.614665 -1.34028,2.13183 -0.34681,1.381786 0.53192,4.811236 2.46165,9.607236 3.10166,7.708617 3.3245,9.748072 4.702,43.032566 1.21801,29.43096 1.566,39.20211 1.56619,43.97718 l 1.9e-4,4.73608 -3.45589,0.31504 c -1.90074,0.17327 -11.58281,1.07162 -21.51572,1.99633 -9.9329,0.92471 -18.22492,1.59064 -18.42671,1.47985 -0.2018,-0.11079 -0.24597,-2.13705 -0.0982,-4.5028 0.14779,-2.36575 0.56286,-9.31798 0.92239,-15.4494 0.35952,-6.13142 0.98131,-15.49123 1.38175,-20.79957 1.09895,-14.56806 0.69484,-16.0488 -4.966,-18.19619 -3.40684,-1.29235 -13.50449,-3.84053 -16.76507,-4.23073 -2.26734,-0.27133 -2.62889,-0.19174 -3.86903,0.85177 -2.26103,1.90254 -2.21259,2.9123 0.52833,11.01386 3.27595,9.68296 3.93073,14.18068 5.83149,40.05633 0.36933,5.02777 0.78283,10.28906 0.91888,11.69178 0.23213,2.39314 0.18426,2.56349 -0.77654,2.76298 -0.56315,0.11693 -11.25782,0.63454 -23.76592,1.15024 -29.4705,1.21506 -32.84705,1.57922 -34.33458,3.70297 -0.9222,1.31663 -0.83936,2.65287 0.25035,4.03821 1.21458,1.54409 18.87824,10.31547 22.71323,11.27888 5.49339,1.38004 10.54712,1.03085 22.07312,-1.52512 22.76303,-5.04788 46.67978,-8.72102 60.73257,-9.32732 7.2342,-0.31212 7.93071,-0.0935 9.49925,2.98105 1.1653,2.28416 2.91828,9.54714 3.87498,16.0548 0.59262,4.03118 0.74319,8.08504 0.70391,18.95167 -0.0621,17.1732 -0.57702,24.12216 -2.16435,29.20787 -2.21734,7.10418 -1.50117,14.32207 2.14586,21.6272 1.83244,3.67043 3.32867,5.55582 4.97385,6.26752 1.52894,0.66141 2.49403,0.50896 4.51311,-0.71291 z M 361.0718,251.58435 c 1.74044,-1.14037 2.2627,-3.09074 2.2032,-8.22781 -0.0705,-6.08817 -0.72971,-9.18778 -2.93986,-13.82357 -1.40787,-2.95302 -2.50793,-4.48049 -4.97971,-6.91452 -4.4907,-4.4221 -8.68129,-6.47522 -25.91466,-12.69653 -14.90373,-5.3803 -19.48098,-6.65427 -26.42085,-7.3536 -2.53605,-0.25556 -2.78701,-0.20485 -2.78701,0.5632 0,2.01281 4.99686,7.87146 16.44489,19.28107 17.87054,17.81055 26.57045,25.30102 31.57693,27.18718 3.55719,1.34014 8.53379,2.62108 10.29811,2.65065 0.80572,0.0135 1.93925,-0.28622 2.51896,-0.66607 z"
   id="path903"
   inkscape:connector-curvature="0" /></svg>