<?xml version="1.0" encoding="UTF-8" standalone="no"?>
<!-- Generator: Adobe Illustrator 22.0.1, SVG Export Plug-In . SVG Version: 6.00 Build 0)  -->

<svg
   xmlns:dc="http://purl.org/dc/elements/1.1/"
   xmlns:cc="http://creativecommons.org/ns#"
   xmlns:rdf="http://www.w3.org/1999/02/22-rdf-syntax-ns#"
   xmlns:svg="http://www.w3.org/2000/svg"
   xmlns="http://www.w3.org/2000/svg"
   xmlns:sodipodi="http://sodipodi.sourceforge.net/DTD/sodipodi-0.dtd"
   xmlns:inkscape="http://www.inkscape.org/namespaces/inkscape"
   version="1.1"
   id="Слой_1"
   x="0px"
   y="0px"
   viewBox="0 0 491.55033 560.15184"
   xml:space="preserve"
   sodipodi:docname="BGI.svg"
   width="491.55032"
   height="560.15186"
   inkscape:version="0.92.3 (2405546, 2018-03-11)"><metadata
   id="metadata25"><rdf:RDF><cc:Work
       rdf:about=""><dc:format>image/svg+xml</dc:format><dc:type
         rdf:resource="http://purl.org/dc/dcmitype/StillImage" /><dc:title /></cc:Work></rdf:RDF></metadata><defs
   id="defs23" /><sodipodi:namedview
   pagecolor="#ffffff"
   bordercolor="#666666"
   borderopacity="1"
   objecttolerance="10"
   gridtolerance="10"
   guidetolerance="10"
   inkscape:pageopacity="0"
   inkscape:pageshadow="2"
   inkscape:window-width="1920"
   inkscape:window-height="1039"
   id="namedview21"
   showgrid="false"
   fit-margin-top="43"
   fit-margin-left="48"
   fit-margin-right="48"
   fit-margin-bottom="43"
   inkscape:zoom="4.4850932"
   inkscape:cx="199.46497"
   inkscape:cy="120.54825"
   inkscape:window-x="0"
   inkscape:window-y="0"
   inkscape:window-maximized="1"
   inkscape:current-layer="Слой_1"
   showguides="true"
   inkscape:guide-bbox="true"><sodipodi:guide
     position="246.57571,264.23329"
     orientation="1,0"
     id="guide827"
     inkscape:locked="false" /></sodipodi:namedview>
<path
   style="fill:#ffffff;stroke:#000000;stroke-width:1px;stroke-linecap:butt;stroke-linejoin:miter;stroke-opacity:1"
   d="m 51.350322,517.15187 392.199998,-0.1 L 372.70139,80.243638 249.09822,44.297819 121.08065,80.243638 Z"
   id="path862"
   inkscape:connector-curvature="0" /><g
   id="g18"
   transform="translate(-53.649678,-142.74813)">
	<g
   id="g16">
		<path
   d="m 105,659.9 c -3.4,-1.8 -3.8,-4.2 -3,-8.1 2.7,-12.7 4.7,-25.4 6.9,-38.2 2.3,-13.4 4.3,-26.9 6.5,-40.3 5.1,-31.6 10.3,-63.2 15.4,-94.8 4.7,-28.8 9.3,-57.6 13.9,-86.5 5,-31.1 10.1,-62.2 15.1,-93.4 3.8,-24 7.6,-48.1 11.2,-72.2 0.8,-5.1 3.3,-7.3 8,-8.6 28,-7.5 55.9,-15.3 83.9,-22.9 10.4,-2.8 20.7,-6 31.2,-8.4 4.2,-0.9 9,-1.1 13.1,0 38.8,11.2 77.5,22.9 116.3,34.1 4.7,1.4 6.9,3.7 7.6,8.4 2.2,14.8 4.7,29.5 7,44.2 3.8,24.5 7.4,48.9 11.2,73.4 3.5,22.9 7.3,45.8 10.9,68.7 4.7,30 9.3,60 14,90 5,32 10,63.9 14.9,95.9 2.6,16.9 4.9,33.8 7.3,50.8 0.1,0.6 0.5,1.2 0.8,1.8 0,2 0,4 0,6 -130.9,0.1 -261.5,0.1 -392.2,0.1 z m 384.1,-7.3 c -0.2,-1.7 -0.2,-3.2 -0.4,-4.6 -1.6,-10.8 -3.2,-21.6 -4.9,-32.4 -5.1,-32.8 -10.2,-65.6 -15.4,-98.3 -2,-12.8 -4.4,-25.5 -6.3,-38.3 -3,-19.3 -5.7,-38.7 -8.6,-58.1 -4.5,-29.5 -9,-59 -13.6,-88.5 -5.2,-33.6 -10.5,-67.2 -15.9,-100.8 -0.3,-1.6 -2.1,-3.8 -3.7,-4.3 -9,-2.8 -18.1,-5.1 -27.2,-7.8 -29.7,-8.8 -59.3,-17.7 -89.1,-26.4 -2.2,-0.6 -4.9,-0.6 -7.2,0 -14.4,3.8 -28.7,7.9 -43.1,11.9 -24,6.6 -47.9,13.1 -71.9,19.8 -1.4,0.4 -3.3,1.9 -3.6,3.2 -2.5,14.4 -4.8,28.8 -7.1,43.2 -4.4,28.2 -8.8,56.4 -13.3,84.6 -2.8,17.3 -5.9,34.6 -8.7,52 -4.5,28 -8.8,56.1 -13.3,84.1 -3.5,21.8 -7.2,43.5 -10.8,65.3 -4,24.4 -8,48.8 -11.9,73.2 -1.2,7.3 -2.2,14.7 -3.4,22.4 126.6,-0.2 252.9,-0.2 379.4,-0.2 z"
   id="path2"
   inkscape:connector-curvature="0" />
		<path
   d="m 254,267.3 c -10.9,18 -21.8,35.8 -33.4,54.8 12.8,-3.4 25.3,-6 37.3,-10.1 7.4,-2.5 13.1,-0.1 18.8,3.3 3.5,2.1 3,5.1 -1.1,6.4 -8.1,2.5 -16.3,4.6 -24.9,6.9 9.9,5.9 0.6,14.6 3.1,22.3 3.9,-1.1 7.8,-1.9 11.5,-3.3 7.8,-2.9 14,0.7 20.1,4.6 3.3,2.1 2.4,5.3 -1.7,6.3 -7.9,2 -15.9,3.6 -23.8,5.4 -2.1,0.5 -4.2,0.8 -7,1.4 0,17.8 0,35.6 0,53.7 0.7,-0.2 2,-0.2 3.1,-0.7 7.5,-2.8 14.9,-5.8 22.5,-8.3 3.2,-1 6.9,-1.4 10.2,-1.1 3.8,0.4 4.9,3.9 2.1,6.5 -2,1.9 -4.7,3.2 -7.2,4.2 -19.5,7.8 -39.1,15.2 -58.4,23.2 -7.7,3.2 -15,7.2 -22.2,11.3 -3.8,2.1 -7.4,2.8 -10.7,0.2 -5.3,-4 -10.2,-8.4 -15,-13 -1.3,-1.3 -1.3,-3.8 -1.9,-5.8 2,-0.5 4,-1.5 5.9,-1.6 8.1,-0.2 16.4,0.9 24.2,-0.5 10.1,-1.8 19.9,-5.4 29.7,-8.5 1,-0.3 2.2,-2.1 2.1,-3.1 -0.5,-17.8 -1.1,-35.6 -1.7,-54.1 -2.9,0.2 -5.5,0.6 -8.1,0.6 -7,0 -13.9,-0.1 -20.9,-0.4 -1.6,-0.1 -3.4,-0.7 -4.6,-1.7 -1.5,-1.3 -2.6,-3.2 -3.8,-4.9 1.8,-0.6 3.5,-1.6 5.3,-1.9 10.4,-1.6 20.7,-2.9 31.9,-4.5 -0.5,-5.6 -0.5,-10.8 -1.6,-15.7 -1.5,-6.7 -3.9,-6.8 -10.6,-8.6 -8.7,-2.4 -12.7,2.4 -18.2,7.3 -10.7,9.5 -22.2,17.9 -33.8,26.3 -2.8,2 -6.8,2.4 -10.3,3.5 -0.3,-0.6 -0.6,-1.2 -0.9,-1.8 1,-1.1 2,-2.3 3.1,-3.4 30.6,-28.4 54.4,-61.6 70.7,-99.9 3,-7 3.4,-15.2 4.2,-22.9 0.8,-7.9 3,-9.6 10.1,-6.2 1,0.5 2.1,1 3.1,1.7 11.7,8 12.5,11.2 6.3,24.5 3.7,1.3 7.5,2.4 11,4 5.9,2.7 11.9,5.3 17.3,8.7 6.8,4.3 8.5,12.1 5.1,19.4 -1.8,3.8 -5.2,5.3 -8.5,2.8 -4.9,-3.7 -9.4,-7.9 -13.7,-12.2 -4.6,-4.6 -8.8,-9.5 -13.2,-14.3 -0.7,-0.4 -1.3,-0.7 -1.5,-0.8 z"
   id="path4"
   inkscape:connector-curvature="0" />
		<path
   d="m 315.8,341 c -0.9,20.5 -1.8,40.9 -2.7,61.4 -0.4,10 -0.7,20 -1,30 -0.2,6.9 0.6,7.4 7.2,4.5 9.7,-4.3 19.4,-8.7 29.2,-13.1 1.9,-0.8 3.9,-1.3 5.8,-2 0.3,0.4 0.7,0.7 1,1.1 -0.9,1.5 -1.6,3.3 -2.8,4.5 -14.3,13.3 -28.6,26.5 -42.9,39.7 -3.7,3.4 -7.1,1.9 -9.5,-1.1 -5.1,-6.5 -7.8,-13.3 -4.9,-22.2 2.6,-7.9 3.9,-16.5 4.4,-24.9 2.1,-42.9 4.2,-85.9 1.4,-128.9 -0.6,-9.4 -1.7,-18.5 -5.5,-27.2 -2.5,-5.6 0.7,-9.7 5.8,-7.5 13.4,5.8 26.2,1.7 39,-1.3 9.2,-2.1 18.1,-5.6 27.1,-8.6 4.7,-1.6 8.9,-1.8 13.3,1.1 5.2,3.5 10.8,6.5 15.9,10.1 2.8,2 4.2,5.2 2.2,8.4 -7.1,11.1 -8.3,24.1 -11.6,36.4 -2.8,10.4 -5.1,21 -7.9,31.4 -0.7,2.6 -2,5.4 -3.7,7.4 -3.7,4.2 -8.2,3.5 -11.5,-1 -0.9,-1.3 -3.1,-2.4 -4.6,-2.3 -10.4,0.9 -20.9,2.3 -31.3,3.4 -3.9,0.3 -7.7,0.5 -12.4,0.7 z m 54.7,-46.6 c 0.6,-10.9 1.2,-20.4 1.5,-30 0.1,-4 -2.4,-5.6 -6.3,-4.9 -15.3,2.7 -30.6,5.4 -46.7,8.3 0,9.3 0,18.7 0,28.7 6.2,-1.1 12.4,-2 18.6,-3.2 10.6,-2.2 21.1,-5.8 32.9,1.1 z M 317.8,306 c -0.3,7.9 -0.7,16.2 -1.1,25.5 9.1,-1.5 17.2,-3 25.4,-4.2 7.1,-1.1 14.1,-4.2 22.1,-0.5 1.7,-9.1 3.4,-17.8 5,-26.5 -17.3,1.9 -34,3.7 -51.4,5.7 z"
   id="path6"
   inkscape:connector-curvature="0" />
		<path
   d="m 357.7,383.8 c 11.4,-9.6 19.3,-20.4 25.1,-32.8 2.8,-6 4.3,-6.6 9.7,-3 3.7,2.4 7.4,5.2 10.4,8.4 4.8,5.1 3.5,8.9 -2.8,11.9 -12.8,6 -25.4,12.3 -38.7,18.7 1.4,1.6 2.2,2.7 3.2,3.8 21.1,21.9 47.3,34.6 76.4,42 2.3,0.6 4.6,1 6.7,1.9 1.6,0.7 2.9,2.2 4.4,3.4 -1.3,1.1 -2.4,2.9 -3.9,3.3 -9.8,2.7 -19.6,5.2 -29.4,7.5 -14,3.3 -24.6,-1.9 -33.1,-13 -13.3,-17.3 -26.7,-34.5 -40.6,-51.4 -5.5,-6.7 -12.6,-12.1 -18.8,-18.3 -1.5,-1.5 -2.3,-3.7 -3.4,-5.6 2.1,-0.9 4.6,-3 6.3,-2.5 3.9,1 8.1,2.6 10.9,5.3 5.7,5.4 10.5,11.6 15.6,17.5 0.8,0.8 1.2,1.7 2,2.9 z"
   id="path8"
   inkscape:connector-curvature="0" />
		
		<path
   d="m 228.1,407.1 c -1.5,4.6 -1.9,8.8 -6.4,10.5 -4.6,1.7 -7.8,-0.7 -10.1,-4.3 -4.6,-7.1 -9,-14.4 -13.2,-21.7 -1.9,-3.3 -0.2,-5.7 3.3,-4.5 6.9,2.2 14.1,4.5 20,8.4 3.3,2.1 4.4,7.6 6.4,11.6 z"
   id="path12"
   inkscape:connector-curvature="0" />
		<path
   d="m 256.8,410 c 0.9,-1.5 2.1,-2.8 2.7,-4.4 3.8,-9.3 7.7,-18.6 11,-28.2 1.4,-4 3,-4.5 5.9,-2.4 3.8,2.7 7.7,5.3 10.8,8.7 3.8,4 2.7,7.5 -2,10.4 -7.2,4.5 -14.1,9.4 -21.2,13.9 -1.9,1.3 -4.1,2.1 -6.2,3.1 -0.4,-0.3 -0.7,-0.7 -1,-1.1 z"
   id="path14"
   inkscape:connector-curvature="0" />
	</g>
</g>
<path
   inkscape:connector-curvature="0"
   style="display:block;fill-rule:evenodd;stroke-width:11.73205185"
   d="m 240.7097,339.57626 5.86601,-10.55887 7.03924,10.55887 v 68.04589 l 59.83346,-61.00664 12.90525,-3.51963 -4.69283,12.90525 -65.69948,66.8727 65.69948,65.69948 3.51962,12.90525 -12.90525,-3.51961 -65.69949,-66.87271 -65.69949,66.87271 -12.90525,3.51961 3.51963,-12.90525 65.69948,-65.69948 -65.69948,-66.8727 -3.51963,-12.90525 11.73205,3.51963 61.00668,61.00664 z"
   class="g3_7"
   id="path84" /></svg>