<?xml version="1.0" encoding="UTF-8" standalone="no"?>
<!-- Generator: Adobe Illustrator 22.0.1, SVG Export Plug-In . SVG Version: 6.00 Build 0)  -->

<svg
   xmlns:dc="http://purl.org/dc/elements/1.1/"
   xmlns:cc="http://creativecommons.org/ns#"
   xmlns:rdf="http://www.w3.org/1999/02/22-rdf-syntax-ns#"
   xmlns:svg="http://www.w3.org/2000/svg"
   xmlns="http://www.w3.org/2000/svg"
   xmlns:sodipodi="http://sodipodi.sourceforge.net/DTD/sodipodi-0.dtd"
   xmlns:inkscape="http://www.inkscape.org/namespaces/inkscape"
   version="1.1"
   id="Слой_1"
   x="0px"
   y="0px"
   viewBox="0 0 491.08393 560.19664"
   xml:space="preserve"
   sodipodi:docname="BHI.svg"
   width="491.08392"
   height="560.19666"
   inkscape:version="0.92.3 (2405546, 2018-03-11)"><metadata
   id="metadata19"><rdf:RDF><cc:Work
       rdf:about=""><dc:format>image/svg+xml</dc:format><dc:type
         rdf:resource="http://purl.org/dc/dcmitype/StillImage" /><dc:title /></cc:Work></rdf:RDF></metadata><defs
   id="defs17" /><sodipodi:namedview
   pagecolor="#ffffff"
   bordercolor="#666666"
   borderopacity="1"
   objecttolerance="10"
   gridtolerance="10"
   guidetolerance="10"
   inkscape:pageopacity="0"
   inkscape:pageshadow="2"
   inkscape:window-width="1920"
   inkscape:window-height="1039"
   id="namedview15"
   showgrid="false"
   fit-margin-top="43"
   fit-margin-left="48"
   fit-margin-right="48"
   fit-margin-bottom="43"
   inkscape:zoom="3.1714398"
   inkscape:cx="254.91318"
   inkscape:cy="72.412824"
   inkscape:window-x="0"
   inkscape:window-y="0"
   inkscape:window-maximized="1"
   inkscape:current-layer="Слой_1" />
<path
   style="fill:#ffffff;stroke:#000000;stroke-width:1px;stroke-linecap:butt;stroke-linejoin:miter;stroke-opacity:1"
   d="M 122.97254,80.603752 51.396215,512.2689 440.17863,512.58421 373.33202,83.756894 246.57571,45.603875 Z"
   id="path817"
   inkscape:connector-curvature="0" /><g
   id="g12"
   transform="translate(-52.423078,-141.60334)">
	<g
   id="g10">
		<path
   d="m 298.6,658.8 c -63,0 -126,0 -189,0 -2,0 -4,-0.1 -5.9,-0.6 -2.8,-0.7 -3.7,-2.4 -3.1,-5.6 4.9,-28.8 9.6,-57.6 14.4,-86.4 2.4,-14.9 4.8,-29.8 7.3,-44.7 2.9,-17.5 5.8,-35 8.6,-52.5 4.2,-25.5 8.3,-51.1 12.5,-76.7 5.1,-31.6 10.3,-63.2 15.4,-94.8 3.9,-24 7.6,-48.1 11.2,-72.2 0.7,-4.8 3.2,-7.1 7.7,-8.3 27,-7.3 54,-14.7 81,-22.1 12.3,-3.4 24.5,-6.9 36.9,-9.9 3.3,-0.8 7.3,-0.3 10.6,0.7 21.7,6.2 43.2,12.7 64.8,19.1 17.2,5.1 34.3,10.3 51.5,15 4.9,1.3 6.6,4.2 7.3,8.6 4.6,29.7 9.3,59.3 14,89 4.7,30 9.4,60 14,90 5,32.3 10,64.6 15,96.9 4.8,31 9.5,62 14.2,93 2.8,18.2 5.5,36.4 8.2,54.6 0.9,6 0.1,6.8 -6.2,6.8 -63.4,0.1 -126.9,0.1 -190.4,0.1 z m 189.2,-7.1 c 0,-1.3 0.1,-2.5 0,-3.6 -1.7,-11.5 -3.4,-22.9 -5.2,-34.4 -4.9,-32 -9.9,-63.9 -14.9,-95.9 -5,-32.3 -10,-64.6 -15.1,-96.9 -4.7,-30 -9.3,-60 -13.9,-90 -5.2,-33.3 -10.5,-66.6 -15.5,-99.9 -0.5,-3 -1.6,-4.3 -4.3,-5 -8.9,-2.4 -17.9,-4.9 -26.8,-7.5 -29.7,-8.8 -59.3,-17.7 -89.1,-26.4 -2.2,-0.6 -4.9,-0.6 -7.2,0 -14.6,3.9 -29.1,8 -43.6,12 -23.8,6.6 -47.6,13 -71.4,19.7 -1.5,0.4 -3.4,2.2 -3.7,3.6 -3.2,18.6 -6.2,37.3 -9.2,56 -3.8,23.8 -7.4,47.6 -11.2,71.3 -2.5,15.4 -5.3,30.7 -7.8,46.1 -4.8,30 -9.4,60 -14.2,90 -3.5,21.9 -7.3,43.8 -10.9,65.8 -4,24.2 -7.9,48.5 -11.8,72.7 -1.2,7.4 -2.2,14.9 -3.4,22.5 127,-0.1 253,-0.1 379.2,-0.1 z"
   id="path2"
   inkscape:connector-curvature="0" />
		<path
   d="m 225.6,300.7 c 4,2.3 7.2,3.8 10.1,5.7 3.6,2.4 4.7,5.4 2.4,9.8 -3.4,6.6 -4.6,13.8 -3.8,22 9.8,-2.1 19.4,-4.1 28.9,-6.2 0.9,-0.2 2,-1.8 2,-2.7 -0.3,-19.3 -0.5,-38.6 -1.3,-57.9 -0.2,-3.9 -2.3,-7.9 -4.1,-11.6 -2.7,-5.2 -1.7,-7.5 4.3,-7.5 7.4,0 14,2.8 19.9,7.2 3.2,2.4 3.7,5.6 2.5,9.4 -6,19.1 -4.6,38.8 -6.1,59.2 3.9,-0.9 7.3,-1.5 10.5,-2.3 5,-1.2 10.2,-2 14.9,-4 9.3,-4 16.7,-0.6 23.9,4.9 5.1,4 5.7,6.7 2.5,12.4 -5.5,9.7 -9.4,25.5 -8.8,35.8 4.9,1.6 9.8,3.3 15.2,5.1 6.7,-11.3 14.2,-22 16.3,-35.2 0.5,-3 2.3,-4.6 4.7,-3.6 6,2.6 12,5.5 17.6,8.9 3.1,1.9 3,4.5 -0.7,6.9 -5,3.2 -9.5,7.3 -14.3,10.9 -6.1,4.5 -12.4,8.9 -18.9,13.5 5.7,2.1 11.3,4 16.6,6.4 6.5,2.9 13,5.9 19.1,9.6 5.5,3.4 4.3,15.8 -1.5,18.8 -3.7,1.9 -6.6,0.4 -9.6,-1.9 -13.3,-10 -26.7,-19.9 -40,-29.9 -1.3,-1 -2.7,-1.7 -4.7,-2.9 0,15.9 4.9,29.5 14.5,41.1 14.4,17.5 33.3,26.1 55.9,26.6 8.2,0.2 13.9,-3.6 16.5,-11.9 2.7,-8.7 4.2,-17.8 6.1,-26.7 0.6,-2.6 1,-5.3 1.5,-8 0.5,0 1,0 1.5,-0.1 0.7,2.8 1.5,5.5 2.1,8.3 2.2,9.6 4.1,19.2 6.5,28.7 1,4 2.8,7.8 4.6,11.5 3.6,7.9 1.5,16 -6.5,19.3 -5.7,2.4 -12.2,3.8 -18.3,4 -39.3,1 -69.8,-14.9 -89.5,-49.4 -9,-15.8 -11.2,-33.7 -11.6,-51.6 -0.2,-9.1 1.3,-18.2 2.4,-27.3 0.8,-6.8 -0.9,-8.9 -7.5,-7.8 -6.9,1.1 -13.7,2.4 -21.2,3.7 0,11.4 -0.1,22.5 0,33.7 0.3,21.3 0.8,42.6 1.1,64 0.1,9 -1.7,17.6 -6.9,25.1 -4.4,6.5 -7.5,6.4 -10.9,-0.7 -5.1,-10.5 -7.4,-21 -4.1,-33.2 3,-10.9 3.6,-22.7 4.3,-34.1 1,-16.3 1.1,-32.6 1.5,-49 0,-0.8 -0.2,-1.6 -0.3,-2.8 -10.4,2.1 -20.7,4.1 -30.9,6.1 -0.6,8.6 -0.7,16.9 -1.7,25.2 -2.3,19.6 -7.5,38.2 -20.1,54 -10.9,13.6 -25.6,21.5 -41.6,27.4 -1.5,0.5 -3.2,0.3 -5.2,-0.1 15.7,-12.8 31.6,-25.2 40.1,-44.2 8.2,-18.5 12.6,-37.8 11.9,-59.1 -5.7,1.2 -11.2,2.1 -16.5,3.6 -10,3 -19.1,1.6 -27.3,-4.9 -1.6,-1.3 -2.3,-3.7 -3.5,-5.6 1.8,-0.6 3.5,-1.6 5.3,-1.8 13.8,-1.6 27.7,-3.1 41.4,-4.6 1.5,-9.2 -0.6,-25.8 -4.2,-32.9 -10.3,4.3 -20.9,8 -32.1,9 -0.2,-0.5 -0.4,-1.1 -0.6,-1.6 1.5,-0.9 2.9,-1.8 4.4,-2.7 9.5,-6.2 19.2,-12.1 28.4,-18.6 6.4,-4.5 11.3,-10.3 12.6,-18.5 0.2,-1.3 3,-3.3 4.3,-3.1 7.3,1.3 14,4.1 19,10.1 2.5,3 2.2,5.1 -1.6,6.9 -7.2,3.4 -13.8,7.2 -21.4,11.2 z"
   id="path4"
   inkscape:connector-curvature="0" />
		<path
   d="m 328.6,259.6 c 0.6,0.4 0.9,0.6 1.2,0.7 13.5,4.6 13.8,4.8 21.6,-7.4 3.5,-5.5 5.6,-11.9 8.6,-17.7 0.7,-1.3 2.7,-2.9 3.9,-2.7 7.4,1.1 14.1,4 19.1,9.8 1.5,1.7 1.9,3.3 -0.7,4.8 -11.1,6.1 -22,12.3 -33.5,18.8 2.5,0.9 4.9,1.6 7.3,2.5 4.7,1.8 9.4,3.4 13.9,5.4 8,3.6 9.4,7.3 6.1,15.4 -2.3,5.7 -7,7 -11.9,3.2 -10.6,-8.1 -21.1,-16.3 -31.6,-24.4 -1.3,-1 -2.7,-1.8 -4.1,-2.7 -3.2,12.4 3.3,28.7 14.2,36.3 10.4,7.3 22.1,10.8 34.8,10.2 8,-0.4 14.8,-3.7 17.9,-11.5 3,-7.7 4.9,-15.8 7.3,-23.8 0.4,-1.3 0.7,-2.7 1.1,-4 0.5,0 0.9,-0.1 1.4,-0.1 0.6,1.7 1.5,3.4 1.9,5.1 1.1,5.4 1.5,10.9 3.1,16.2 1.7,6 4,11.9 6.7,17.5 2.6,5.6 2.4,8.8 -2.4,12.7 -5.8,4.6 -12.6,6.7 -19.8,7.5 -17.1,1.8 -33.5,-0.1 -49.2,-7.5 -21.1,-10.1 -29.7,-28 -30.3,-50.1 -0.3,-11.6 1.4,-23.2 2.3,-34.8 0.1,-1.3 0.4,-2.6 0.5,-4 0.7,-10.6 -0.5,-11.8 -11,-9.6 -21.8,4.5 -43.6,9.4 -65.3,14.1 -8.2,1.8 -15.6,-0.1 -21.8,-5.6 -1.2,-1.1 -1.7,-3 -2.5,-4.6 1.5,-0.7 2.9,-1.7 4.4,-1.9 12.4,-1.6 24.9,-2.4 37.1,-4.7 18.1,-3.4 36.1,-7.4 54,-12 8.2,-2.1 15.6,-2.5 23.3,1 7.2,3.2 8.6,6.3 4.9,13.2 -5.7,10.5 -10.1,21.3 -12.1,33.1 -0.4,0.4 -0.4,0.9 -0.4,1.6 z"
   id="path6"
   inkscape:connector-curvature="0" />
		<path
   d="m 311.3,500.8 c -5.2,0 -9.2,0 -13.6,0 0,17.6 0,34.7 0,52.2 17.3,0 34.5,0 52.2,0 0,-4 0,-8.1 0,-13.5 10.9,5.9 20.9,11.3 32,17.2 -10.7,6 -20.7,11.7 -31.5,17.7 0,-4.8 0,-8.8 0,-13.2 -17.8,0 -35,0 -52.6,0 0,17 0,34.1 0,51.7 4.2,0 8.3,0 13.5,0 -5.8,10.9 -11.2,20.9 -17.1,31.9 -6,-10.7 -11.7,-20.8 -17.7,-31.6 4.9,0 8.9,0 13.2,0 0,-17.6 0,-34.7 0,-52 -17.2,0 -34.2,0 -51.8,0 0,4.2 0,8.2 0,13.4 -10.9,-6.1 -20.9,-11.8 -31.8,-17.8 10.8,-5.8 20.8,-11.2 31.6,-17 0,5.1 0,9.1 0,13.5 17.6,0 34.6,0 52,0 0,-17.5 0,-34.7 0,-52.4 -4.3,0 -8.3,0 -13.3,0 6.1,-10.9 11.7,-20.9 17.8,-31.7 5.9,10.7 11.2,20.7 17.1,31.6 z"
   id="path8"
   inkscape:connector-curvature="0" />
	</g>
</g>
</svg>