<?xml version="1.0" encoding="UTF-8" standalone="no"?>
<!-- Generator: Adobe Illustrator 22.0.1, SVG Export Plug-In . SVG Version: 6.00 Build 0)  -->

<svg
   xmlns:dc="http://purl.org/dc/elements/1.1/"
   xmlns:cc="http://creativecommons.org/ns#"
   xmlns:rdf="http://www.w3.org/1999/02/22-rdf-syntax-ns#"
   xmlns:svg="http://www.w3.org/2000/svg"
   xmlns="http://www.w3.org/2000/svg"
   xmlns:sodipodi="http://sodipodi.sourceforge.net/DTD/sodipodi-0.dtd"
   xmlns:inkscape="http://www.inkscape.org/namespaces/inkscape"
   version="1.1"
   id="Слой_1"
   x="0px"
   y="0px"
   viewBox="0 0 490.35102 560.08183"
   xml:space="preserve"
   sodipodi:docname="BKA.svg"
   width="490.35101"
   height="560.08185"
   inkscape:version="0.92.3 (2405546, 2018-03-11)"><metadata
   id="metadata17"><rdf:RDF><cc:Work
       rdf:about=""><dc:format>image/svg+xml</dc:format><dc:type
         rdf:resource="http://purl.org/dc/dcmitype/StillImage" /><dc:title /></cc:Work></rdf:RDF></metadata><defs
   id="defs15" /><sodipodi:namedview
   pagecolor="#ffffff"
   bordercolor="#666666"
   borderopacity="1"
   objecttolerance="10"
   gridtolerance="10"
   guidetolerance="10"
   inkscape:pageopacity="0"
   inkscape:pageshadow="2"
   inkscape:window-width="1920"
   inkscape:window-height="1039"
   id="namedview13"
   showgrid="false"
   fit-margin-top="43"
   fit-margin-left="48"
   fit-margin-right="48"
   fit-margin-bottom="43"
   inkscape:zoom="1.5857199"
   inkscape:cx="106.02154"
   inkscape:cy="231.49794"
   inkscape:window-x="0"
   inkscape:window-y="0"
   inkscape:window-maximized="1"
   inkscape:current-layer="Слой_1"
   showguides="true"
   inkscape:guide-bbox="true"><sodipodi:guide
     position="246.14873,469.55544"
     orientation="1,0"
     id="guide823"
     inkscape:locked="false" /></sodipodi:namedview>
<path
   style="fill:#ffffff;stroke:#000000;stroke-width:1px;stroke-linecap:butt;stroke-linejoin:miter;stroke-opacity:1"
   d="M 121.29068,81.162025 51.726908,512.81416 H 439.67872 L 371.00679,82.49979 245.70281,45.042374 Z"
   id="path819"
   inkscape:connector-curvature="0" /><g
   id="g10"
   transform="translate(-51,-142.81818)">
	<g
   id="g8">
		<path
   d="m 99,650.9 c 2,-10.4 4.1,-20.7 5.8,-31.1 2.6,-15.5 5,-31.1 7.5,-46.7 5.1,-31.6 10.3,-63.2 15.4,-94.8 4.6,-28.3 9,-56.7 13.6,-85 5.1,-31.6 10.3,-63.2 15.4,-94.8 3.9,-24 7.6,-48.1 11.2,-72.2 0.7,-4.8 3.2,-7.1 7.7,-8.3 27,-7.3 54,-14.7 81,-22.1 11.5,-3.2 22.9,-6.7 34.5,-9.4 4.1,-1 9,-0.9 13.1,0.3 21.7,6.1 43.2,12.7 64.9,19.1 17,5 33.9,10.2 51,14.9 5,1.4 7.1,4 7.8,8.7 4.6,29.7 9.3,59.3 14,89 4.7,30 9.4,60 14,90 5,32.3 10,64.6 15,96.9 4.8,31 9.5,62 14.2,93 2.8,18.4 5.6,36.7 8.2,55.1 0.3,2 -0.8,4.3 -1.3,6.4 -131,0 -262,0 -393,0 0,-3 0,-6 0,-9 z m 7.8,1.7 c 126.6,0 252.8,0 379.4,0 -1.9,-13.1 -3.7,-25.8 -5.7,-38.6 -4.9,-31.6 -9.8,-63.3 -14.7,-94.9 -5,-32.5 -10.1,-64.9 -15.1,-97.4 -4.7,-30 -9.3,-60 -13.9,-90 -5.2,-33.3 -10.5,-66.6 -15.5,-99.9 -0.5,-3.1 -1.8,-4.2 -4.5,-4.9 -9.2,-2.6 -18.5,-5.2 -27.7,-7.9 -29.7,-8.8 -59.4,-17.6 -89.1,-26.3 -1.8,-0.5 -3.9,-0.3 -5.7,0.2 -14.6,3.9 -29.1,8 -43.6,12 -24,6.6 -47.9,13.1 -71.8,19.8 -1.4,0.4 -3.3,1.9 -3.5,3.2 -2.5,14.4 -4.8,28.8 -7.1,43.2 -4.5,28.2 -8.8,56.4 -13.3,84.6 -3.1,19.5 -6.6,38.9 -9.7,58.4 -4.1,25.7 -8.1,51.5 -12.2,77.2 -3.5,21.6 -7.2,43.2 -10.8,64.8 -4.1,24.7 -8,49.5 -12,74.2 -1.3,7.3 -2.4,14.7 -3.5,22.3 z"
   id="path2"
   inkscape:connector-curvature="0" />
		<path
   d="m 214.9,296 c 1.2,-1.4 2.4,-2.7 3.6,-4 16.6,-18.7 32.3,-38.2 42.6,-61.2 1.8,-4.1 2.3,-8.9 2.8,-13.5 0.4,-3.5 2.1,-5.1 5.2,-4.2 6.3,2 12.8,3.8 18.6,7 7,3.8 6.6,8.7 1,14.3 -7.1,7.1 -13.5,14.9 -20.2,22.4 0.3,0.6 0.7,1.1 1,1.7 8.5,-2.1 17.1,-3.7 25.3,-6.4 10.7,-3.6 21.1,-8.1 31.6,-12.3 8.6,-3.4 22.6,-0.3 29,6.3 3.3,3.4 3.4,6.9 -0.6,9.8 -18.5,13.4 -30.5,32.9 -46.1,49 -0.3,0.3 -0.4,0.9 -0.8,2.1 15.9,-3.4 31.4,-6.5 46.8,-10 5.1,-1.2 9.5,-0.9 13.7,2.1 5.1,3.7 10.4,7.1 15.4,11.1 3.2,2.5 4.1,6.1 2,9.9 -4.5,8.3 -5.7,17.4 -5.7,26.6 0.1,31 0.7,62 1,92.9 0.1,12 1.1,24.2 -3.3,35.6 -2.6,6.8 -6.7,13.3 -11.2,19.1 -3.9,5 -7.3,4.3 -11.7,-0.3 -10.4,-11 -21,-21.9 -31.4,-32.9 -0.9,-1 -1.6,-2.2 -3.2,-4.6 3.2,0.4 4.9,0.4 6.6,0.8 6.8,1.6 13.5,3.5 20.3,5.1 5.7,1.3 9.3,-0.4 9.9,-6 1.7,-15.3 2.7,-30.7 4,-47.6 -14.6,0 -27.8,-0.8 -40.8,0.2 -21,1.6 -42,4.1 -63,6.9 -6.2,0.8 -12,3 -17.7,-2 -2,8.1 -3.7,15.4 -5.7,22.7 -3.8,13.7 -8.5,27.1 -16.8,38.8 -4.9,6.8 -11.1,12.7 -17,18.8 -1.3,1.4 -3.7,1.6 -5.7,2.4 -0.3,-0.5 -0.6,-0.9 -0.9,-1.4 0.9,-1.9 1.7,-3.8 2.7,-5.7 15.8,-28.6 24.2,-59.4 26.5,-91.8 1.3,-18.7 1.9,-37.6 1.9,-56.4 0,-6 -3.1,-12 -4.8,-18 -0.5,-1.6 -1.3,-3.1 -1.6,-4.7 -1,-4.8 1.1,-7.8 5.6,-6.7 21.1,5.1 41.6,-1.3 62.4,-2.3 3.8,-0.2 6.4,-1.5 8.4,-5.1 7.5,-13.4 15.3,-26.5 22.9,-39.8 0.8,-1.4 0.6,-3.3 0.8,-5 -1.6,0 -3.2,-0.2 -4.7,0.2 -13.6,3.1 -27.2,6.3 -40.8,9.3 -2.6,0.6 -5.5,0.9 -7.9,0.3 -5.6,-1.4 -9,1.4 -13.1,4.8 -9.2,7.6 -19,14.5 -28.6,21.5 -2.3,1.7 -5.1,3.5 -8.3,0.2 z m 92.4,59.3 c 10,-1.5 18.8,-2.5 27.4,-4.2 7.7,-1.5 15.2,-2 22.3,2 0.7,0.4 1.5,0.5 3.1,1 -0.5,-11.2 -0.9,-21.7 -1.6,-32.3 -0.3,-4.9 -3.8,-6.3 -8.1,-6 -10.5,0.5 -21,1.1 -31.4,1.8 -4.3,0.3 -8.7,1 -14.3,1.6 5.7,3.4 5.5,7.2 4.8,11.9 -1.3,7.6 -1.5,15.4 -2.2,24.2 z m 0,41.3 c 5.5,-0.5 10.7,-1.1 16,-1.3 12.3,-0.4 24.9,-6.6 36.8,2.9 0,-12.6 0,-24.2 0,-35.6 -17.8,2 -35,3.9 -52.7,5.8 -0.1,9.4 -0.1,18.5 -0.1,28.2 z m -17.5,-39.5 c -0.5,-8.8 -0.7,-16.9 -1.6,-25 -0.3,-2.8 -1.9,-5.7 -3.4,-8.2 -0.6,-1.1 -2.7,-2.2 -3.9,-2 -9.7,1.1 -19.5,2.5 -29.2,4 -1.4,0.2 -3.1,1.8 -3.7,3.2 -4.2,10.2 -3,20.8 -3,31.8 15.3,-1.3 29.8,-2.5 44.8,-3.8 z m -48.2,46.4 c 16.9,-1.8 33.4,-3.6 50,-5.5 -0.5,-9.9 -0.9,-19 -1.3,-27.6 -15.7,0 -30.6,0 -45.5,0 -1.1,11.2 -2.1,21.7 -3.2,33.1 z"
   id="path4"
   inkscape:connector-curvature="0" />
		
	</g>
</g>
<path
   inkscape:connector-curvature="0"
   style="display:block;fill-rule:evenodd;stroke-width:10.24874496"
   d="m 176.45726,357.21788 22.54724,7.17412 21.52237,6.14923 -11.27364,12.29852 36.8955,35.87059 35.87061,-35.87059 -12.29852,-12.29852 22.54725,-7.17411 22.54724,-6.14924 -6.14924,22.54724 -6.14925,22.54725 -12.2985,-12.29852 -36.89547,36.89548 36.89547,35.87063 11.27364,-11.27364 7.17411,22.54724 6.14924,21.52237 -22.54724,-6.14924 -22.54725,-6.14925 12.29852,-12.2985 -35.87061,-35.8706 -36.8955,35.8706 11.27364,12.2985 -21.52237,6.14925 -22.54724,6.14924 6.14924,-21.52237 6.14925,-22.54724 12.2985,12.2985 36.89547,-36.89549 -36.89547,-36.89548 -12.2985,12.29852 -6.14925,-22.54725 z"
   class="g3_7"
   id="path150" /></svg>