<?xml version="1.0" encoding="UTF-8" standalone="no"?>
<!-- Generator: Adobe Illustrator 22.0.1, SVG Export Plug-In . SVG Version: 6.00 Build 0)  -->

<svg
   xmlns:dc="http://purl.org/dc/elements/1.1/"
   xmlns:cc="http://creativecommons.org/ns#"
   xmlns:rdf="http://www.w3.org/1999/02/22-rdf-syntax-ns#"
   xmlns:svg="http://www.w3.org/2000/svg"
   xmlns="http://www.w3.org/2000/svg"
   xmlns:sodipodi="http://sodipodi.sourceforge.net/DTD/sodipodi-0.dtd"
   xmlns:inkscape="http://www.inkscape.org/namespaces/inkscape"
   version="1.1"
   id="Слой_1"
   x="0px"
   y="0px"
   viewBox="0 0 490.86939 559.37498"
   xml:space="preserve"
   sodipodi:docname="BKE.svg"
   width="490.86938"
   height="559.375"
   inkscape:version="0.92.3 (2405546, 2018-03-11)"><metadata
   id="metadata21"><rdf:RDF><cc:Work
       rdf:about=""><dc:format>image/svg+xml</dc:format><dc:type
         rdf:resource="http://purl.org/dc/dcmitype/StillImage" /><dc:title /></cc:Work></rdf:RDF></metadata><defs
   id="defs19" /><sodipodi:namedview
   pagecolor="#ffffff"
   bordercolor="#666666"
   borderopacity="1"
   objecttolerance="10"
   gridtolerance="10"
   guidetolerance="10"
   inkscape:pageopacity="0"
   inkscape:pageshadow="2"
   inkscape:window-width="1920"
   inkscape:window-height="1039"
   id="namedview17"
   showgrid="false"
   fit-margin-top="43"
   fit-margin-left="48"
   fit-margin-right="48"
   fit-margin-bottom="43"
   inkscape:zoom="1.5857199"
   inkscape:cx="290.36275"
   inkscape:cy="156.92745"
   inkscape:window-x="0"
   inkscape:window-y="0"
   inkscape:window-maximized="1"
   inkscape:current-layer="Слой_1"
   showguides="true"
   inkscape:guide-bbox="true"><sodipodi:guide
     position="247.52165,397.9265"
     orientation="1,0"
     id="guide828"
     inkscape:locked="false" /></sodipodi:namedview>
<path
   style="fill:#ffffff;stroke:#000000;stroke-width:1px;stroke-linecap:butt;stroke-linejoin:miter;stroke-opacity:1"
   d="M 121.71128,79.151468 52.026844,511.44724 438.91737,512.07787 372.70139,83.250553 244.68382,45.097534 Z"
   id="path818"
   inkscape:connector-curvature="0" /><g
   id="g14"
   transform="translate(-52.659041,-143.525)">
	<g
   id="g12">
		<path
   d="m 298.5,659.8 c -63,0 -126,0 -189,0 -2.1,0 -4.6,0.1 -6.3,-0.9 -1.4,-0.8 -2.8,-3.3 -2.5,-4.8 3.9,-24.2 8.2,-48.4 12.2,-72.6 5.6,-34.1 11.1,-68.1 16.6,-102.2 4.7,-29.1 9.4,-58.3 14.1,-87.5 2.5,-15.6 5,-31.1 7.5,-46.7 4.8,-30 9.7,-59.9 14.6,-89.9 1.5,-9.3 3,-18.6 4.2,-28 0.6,-5.1 2.8,-7.9 7.9,-9.2 35.5,-9.6 71,-19 106.3,-29.2 10.5,-3 19.9,-3.1 30.4,0.1 35.7,11.1 71.7,21.5 107.7,31.9 5,1.4 7,4.1 7.7,8.8 4.6,29.7 9.3,59.3 14,89 4.7,30 9.4,60 14,90 5,32.3 10,64.6 15,96.9 5,32 10,63.9 14.9,95.9 2.6,17.1 5,34.2 7.4,51.3 0.9,6.5 0.3,7.2 -6.3,7.2 -51.2,0 -102.3,0 -153.5,0 -12.2,-0.1 -24.6,-0.1 -36.9,-0.1 z m 189.7,-7.2 c -1.9,-13.1 -3.7,-25.8 -5.7,-38.6 -4.9,-31.6 -9.8,-63.3 -14.7,-94.9 -5,-32.5 -10.1,-64.9 -15.1,-97.4 -4.7,-30 -9.3,-60 -13.9,-90 -5.2,-33.3 -10.5,-66.6 -15.5,-99.9 -0.5,-3.1 -1.8,-4.2 -4.5,-4.9 -9.2,-2.6 -18.5,-5.2 -27.7,-8 -29.7,-8.8 -59.4,-17.6 -89.1,-26.3 -1.8,-0.5 -3.9,-0.3 -5.7,0.2 -14.6,3.9 -29.1,8 -43.6,12 -24,6.6 -47.9,13.1 -71.8,19.8 -1.4,0.4 -3.3,1.9 -3.5,3.2 -2.5,14.4 -4.8,28.8 -7.1,43.2 -4.5,28.2 -8.8,56.4 -13.3,84.6 -3.1,19.5 -6.6,38.9 -9.7,58.4 -4.1,25.7 -8.1,51.5 -12.2,77.2 -3.5,21.6 -7.2,43.2 -10.8,64.8 -4.1,24.7 -8,49.5 -12,74.2 -1.2,7.3 -2.2,14.7 -3.4,22.3 126.5,0.1 252.8,0.1 379.3,0.1 z"
   id="path2"
   inkscape:connector-curvature="0" />
		<path
   d="m 224.4,363 c -4.2,7.3 -8.2,14.7 -12.6,21.8 -11.5,18.3 -25.1,34.9 -43.4,47 -5.7,3.8 -7.8,4.4 -13.3,3.1 31.3,-31.3 53.7,-67.7 68.1,-109.7 -8.7,1.1 -16.7,2.6 -24.8,3.1 -6.9,0.5 -13.9,-0.1 -20.9,-0.3 -1,0 -2.2,-0.2 -2.8,-0.8 -2.2,-2 -4.2,-4.2 -6.3,-6.4 2.4,-0.9 4.7,-2.2 7.1,-2.6 15.4,-2.7 30.8,-5.3 46.2,-7.7 3.6,-0.6 5,-2.1 4.8,-5.9 -1.3,-18.6 -2.2,-37.2 -3.6,-55.7 -0.3,-3.9 -2.5,-7.6 -3.3,-11.4 -0.5,-2.4 -0.9,-6.4 0.3,-7.1 2.2,-1.3 6,-1.9 8.3,-0.8 5.2,2.4 10.1,5.8 14.8,9.1 3.5,2.5 4.7,6 4.1,10.5 -1.9,13.5 -3.5,27 -5,40.6 -0.6,5.2 -0.7,10.5 -1.1,16.5 6.2,-2 11.7,-3.8 17.2,-5.6 5.5,-1.9 16.5,0.9 20.4,5.2 2.5,2.8 1.9,5.8 -2.5,7.2 -8.2,2.6 -16.6,4.8 -24.9,7 -3.5,0.9 -7.1,1.5 -11.1,2.4 -0.4,8 -0.8,15.9 -1.1,22.2 10.1,5.8 19.4,10.5 27.9,16.4 6.9,4.8 8.5,13.2 5.8,21.1 -1.9,5.5 -6.1,6.8 -10.2,2.8 -3.4,-3.4 -6.3,-7.3 -9.1,-11.2 -4.5,-6.3 -8.8,-12.9 -14.4,-19 -0.1,1.7 -0.2,3.4 -0.2,5.1 -0.3,36.3 -0.6,72.6 -0.7,109 0,7.6 -2.3,14.4 -6,20.8 -3.1,5.4 -6,5.4 -9,0.2 -6.2,-10.8 -8.7,-21.9 -6.6,-34.9 3.5,-21.6 5.2,-43.6 7.4,-65.4 0.9,-8.7 1,-17.4 1.5,-26.1 -0.4,-0.4 -0.7,-0.4 -1,-0.5 z"
   id="path4"
   inkscape:connector-curvature="0" />
		<path
   d="m 338.6,452.3 c 0,-13.3 0,-25.4 0,-38 -5.3,0.4 -10.2,1 -15.1,1 -6.5,0.1 -13,0.1 -19.4,-0.4 -5,-0.5 -9.5,-2.5 -11.8,-8.9 5.7,-0.7 10.7,-1.3 15.7,-1.9 8.8,-1.1 17.5,-2.3 26.3,-3.1 3.2,-0.3 4.4,-1.3 4.2,-4.5 -0.5,-8.6 0.6,-17.3 -5.1,-25 -2.4,-3.2 0.2,-7.3 4.2,-7.5 7.5,-0.3 14.5,1.6 20.8,5.8 2.9,1.9 3.6,4.8 2.9,8.3 -1.1,6 -1.9,12.1 -3,19.4 9.5,-2.1 18,-3.4 26.1,-5.9 8.7,-2.6 15.6,1 22.5,5 1.2,0.7 2.6,3.2 2.2,4 -0.8,1.5 -2.7,3 -4.3,3.4 -13.2,2.5 -26.5,4.8 -39.7,7.1 -2.3,0.4 -4.5,0.7 -7.2,1.1 -0.8,12.6 -1.6,25 -2.4,38.3 10.8,-1 20.9,-1.7 30.9,-3 11,-1.4 22,-4.3 33,-4.9 11.5,-0.6 21.8,3.9 29.7,12.6 2.9,3.3 1.9,6 -2.3,6.9 -4.4,0.9 -8.9,1.3 -13.4,1.2 -32.3,-0.9 -64.6,-0.3 -96.8,3 -14.2,1.5 -28.3,4.3 -42.3,7.2 -12.2,2.5 -21.7,-3.1 -31.1,-9.1 -2.8,-1.7 -2.2,-4.4 1,-5.7 1.8,-0.7 3.9,-0.8 5.8,-1 22.9,-1.8 45.6,-3.6 68.6,-5.4 z"
   id="path6"
   inkscape:connector-curvature="0" />
		<path
   d="m 275.5,351.4 c 20.8,-4.6 41.1,-5.1 61,-8.9 0,-11.8 0,-23.4 0,-34.8 -14.6,-0.8 -30.1,6.8 -42.6,-5.3 0,-0.7 0,-1.4 0,-2.1 2,-0.5 3.9,-1.2 5.9,-1.5 11.2,-1.7 22.4,-3.3 33.6,-4.8 2.7,-0.4 3.6,-1.4 3.6,-4.1 -0.1,-16.8 0.2,-33.7 -0.2,-50.5 -0.1,-3.9 -2.1,-8 -3.9,-11.6 -2.6,-5.3 -0.7,-9.5 5.2,-8.8 5.8,0.7 11.7,2.4 17.2,4.4 5.1,1.9 5.2,6.3 4.7,11.2 -1.8,18 -3.1,36.1 -4.8,55.5 9.2,-2.6 17.2,-4.7 25,-7.2 8,-2.6 14.3,1.2 20.3,5.4 3.1,2.2 2,5.5 -2.5,6.8 -9.3,2.6 -18.7,4.7 -28.1,6.8 -4.7,1.1 -9.5,1.7 -14.9,2.6 -0.7,11.6 -1.4,23.3 -2.1,35.9 9.8,-1.4 18.9,-2.7 28,-4.2 7.6,-1.2 15.1,-2.5 22.7,-3.6 10.4,-1.6 18.4,3.2 25.3,10.2 3.1,3.1 2.3,5.1 -1.9,6.4 -2.2,0.6 -4.6,0.8 -6.9,0.9 -39.2,1.4 -78.1,4.8 -116.7,11.7 -9.2,1.6 -17,-1.8 -24.5,-6.3 -0.9,-0.6 -1.5,-1.9 -3.4,-4.1 z"
   id="path8"
   inkscape:connector-curvature="0" />
		
	</g>
</g>
<path
   inkscape:connector-curvature="0"
   style="display:block;fill-rule:evenodd;stroke-width:9.9266243"
   d="m 316.01534,351.20855 -18.86057,6.94865 -19.85326,5.95597 8.93395,8.93396 c -18.8606,18.86061 -31.76519,40.69915 -38.71381,64.52307 -7.94132,-23.82392 -19.85324,-45.66246 -38.71385,-64.52307 l 8.93397,-8.93396 -19.85325,-5.95597 -19.85325,-6.94865 4.96332,20.84593 4.96329,19.85326 9.92664,-8.93399 c 7.94128,7.94132 16.87526,18.8606 23.82389,31.7652 21.83858,37.72117 17.86792,84.37631 16.87526,84.37631 h 16.87527 c -0.99267,0 -4.9633,-46.65514 16.87525,-84.37631 6.94865,-12.9046 15.8826,-23.82388 23.82391,-31.7652 l 9.92663,8.93399 4.9633,-19.85326 z"
   class="g3_7"
   id="path44" /></svg>