<?xml version="1.0" encoding="UTF-8" standalone="no"?>
<!-- Generator: Adobe Illustrator 22.0.1, SVG Export Plug-In . SVG Version: 6.00 Build 0)  -->

<svg
   xmlns:dc="http://purl.org/dc/elements/1.1/"
   xmlns:cc="http://creativecommons.org/ns#"
   xmlns:rdf="http://www.w3.org/1999/02/22-rdf-syntax-ns#"
   xmlns:svg="http://www.w3.org/2000/svg"
   xmlns="http://www.w3.org/2000/svg"
   xmlns:sodipodi="http://sodipodi.sourceforge.net/DTD/sodipodi-0.dtd"
   xmlns:inkscape="http://www.inkscape.org/namespaces/inkscape"
   version="1.1"
   id="Слой_1"
   x="0px"
   y="0px"
   viewBox="0 0 491.08296 560.19664"
   xml:space="preserve"
   sodipodi:docname="BKI.svg"
   width="491.08295"
   height="560.19666"
   inkscape:version="0.92.3 (2405546, 2018-03-11)"><metadata
   id="metadata21"><rdf:RDF><cc:Work
       rdf:about=""><dc:format>image/svg+xml</dc:format><dc:type
         rdf:resource="http://purl.org/dc/dcmitype/StillImage" /><dc:title /></cc:Work></rdf:RDF></metadata><defs
   id="defs19" /><sodipodi:namedview
   pagecolor="#ffffff"
   bordercolor="#666666"
   borderopacity="1"
   objecttolerance="10"
   gridtolerance="10"
   guidetolerance="10"
   inkscape:pageopacity="0"
   inkscape:pageshadow="2"
   inkscape:window-width="1920"
   inkscape:window-height="1039"
   id="namedview17"
   showgrid="false"
   fit-margin-top="43"
   fit-margin-left="48"
   fit-margin-right="48"
   fit-margin-bottom="43"
   inkscape:zoom="2.2425466"
   inkscape:cx="134.37614"
   inkscape:cy="372.8448"
   inkscape:window-x="0"
   inkscape:window-y="0"
   inkscape:window-maximized="1"
   inkscape:current-layer="Слой_1" />
<path
   style="fill:#ffffff;stroke:#000000;stroke-width:1px;stroke-linecap:butt;stroke-linejoin:miter;stroke-opacity:1"
   d="M 121.7366,80.384989 52.17283,513.37488 440.12464,512.03712 372.79048,83.50644 245.70281,44.265338 Z"
   id="path818"
   inkscape:connector-curvature="0" /><g
   id="g14"
   transform="translate(-52.423078,-141.60334)">
	<g
   id="g12">
		<path
   d="m 298.6,658.8 c -63,0 -126,0 -189,0 -2,0 -4,-0.1 -5.9,-0.6 -2.8,-0.7 -3.7,-2.4 -3.1,-5.6 4.9,-28.8 9.6,-57.6 14.4,-86.4 2.6,-15.4 5.3,-30.7 7.8,-46.1 2.8,-17 5.4,-34.1 8.1,-51.1 4.1,-25.6 8.3,-51.1 12.4,-76.7 5.1,-31.6 10.3,-63.2 15.4,-94.8 3.9,-24 7.6,-48.1 11.2,-72.2 0.7,-4.9 3.2,-7.1 7.8,-8.3 27,-7.3 54,-14.7 81,-22.1 12.3,-3.4 24.5,-6.9 36.9,-9.9 3.3,-0.8 7.3,-0.3 10.6,0.7 21.7,6.2 43.2,12.7 64.8,19.1 17,5 33.9,10.2 51,14.9 5,1.4 7.1,4 7.8,8.7 4.6,29.7 9.3,59.3 14,89 4.7,30 9.4,60 14,90 5,32.3 10,64.6 15,96.9 4.8,31 9.5,62 14.2,93 2.8,18.2 5.5,36.4 8.2,54.6 0.9,6 0.1,6.8 -6.3,6.8 -63.3,0.1 -126.8,0.1 -190.3,0.1 z m -189.8,-7.2 c 126.6,0 252.8,0 379.5,0 -15.8,-101.6 -31.5,-202.8 -47,-303 -13.9,2.5 -27.3,5 -40.7,7.4 -12.8,2.3 -22.8,-2.3 -30.7,-12.3 -5.6,-7.1 -11.5,-13.8 -17.1,-20.9 -14.8,-18.6 -29.4,-37.5 -44.4,-56 -4.2,-5.2 -9.7,-9.3 -14.7,-14.1 -8.6,12.3 -16.5,23.7 -24.6,35.1 -18.5,26.1 -40.4,48.9 -67.4,66 -11.7,7.4 -24.6,13.1 -37.1,19.2 -2,1 -4.8,0.5 -7.3,0.7 -0.1,-0.5 -0.3,-1.1 -0.4,-1.6 1.4,-1.1 2.7,-2.2 4.1,-3.3 11.1,-8.5 22.8,-16.3 33.1,-25.7 28.7,-26.2 55.8,-54.1 74.5,-88.8 3,-5.6 4.8,-12 6.5,-18.2 1,-3.9 0.7,-8.3 1.1,-12.4 0.6,-6.8 3.6,-8.9 9.6,-5.9 4,2 7.7,4.7 11,7.7 7.8,7 7.9,8.6 2.7,17.7 -0.1,0.2 0.1,0.6 -0.1,-0.5 8.9,8.2 17.1,15.4 25.1,23 8.9,8.5 17.7,17.2 26.3,26 24.9,25.3 57.3,37.5 89.4,51.3 -0.5,-4.3 -0.7,-8.1 -1.3,-11.9 -5.2,-33.6 -10.5,-67.2 -15.9,-100.8 -0.3,-1.6 -2.1,-3.8 -3.7,-4.3 -9,-2.8 -18.1,-5.2 -27.2,-7.8 -29.7,-8.8 -59.3,-17.7 -89.1,-26.4 -2.2,-0.6 -4.9,-0.6 -7.2,0 -14.4,3.8 -28.7,7.9 -43.1,11.9 -24,6.6 -47.9,13.1 -71.9,19.8 -1.4,0.4 -3.3,1.9 -3.6,3.2 -2.5,14.4 -4.8,28.8 -7.1,43.2 -4.4,28.2 -8.8,56.4 -13.3,84.6 -2.8,17.3 -5.9,34.6 -8.7,52 -4.5,28 -8.8,56.1 -13.3,84.1 -3.5,21.8 -7.2,43.5 -10.8,65.3 -4,24.4 -8,48.8 -11.9,73.2 -1.1,7.5 -2.2,14.9 -3.3,22.5 z"
   id="path2"
   inkscape:connector-curvature="0" />
		<path
   d="m 212.6,380.5 c 22.3,-4.4 44.2,-5.1 66.3,-8.8 -0.5,-9.8 1.8,-19.9 -4.5,-28.9 -1.6,-2.4 -2.9,-3.1 -5.5,-2.3 -9,2.9 -17.7,2.2 -25.9,-2.8 -1.8,-1.1 -3.3,-2.5 -5,-3.7 0.1,-0.5 0.1,-1 0.2,-1.5 3.1,-0.8 6.1,-1.7 9.3,-2.3 22.1,-4.2 44.1,-8.4 66.2,-12.6 6.9,-1.3 19.7,4.3 23.1,10.2 1.7,3 0.1,4.6 -2.5,5 -3.6,0.7 -7.3,0.8 -10.9,1.1 -9.6,0.8 -19.1,1.5 -28.9,3.2 1,0.7 2,1.4 3,2 4.2,2.4 5.2,5.9 4.3,10.6 -1.2,6.1 -1.7,12.4 -2.6,19.7 10,-1.5 18.8,-2.4 27.5,-4.3 11.5,-2.5 21.4,0 30,7.9 1.5,1.4 2.2,3.5 3.3,5.3 -1.9,1.1 -3.7,3 -5.7,3.2 -9.1,0.8 -18.3,1 -27.4,1.5 -7.7,0.4 -15.3,0.8 -23,1.2 -1.5,0.1 -2.9,0.4 -4.6,0.7 -0.7,22.7 -1.4,45.1 -2.2,68.4 11,-0.9 21.4,-1.6 31.7,-2.8 12.6,-1.5 25,-4.4 37.6,-5 11.3,-0.6 21.5,4 29.4,12.5 3.1,3.3 2,6.3 -2.4,7.2 -4.2,0.9 -8.6,1.2 -12.9,1.1 -36.9,-0.9 -73.7,-0.4 -110.4,3 -16.4,1.5 -32.6,4.6 -48.8,7.4 -12.1,2.1 -21.7,-3.2 -31.1,-9.3 -2.8,-1.8 -2,-4.6 1.2,-5.6 2.3,-0.8 4.9,-0.8 7.3,-1 26.4,-2.1 52.8,-4.2 79.2,-6.3 0.8,-0.1 1.6,-0.3 2.1,-0.4 0,-22.4 0,-44.7 0,-67.7 -9.7,1.1 -18.4,2.1 -27.1,3.1 -5.3,0.6 -10.5,1.7 -15.8,2.1 -8.2,0.7 -15.2,-2.9 -21.9,-7.2 -0.9,-0.6 -1.3,-1.9 -2.6,-3.9 z"
   id="path4"
   inkscape:connector-curvature="0" />
		<path
   d="m 283.6,559.1 c -13.2,-11.7 -25.3,-22.3 -37.4,-33 -2.6,-2.3 -5.5,-4.4 -7.7,-7.1 -1,-1.2 -0.8,-3.5 -1.2,-5.3 1.9,-0.1 4.6,-1 5.7,-0.1 7.4,5.9 14.4,12.3 21.5,18.5 8.1,7.1 16.1,14.3 24.9,22.2 0.2,-2.7 0.3,-4.1 0.3,-5.5 0,-16 0,-32 0,-48 0,-2.8 0,-5.9 3.6,-5.9 3.7,0.1 3.5,3.3 3.5,6 0,17 0,33.9 0,51.8 1.8,-1.3 3,-1.9 4.1,-2.9 12.6,-11.1 25.1,-22.3 37.7,-33.4 1.6,-1.4 3.3,-3 5.3,-3.7 1.2,-0.4 3.6,0.1 4.3,1 0.7,0.9 0.5,3.4 -0.3,4.4 -2.2,2.7 -4.9,5 -7.5,7.3 -12.4,10.8 -24.8,21.6 -38.5,33.5 3,0 4.6,0 6.2,0 19.2,0 38.3,0 57.5,0 1.5,0 3.2,-0.2 4.4,0.4 1.1,0.6 2.3,2.1 2.3,3.3 0,1.1 -1.2,2.8 -2.3,3.3 -1.4,0.6 -3.2,0.4 -4.9,0.4 -22.5,0 -45,0 -68.3,0 0,2 0,3.8 0,5.5 0,21.5 0,43 0,64.5 0,1.3 0.4,2.9 -0.2,3.9 -0.7,1.3 -2.3,3.2 -3.1,3.1 -1.4,-0.3 -2.8,-1.9 -3.6,-3.2 -0.6,-1 -0.2,-2.6 -0.2,-3.9 0,-21.3 0,-42.7 0,-64 0,-1.8 0,-3.6 0,-5.9 -2.4,0 -4.2,0 -5.9,0 -20.3,0 -40.7,0 -61,0 -1.3,0 -2.9,0.4 -3.9,-0.2 -1.5,-0.9 -2.5,-2.5 -3.7,-3.8 1.2,-1.1 2.3,-2.6 3.7,-3.3 1.1,-0.5 2.6,-0.1 3.9,-0.1 18.2,0 36.3,0 54.5,0 1.8,0.2 3.4,0.2 6.3,0.2 z"
   id="path6"
   inkscape:connector-curvature="0" />
		<path
   d="m 362.4,414.4 c -1.8,2 -3,4.4 -4.9,5.4 -13.7,7.4 -27.6,14.7 -41.5,21.7 -2.4,1.2 -5.5,1 -8.2,1.5 1.4,-2 2.6,-4.3 4.3,-6.1 10.4,-10.9 17.9,-23.5 23.3,-37.5 2.3,-6 3.9,-6.7 9.2,-3.3 4.9,3.1 9.4,6.9 13.7,10.8 1.6,1.8 2.4,4.6 4.1,7.5 z"
   id="path8"
   inkscape:connector-curvature="0" />
		<path
   d="m 262.7,435.4 c -1.4,5.1 -1.7,9.6 -6.8,11.7 -5.3,2.2 -9.3,-0.3 -12.2,-4.2 -7,-9.5 -13.6,-19.2 -20.1,-29 -1.8,-2.7 -0.2,-5 2.7,-4.6 11.1,1.5 22,4.5 30.3,12.4 3.3,3.2 4.1,9 6.1,13.7 z"
   id="path10"
   inkscape:connector-curvature="0" />
	</g>
</g>
</svg>