<?xml version="1.0" encoding="UTF-8" standalone="no"?>
<!-- Generator: Adobe Illustrator 22.0.1, SVG Export Plug-In . SVG Version: 6.00 Build 0)  -->

<svg
   xmlns:dc="http://purl.org/dc/elements/1.1/"
   xmlns:cc="http://creativecommons.org/ns#"
   xmlns:rdf="http://www.w3.org/1999/02/22-rdf-syntax-ns#"
   xmlns:svg="http://www.w3.org/2000/svg"
   xmlns="http://www.w3.org/2000/svg"
   xmlns:sodipodi="http://sodipodi.sourceforge.net/DTD/sodipodi-0.dtd"
   xmlns:inkscape="http://www.inkscape.org/namespaces/inkscape"
   version="1.1"
   id="Слой_1"
   x="0px"
   y="0px"
   viewBox="0 0 484.37992 554.00114"
   xml:space="preserve"
   sodipodi:docname="BKY.svg"
   inkscape:version="0.92.3 (2405546, 2018-03-11)"
   width="484.37991"
   height="554.00116"><metadata
   id="metadata19"><rdf:RDF><cc:Work
       rdf:about=""><dc:format>image/svg+xml</dc:format><dc:type
         rdf:resource="http://purl.org/dc/dcmitype/StillImage" /><dc:title></dc:title></cc:Work></rdf:RDF></metadata><defs
   id="defs17" /><sodipodi:namedview
   pagecolor="#ffffff"
   bordercolor="#666666"
   borderopacity="1"
   objecttolerance="10"
   gridtolerance="10"
   guidetolerance="10"
   inkscape:pageopacity="0"
   inkscape:pageshadow="2"
   inkscape:window-width="3840"
   inkscape:window-height="2119"
   id="namedview15"
   showgrid="false"
   inkscape:zoom="3.1714397"
   inkscape:cx="168.40489"
   inkscape:cy="303.04547"
   inkscape:window-x="0"
   inkscape:window-y="0"
   inkscape:window-maximized="1"
   inkscape:current-layer="Слой_1"
   fit-margin-top="43"
   fit-margin-left="48"
   fit-margin-right="48"
   fit-margin-bottom="43" />
<path
   style="fill:#ffffff;stroke:#000000;stroke-width:1px;stroke-linecap:butt;stroke-linejoin:miter;stroke-opacity:1"
   d="M 119.21861,77.889097 48.588235,509.86956 435.79407,510.50019 367.37089,79.780977 241.87584,43.519847 Z"
   id="path826"
   inkscape:connector-curvature="0" /><g
   id="g12"
   transform="translate(-55.780765,-144.73383)">
	<g
   id="g10">
		<path
   d="m 103,659.9 c -3.4,-1.8 -3.8,-4.2 -3,-8.1 2.6,-12.5 4.7,-25.1 6.8,-37.7 2.3,-13.6 4.3,-27.2 6.5,-40.8 5.1,-31.6 10.3,-63.2 15.4,-94.8 4.6,-28.7 9.2,-57.3 13.8,-86 5,-31.3 10.2,-62.6 15.2,-93.9 3.8,-24.1 7.6,-48.1 11.2,-72.2 0.8,-5.1 3.5,-7.2 8.2,-8.5 34.2,-9.2 68.5,-18.1 102.5,-28.2 13,-3.9 24.7,-3.9 37.6,0.3 34.4,10.9 69.2,20.8 103.9,30.7 5.3,1.5 7.2,4.3 7.9,9.2 4.2,27.4 8.6,54.8 12.9,82.2 4.4,28.7 8.7,57.4 13.2,86.1 3.2,20.6 6.6,41.3 9.8,61.9 4.1,26.6 8.1,53.2 12.2,79.8 3.2,20.5 6.7,40.9 9.8,61.4 2.7,17.6 5.2,35.2 7.5,52.8 0.3,1.9 -0.9,4 -1.4,5.9 -130,-0.1 -260,-0.1 -390,-0.1 z m 4.8,-7.3 c 126.6,0 252.9,0 379.4,0 -1.9,-13.1 -3.7,-25.8 -5.7,-38.6 -4.9,-31.6 -9.8,-63.3 -14.7,-94.9 -5,-32.5 -10.1,-64.9 -15.1,-97.4 -4.7,-30 -9.3,-60 -13.9,-90 -5.2,-33.3 -10.5,-66.6 -15.5,-99.9 -0.5,-3.1 -1.8,-4.1 -4.5,-4.9 -18.6,-5.3 -37.2,-10.7 -55.8,-16.2 -20.3,-6 -40.6,-12.1 -60.9,-18 -1.8,-0.5 -3.9,-0.3 -5.7,0.2 -14.6,3.9 -29.1,8 -43.6,12 -24,6.6 -47.9,13.1 -71.9,19.8 -1.4,0.4 -3.3,1.9 -3.5,3.2 -2.5,14.4 -4.8,28.8 -7.1,43.2 -4.5,28.2 -8.8,56.4 -13.3,84.6 -3.1,19.5 -6.6,38.9 -9.7,58.4 -4.1,25.7 -8.1,51.5 -12.2,77.2 -3.5,21.6 -7.2,43.2 -10.8,64.8 -4.1,24.7 -8,49.5 -12,74.2 -1.3,7.3 -2.4,14.7 -3.5,22.3 z"
   id="path2"
   inkscape:connector-curvature="0" />
		<path
   d="m 300.1,310.5 c 0,12.5 0.5,24.1 -0.2,35.7 -0.3,5.8 -2.1,11.8 -4.5,17.1 -3.1,6.7 -8.7,6.3 -12.3,0 -5.4,-9.4 -4.7,-19.5 -3.6,-29.7 0.6,-5.9 1.1,-11.8 1,-18.3 -32.8,40.9 -72.1,71 -124.8,80 -0.3,-0.4 -0.6,-0.8 -0.9,-1.1 1.3,-1 2.5,-2.1 3.9,-3 18.5,-11.8 37.4,-23 55.4,-35.7 19.6,-13.8 35.2,-31.9 50.8,-50 1.1,-1.3 1.9,-2.7 2.8,-4.1 0.5,-0.8 0.9,-1.7 1.8,-3.5 -8.7,1.3 -16.7,2.4 -24.6,3.7 -12.5,2.1 -24.9,4.2 -37.4,6.5 -10.8,2 -19.9,-2.3 -28.7,-7.6 -1.2,-0.7 -2,-2.1 -4,-4.4 5,-1.2 8.8,-2.5 12.7,-3 30,-3.9 60.1,-7.6 90.2,-11.4 1,-0.1 1.9,-0.5 4,-1 -0.9,-11.2 -1.9,-22.5 -2.9,-34.5 -21.1,4.3 -40.8,8.7 -61.1,6.4 -0.2,-0.7 -0.3,-1.4 -0.5,-2.1 2.1,-0.8 4.2,-2 6.4,-2.5 24,-4.8 46.9,-12.8 68.7,-23.7 9.3,-4.6 17.7,-11.1 26.2,-17.1 3.2,-2.3 6.1,-3.5 9.5,-1.4 5.2,3.2 10.6,6.3 15.2,10.2 5.4,4.5 4.1,9.1 -2.7,11.3 -13.5,4.2 -27,8.4 -40.5,12.6 -0.9,0.3 -1.8,0.7 -4,1.4 8.4,3.7 7.6,9.8 6.3,16.3 -1.2,6.5 -1.8,13.1 -2.7,20.7 7.9,-1.1 14.9,-2 21.9,-3.1 18.7,-2.9 37.4,-6.4 56.2,-8.7 11.7,-1.4 21.1,4.7 28.7,13.3 2.3,2.6 1.3,5.3 -2.1,6 -4.2,0.9 -8.5,1.4 -12.8,1.7 -29.6,2.1 -59.1,4.2 -88.7,6.2 -0.8,0.1 -1.6,0.2 -2.3,0.3 -1.6,4.2 0,6.1 3.8,7.6 26.3,10.9 52.7,21.5 78.5,33.3 11.1,5.1 21.1,12.6 31.2,19.6 5.3,3.6 7.5,8.9 6.2,15.7 -1.8,9.7 -7.9,13.1 -16.5,8.2 -5.2,-3 -9.9,-6.8 -14.9,-10.1 -28.6,-18.9 -57.3,-37.7 -85.9,-56.6 -0.5,-0.2 -1.3,-0.5 -2.8,-1.2 z"
   id="path4"
   inkscape:connector-curvature="0" />
		<path
   d="m 251.8,484.6 c -1.2,3.9 -2.2,7.5 -3.5,10.9 -0.5,1.4 -1.8,3.3 -2.9,3.5 -1.2,0.1 -3,-1.3 -3.8,-2.6 -5.5,-9.2 -8.6,-19 -6.2,-30 4.5,-20.4 6.3,-41.1 5.3,-62 -0.3,-6 -2.1,-12.1 -4.1,-17.8 -2.7,-7.7 -1.1,-10.3 6.8,-9.8 0.8,0.1 1.8,-0.1 2.5,0.3 10.5,5.5 21.2,2 31.6,-0.1 15.3,-3 30.5,-6.8 45.6,-10.6 4.9,-1.2 9.1,-1.1 13.3,1.7 5.1,3.4 10.6,6.4 15.4,10.1 4.5,3.5 4.2,6.1 1.7,11.2 -1.5,3 -2,6.6 -2.4,10 -2.5,23.2 0.4,46.2 2.2,69.2 1.1,13.7 -3.1,26 -13.6,35.5 -6,5.4 -8.7,4.7 -11.8,-2.7 -2.4,-5.7 -4.8,-11.3 -6.9,-17.1 -1.1,-3 -2.7,-4 -5.9,-3.6 -14.4,1.4 -28.8,2.8 -43.3,3.8 -6.6,0.5 -13.2,0.1 -20,0.1 z m 75.1,-14.2 c 4.6,-13.8 3.6,-27.3 4,-40.4 -25,2.3 -49.1,7.3 -74.1,5.5 -0.9,12 -1.8,24 -2.8,37 12.6,-1.5 24.6,-3.1 36.6,-4.3 12,-1.1 24.2,-6.3 36.3,2.2 z m 3,-49.1 c 0,-10.7 0.2,-20.5 -0.2,-30.3 -0.1,-1.7 -2.5,-4.1 -4.4,-4.9 -2.3,-1 -5.3,-1 -7.9,-0.7 -18.8,1.9 -37.6,4 -56.4,6.1 -1,0.1 -2.7,1.7 -2.7,2.7 -0.2,10.6 -0.1,21.2 -0.1,32.1 11.2,-2 22.9,-4.3 34.7,-6.1 12.4,-1.8 24.9,-7.6 37,1.1 z"
   id="path6"
   inkscape:connector-curvature="0" />
		<path
   d="m 287,524.5 c -4.4,0 -7.9,0 -12.3,0 5.4,-10.6 10.4,-20.5 16.2,-31.9 6.4,10.7 12.2,20.3 18.3,30.6 -3.9,0.3 -7.2,0.6 -11.2,0.9 0,1.9 0,3.8 0,5.7 0,35.2 0,70.3 0,105.5 0,1.5 0.5,3.4 -0.2,4.4 -1.4,2 -3.4,4.7 -5.2,4.8 -1.8,0 -4,-2.7 -5.3,-4.7 -0.8,-1.2 -0.2,-3.2 -0.2,-4.9 0,-34.8 0,-69.7 0,-104.5 -0.1,-1.8 -0.1,-3.6 -0.1,-5.9 z"
   id="path8"
   inkscape:connector-curvature="0" />
	</g>
</g>
</svg>