<?xml version="1.0" encoding="UTF-8" standalone="no"?>
<!-- Generator: Adobe Illustrator 22.0.1, SVG Export Plug-In . SVG Version: 6.00 Build 0)  -->

<svg
   xmlns:dc="http://purl.org/dc/elements/1.1/"
   xmlns:cc="http://creativecommons.org/ns#"
   xmlns:rdf="http://www.w3.org/1999/02/22-rdf-syntax-ns#"
   xmlns:svg="http://www.w3.org/2000/svg"
   xmlns="http://www.w3.org/2000/svg"
   xmlns:sodipodi="http://sodipodi.sourceforge.net/DTD/sodipodi-0.dtd"
   xmlns:inkscape="http://www.inkscape.org/namespaces/inkscape"
   version="1.1"
   id="Слой_1"
   x="0px"
   y="0px"
   viewBox="0 0 490.9701 560.74443"
   xml:space="preserve"
   sodipodi:docname="BNG.svg"
   inkscape:version="0.92.3 (2405546, 2018-03-11)"
   width="490.97009"
   height="560.74445"><metadata
   id="metadata23"><rdf:RDF><cc:Work
       rdf:about=""><dc:format>image/svg+xml</dc:format><dc:type
         rdf:resource="http://purl.org/dc/dcmitype/StillImage" /><dc:title></dc:title></cc:Work></rdf:RDF></metadata><defs
   id="defs21" /><sodipodi:namedview
   pagecolor="#ffffff"
   bordercolor="#666666"
   borderopacity="1"
   objecttolerance="10"
   gridtolerance="10"
   guidetolerance="10"
   inkscape:pageopacity="0"
   inkscape:pageshadow="2"
   inkscape:window-width="3840"
   inkscape:window-height="2119"
   id="namedview19"
   showgrid="false"
   inkscape:zoom="3.1714397"
   inkscape:cx="153.36601"
   inkscape:cy="251.03873"
   inkscape:window-x="0"
   inkscape:window-y="0"
   inkscape:window-maximized="1"
   inkscape:current-layer="Слой_1"
   fit-margin-top="43"
   fit-margin-left="48"
   fit-margin-right="48"
   fit-margin-bottom="43" />
<style
   type="text/css"
   id="style2">
	.st0{fill:#060606;}
	.st1{fill:#FD0404;}
	.st2{fill:#FD0304;}
	.st3{fill:#FD0B0B;}
	.st4{fill:#FD0F10;}
</style>
<path
   style="fill:#ffffff;stroke:#000000;stroke-width:1px;stroke-linecap:butt;stroke-linejoin:miter;stroke-opacity:1"
   d="M 121.26516,79.9887 52.52666,514.64933 439.25953,513.86104 373.04355,83.93013 247.39084,46.72305 Z"
   id="path830"
   inkscape:connector-curvature="0" /><g
   id="g16"
   transform="translate(-52,-140.9)">
	<g
   id="g14">
		<path
   class="st0"
   d="m 100,646.9 c 0.6,-1.3 1.5,-2.5 1.8,-3.8 1.8,-10 3.4,-20 5.1,-30 2.3,-14.2 4.6,-28.5 6.9,-42.7 2.4,-14.7 4.7,-29.4 7.1,-44.1 2.6,-16.2 5.2,-32.4 7.9,-48.6 2.4,-14.7 4.7,-29.4 7.1,-44.2 2.3,-14.4 4.6,-28.8 7,-43.1 2.7,-16.5 5.3,-33 8,-49.5 2.3,-14.4 4.6,-28.8 7,-43.2 2.4,-14.7 4.8,-29.4 7.1,-44.1 1.5,-9.5 3,-18.9 4.2,-28.4 0.6,-4.5 2.8,-7 7.2,-8.1 12.4,-3.3 24.8,-6.8 37.2,-10.2 15.9,-4.4 31.9,-8.7 47.8,-13 11.6,-3.2 23.1,-6.3 34.7,-9.5 0.1,0 0.1,-0.3 0.1,-0.5 1.7,0 3.3,0 5,0 6.8,2.2 13.6,4.4 20.5,6.5 8,2.5 16.1,4.8 24.2,7.2 17.9,5.2 35.8,10.3 53.7,15.5 7.4,2.2 14.7,4.9 22.3,6.6 5.1,1.1 6.6,4.2 7.3,8.6 2,12.6 4,25.2 6,37.8 2.1,13.9 4.1,27.9 6.2,41.8 2.2,13.9 4.6,27.8 6.7,41.7 2.1,13.7 4.1,27.5 6.2,41.2 1.2,7.7 2.6,15.3 3.8,22.9 1.5,9.5 2.7,19.1 4.2,28.6 2.5,16.2 5.1,32.4 7.6,48.6 1.4,9.1 2.6,18.3 4.1,27.4 2,12.3 4.2,24.5 6.1,36.7 1.8,11.7 3.4,23.3 5.2,35 2.2,14.2 4.5,28.5 6.6,42.7 1.1,7 2.1,14.1 3,21.1 0.4,3.2 -0.9,4.5 -4.2,4.8 -1,0.1 -2,0 -3,0 -126.3,0 -252.6,0 -378.9,0 -2.9,0 -5.8,-0.6 -8.7,-0.9 -0.1,-3.5 -0.1,-7.1 -0.1,-10.8 z m 387.2,4.8 c -1.9,-12.7 -3.6,-25 -5.5,-37.2 -2.6,-17 -5.2,-34.1 -7.9,-51.1 -2.3,-15 -4.7,-30.1 -7,-45.1 -2.5,-15.7 -5,-31.4 -7.4,-47.1 -2.5,-16.4 -5,-32.7 -7.5,-49.1 -2.4,-15.7 -5,-31.4 -7.4,-47.1 -2.2,-14.4 -4.3,-28.8 -6.6,-43.2 -2.8,-17.7 -5.6,-35.3 -8.4,-53 -1.9,-12 -3.7,-24 -5.6,-35.9 -0.8,-5.2 -1.6,-10.4 -2.4,-15.4 -1.3,-0.5 -2.1,-1 -3.1,-1.3 -10.6,-3.1 -21.2,-6.1 -31.8,-9.2 -16,-4.6 -32,-9.3 -48,-14 -12.7,-3.7 -25.3,-7.6 -37.9,-11.3 -1.3,-0.4 -2.9,-0.4 -4.3,-0.1 -13.7,3.7 -27.4,7.6 -41.1,11.4 -13.7,3.7 -27.4,7.4 -41.1,11.1 -4.6,1.3 -9.2,2.6 -13.8,3.9 -7.9,2.2 -15.9,4.3 -23.6,6.4 -0.4,0.9 -0.6,1.4 -0.7,1.8 -1.8,11.8 -3.5,23.7 -5.3,35.5 -1.2,7.5 -2.7,15 -3.9,22.5 -2.1,12.9 -4,25.8 -6.1,38.7 -2.2,13.7 -4.6,27.4 -6.8,41.2 -2.1,13.3 -4.1,26.6 -6.2,39.8 -1.6,9.7 -3.4,19.3 -5,28.9 -1.8,10.9 -3.4,21.9 -5.1,32.8 -2.2,14.1 -4.6,28.1 -6.8,42.2 -2.4,14.9 -4.7,29.8 -7.1,44.6 -2.2,13.9 -4.6,27.7 -6.8,41.6 -1.8,11 -3.4,22 -5.2,33 -1.2,7.2 -2.5,14.3 -3.8,21.5 -0.2,1 -0.2,2.1 -0.3,3.3 126.8,-0.1 252.9,-0.1 379.5,-0.1 z"
   id="path4"
   inkscape:connector-curvature="0"
   style="fill:#060606" />
		<path
   class="st1"
   d="m 272.1,443 c -0.4,-13.3 -0.7,-26.4 -1.1,-39.7 -5.4,0.4 -10.5,0.7 -15.6,1.1 -7,0.5 -14,0.3 -20.7,-2.1 -1.5,-0.6 -3.1,-1.3 -4.4,-2.3 -2.4,-1.9 -2.3,-4.9 0.5,-5.9 3,-1.2 6.4,-1.7 9.6,-2.1 9.9,-1.2 19.8,-2.2 30,-3.3 0.1,-1.5 0.4,-2.8 0.3,-4.1 -0.2,-5.7 -0.1,-11.3 -0.8,-16.9 -0.4,-3.4 -1.9,-6.6 -3.1,-9.9 -0.6,-1.6 -1.7,-3.1 -2.8,-4.9 -4.8,0.3 -9.8,0.8 -14.7,0.8 -4.6,0 -9.3,-0.3 -13.9,-0.9 -4.6,-0.6 -8.5,-2.7 -10.8,-7.8 1.4,-0.5 2.5,-1.1 3.7,-1.2 11.4,-1.1 22.9,-1.8 34.3,-3.1 16.8,-1.9 33.7,-3.8 50.3,-7.4 3.4,-0.7 6.6,-0.9 9.8,0.4 3.1,1.2 6.1,2.5 9.1,3.9 2,0.9 3.5,2.5 4,4.8 -0.8,2 -2.7,2.3 -4.5,2.6 -7.9,1.3 -15.7,2.7 -23.6,3.7 -7.1,0.9 -14.2,1.5 -21.4,2.2 0.2,0.3 0.3,0.7 0.5,0.8 5.4,2.8 6.8,6.7 5.3,12.8 -1.6,6.5 -1.6,13.4 -2.4,20.9 5.8,-0.8 10.8,-1.6 15.8,-2.2 9.6,-1.3 18.5,1 27,5.2 1.3,0.6 2.2,1.8 3.3,2.7 -0.8,3.5 -3.4,4.5 -5.9,5.3 -3.3,1 -6.8,1.7 -10.2,2.1 -9.4,0.9 -18.9,1.6 -28.3,2.4 -0.5,0 -0.9,0.3 -1.8,0.6 -0.5,13.2 -1.1,26.4 -1.7,40 1.3,0.1 2.4,0.3 3.5,0.2 10.1,-0.8 20.2,-1.4 30.3,-2.6 10.6,-1.2 21.1,-3 31.6,-4.2 2.4,-0.3 5,0.1 7.3,0.7 6.4,1.8 12.9,3.6 18,8 1.5,1.3 3,2.6 4.1,4.3 2,3 1.4,5.1 -2.1,6 -3.3,0.9 -6.9,1.4 -10.3,1.5 -5.8,0.1 -11.6,-0.5 -17.5,-0.4 -15,0.1 -30,0.1 -44.9,0.6 -14.6,0.5 -29.3,1.2 -43.9,2.4 -14.2,1.1 -28.4,3.4 -42.4,6.3 -3.7,0.8 -7.3,0.9 -10.8,-0.5 -4.8,-1.9 -9.5,-3.8 -14.2,-5.9 -1.1,-0.4 -2.1,-1.1 -3,-1.8 -1.4,-1.1 -3.3,-2.1 -2.6,-4.4 0.6,-2 2.6,-2.4 4.4,-2.9 1,-0.2 2,-0.2 3,-0.2 7.5,-0.3 15,-0.4 22.4,-0.9 8.8,-0.6 17.5,-1.5 26.3,-2.3 6.1,-0.6 12.2,-1.2 18.4,-1.8 2.3,0 4.2,-0.3 6.6,-0.6 z"
   id="path6"
   inkscape:connector-curvature="0"
   style="fill:#fd0404" />
		<path
   class="st2"
   d="m 287.1,259.3 c -5.9,10.9 -13.1,19.6 -20.1,28.4 -11.2,14.2 -23.3,27.4 -37.2,39 -15.8,13.2 -33,24.1 -52.1,31.9 -4.3,1.7 -8.8,2.8 -13.3,3.8 -1.4,0.3 -3,-0.2 -4.6,-0.4 -0.3,-0.5 -0.6,-1 -0.8,-1.6 0.8,-0.3 1.6,-0.5 2.3,-0.9 21.8,-12.8 41.5,-28.2 59.8,-45.6 20.2,-19 36.6,-40.8 50.4,-64.8 0.2,-0.4 0.4,-0.9 0.7,-1.7 -3.8,-2.8 -8.3,-3.8 -12.8,-4.5 -2.6,-0.4 -5.3,-0.7 -7.9,-1.3 -3.8,-0.9 -6.7,-2.8 -7.4,-7.2 1.5,-2.1 3.6,-2.6 6,-2.7 8.2,0 16.3,0 24.5,-0.2 2.1,0 3.4,1 4.7,2.3 7.8,8 15.7,15.9 23.4,23.9 12.9,13.3 26.1,26.2 40.5,37.8 11.8,9.4 25,16.5 38.9,22.1 14,5.6 28.2,10.7 42.3,16 2,0.8 4.1,1.5 6,2.4 1.5,0.7 2.8,1.8 2.7,3.8 -0.2,2 -1.8,2.7 -3.3,3.4 -1,0.5 -2.2,0.8 -3.3,1 -13.1,3 -26.4,5.5 -39.9,5.9 -7.8,0.2 -14.9,-1.5 -21.2,-7 -11.8,-10.4 -22.8,-21.4 -33.3,-33.1 -14.4,-16.2 -29,-32.2 -43.5,-48.3 -0.4,-0.3 -0.8,-1.3 -1.5,-2.4 z"
   id="path8"
   inkscape:connector-curvature="0"
   style="fill:#fd0304" />
		<path
   class="st3"
   d="m 282,559 c -0.5,-0.8 -0.6,-1.2 -0.8,-1.4 -12.4,-10.8 -24.8,-21.6 -37.2,-32.4 -2.3,-2 -4.4,-4 -6.6,-6.1 -1.7,-1.6 -2,-4.5 -0.8,-5.8 1.3,-1.3 3.6,-1.5 5.4,0 4.2,3.5 8.3,7.2 12.4,10.8 10.2,9 20.5,18 30.7,27 1,0.9 2.1,1.6 3.8,2.9 0,-2 0,-3.3 0,-4.7 0,-15.8 0,-31.7 0,-47.5 0,-1.3 -0.1,-2.7 0.1,-4 0.3,-1.9 1.5,-3 3.4,-3 1.9,0 3.2,1 3.5,2.9 0.2,1.3 0.1,2.7 0.1,4 0,16.8 0,33.7 0,50.9 4.8,-2.6 8.3,-6.4 12.1,-9.7 8.2,-7 16.2,-14.3 24.3,-21.4 1.7,-1.5 3.3,-3.3 5.1,-4.8 1.6,-1.4 3.3,-2.8 5.1,-3.9 1.6,-1 3.9,-0.5 4.9,0.8 0.9,1.2 0.7,3.8 -0.6,5 -2.9,2.7 -5.9,5.4 -8.8,8 -8,7.2 -16,14.5 -24.1,21.6 -3.1,2.7 -6.4,5.3 -9.6,7.9 -0.9,0.7 -1.9,1.2 -2.9,1.8 0.2,0.3 0.5,0.7 0.7,1 1.7,0 3.3,0 5,0 19.2,0 38.3,0 57.5,0 1.3,0 2.7,-0.1 4,0.1 1.8,0.3 2.9,1.5 3.1,3.4 0.2,1.8 -1.2,3.7 -3,4 -1.3,0.2 -2.7,0.1 -4,0.1 -20.8,0 -41.7,0 -62.5,0 -1.8,0 -3.7,0 -6.1,0 0,1.8 -0.1,3.6 -0.1,5.3 0,21.7 0,43.3 0,65 0,1.3 0.1,2.7 -0.1,4 -0.3,1.9 -1.6,2.9 -3.5,2.9 -1.9,0 -3.2,-1.1 -3.4,-3 -0.2,-1.3 -0.1,-2.7 -0.1,-4 0,-21.7 0,-43.3 0,-65 0,-1.6 0,-3.3 0,-5.2 -2.1,0 -3.7,0 -5.4,0 -20.7,0 -41.3,0 -62,0 -1.3,0 -2.7,0.1 -4,-0.1 -2,-0.3 -3.3,-1.8 -3.4,-3.7 0,-1.9 1.2,-3.4 3.3,-3.7 1.3,-0.2 2.7,-0.1 4,-0.1 18.3,0 36.7,0 55,0 1.7,0.1 3.3,0.1 5.5,0.1 z"
   id="path10"
   inkscape:connector-curvature="0"
   style="fill:#fd0b0b" />
		<path
   class="st4"
   d="m 409.9,582.7 c 3.6,1.5 5.5,4.6 8,6.9 2.5,2.2 4.7,4.7 7.1,7 2.5,2.4 4.9,4.9 7.9,7.8 0,-8.4 0,-16 0,-23.5 3.8,-1.6 4.6,-1.3 4.7,1.9 0.1,5.7 0,11.3 0,17 0,1.6 0,3.2 0,5.5 8.3,-7.9 16,-15.2 23.7,-22.4 0.2,-0.1 0.6,0.1 1.2,0.1 1.4,2.1 0.9,3.9 -0.9,5.6 -3.1,2.9 -6.3,5.8 -9.4,8.8 -4.4,4.3 -8.6,8.8 -12.9,13.1 6.9,7 13.9,14.1 20.9,21.2 0.9,0.9 2.1,1.8 2.7,2.9 0.4,0.8 0,2.2 -0.4,3 -0.2,0.3 -2,0.2 -2.6,-0.3 -2.9,-2.4 -5.7,-5 -8.4,-7.7 -5.3,-5.3 -10.5,-10.6 -15.8,-15.9 -8.8,8.2 -16.6,16.8 -25.2,24.6 -2.4,-3.3 -2.4,-3.8 -0.1,-6.2 5.4,-5.4 10.9,-10.8 16.3,-16.1 1.7,-1.7 3.6,-3.3 5.7,-5.2 -1.2,-1.3 -2.1,-2.4 -3.2,-3.4 -6.1,-6.1 -12.2,-12.3 -18.4,-18.3 -1.7,-1.7 -2.9,-3.5 -0.9,-6.4 z"
   id="path12"
   inkscape:connector-curvature="0"
   style="fill:#fd0f10" />
	</g>
</g>
</svg>