<?xml version="1.0" encoding="UTF-8" standalone="no"?>
<!-- Generator: Adobe Illustrator 22.0.1, SVG Export Plug-In . SVG Version: 6.00 Build 0)  -->

<svg
   xmlns:dc="http://purl.org/dc/elements/1.1/"
   xmlns:cc="http://creativecommons.org/ns#"
   xmlns:rdf="http://www.w3.org/1999/02/22-rdf-syntax-ns#"
   xmlns:svg="http://www.w3.org/2000/svg"
   xmlns="http://www.w3.org/2000/svg"
   xmlns:sodipodi="http://sodipodi.sourceforge.net/DTD/sodipodi-0.dtd"
   xmlns:inkscape="http://www.inkscape.org/namespaces/inkscape"
   version="1.1"
   id="Слой_1"
   x="0px"
   y="0px"
   viewBox="0 0 490.79783 559.18852"
   xml:space="preserve"
   sodipodi:docname="BOU.svg"
   width="490.79782"
   height="559.18854"
   inkscape:version="0.92.3 (2405546, 2018-03-11)"><metadata
   id="metadata19"><rdf:RDF><cc:Work
       rdf:about=""><dc:format>image/svg+xml</dc:format><dc:type
         rdf:resource="http://purl.org/dc/dcmitype/StillImage" /><dc:title /></cc:Work></rdf:RDF></metadata><defs
   id="defs17" /><sodipodi:namedview
   pagecolor="#ffffff"
   bordercolor="#666666"
   borderopacity="1"
   objecttolerance="10"
   gridtolerance="10"
   guidetolerance="10"
   inkscape:pageopacity="0"
   inkscape:pageshadow="2"
   inkscape:window-width="3840"
   inkscape:window-height="2119"
   id="namedview15"
   showgrid="false"
   fit-margin-top="43"
   fit-margin-left="48"
   fit-margin-right="48"
   fit-margin-bottom="43"
   inkscape:zoom="3.1714398"
   inkscape:cx="166.86374"
   inkscape:cy="341.04292"
   inkscape:window-x="0"
   inkscape:window-y="0"
   inkscape:window-maximized="1"
   inkscape:current-layer="Слой_1" />
<path
   style="fill:#ffffff;stroke:#000000;stroke-width:1px;stroke-linecap:butt;stroke-linejoin:miter;stroke-opacity:1"
   d="M 123.28785,79.595634 52.342158,512.20672 439.23269,511.89141 372.70139,83.06409 244.99914,45.857014 Z"
   id="path817"
   inkscape:connector-curvature="0" /><g
   id="g12"
   transform="translate(-50.649678,-143.81146)">
	<g
   id="g10">
		<path
   d="m 102,659.9 c -3.4,-1.9 -3.8,-4.2 -3,-8.1 2.6,-12.5 4.7,-25.1 6.8,-37.7 2.3,-13.6 4.3,-27.2 6.5,-40.8 5.1,-31.6 10.3,-63.2 15.4,-94.8 4.6,-28.7 9.2,-57.3 13.8,-86 5,-31.3 10.2,-62.6 15.2,-93.9 3.8,-24.1 7.6,-48.1 11.2,-72.2 0.8,-5.1 3.5,-7.2 8.2,-8.5 34.2,-9.2 68.5,-18.1 102.5,-28.2 13,-3.9 24.7,-3.9 37.6,0.3 34.4,10.9 69.2,20.8 103.9,30.7 5.3,1.5 7.2,4.3 7.9,9.2 4.2,27.4 8.6,54.8 12.9,82.2 4.4,28.7 8.7,57.4 13.2,86.1 3.2,20.6 6.6,41.3 9.8,61.9 4.1,26.6 8.1,53.2 12.2,79.8 3.2,20.5 6.7,40.9 9.8,61.4 2.7,17.6 5.2,35.2 7.5,52.8 0.3,1.9 -0.9,4 -1.4,5.9 -130,-0.1 -260,-0.1 -390,-0.1 z m 384.1,-7.2 c -1.9,-13 -3.6,-25.5 -5.5,-37.9 -4.9,-32 -9.9,-63.9 -14.9,-95.9 -5,-32.5 -10.1,-64.9 -15.2,-97.4 -4.6,-29.8 -9.2,-59.7 -13.8,-89.5 -5.2,-33.5 -10.5,-66.9 -15.6,-100.4 -0.4,-2.9 -1.7,-3.9 -4.2,-4.6 -9.1,-2.5 -18.2,-5.1 -27.2,-7.8 -29.9,-8.8 -59.7,-17.7 -89.6,-26.4 -1.9,-0.6 -4.2,-0.4 -6.2,0.1 -14.6,3.9 -29.1,8 -43.6,12 -23.8,6.6 -47.6,13 -71.4,19.7 -1.5,0.4 -3.5,2.1 -3.8,3.5 -2.9,16.7 -5.5,33.4 -8.2,50.1 -4.1,25.9 -8.1,51.8 -12.3,77.7 -2.4,15.2 -5.3,30.4 -7.7,45.6 -4.8,30 -9.4,60 -14.2,90 -3.5,21.9 -7.3,43.8 -10.9,65.8 -4,24.2 -7.9,48.5 -11.8,72.7 -1.2,7.4 -2.2,14.9 -3.4,22.6 126.9,0.1 253,0.1 379.5,0.1 z"
   id="path2"
   inkscape:connector-curvature="0" />
		<path
   d="m 294.3,265.7 c 3.2,1.8 5.1,2.7 6.9,3.9 6.1,4 6.6,8.1 3.6,14.7 -2.2,4.9 -3.1,10.5 -4.1,15.8 -1.1,6 -1.9,12.2 -2.5,18.3 -0.4,4.3 -0.1,8.6 -0.1,13.8 8.2,-1.2 15.8,-2.4 23.4,-3.6 3.8,-0.6 7.6,-1.1 11.2,-2.3 10.2,-3.6 19,0.3 27.4,5.2 1.8,1.1 2.7,3.8 4,5.8 -1.9,1.1 -3.7,2.9 -5.7,3.2 -17.6,2.6 -35.2,5 -52.9,7.4 -2.4,0.3 -4.9,0.6 -7.5,0.9 0,24.7 0,49 0,73.9 7.4,-0.4 14.7,-0.4 21.9,-1.1 24.8,-2.6 49.6,-6 74.4,-8.1 13,-1.1 24.4,4.3 33.5,13.7 3.6,3.7 2.5,6.9 -2.5,7.9 -5,1 -10.2,1.6 -15.3,1.4 -49.8,-1.6 -99.6,-0.3 -149.3,3.8 -21.8,1.8 -43.5,5.9 -65.2,9.1 -12.9,1.9 -23.3,-3.8 -33.4,-10.4 -2.9,-1.9 -2.4,-4.8 1,-6.1 2.1,-0.8 4.5,-1 6.8,-1.2 18.8,-1 37.6,-1.6 56.4,-3 17.4,-1.3 34.7,-3.3 51.8,-5 0,-24.2 0,-48.3 0,-73 -9.6,0.6 -18.3,1.5 -27,1.5 -7.9,0 -16,-0.4 -23.8,-1.5 -5.6,-0.7 -8.7,-4.1 -10.6,-9.8 20.3,-2 40.3,-3.9 61.5,-6 -1,-15.5 -1.8,-30.4 -3,-45.3 -0.5,-6.4 -1,-13.1 -6.1,-18 -1.4,-1.4 -3.7,-2.7 -5.5,-2.7 -12.5,0.1 -25,1.1 -37.4,0.7 -5,-0.2 -10,-3 -14.7,-5.2 -1.7,-0.8 -2.7,-3.1 -4.9,-5.9 3.3,-0.9 5.5,-1.7 7.8,-2 30.3,-4 60.7,-7.7 91,-12 11.2,-1.6 22.1,-4.7 33.2,-7.1 10.8,-2.4 19.5,2.4 27.6,8.4 3.6,2.7 2.3,6.7 -2.7,7.9 -11.5,2.6 -23.1,5 -34.7,7 -10.8,2.1 -22,3.3 -34.5,5 z"
   id="path4"
   inkscape:connector-curvature="0" />
		<path
   d="m 301.7,558.9 c 4.8,0 8.5,0 12.1,0 19,0 38,0 57,0 1,0 2,0 3,0 3,0 6.1,0.2 6,4.2 -0.1,3.6 -2.6,4.6 -5.9,4.5 -7.8,-0.1 -15.7,0 -23.5,0 -13.3,0 -26.7,0 -40,0 -1.6,0 -3.2,0.1 -5.7,0.3 5.7,4.7 10.6,8.8 15.6,12.8 10,8 20,16 30,24 2,1.6 4.6,3.2 2.6,6 -2.1,3 -5,1.9 -7.4,0 -7.6,-6 -15.1,-12 -22.7,-18 -8.6,-6.8 -17.1,-13.7 -26.9,-21.5 0,3.2 0,4.9 0,6.5 0,19.7 0,39.3 0,59 0,1.2 0.4,2.6 -0.1,3.4 -1,1.7 -2.6,3.2 -3.9,4.7 -1.3,-1.6 -3.6,-3.2 -3.7,-4.9 -0.4,-12.7 -0.3,-25.3 -0.3,-38 0,-10 0,-20 0,-31.7 -5.7,4.5 -10.4,8.2 -15.1,12 -11.8,9.4 -23.6,18.9 -35.5,28.2 -1.1,0.9 -2.7,1.8 -4,1.8 -1.3,0 -3.5,-1.1 -3.6,-1.9 -0.2,-1.5 0.4,-3.7 1.5,-4.7 4.1,-3.7 8.4,-7 12.7,-10.5 10.8,-8.6 21.6,-17.1 32.5,-25.7 0.3,-0.3 0.5,-0.7 1.3,-1.9 -2.4,0 -4.1,0 -5.8,0 -19.5,0 -39,0 -58.5,0 -1.2,0 -2.3,0 -3.5,0 -3.1,0 -5,-2 -4.5,-4.7 0.3,-1.6 2.9,-2.9 4.7,-3.9 1,-0.6 2.6,-0.1 3.9,-0.1 21.8,0 43.6,0 66.3,0 -1,-1.3 -1.5,-2.2 -2.3,-2.9 -15.2,-13.4 -30.4,-26.8 -45.6,-40.2 -2.2,-2 -4.8,-4.1 -2.4,-7 2.5,-3.1 5.3,-1.3 7.7,0.9 15.2,13.4 30.4,26.8 45.7,40.2 1.2,1 2.5,1.9 4.6,3.5 0,-4.3 0,-7.5 0,-10.8 0,-16.2 0,-32.3 0,-48.5 0,-3.1 0.4,-6.1 4.2,-6 3.5,0.2 3.7,3.2 3.7,6 0,19 0,38 0,58.7 5.4,-4.7 9.8,-8.4 14.2,-12.3 11.2,-9.9 22.3,-19.9 33.5,-29.9 0.5,-0.4 1.1,-0.7 1.6,-1.1 2.3,-2 5,-3.6 7.4,-0.8 2.4,2.9 0.2,5 -2.2,7 -15.9,14.1 -31.7,28.3 -48.7,43.3 z"
   id="path6"
   inkscape:connector-curvature="0" />
		<path
   d="m 396.3,387.5 c 0,4.5 -0.4,8.8 -4.9,11.2 -5,2.6 -9.9,1.2 -13.3,-2.5 -9.4,-10.7 -18.4,-21.8 -27.3,-32.9 -1.9,-2.3 -0.4,-4.1 2.3,-4.4 1.6,-0.2 3.4,-0.2 4.9,0.3 8.7,2.8 17.4,5.4 25.9,8.6 9,3.4 12.5,10.6 12.4,19.7 z"
   id="path8"
   inkscape:connector-curvature="0" />
	</g>
</g>
</svg>