<?xml version="1.0" encoding="UTF-8" standalone="no"?>
<!-- Generator: Adobe Illustrator 22.0.1, SVG Export Plug-In . SVG Version: 6.00 Build 0)  -->

<svg
   xmlns:dc="http://purl.org/dc/elements/1.1/"
   xmlns:cc="http://creativecommons.org/ns#"
   xmlns:rdf="http://www.w3.org/1999/02/22-rdf-syntax-ns#"
   xmlns:svg="http://www.w3.org/2000/svg"
   xmlns="http://www.w3.org/2000/svg"
   xmlns:sodipodi="http://sodipodi.sourceforge.net/DTD/sodipodi-0.dtd"
   xmlns:inkscape="http://www.inkscape.org/namespaces/inkscape"
   version="1.1"
   id="Слой_1"
   x="0px"
   y="0px"
   viewBox="0 0 490.76939 559.37779"
   xml:space="preserve"
   sodipodi:docname="BOU2.svg"
   width="490.76938"
   height="559.37781"
   inkscape:version="0.92.3 (2405546, 2018-03-11)"><metadata
   id="metadata17"><rdf:RDF><cc:Work
       rdf:about=""><dc:format>image/svg+xml</dc:format><dc:type
         rdf:resource="http://purl.org/dc/dcmitype/StillImage" /><dc:title></dc:title></cc:Work></rdf:RDF></metadata><defs
   id="defs15" /><sodipodi:namedview
   pagecolor="#ffffff"
   bordercolor="#666666"
   borderopacity="1"
   objecttolerance="10"
   gridtolerance="10"
   guidetolerance="10"
   inkscape:pageopacity="0"
   inkscape:pageshadow="2"
   inkscape:window-width="1920"
   inkscape:window-height="1039"
   id="namedview13"
   showgrid="false"
   fit-margin-top="43"
   fit-margin-left="48"
   fit-margin-right="48"
   fit-margin-bottom="43"
   inkscape:zoom="1.1212733"
   inkscape:cx="-52.553866"
   inkscape:cy="207.17304"
   inkscape:window-x="0"
   inkscape:window-y="0"
   inkscape:window-maximized="1"
   inkscape:current-layer="Слой_1"
   showguides="true"
   inkscape:guide-bbox="true"><sodipodi:guide
     position="244.58801,82.049577"
     orientation="1,0"
     id="guide832"
     inkscape:locked="false" /></sodipodi:namedview>
<path
   style="fill:#ffffff;stroke:#000000;stroke-width:1px;stroke-linecap:butt;stroke-linejoin:miter;stroke-opacity:1"
   d="M 123.71666,79.154282 53.716896,511.45005 442.184,511.13473 374.07613,81.361482 251.41891,45.100342 Z"
   id="path819"
   inkscape:connector-curvature="0" /><g
   id="g10"
   transform="translate(-54.313404,-142.425)">
	<g
   id="g8">
		<path
   d="m 299,658.8 c -63.2,0 -126.3,0 -189.5,0 -2.1,0 -4.6,0.1 -6.3,-0.9 -1.4,-0.8 -2.8,-3.3 -2.5,-4.9 3.9,-24.2 8.2,-48.4 12.2,-72.6 5.6,-34.1 11.1,-68.1 16.6,-102.2 4.7,-29.1 9.4,-58.3 14.1,-87.5 5,-31 10,-61.9 15,-92.9 3.8,-24 7.7,-48.1 11.2,-72.2 0.7,-5 3.2,-7.4 7.9,-8.7 35.5,-9.6 71,-19 106.3,-29.2 10.5,-3 19.9,-3.1 30.4,0.1 35.7,11.1 71.7,21.5 107.7,31.9 4.6,1.3 7,3.5 7.7,8.3 4.6,29.9 9.3,59.7 14,89.5 4.7,30 9.4,60 14,90 5,32.3 10,64.6 15,96.9 5,32 10,63.9 14.9,95.9 2.6,17.1 5,34.2 7.4,51.3 0.9,6.5 0.3,7.2 -6.3,7.2 -50.3,0 -100.6,0 -151,0 -12.8,0 -25.8,0 -38.8,0 z m 189.2,-7.1 c -1.9,-13.2 -3.8,-26 -5.7,-38.8 -2.4,-15.2 -5,-30.5 -7.4,-45.7 -4.9,-32 -9.7,-64 -14.6,-95.9 -2.5,-16.6 -5.1,-33.1 -7.7,-49.7 -4.8,-31 -9.6,-62 -14.5,-93 -2,-12.6 -4.3,-25.2 -6.2,-37.8 -3.1,-20.2 -6,-40.4 -9.2,-60.5 -0.2,-1.5 -1.9,-3.5 -3.4,-4 -9,-2.8 -18.1,-5.1 -27.2,-7.8 -26.5,-7.8 -53.1,-15.3 -79.4,-23.8 -9.5,-3.1 -17.9,-2.8 -27.4,0 -34.2,9.9 -68.6,19 -103,28.3 -3.2,0.9 -5.3,1.8 -5.7,6 -1.2,10.9 -3.1,21.7 -4.9,32.5 -2.5,15.4 -5.3,30.7 -7.8,46.1 -4.8,30 -9.4,60 -14.2,90 -4.9,31 -9.9,61.9 -15,92.8 -3.6,21.9 -7.3,43.8 -10.9,65.7 -4,24.2 -7.9,48.5 -11.8,72.7 -1.2,7.5 -2.3,15 -3.4,22.7 126.6,0.2 252.7,0.2 379.4,0.2 z"
   id="path2"
   inkscape:connector-curvature="0" />
		<path
   d="m 208.3,254.4 c 3.6,-0.5 7.1,-1.2 10.7,-1.5 41.7,-3.3 83.2,-8.1 124,-17.3 10.4,-2.4 18.5,1.8 26.7,6.8 1.3,0.8 2.5,3.6 2.1,5 -0.4,1.4 -2.7,2.9 -4.4,3.3 -11.4,2.3 -22.9,4.5 -34.4,6.2 -11,1.7 -22,2.9 -33.9,4.4 2.5,1.7 4.6,2.9 6.4,4.5 4.6,3.8 4.4,7.3 2.6,12.7 -2.5,7.5 -4.3,15.3 -5.3,23.1 -1.4,10.5 -1.7,21.1 -2.5,32.9 12,-2.3 22.9,-3.5 33.3,-6.6 10.2,-3 19,-1 27.7,3.8 1.2,0.6 2.4,1.3 3.4,2.1 3.8,3.3 3.2,6.8 -1.7,7.8 -9.4,2 -18.9,3.8 -28.5,5.2 -11,1.7 -22.1,2.9 -33.4,4.3 0,23.8 0,47.3 0,71.5 11,-0.8 21.8,-1.1 32.5,-2.3 20.4,-2.2 40.6,-5.7 61,-7 12.4,-0.8 23.8,4.5 32.4,13.9 3.4,3.7 2.3,6.8 -2.8,7.8 -4.8,1 -9.9,1.5 -14.9,1.4 -49.9,-1.6 -99.7,-0.3 -149.4,3.8 -21.9,1.8 -43.5,5.8 -65.2,9.1 -12.9,2 -23.3,-3.8 -33.5,-10.3 -3.2,-2 -2.5,-5 1,-6.4 1.8,-0.7 3.9,-0.9 5.8,-1 31.4,-2.2 62.8,-4.4 94.2,-6.6 6.3,-0.4 12.6,-1 18.7,-1.4 0,-23.5 0,-46.8 0,-70.6 -6.2,0.5 -11.6,1.2 -17,1.2 -10.3,0.1 -20.6,0.1 -30.9,-0.6 -5.6,-0.4 -10.3,-3.5 -12.7,-9.9 2.5,-0.5 4.5,-1.2 6.6,-1.4 15.7,-1.6 31.5,-3.3 47.2,-4.7 4.8,-0.4 6.5,-1.9 6.1,-7 -1.4,-17.4 -2,-34.9 -3.6,-52.3 -0.4,-4.5 -3.4,-8.9 -5.7,-13 -0.6,-1.1 -3.4,-1.3 -5.2,-1.3 -12.6,0.4 -25.3,1.2 -37.9,1.5 -3.7,0.1 -7.8,-0.6 -11.2,-2.1 -3.5,-1.6 -6.4,-4.6 -9.5,-7 0.6,-0.4 0.9,-1.2 1.2,-2 z"
   id="path4"
   inkscape:connector-curvature="0" />
		
	</g>
</g>
<path
   inkscape:connector-curvature="0"
   style="display:block;fill-rule:evenodd;stroke-width:11.66291523"
   d="m 250.35846,492.07561 -5.83143,10.49664 -5.83146,-10.49664 v -75.80893 l -52.48312,51.31683 -11.66293,3.49887 3.49886,-11.66294 51.31685,-51.31682 h -74.64268 l -10.49659,-6.99773 10.49659,-5.83147 h 74.64268 l -52.4831,-51.31681 -2.33261,-11.66293 11.66293,3.4989 52.48312,51.3168 v -75.80894 l 5.83146,-10.49664 5.83143,10.49664 v 74.64267 l 51.31685,-50.15053 11.66293,-3.4989 -3.49891,11.66293 -51.31681,51.31681 h 74.64266 l 10.49662,5.83147 -10.49662,6.99773 h -74.64266 l 51.31681,51.31682 3.49891,11.66294 -11.66293,-3.49887 -51.31685,-50.15053 z"
   class="g3_7"
   id="path58" /></svg>