<?xml version="1.0" encoding="UTF-8" standalone="no"?>
<!-- Generator: Adobe Illustrator 22.0.1, SVG Export Plug-In . SVG Version: 6.00 Build 0)  -->

<svg
   xmlns:dc="http://purl.org/dc/elements/1.1/"
   xmlns:cc="http://creativecommons.org/ns#"
   xmlns:rdf="http://www.w3.org/1999/02/22-rdf-syntax-ns#"
   xmlns:svg="http://www.w3.org/2000/svg"
   xmlns="http://www.w3.org/2000/svg"
   xmlns:sodipodi="http://sodipodi.sourceforge.net/DTD/sodipodi-0.dtd"
   xmlns:inkscape="http://www.inkscape.org/namespaces/inkscape"
   version="1.1"
   id="Слой_1"
   x="0px"
   y="0px"
   viewBox="0 0 490.85173 559.45396"
   xml:space="preserve"
   sodipodi:docname="WFU.svg"
   width="490.85172"
   height="559.45398"
   inkscape:version="0.92.3 (2405546, 2018-03-11)"><metadata
   id="metadata23"><rdf:RDF><cc:Work
       rdf:about=""><dc:format>image/svg+xml</dc:format><dc:type
         rdf:resource="http://purl.org/dc/dcmitype/StillImage" /><dc:title></dc:title></cc:Work></rdf:RDF></metadata><defs
   id="defs21" /><sodipodi:namedview
   pagecolor="#ffffff"
   bordercolor="#666666"
   borderopacity="1"
   objecttolerance="10"
   gridtolerance="10"
   guidetolerance="10"
   inkscape:pageopacity="0"
   inkscape:pageshadow="2"
   inkscape:window-width="1920"
   inkscape:window-height="1039"
   id="namedview19"
   showgrid="false"
   fit-margin-top="43"
   fit-margin-left="48"
   fit-margin-right="48"
   fit-margin-bottom="43"
   inkscape:zoom="6.468068"
   inkscape:cx="198.78349"
   inkscape:cy="149.32305"
   inkscape:window-x="0"
   inkscape:window-y="0"
   inkscape:window-maximized="1"
   inkscape:current-layer="Слой_1"
   showguides="true"
   inkscape:guide-bbox="true"><sodipodi:guide
     position="246.13224,314.15871"
     orientation="1,0"
     id="guide862"
     inkscape:locked="false" /></sodipodi:namedview>
<path
   style="fill:#ffffff;stroke:#000000;stroke-width:1px;stroke-linecap:butt;stroke-linejoin:miter;stroke-opacity:1"
   d="m 52.026843,46.437752 65.900667,429.142628 125.17974,38.78365 126.12568,-34.68456 69.99976,-432.295768 -387.205847,-1.89189 1.89188,0.31531 z"
   id="path822"
   inkscape:connector-curvature="0" /><g
   id="g16"
   transform="translate(-54.383027,-141.98368)">
	<g
   id="g14">
		<path
   d="m 299.5,185 c 62.8,0 125.6,0 188.5,0 2.1,0 4.6,-0.2 6.3,0.8 1.5,0.9 3.2,3.5 2.9,5 -2.5,15.9 -5.4,31.7 -8.1,47.6 -4.2,25.4 -8.3,50.8 -12.4,76.2 -5.2,31.8 -10.3,63.5 -15.5,95.3 -5,30.6 -9.9,61.2 -14.8,91.9 -4.7,29.3 -9.5,58.6 -14.2,88 -1.5,9.3 -3.1,18.6 -4.1,28 -0.6,5.2 -2.9,7.8 -8,9.2 -35.3,9.5 -70.7,18.9 -105.9,29.1 -10.8,3.1 -20.6,3.2 -31.4,-0.2 -35.6,-11.1 -71.4,-21.4 -107.2,-31.7 -5,-1.4 -7,-4.1 -7.7,-8.8 -2.2,-14.6 -4.7,-29.2 -6.9,-43.8 -3.7,-24.3 -7.3,-48.6 -11.1,-72.9 -3.6,-23.1 -7.3,-46.2 -10.9,-69.2 -4.7,-30 -9.3,-60 -14,-90.1 -5,-32 -10.1,-63.9 -14.9,-95.9 -2.6,-17.1 -5,-34.2 -7.4,-51.3 -0.9,-6.5 -0.2,-7.2 6.3,-7.2 63.6,0 127.1,0 190.5,0 z m -189.7,7.2 c 2,13.2 3.8,26.2 5.8,39.1 4.8,31.5 9.7,62.9 14.6,94.4 5.1,33 10.3,65.9 15.4,98.9 4.6,29.3 9,58.7 13.6,88.1 5.2,33.6 10.5,67.2 15.9,100.8 0.3,1.6 2.1,3.7 3.7,4.2 9.1,2.9 18.4,5.3 27.6,8 29.9,8.8 59.7,17.7 89.6,26.4 1.8,0.5 3.9,0.3 5.7,-0.2 14.6,-3.9 29.1,-8 43.6,-12 24,-6.6 47.9,-13.1 71.9,-19.8 1.4,-0.4 3.3,-1.9 3.5,-3.2 2.5,-14.4 4.8,-28.8 7.1,-43.2 4.4,-28.2 8.8,-56.4 13.3,-84.6 3.1,-19.5 6.6,-38.9 9.7,-58.3 4.1,-25.7 8.1,-51.5 12.2,-77.2 3.5,-21.6 7.2,-43.2 10.8,-64.8 4.1,-24.7 8,-49.5 12,-74.2 1.2,-7.3 2.2,-14.7 3.4,-22.4 -126.6,0 -252.8,0 -379.4,0 z"
   id="path2"
   inkscape:connector-curvature="0" />
		<path
   d="m 365.7,519.7 c 1.6,17.1 3,33.2 4.8,49.2 0.3,3 2.3,5.8 3.7,8.6 2.6,4.9 0.5,9.3 -4.9,8.6 -6,-0.7 -12.1,-2.2 -17.7,-4.5 -5.2,-2.1 -5.1,-5.1 -4.5,-11.7 1.3,-15.7 1.8,-31.4 2.7,-47.5 -15.2,1.5 -29.1,2.8 -42.4,4 0,9.8 -0.2,19.2 0,28.7 0.5,16 1.3,32 1.9,47.9 0.2,6.9 1.2,13.5 5.3,19.4 2.9,4.2 0.5,8.7 -4.6,8.9 -8,0.3 -15.5,-1.8 -22.2,-6.2 -3.5,-2.3 -4,-5.6 -3.5,-9.6 1.4,-12 2.5,-24.1 3.8,-37.2 -9,1.8 -16.6,3.3 -24.1,4.8 -5.1,1 -10.1,2 -15.1,3.4 -9.2,2.6 -17,-0.4 -24.4,-5.4 -1.6,-1.1 -3.1,-3.3 -3.2,-5 -0.1,-1 2.7,-2.8 4.4,-3.1 9.5,-1.6 19.1,-3.1 28.6,-4 10.7,-1 21.5,-1.4 33,-2.1 0,-12.2 0,-25.3 0,-39.1 -7.5,0.6 -15.5,0.9 -23.3,1.9 -21.6,2.7 -43.1,6.6 -64.8,8.3 -12.9,1 -24.7,-4.8 -33.8,-14.4 -3.7,-3.9 -2.3,-7.7 3.1,-8.6 5.5,-0.9 11.2,-1.1 16.9,-1.2 34.5,-0.6 68.9,-1.1 103.4,-1.7 0.9,0 1.8,-0.1 3.7,-0.3 -1.5,-0.9 -2.1,-1.4 -2.8,-1.8 -7.4,-4.5 -7.9,-6.7 -5.5,-14.8 1.6,-5.5 2.6,-11.3 2.9,-17.1 0.6,-15.8 0.2,-31.7 1,-47.4 0.2,-4.5 2.7,-9.2 5.2,-13.2 2.7,-4.4 7.4,-4.1 10.1,0.4 4.7,8 7.4,16.4 3.7,25.7 -0.7,1.8 -1.2,3.8 -1.3,5.8 -0.8,18.9 -2.7,37.9 3.2,56.5 1.3,4 3.2,4.8 7.2,4.5 23.8,-1.8 47.3,-5.5 70.4,-11.2 6.8,-1.7 13.2,-1.4 19.5,1.3 5.5,2.4 11,4.8 16.2,7.7 1.7,0.9 2.5,3.5 3.7,5.3 -1.9,1.2 -3.7,3.2 -5.6,3.4 -8,0.7 -16,0.7 -24,1.1 -10,0.4 -20,1.1 -30.7,1.7 z"
   id="path4"
   inkscape:connector-curvature="0" />
		<path
   d="m 404.9,331.8 c -2.4,1 -4.7,2.1 -7.1,3.1 -44.3,18.6 -85,43.3 -121.7,74.4 -5.8,4.9 -11,10.7 -16.3,16.2 -5.8,6 -8.8,13.2 -8.8,21.6 0,1.3 -0.1,2.7 -0.3,4 -1.1,6.3 -3.9,8 -9.8,5.8 -8.7,-3.3 -15.2,-9.4 -20.5,-16.8 -1.9,-2.6 -2.5,-5.3 0.4,-8 21.5,-19.7 42.6,-39.7 67,-55.9 31.2,-20.7 65,-35.5 101.2,-44.8 4.9,-1.3 10.2,-1.4 15.3,-2.1 0.2,0.9 0.4,1.7 0.6,2.5 z"
   id="path6"
   inkscape:connector-curvature="0" />
		<path
   d="m 406.5,408 c -1.1,1.3 -2.2,2.7 -3.4,4 -13.3,15.2 -25.7,31.1 -34.5,49.4 -2.3,4.8 -3.5,10.3 -4.3,15.7 -0.5,3.4 -2,4.8 -4.8,3.9 -6.9,-2.3 -14,-4.4 -20.2,-7.9 -5.8,-3.2 -5.2,-8 -0.2,-12.5 4.2,-3.8 8.1,-7.9 11.8,-12.2 13.7,-16 28.7,-30.6 47.6,-40.4 2.2,-1.1 4.8,-1.2 7.3,-1.8 0.2,0.5 0.5,1.1 0.7,1.8 z"
   id="path8"
   inkscape:connector-curvature="0" />
		
		<path
   d="m 244.6,499.1 c -3.6,-0.4 -7.4,-0.2 -10.7,-1.4 C 221.5,493.4 209,489.4 197.1,484 186,479 180.2,466 182,453.9 c 0.5,-3.5 2.6,-6.1 5.9,-5.2 5.3,1.4 11.4,2.6 15.4,6 11.3,9.6 21.7,20.1 32.3,30.4 2.8,2.7 5.2,5.6 7.7,8.5 1,1.2 1.5,2.7 2.3,4 -0.4,0.6 -0.7,1.1 -1,1.5 z"
   id="path12"
   inkscape:connector-curvature="0" />
	</g>
</g>
<path
   inkscape:connector-curvature="0"
   style="display:block;fill-rule:evenodd;stroke-width:14.73411751"
   d="M 235.87896,179.49812 V 63.098622 h 16.20757 V 180.97155 l -7.36706,11.78731 z"
   class="g3_7"
   id="path270" /></svg>