<?xml version="1.0" encoding="UTF-8" standalone="no"?>
<!-- Generator: Adobe Illustrator 22.0.1, SVG Export Plug-In . SVG Version: 6.00 Build 0)  -->

<svg
   xmlns:dc="http://purl.org/dc/elements/1.1/"
   xmlns:cc="http://creativecommons.org/ns#"
   xmlns:rdf="http://www.w3.org/1999/02/22-rdf-syntax-ns#"
   xmlns:svg="http://www.w3.org/2000/svg"
   xmlns="http://www.w3.org/2000/svg"
   xmlns:sodipodi="http://sodipodi.sourceforge.net/DTD/sodipodi-0.dtd"
   xmlns:inkscape="http://www.inkscape.org/namespaces/inkscape"
   version="1.1"
   id="Слой_1"
   x="0px"
   y="0px"
   viewBox="0 0 490.35102 560.08183"
   xml:space="preserve"
   sodipodi:docname="WKA.svg"
   width="490.35101"
   height="560.08185"
   inkscape:version="0.92.3 (2405546, 2018-03-11)"><metadata
   id="metadata17"><rdf:RDF><cc:Work
       rdf:about=""><dc:format>image/svg+xml</dc:format><dc:type
         rdf:resource="http://purl.org/dc/dcmitype/StillImage" /><dc:title /></cc:Work></rdf:RDF></metadata><defs
   id="defs15" /><sodipodi:namedview
   pagecolor="#ffffff"
   bordercolor="#666666"
   borderopacity="1"
   objecttolerance="10"
   gridtolerance="10"
   guidetolerance="10"
   inkscape:pageopacity="0"
   inkscape:pageshadow="2"
   inkscape:window-width="3840"
   inkscape:window-height="2119"
   id="namedview13"
   showgrid="false"
   fit-margin-top="43"
   fit-margin-left="48"
   fit-margin-right="48"
   fit-margin-bottom="43"
   inkscape:zoom="3.1714398"
   inkscape:cx="283.45741"
   inkscape:cy="307.67244"
   inkscape:window-x="0"
   inkscape:window-y="0"
   inkscape:window-maximized="1"
   inkscape:current-layer="Слой_1" />
<path
   style="fill:#ffffff;stroke:#000000;stroke-width:1px;stroke-linecap:butt;stroke-linejoin:miter;stroke-opacity:1"
   d="M 50.450273,46.750325 118.55814,477.46953 242.16131,512.78472 370.17887,480.62267 440.17863,47.380953 Z"
   id="path819"
   inkscape:connector-curvature="0" /><g
   id="g10"
   transform="translate(-55.648991,-140.9)">
	<g
   id="g8">
		<path
   d="m 498,192.9 c -2,10.4 -4.1,20.7 -5.8,31.1 -2.6,15.5 -5,31.1 -7.5,46.7 -5.1,31.6 -10.3,63.2 -15.4,94.8 -4.6,28.3 -9,56.7 -13.6,85 -5.1,31.6 -10.3,63.2 -15.4,94.8 -3.9,24 -7.6,48.1 -11.2,72.2 -0.7,4.8 -3.2,7.1 -7.7,8.3 -27,7.3 -54,14.7 -81,22.1 -11.5,3.2 -22.9,6.7 -34.5,9.4 -4.1,1 -9,0.9 -13.1,-0.3 -21.7,-6.1 -43.2,-12.7 -64.9,-19.1 -17,-5 -33.9,-10.2 -51,-14.9 -5,-1.4 -7.1,-4 -7.8,-8.7 -4.6,-29.7 -9.3,-59.3 -14,-89 -4.7,-30 -9.4,-60 -14,-90 -5,-32.3 -10,-64.6 -15,-96.9 -4.8,-31 -9.5,-62 -14.2,-93 -2.8,-18.4 -5.6,-36.7 -8.2,-55.1 -0.3,-2 0.8,-4.3 1.3,-6.4 131,0 262,0 393,0 0,3 0,6 0,9 z m -387.1,-1.7 c 1.9,12.8 3.6,25.4 5.6,38 4.9,32 9.9,63.9 14.9,95.9 5,32.3 10.1,64.6 15.1,96.9 4.7,30 9.3,60 13.9,90 5.2,33.3 10.5,66.6 15.5,99.9 0.5,3 1.7,4.3 4.4,5 9.7,2.7 19.4,5.4 29.1,8.3 24,7 48.2,13.3 71.9,21.3 12.3,4.1 23.4,4.5 35.9,0.8 33.5,-10.1 67.3,-18.8 101,-27.9 2.8,-0.8 3.5,-2.1 3.9,-4.8 1.5,-11.2 3.3,-22.4 5.1,-33.5 4.9,-30.8 9.9,-61.6 14.9,-92.4 5,-31.1 10,-62.2 15.1,-93.3 4.9,-30.1 9.9,-60.2 14.9,-90.4 4,-24.1 7.9,-48.1 11.8,-72.2 2.2,-13.7 4.3,-27.5 6.5,-41.6 -126.7,0 -253,0 -379.5,0 z"
   id="path2"
   inkscape:connector-curvature="0" />
		<path
   d="m 357.7,428.4 c 11.9,-48.3 30.5,-81.9 45.6,-80.4 -0.7,1.8 -1.2,3.4 -2,4.9 -18.2,32.5 -26.3,67.8 -28.2,104.6 -0.8,15.1 -1.2,30.3 -0.8,45.4 0.1,5.7 2.9,11.4 4.6,17.1 0.4,1.4 1.2,2.8 1.6,4.2 1.6,5.8 -0.8,8.9 -6.5,7.6 -21.6,-5.1 -42.6,1.5 -63.9,2.8 -1.6,0.1 -3.8,1.6 -4.6,3 -8.2,13.7 -16.2,27.6 -24.1,41.4 -0.7,1.3 -0.7,3.1 -1,4.6 1.7,0.1 3.5,0.5 5,0.1 13.6,-3 27.2,-6.3 40.8,-9.3 2.2,-0.5 4.8,-0.9 6.9,-0.3 6.3,1.6 10.3,-1.6 14.8,-5.4 8.9,-7.4 18.5,-14.1 27.9,-20.8 2.3,-1.7 5.1,-3.3 8.4,-0.1 -1.3,1.4 -2.5,2.7 -3.7,4.1 -16.6,18.8 -32.3,38.2 -42.6,61.3 -1.8,4.1 -2.3,8.9 -2.8,13.5 -0.4,3.2 -1.9,5 -4.8,4.1 -6.6,-2.1 -13.4,-4.1 -19.5,-7.4 -6.4,-3.6 -5.9,-8.5 -0.8,-13.7 7.2,-7.3 13.8,-15.1 20.6,-22.7 -0.4,-0.7 -0.8,-1.3 -1.2,-2 -10.7,2.9 -21.5,5.5 -31.9,8.9 -8.8,2.9 -17.3,7 -25.9,10.4 -7.9,3.1 -22.9,-0.7 -28.4,-7.1 -3,-3.5 -2.8,-6.7 1.4,-9.8 18.7,-13.5 30.5,-33.3 45.9,-50.3 -9.3,1.8 -18.6,3.5 -27.9,5.4 -6.8,1.4 -13.6,3 -20.5,4.5 -1.5,0.3 -3.2,1 -4.4,0.6 -9.7,-3.8 -18.9,-8.5 -24.8,-17.5 -1,-1.5 -0.6,-4.7 0.4,-6.5 4.2,-8.3 5.6,-17.2 5.5,-26.2 -0.1,-31.1 -0.7,-62.3 -1,-93.4 -0.1,-12 -0.4,-24 3.1,-35.7 2.3,-7.5 6,-14.1 11.8,-19.4 4.3,-4 7,-3.7 11.1,0.5 10.6,11.1 21.2,22.1 31.7,33.2 0.9,1 1.5,2.3 2.2,3.4 -0.2,0.4 -0.5,0.8 -0.7,1.1 -2.4,-0.4 -4.8,-0.6 -7.1,-1.2 -5.7,-1.4 -11.3,-2.9 -16.9,-4.3 -7.7,-1.9 -11,0.2 -11.9,8.2 -1,9.3 -1.6,18.6 -2.1,27.9 -0.3,5.1 -0.1,10.3 -0.1,15.9 5.5,0.3 11.1,0.8 16.7,1 31.1,0.9 61.9,-1.1 92.3,-8 3.5,-0.9 7.6,1.1 11.8,1.8 z m -120.8,61.5 c 0.5,11 0.9,21.6 1.6,32.2 0.3,4.9 3.9,6.2 8.2,6 10.8,-0.6 21.6,-1.2 32.4,-1.9 4,-0.3 8,-0.9 12.5,-1.4 -5.3,-5.1 -4.9,-5.2 -3.9,-12.1 1.1,-7.8 1.3,-15.7 1.9,-24.2 -9.8,1.5 -18.5,2.4 -26.9,4.1 -8.1,1.7 -15.8,2.1 -23.2,-2.2 -0.6,-0.2 -1.3,-0.2 -2.6,-0.5 z m 0,-8.8 c 17.9,-2 35.2,-3.9 52.9,-5.9 0,-9.4 0,-18.6 0,-28.3 -10.5,1.1 -20.8,1.5 -30.9,3.4 -8.1,1.6 -14.9,-0.9 -22,-4.4 0,12.1 0,23.5 0,35.2 z m 70.4,5.6 c 0.4,8.5 0.5,16.4 1.3,24.1 0.3,3.2 2.1,6.3 3.6,9.2 0.6,1.1 2.7,2.1 3.9,1.9 9.6,-1.1 19.1,-2.4 28.7,-3.9 1.5,-0.2 3.4,-1.6 3.9,-2.9 4.4,-10.3 3.1,-21.1 3.1,-32.2 -15.2,1.3 -29.7,2.5 -44.5,3.8 z m 44.9,-13.4 c 1.1,-11.1 2.1,-21.7 3.2,-33 -16.9,1.9 -33.4,3.6 -50,5.5 0.4,9.8 0.8,18.9 1.2,27.6 15.5,-0.1 30.2,-0.1 45.6,-0.1 z"
   id="path4"
   inkscape:connector-curvature="0" />
		<path
   d="m 357.8,244 c -3.5,-3.3 -6.4,-6.1 -8.6,-8.1 -12.6,11.9 -25,23.8 -36.4,34.6 12.2,12.9 23.9,25.4 36.7,39 2.9,-3.8 5.4,-7 8.7,-11.3 3.7,12.5 6.8,23.4 10.3,35.4 -11.7,-3.4 -22.6,-6.5 -35.2,-10.1 4.4,-3.1 7.7,-5.4 10.3,-7.3 -13,-13.8 -24.8,-26.2 -36,-38.1 -12.8,12.4 -25.3,24.4 -38.9,37.5 3.6,2.8 6.8,5.4 10.9,8.6 -12.3,3.6 -23.1,6.8 -35.3,10.3 3.4,-11.9 6.5,-22.9 9.7,-33.8 0.5,-0.3 1,-0.6 1.6,-0.9 2.4,3.4 4.8,6.8 6.6,9.2 13.4,-12.8 25.9,-24.7 37.5,-35.7 -12.2,-12.8 -24,-25.3 -36.9,-38.9 -2.8,3.7 -5.2,7 -7.7,10.3 -0.5,-0.2 -1,-0.5 -1.6,-0.7 -3.4,-10.8 -6.7,-21.6 -10.4,-33.3 12,3.2 23,6.2 34.9,9.4 -3.4,3.6 -6.1,6.5 -8,8.6 12.1,12.8 23.9,25.3 35.1,37.1 12.7,-12.2 25.1,-24 38.5,-36.9 -3.8,-2.7 -7.1,-5.1 -10.5,-7.5 0.3,-0.6 0.6,-1.2 0.8,-1.8 10.7,-3.3 21.4,-6.7 33.3,-10.4 -3.3,12 -6.3,23 -9.4,34.8 z"
   id="path6"
   inkscape:connector-curvature="0" />
	</g>
</g>
</svg>