<?xml version="1.0" encoding="UTF-8" standalone="no"?>
<!-- Generator: Adobe Illustrator 22.0.1, SVG Export Plug-In . SVG Version: 6.00 Build 0)  -->

<svg
   xmlns:dc="http://purl.org/dc/elements/1.1/"
   xmlns:cc="http://creativecommons.org/ns#"
   xmlns:rdf="http://www.w3.org/1999/02/22-rdf-syntax-ns#"
   xmlns:svg="http://www.w3.org/2000/svg"
   xmlns="http://www.w3.org/2000/svg"
   xmlns:sodipodi="http://sodipodi.sourceforge.net/DTD/sodipodi-0.dtd"
   xmlns:inkscape="http://www.inkscape.org/namespaces/inkscape"
   version="1.1"
   id="Слой_1"
   x="0px"
   y="0px"
   viewBox="0 0 490.9701 560.74443"
   xml:space="preserve"
   sodipodi:docname="WKI.svg"
   inkscape:version="0.92.3 (2405546, 2018-03-11)"
   width="490.97009"
   height="560.74445"><metadata
   id="metadata23"><rdf:RDF><cc:Work
       rdf:about=""><dc:format>image/svg+xml</dc:format><dc:type
         rdf:resource="http://purl.org/dc/dcmitype/StillImage" /><dc:title></dc:title></cc:Work></rdf:RDF></metadata><defs
   id="defs21" /><sodipodi:namedview
   pagecolor="#ffffff"
   bordercolor="#666666"
   borderopacity="1"
   objecttolerance="10"
   gridtolerance="10"
   guidetolerance="10"
   inkscape:pageopacity="0"
   inkscape:pageshadow="2"
   inkscape:window-width="1920"
   inkscape:window-height="1039"
   id="namedview19"
   showgrid="false"
   inkscape:zoom="1.5857199"
   inkscape:cx="-16.731176"
   inkscape:cy="259.11383"
   inkscape:window-x="0"
   inkscape:window-y="0"
   inkscape:window-maximized="1"
   inkscape:current-layer="Слой_1"
   fit-margin-top="43"
   fit-margin-left="48"
   fit-margin-right="48"
   fit-margin-bottom="43"
   showguides="true"
   inkscape:guide-bbox="true"><sodipodi:guide
     position="247.20634,484.32262"
     orientation="1,0"
     id="guide838"
     inkscape:locked="false" /><sodipodi:guide
     position="67.792556,59.27907"
     orientation="0,1"
     id="guide849"
     inkscape:locked="false" /></sodipodi:namedview>
<style
   type="text/css"
   id="style2">
	.st0{fill:#060606;}
	.st1{fill:#FD0404;}
	.st2{fill:#FD0304;}
	.st3{fill:#FD0B0B;}
	.st4{fill:#FD0F10;}
</style>
<path
   style="fill:#ffffff;stroke:#000000;stroke-width:1px;stroke-linecap:butt;stroke-linejoin:miter;stroke-opacity:1"
   d="M 369.70495,480.75574 438.44345,46.095114 51.710577,46.883404 117.92656,476.81431 243.57927,514.02139 Z"
   id="path830"
   inkscape:connector-curvature="0" /><g
   id="g16"
   transform="rotate(-180,271.48505,350.82222)">
	<g
   id="g14">
		<path
   class="st0"
   d="m 100,646.9 c 0.6,-1.3 1.5,-2.5 1.8,-3.8 1.8,-10 3.4,-20 5.1,-30 2.3,-14.2 4.6,-28.5 6.9,-42.7 2.4,-14.7 4.7,-29.4 7.1,-44.1 2.6,-16.2 5.2,-32.4 7.9,-48.6 2.4,-14.7 4.7,-29.4 7.1,-44.2 2.3,-14.4 4.6,-28.8 7,-43.1 2.7,-16.5 5.3,-33 8,-49.5 2.3,-14.4 4.6,-28.8 7,-43.2 2.4,-14.7 4.8,-29.4 7.1,-44.1 1.5,-9.5 3,-18.9 4.2,-28.4 0.6,-4.5 2.8,-7 7.2,-8.1 12.4,-3.3 24.8,-6.8 37.2,-10.2 15.9,-4.4 31.9,-8.7 47.8,-13 11.6,-3.2 23.1,-6.3 34.7,-9.5 0.1,0 0.1,-0.3 0.1,-0.5 1.7,0 3.3,0 5,0 6.8,2.2 13.6,4.4 20.5,6.5 8,2.5 16.1,4.8 24.2,7.2 17.9,5.2 35.8,10.3 53.7,15.5 7.4,2.2 14.7,4.9 22.3,6.6 5.1,1.1 6.6,4.2 7.3,8.6 2,12.6 4,25.2 6,37.8 2.1,13.9 4.1,27.9 6.2,41.8 2.2,13.9 4.6,27.8 6.7,41.7 2.1,13.7 4.1,27.5 6.2,41.2 1.2,7.7 2.6,15.3 3.8,22.9 1.5,9.5 2.7,19.1 4.2,28.6 2.5,16.2 5.1,32.4 7.6,48.6 1.4,9.1 2.6,18.3 4.1,27.4 2,12.3 4.2,24.5 6.1,36.7 1.8,11.7 3.4,23.3 5.2,35 2.2,14.2 4.5,28.5 6.6,42.7 1.1,7 2.1,14.1 3,21.1 0.4,3.2 -0.9,4.5 -4.2,4.8 -1,0.1 -2,0 -3,0 -126.3,0 -252.6,0 -378.9,0 -2.9,0 -5.8,-0.6 -8.7,-0.9 -0.1,-3.5 -0.1,-7.1 -0.1,-10.8 z m 387.2,4.8 c -1.9,-12.7 -3.6,-25 -5.5,-37.2 -2.6,-17 -5.2,-34.1 -7.9,-51.1 -2.3,-15 -4.7,-30.1 -7,-45.1 -2.5,-15.7 -5,-31.4 -7.4,-47.1 -2.5,-16.4 -5,-32.7 -7.5,-49.1 -2.4,-15.7 -5,-31.4 -7.4,-47.1 -2.2,-14.4 -4.3,-28.8 -6.6,-43.2 -2.8,-17.7 -5.6,-35.3 -8.4,-53 -1.9,-12 -3.7,-24 -5.6,-35.9 -0.8,-5.2 -1.6,-10.4 -2.4,-15.4 -1.3,-0.5 -2.1,-1 -3.1,-1.3 -10.6,-3.1 -21.2,-6.1 -31.8,-9.2 -16,-4.6 -32,-9.3 -48,-14 -12.7,-3.7 -25.3,-7.6 -37.9,-11.3 -1.3,-0.4 -2.9,-0.4 -4.3,-0.1 -13.7,3.7 -27.4,7.6 -41.1,11.4 -13.7,3.7 -27.4,7.4 -41.1,11.1 -4.6,1.3 -9.2,2.6 -13.8,3.9 -7.9,2.2 -15.9,4.3 -23.6,6.4 -0.4,0.9 -0.6,1.4 -0.7,1.8 -1.8,11.8 -3.5,23.7 -5.3,35.5 -1.2,7.5 -2.7,15 -3.9,22.5 -2.1,12.9 -4,25.8 -6.1,38.7 -2.2,13.7 -4.6,27.4 -6.8,41.2 -2.1,13.3 -4.1,26.6 -6.2,39.8 -1.6,9.7 -3.4,19.3 -5,28.9 -1.8,10.9 -3.4,21.9 -5.1,32.8 -2.2,14.1 -4.6,28.1 -6.8,42.2 -2.4,14.9 -4.7,29.8 -7.1,44.6 -2.2,13.9 -4.6,27.7 -6.8,41.6 -1.8,11 -3.4,22 -5.2,33 -1.2,7.2 -2.5,14.3 -3.8,21.5 -0.2,1 -0.2,2.1 -0.3,3.3 126.8,-0.1 252.9,-0.1 379.5,-0.1 z"
   id="path4"
   inkscape:connector-curvature="0"
   style="fill:#060606" />
		
		<g
   id="g821" />
		
		
	</g>
</g>
<path
   inkscape:connector-curvature="0"
   style="display:block;fill:#000000;fill-opacity:1;fill-rule:evenodd;stroke-width:11.97231865"
   d="m 249.63879,238.60139 -5.87502,10.97893 -5.87503,-10.97893 v -74.41268 l -54.05022,54.89461 -11.75002,3.65964 3.52501,-12.19881 52.87519,-54.89458 h -74.02527 l -10.57504,-6.0994 10.57504,-6.0994 h 83.42531 V 70.257984 l 5.87503,-10.97892 5.87502,10.97892 v 73.192786 h 84.6003 l 10.57504,6.0994 -10.57504,6.0994 h -76.37528 l 54.05019,56.11447 3.52502,12.1988 -11.75004,-3.65965 -54.05019,-54.89459 z"
   class="g6_7"
   id="path200" /><path
   d="m 263.46377,268.64562 c 0,21.7 0,43.1 0,65.2 10.5,-1.3 20.3,-2.2 29.9,-3.8 10.1,-1.7 19.9,-2.4 29,3.4 1.8,1.2 3.6,2.6 5.3,3.9 -0.1,0.5 -0.2,1 -0.3,1.5 -2.3,0.6 -4.5,1.6 -6.8,1.9 -17.4,2.1 -34.7,4.1 -52.1,6 -3.3,0.4 -4.7,1.3 -4.5,4.9 0.6,9.2 -0.8,18.9 7.1,26.7 11.4,-4 22.5,-3.4 33.6,6.7 -4.1,1.1 -6.9,2 -9.9,2.6 -20.7,4 -41.5,7.9 -62.2,11.9 -9.8,1.9 -17.1,-2.5 -23.5,-9.1 -2.3,-2.3 -1.4,-4.3 1.5,-5.2 1.6,-0.5 3.3,-0.7 4.9,-0.8 11.3,-0.9 22.6,-1.7 35.1,-2.6 -1.9,-1.3 -2.6,-1.9 -3.5,-2.4 -4.2,-2.4 -6,-5.6 -4.8,-10.8 1.4,-5.8 1.7,-11.8 2.6,-18.7 -8.4,1.2 -15.9,2.1 -23.4,3.3 -7.6,1.2 -15.2,3.3 -22.5,-0.7 -4,-2.2 -7.9,-5 -11.3,-8 -2.7,-2.4 -1.8,-5 1.7,-5.9 2.9,-0.7 5.9,-0.9 8.9,-1.1 15.3,-0.7 30.5,-1.4 46.4,-2.1 0.7,-22.2 1.4,-43.8 2.1,-66.2 -7.8,0.5 -15,0.7 -22.2,1.6 -13.7,1.6 -27.4,3.7 -41.1,5.4 -11.9,1.5 -21.9,-2.9 -30.6,-10.5 -4.5,-3.9 -3.4,-7.4 2.5,-8.5 3.7,-0.7 7.6,-0.8 11.4,-0.9 32.8,-0.7 65.6,-0.6 98.4,-2.4 18.9,-1 37.6,-5 56.3,-7.7 10.9,-1.6 19.7,3.6 28.2,9.1 2.9,1.9 1.7,4.5 -1.3,5.5 -2.2,0.7 -4.6,0.7 -6.9,0.9 -25.6,2 -51.1,4 -76.7,6.1 -0.5,0.5 -1.2,0.8 -1.3,0.8 z"
   id="path10"
   inkscape:connector-curvature="0" /><path
   d="m 249.86377,462.04562 c 11.2,-15.6 21.3,-30.7 32.5,-45 22.9,-29.4 50.8,-52.7 84.8,-68.2 4.2,-1.9 9,-2.6 13.5,-3.9 0.3,0.7 0.7,1.3 1,2 -1.6,1.3 -3.2,2.8 -4.9,4 -41.2,29.1 -75.6,64.6 -101.8,107.9 -5.5,9.10001 -8,18.90001 -8.3,29.40001 -0.2,9 -3.2,10.7 -11.2,6.5 -2.5,-1.3 -4.7,-3.1 -6.9,-4.9 -8.8,-7.7 -9.1,-9.1 -4.8,-18 -12,-11.60001 -24.2,-22.40001 -35.3,-34.30001 -23.7,-25.4 -52.1,-43.2 -84.2,-55.8 -4.3,-1.7 -8.6,-3.5 -12.8,-5.6 -1.3,-0.6 -3,-2.2 -3,-3.4 0,-1 1.9,-2.8 3.2,-3.1 14.5,-2.6 29.1,-5.4 43.7,-7.1 7,-0.8 13.4,3.1 17.8,8.6 14.8,18.2 29.3,36.7 44,55 6.3,7.8 12.5,15.6 19.1,23.1 4.3,4.7 9.1,8.6 13.6,12.8 z"
   id="path12"
   inkscape:connector-curvature="0" /><path
   d="m 236.86377,279.44562 c -0.4,0.8 -0.7,1.8 -1.4,2.4 -11.6,10.9 -19.7,24.1 -25.5,38.9 -2.4,6.2 -3.9,6.8 -9.4,3.1 -4.7,-3.1 -9.3,-6.6 -13.1,-10.7 -5,-5.4 -3.6,-9.5 3,-12.9 12.1,-6.2 24.1,-12.7 36.2,-18.9 2.9,-1.5 6.2,-2.4 9.3,-3.6 0.3,0.6 0.6,1.2 0.9,1.7 z"
   id="path16"
   inkscape:connector-curvature="0" /><path
   d="m 279.66377,286.94562 c 1.6,-5 1.7,-9.6 6.5,-11.6 4.9,-2 9,-0.1 11.9,3.8 6.7,9.1 13.1,18.4 19.3,27.8 1.9,2.9 0.1,5.1 -3.2,4.6 -10,-1.6 -19.8,-4.3 -27.4,-11 -3.6,-3.1 -4.8,-9 -7.1,-13.6 z"
   id="path18"
   inkscape:connector-curvature="0" /></svg>