<?xml version="1.0" encoding="UTF-8" standalone="no"?>
<!-- Generator: Adobe Illustrator 22.0.1, SVG Export Plug-In . SVG Version: 6.00 Build 0)  -->

<svg
   xmlns:dc="http://purl.org/dc/elements/1.1/"
   xmlns:cc="http://creativecommons.org/ns#"
   xmlns:rdf="http://www.w3.org/1999/02/22-rdf-syntax-ns#"
   xmlns:svg="http://www.w3.org/2000/svg"
   xmlns="http://www.w3.org/2000/svg"
   xmlns:sodipodi="http://sodipodi.sourceforge.net/DTD/sodipodi-0.dtd"
   xmlns:inkscape="http://www.inkscape.org/namespaces/inkscape"
   version="1.1"
   id="Слой_1"
   x="0px"
   y="0px"
   viewBox="0 0 483.78138 553.455"
   xml:space="preserve"
   sodipodi:docname="WKY.svg"
   width="483.78137"
   height="553.45502"
   inkscape:version="0.92.3 (2405546, 2018-03-11)"><metadata
   id="metadata19"><rdf:RDF><cc:Work
       rdf:about=""><dc:format>image/svg+xml</dc:format><dc:type
         rdf:resource="http://purl.org/dc/dcmitype/StillImage" /><dc:title></dc:title></cc:Work></rdf:RDF></metadata><defs
   id="defs17" /><sodipodi:namedview
   pagecolor="#ffffff"
   bordercolor="#666666"
   borderopacity="1"
   objecttolerance="10"
   gridtolerance="10"
   guidetolerance="10"
   inkscape:pageopacity="0"
   inkscape:pageshadow="2"
   inkscape:window-width="3840"
   inkscape:window-height="2119"
   id="namedview15"
   showgrid="false"
   fit-margin-top="43"
   fit-margin-left="48"
   fit-margin-bottom="43"
   fit-margin-right="48"
   inkscape:zoom="2.2425466"
   inkscape:cx="251.91806"
   inkscape:cy="275.17653"
   inkscape:window-x="0"
   inkscape:window-y="0"
   inkscape:window-maximized="1"
   inkscape:current-layer="Слой_1" />
<path
   style="fill:#ffffff;stroke:#000000;stroke-width:1px;stroke-linecap:butt;stroke-linejoin:miter;stroke-opacity:1"
   d="M 48.581225,43.502014 113.23985,472.92454 237.65199,509.93603 366.07741,476.49191 435.19527,44.839784 Z"
   id="path826"
   inkscape:connector-curvature="0" /><g
   id="g12"
   transform="translate(-57.994045,-144.23099)">
	<g
   id="g10">
		<path
   d="m 494,183.9 c 3.4,1.8 3.8,4.2 3,8.1 -2.6,12.5 -4.7,25.1 -6.8,37.7 -2.3,13.6 -4.3,27.2 -6.5,40.8 -5.1,31.6 -10.3,63.2 -15.4,94.8 -4.6,28.7 -9.2,57.3 -13.8,86 -5,31.3 -10.2,62.6 -15.2,93.9 -3.8,24.1 -7.6,48.1 -11.2,72.2 -0.8,5.1 -3.5,7.2 -8.2,8.5 -34.2,9.2 -68.5,18.1 -102.5,28.2 -13,3.9 -24.7,3.9 -37.6,-0.3 -34.4,-10.9 -69.2,-20.8 -103.9,-30.7 -5.3,-1.5 -7.2,-4.3 -7.9,-9.2 -4.2,-27.4 -8.6,-54.8 -12.9,-82.2 -4.4,-28.7 -8.7,-57.4 -13.2,-86.1 -3.2,-20.8 -6.7,-41.6 -9.9,-62.4 -4.1,-26.8 -8.1,-53.5 -12.2,-80.3 -3.1,-20.1 -6.6,-40.2 -9.7,-60.4 -2.7,-17.6 -5.2,-35.2 -7.5,-52.8 -0.3,-1.9 0.9,-3.9 1.4,-5.9 130,0.1 260,0.1 390,0.1 z m -384.2,7.2 c 2,13.2 3.8,26 5.7,38.8 2.4,15.2 5,30.5 7.4,45.7 4.9,32 9.7,64 14.6,95.9 2.5,16.6 5.1,33.1 7.7,49.7 4.8,31 9.6,62 14.5,93 2,12.6 4.3,25.2 6.2,37.8 3.1,20.2 6,40.4 9.2,60.5 0.2,1.5 1.9,3.5 3.4,3.9 8.8,2.7 17.8,5 26.7,7.6 26.4,7.8 52.8,15.2 78.9,23.6 9.7,3.1 18.4,3.3 28.3,0.4 34,-10 68.3,-19 102.5,-28.2 3.6,-1 5.8,-2 6.3,-6.6 1,-10.7 3.1,-21.4 4.8,-32 2.5,-15.4 5.3,-30.7 7.8,-46.1 4.8,-30 9.4,-60 14.2,-90 4.9,-31 9.9,-61.9 15,-92.8 3.6,-21.9 7.3,-43.8 10.9,-65.7 4,-24.2 7.9,-48.5 11.8,-72.7 1.2,-7.5 2.3,-15 3.4,-22.7 -126.5,-0.1 -252.6,-0.1 -379.3,-0.1 z"
   id="path2"
   inkscape:connector-curvature="0" />
		<path
   d="m 316,563 c 0,11.7 -0.3,23.1 3.5,34.4 20,-4 39.6,-8.6 59.7,-6.1 0.2,0.6 0.4,1.3 0.6,1.9 -2.1,0.9 -4.1,2.1 -6.2,2.5 -23.3,4.7 -45.6,12.3 -66.8,22.9 -9.7,4.9 -18.8,11.3 -27.7,17.6 -3.8,2.7 -7,3.8 -10.8,1.4 -4.9,-3.1 -10,-6.1 -14.3,-9.8 -5.5,-4.7 -4.2,-9.3 3,-11.5 13.8,-4.3 27.6,-8.5 41.4,-12.8 0.5,-0.1 0.9,-0.5 2.2,-1.2 -8.3,-3.8 -6.9,-10.4 -5.7,-17.1 1.1,-6.3 1.7,-12.7 2.6,-20 -12.4,1.8 -23.7,3.4 -35,5.2 -14.3,2.2 -28.5,5.1 -42.9,6.7 -11.8,1.3 -21.1,-4.7 -28.8,-13.2 -2.3,-2.6 -1.5,-5.3 1.9,-6.1 4.2,-1 8.5,-1.4 12.8,-1.8 29.6,-2.1 59.1,-4.1 88.7,-6.2 0.8,-0.1 1.6,-0.2 2.4,-0.3 1.9,-4.5 -0.3,-6.2 -4.1,-7.8 -24,-9.8 -48.2,-19.2 -71.8,-30.1 -12.9,-5.9 -24.8,-14.2 -36.8,-21.9 -5.8,-3.7 -8.5,-9.3 -7,-16.8 1.8,-9.2 8.1,-12.7 16.4,-7.9 5.5,3.1 10.4,7.2 15.7,10.7 28.5,18.8 57,37.5 85.5,56.2 0.5,0.3 1.2,0.5 2.7,1.2 0,-2.2 0,-3.9 0,-5.6 0.3,-12.6 0.3,-25.3 1.1,-37.9 0.2,-3.6 2.3,-7.3 4.3,-10.5 3.2,-5.1 7.8,-4.8 11.1,0.3 6.1,9.5 5.4,20 4.3,30.5 -0.6,5.9 -1.1,11.9 -1,18.5 32.8,-40.9 72.2,-70.9 125.6,-79 -1.3,1 -2.4,2.2 -3.8,3 -10.4,6.3 -20.7,12.6 -31.2,18.9 -28.6,17 -52.1,39.7 -73.4,64.9 -2.3,2.7 -4.1,5.9 -6.9,9.9 13.4,-2.1 25.4,-3.9 37.3,-5.9 9.4,-1.5 18.6,-3.5 28,-4.8 10,-1.3 18.4,3.2 26.5,8.4 1,0.6 1.5,2 3.3,4.5 -8.1,1.3 -15,2.5 -22,3.4 -27.2,3.5 -54.5,6.9 -81.7,10.4 -0.8,0.3 -1.4,0.6 -2.7,0.9 z"
   id="path4"
   inkscape:connector-curvature="0" />
		<path
   d="m 345.3,358.8 c 1.2,-3.6 2.2,-7.5 3.6,-11.1 1.6,-4.1 4,-4.3 6.3,-0.6 5.8,9.3 8.8,19.3 6.3,30.4 -4.5,20.6 -6.3,41.5 -5.3,62.5 0.3,5.8 2.2,11.7 4.1,17.3 2.6,7.6 1,10.3 -7,9.7 -0.8,-0.1 -1.8,0 -2.5,-0.3 -10.4,-5.5 -20.9,-2 -31.1,0 -15.5,3.1 -30.8,6.9 -46.1,10.7 -4.9,1.2 -9.1,1 -13.3,-1.8 -5,-3.3 -10.3,-6.2 -15,-9.8 -4.8,-3.7 -4.6,-6.3 -1.9,-11.5 1.5,-3 2,-6.6 2.3,-10 2.4,-23 -0.3,-45.9 -2.2,-68.8 -1.1,-13.5 2.9,-25.7 12.9,-35.3 6.3,-6.1 9.3,-5.3 12.7,2.7 2.2,5.2 4.5,10.4 6.3,15.7 1.2,3.5 2.9,4.8 6.9,4.4 15.4,-1.6 30.8,-2.9 46.2,-4.1 5.7,-0.4 11.2,-0.1 16.8,-0.1 z m -2.3,12.6 c -10.2,1.1 -19.8,2.3 -29.6,3 -14.4,1.1 -28.8,8.1 -43.6,-0.9 -4.2,13.7 -3.5,27.1 -3.7,40.2 25,-2.4 49.1,-7.3 74,-5.5 1,-12.1 1.9,-24 2.9,-36.8 z m -4.2,46 c -11.2,2 -23,4.2 -34.8,6.1 -12.3,2 -24.6,7.1 -36.8,-0.5 -0.1,-0.1 -0.6,0.2 -0.2,0.1 0,10.1 -0.2,19.9 0.2,29.7 0.1,1.7 2.5,4.1 4.4,4.8 2.3,1 5.3,1 7.9,0.7 18.8,-1.9 37.6,-4 56.4,-6.2 1,-0.1 2.7,-1.8 2.7,-2.7 0.3,-10.5 0.2,-21.1 0.2,-32 z"
   id="path6"
   inkscape:connector-curvature="0" />
		<path
   d="m 306.1,351.1 c -6.4,-10.7 -12.2,-20.3 -18.3,-30.6 4,-0.3 7.2,-0.5 11.2,-0.8 0,-1.9 0,-3.8 0,-5.8 0,-35.2 0,-70.3 0,-105.5 0,-1.7 -0.5,-3.7 0.3,-4.9 1.3,-1.8 3.4,-4.3 5.2,-4.3 1.8,0 3.9,2.4 5.2,4.3 0.8,1.2 0.3,3.2 0.3,4.9 0,34.8 0,69.6 0,104.5 0,2 0,3.9 0,6.3 4.2,0 7.8,0 12.3,0 -5.4,10.7 -10.5,20.6 -16.2,31.9 z"
   id="path8"
   inkscape:connector-curvature="0" />
	</g>
</g>
</svg>