<?xml version="1.0" encoding="UTF-8" standalone="no"?>
<!-- Generator: Adobe Illustrator 22.0.1, SVG Export Plug-In . SVG Version: 6.00 Build 0)  -->

<svg
   xmlns:dc="http://purl.org/dc/elements/1.1/"
   xmlns:cc="http://creativecommons.org/ns#"
   xmlns:rdf="http://www.w3.org/1999/02/22-rdf-syntax-ns#"
   xmlns:svg="http://www.w3.org/2000/svg"
   xmlns="http://www.w3.org/2000/svg"
   xmlns:sodipodi="http://sodipodi.sourceforge.net/DTD/sodipodi-0.dtd"
   xmlns:inkscape="http://www.inkscape.org/namespaces/inkscape"
   version="1.1"
   id="Слой_1"
   x="0px"
   y="0px"
   viewBox="0 0 490.9701 560.74443"
   xml:space="preserve"
   sodipodi:docname="WNG.svg"
   inkscape:version="0.92.3 (2405546, 2018-03-11)"
   width="490.97009"
   height="560.74445"><metadata
   id="metadata23"><rdf:RDF><cc:Work
       rdf:about=""><dc:format>image/svg+xml</dc:format><dc:type
         rdf:resource="http://purl.org/dc/dcmitype/StillImage" /><dc:title></dc:title></cc:Work></rdf:RDF></metadata><defs
   id="defs21" /><sodipodi:namedview
   pagecolor="#ffffff"
   bordercolor="#666666"
   borderopacity="1"
   objecttolerance="10"
   gridtolerance="10"
   guidetolerance="10"
   inkscape:pageopacity="0"
   inkscape:pageshadow="2"
   inkscape:window-width="1920"
   inkscape:window-height="1039"
   id="namedview19"
   showgrid="false"
   inkscape:zoom="1.1212733"
   inkscape:cx="183.88189"
   inkscape:cy="193.41528"
   inkscape:window-x="0"
   inkscape:window-y="0"
   inkscape:window-maximized="1"
   inkscape:current-layer="Слой_1"
   fit-margin-top="43"
   fit-margin-left="48"
   fit-margin-right="48"
   fit-margin-bottom="43"
   showguides="true"
   inkscape:guide-bbox="true"><sodipodi:guide
     position="247.20634,484.32262"
     orientation="1,0"
     id="guide838"
     inkscape:locked="false" /><sodipodi:guide
     position="67.792556,59.27907"
     orientation="0,1"
     id="guide849"
     inkscape:locked="false" /></sodipodi:namedview>
<style
   type="text/css"
   id="style2">
	.st0{fill:#060606;}
	.st1{fill:#FD0404;}
	.st2{fill:#FD0304;}
	.st3{fill:#FD0B0B;}
	.st4{fill:#FD0F10;}
</style>
<path
   style="fill:#ffffff;stroke:#000000;stroke-width:1px;stroke-linecap:butt;stroke-linejoin:miter;stroke-opacity:1"
   d="M 369.70495,480.75574 438.44345,46.095114 51.710577,46.883404 117.92656,476.81431 243.57927,514.02139 Z"
   id="path830"
   inkscape:connector-curvature="0" /><g
   id="g16"
   transform="rotate(-180,271.48505,350.82222)">
	<g
   id="g14">
		<path
   class="st0"
   d="m 100,646.9 c 0.6,-1.3 1.5,-2.5 1.8,-3.8 1.8,-10 3.4,-20 5.1,-30 2.3,-14.2 4.6,-28.5 6.9,-42.7 2.4,-14.7 4.7,-29.4 7.1,-44.1 2.6,-16.2 5.2,-32.4 7.9,-48.6 2.4,-14.7 4.7,-29.4 7.1,-44.2 2.3,-14.4 4.6,-28.8 7,-43.1 2.7,-16.5 5.3,-33 8,-49.5 2.3,-14.4 4.6,-28.8 7,-43.2 2.4,-14.7 4.8,-29.4 7.1,-44.1 1.5,-9.5 3,-18.9 4.2,-28.4 0.6,-4.5 2.8,-7 7.2,-8.1 12.4,-3.3 24.8,-6.8 37.2,-10.2 15.9,-4.4 31.9,-8.7 47.8,-13 11.6,-3.2 23.1,-6.3 34.7,-9.5 0.1,0 0.1,-0.3 0.1,-0.5 1.7,0 3.3,0 5,0 6.8,2.2 13.6,4.4 20.5,6.5 8,2.5 16.1,4.8 24.2,7.2 17.9,5.2 35.8,10.3 53.7,15.5 7.4,2.2 14.7,4.9 22.3,6.6 5.1,1.1 6.6,4.2 7.3,8.6 2,12.6 4,25.2 6,37.8 2.1,13.9 4.1,27.9 6.2,41.8 2.2,13.9 4.6,27.8 6.7,41.7 2.1,13.7 4.1,27.5 6.2,41.2 1.2,7.7 2.6,15.3 3.8,22.9 1.5,9.5 2.7,19.1 4.2,28.6 2.5,16.2 5.1,32.4 7.6,48.6 1.4,9.1 2.6,18.3 4.1,27.4 2,12.3 4.2,24.5 6.1,36.7 1.8,11.7 3.4,23.3 5.2,35 2.2,14.2 4.5,28.5 6.6,42.7 1.1,7 2.1,14.1 3,21.1 0.4,3.2 -0.9,4.5 -4.2,4.8 -1,0.1 -2,0 -3,0 -126.3,0 -252.6,0 -378.9,0 -2.9,0 -5.8,-0.6 -8.7,-0.9 -0.1,-3.5 -0.1,-7.1 -0.1,-10.8 z m 387.2,4.8 c -1.9,-12.7 -3.6,-25 -5.5,-37.2 -2.6,-17 -5.2,-34.1 -7.9,-51.1 -2.3,-15 -4.7,-30.1 -7,-45.1 -2.5,-15.7 -5,-31.4 -7.4,-47.1 -2.5,-16.4 -5,-32.7 -7.5,-49.1 -2.4,-15.7 -5,-31.4 -7.4,-47.1 -2.2,-14.4 -4.3,-28.8 -6.6,-43.2 -2.8,-17.7 -5.6,-35.3 -8.4,-53 -1.9,-12 -3.7,-24 -5.6,-35.9 -0.8,-5.2 -1.6,-10.4 -2.4,-15.4 -1.3,-0.5 -2.1,-1 -3.1,-1.3 -10.6,-3.1 -21.2,-6.1 -31.8,-9.2 -16,-4.6 -32,-9.3 -48,-14 -12.7,-3.7 -25.3,-7.6 -37.9,-11.3 -1.3,-0.4 -2.9,-0.4 -4.3,-0.1 -13.7,3.7 -27.4,7.6 -41.1,11.4 -13.7,3.7 -27.4,7.4 -41.1,11.1 -4.6,1.3 -9.2,2.6 -13.8,3.9 -7.9,2.2 -15.9,4.3 -23.6,6.4 -0.4,0.9 -0.6,1.4 -0.7,1.8 -1.8,11.8 -3.5,23.7 -5.3,35.5 -1.2,7.5 -2.7,15 -3.9,22.5 -2.1,12.9 -4,25.8 -6.1,38.7 -2.2,13.7 -4.6,27.4 -6.8,41.2 -2.1,13.3 -4.1,26.6 -6.2,39.8 -1.6,9.7 -3.4,19.3 -5,28.9 -1.8,10.9 -3.4,21.9 -5.1,32.8 -2.2,14.1 -4.6,28.1 -6.8,42.2 -2.4,14.9 -4.7,29.8 -7.1,44.6 -2.2,13.9 -4.6,27.7 -6.8,41.6 -1.8,11 -3.4,22 -5.2,33 -1.2,7.2 -2.5,14.3 -3.8,21.5 -0.2,1 -0.2,2.1 -0.3,3.3 126.8,-0.1 252.9,-0.1 379.5,-0.1 z"
   id="path4"
   inkscape:connector-curvature="0"
   style="fill:#060606" />
		<path
   class="st1"
   d="m 272.1,443 c -0.4,-13.3 -0.7,-26.4 -1.1,-39.7 -5.4,0.4 -10.5,0.7 -15.6,1.1 -7,0.5 -14,0.3 -20.7,-2.1 -1.5,-0.6 -3.1,-1.3 -4.4,-2.3 -2.4,-1.9 -2.3,-4.9 0.5,-5.9 3,-1.2 6.4,-1.7 9.6,-2.1 9.9,-1.2 19.8,-2.2 30,-3.3 0.1,-1.5 0.4,-2.8 0.3,-4.1 -0.2,-5.7 -0.1,-11.3 -0.8,-16.9 -0.4,-3.4 -1.9,-6.6 -3.1,-9.9 -0.6,-1.6 -1.7,-3.1 -2.8,-4.9 -4.8,0.3 -9.8,0.8 -14.7,0.8 -4.6,0 -9.3,-0.3 -13.9,-0.9 -4.6,-0.6 -8.5,-2.7 -10.8,-7.8 1.4,-0.5 2.5,-1.1 3.7,-1.2 11.4,-1.1 22.9,-1.8 34.3,-3.1 16.8,-1.9 33.7,-3.8 50.3,-7.4 3.4,-0.7 6.6,-0.9 9.8,0.4 3.1,1.2 6.1,2.5 9.1,3.9 2,0.9 3.5,2.5 4,4.8 -0.8,2 -2.7,2.3 -4.5,2.6 -7.9,1.3 -15.7,2.7 -23.6,3.7 -7.1,0.9 -14.2,1.5 -21.4,2.2 0.2,0.3 0.3,0.7 0.5,0.8 5.4,2.8 6.8,6.7 5.3,12.8 -1.6,6.5 -1.6,13.4 -2.4,20.9 5.8,-0.8 10.8,-1.6 15.8,-2.2 9.6,-1.3 18.5,1 27,5.2 1.3,0.6 2.2,1.8 3.3,2.7 -0.8,3.5 -3.4,4.5 -5.9,5.3 -3.3,1 -6.8,1.7 -10.2,2.1 -9.4,0.9 -18.9,1.6 -28.3,2.4 -0.5,0 -0.9,0.3 -1.8,0.6 -0.5,13.2 -1.1,26.4 -1.7,40 1.3,0.1 2.4,0.3 3.5,0.2 10.1,-0.8 20.2,-1.4 30.3,-2.6 10.6,-1.2 21.1,-3 31.6,-4.2 2.4,-0.3 5,0.1 7.3,0.7 6.4,1.8 12.9,3.6 18,8 1.5,1.3 3,2.6 4.1,4.3 2,3 1.4,5.1 -2.1,6 -3.3,0.9 -6.9,1.4 -10.3,1.5 -5.8,0.1 -11.6,-0.5 -17.5,-0.4 -15,0.1 -30,0.1 -44.9,0.6 -14.6,0.5 -29.3,1.2 -43.9,2.4 -14.2,1.1 -28.4,3.4 -42.4,6.3 -3.7,0.8 -7.3,0.9 -10.8,-0.5 -4.8,-1.9 -9.5,-3.8 -14.2,-5.9 -1.1,-0.4 -2.1,-1.1 -3,-1.8 -1.4,-1.1 -3.3,-2.1 -2.6,-4.4 0.6,-2 2.6,-2.4 4.4,-2.9 1,-0.2 2,-0.2 3,-0.2 7.5,-0.3 15,-0.4 22.4,-0.9 8.8,-0.6 17.5,-1.5 26.3,-2.3 6.1,-0.6 12.2,-1.2 18.4,-1.8 2.3,0 4.2,-0.3 6.6,-0.6 z"
   id="path6"
   inkscape:connector-curvature="0"
   style="fill:#ed153e;fill-opacity:1" />
		<g
   id="g821"><path
     style="fill:#ed153e;fill-opacity:0.97444087"
     inkscape:connector-curvature="0"
     id="path8"
     d="m 287.1,259.3 c -5.9,10.9 -13.1,19.6 -20.1,28.4 -11.2,14.2 -23.3,27.4 -37.2,39 -15.8,13.2 -33,24.1 -52.1,31.9 -4.3,1.7 -8.8,2.8 -13.3,3.8 -1.4,0.3 -3,-0.2 -4.6,-0.4 -0.3,-0.5 -0.6,-1 -0.8,-1.6 0.8,-0.3 1.6,-0.5 2.3,-0.9 21.8,-12.8 41.5,-28.2 59.8,-45.6 20.2,-19 36.6,-40.8 50.4,-64.8 0.2,-0.4 0.4,-0.9 0.7,-1.7 -3.8,-2.8 -8.3,-3.8 -12.8,-4.5 -2.6,-0.4 -5.3,-0.7 -7.9,-1.3 -3.8,-0.9 -6.7,-2.8 -7.4,-7.2 1.5,-2.1 3.6,-2.6 6,-2.7 8.2,0 16.3,0 24.5,-0.2 2.1,0 3.4,1 4.7,2.3 7.8,8 15.7,15.9 23.4,23.9 12.9,13.3 26.1,26.2 40.5,37.8 11.8,9.4 25,16.5 38.9,22.1 14,5.6 28.2,10.7 42.3,16 2,0.8 4.1,1.5 6,2.4 1.5,0.7 2.8,1.8 2.7,3.8 -0.2,2 -1.8,2.7 -3.3,3.4 -1,0.5 -2.2,0.8 -3.3,1 -13.1,3 -26.4,5.5 -39.9,5.9 -7.8,0.2 -14.9,-1.5 -21.2,-7 -11.8,-10.4 -22.8,-21.4 -33.3,-33.1 -14.4,-16.2 -29,-32.2 -43.5,-48.3 -0.4,-0.3 -0.8,-1.3 -1.5,-2.4 z"
     class="st2" /></g>
		
		
	</g>
</g>
<path
   inkscape:connector-curvature="0"
   style="display:block;fill:#ed153e;fill-opacity:1;fill-rule:evenodd;stroke-width:11.06690121"
   d="m 249.29722,221.46291 -5.53345,9.96022 -5.53346,-9.96022 v -67.5081 l -50.90776,49.80107 -11.06688,3.32007 3.32007,-11.06691 49.80105,-49.80105 h -69.72148 l -9.96021,-5.53345 9.96021,-5.53345 h 78.575 V 68.739684 l 5.53346,-9.96021 5.53345,9.96021 v 66.401406 h 79.68168 l 9.96021,5.53345 -9.96021,5.53345 h -71.93486 l 50.90774,50.90775 3.32008,11.0669 -11.0669,-3.32008 -50.90774,-49.80105 z"
   class="g6_7"
   id="path200" /><path
   inkscape:connector-curvature="0"
   style="display:block;fill:#000000;fill-opacity:1;fill-rule:evenodd;stroke-width:14.74005699"
   d="m 112.35239,135.92734 -2.948,4.42201 -2.94801,-4.42201 v -32.42813 l -28.006093,28.00611 -5.89604,2.948 1.47401,-5.89601 30.954093,-32.428136 -30.954093,-30.95409 -1.47401,-5.89602 5.89604,1.474 30.954103,30.95411 32.42811,-30.95411 5.89604,-1.474 -2.948,5.89602 -30.95415,30.95409 32.42815,32.428136 1.474,5.89601 -5.89604,-2.948 -29.48011,-28.00611 z"
   class="g6_7"
   id="path202" /></svg>