<?xml version="1.0" encoding="UTF-8" standalone="no"?>
<!-- Generator: Adobe Illustrator 22.0.1, SVG Export Plug-In . SVG Version: 6.00 Build 0)  -->

<svg
   xmlns:dc="http://purl.org/dc/elements/1.1/"
   xmlns:cc="http://creativecommons.org/ns#"
   xmlns:rdf="http://www.w3.org/1999/02/22-rdf-syntax-ns#"
   xmlns:svg="http://www.w3.org/2000/svg"
   xmlns="http://www.w3.org/2000/svg"
   xmlns:sodipodi="http://sodipodi.sourceforge.net/DTD/sodipodi-0.dtd"
   xmlns:inkscape="http://www.inkscape.org/namespaces/inkscape"
   version="1.1"
   id="Слой_1"
   x="0px"
   y="0px"
   viewBox="0 0 491.03944 564.89867"
   xml:space="preserve"
   sodipodi:docname="WNK.svg"
   width="491.03943"
   height="564.89868"
   inkscape:version="0.92.3 (2405546, 2018-03-11)"><metadata
   id="metadata23"><rdf:RDF><cc:Work
       rdf:about=""><dc:format>image/svg+xml</dc:format><dc:type
         rdf:resource="http://purl.org/dc/dcmitype/StillImage" /><dc:title></dc:title></cc:Work></rdf:RDF></metadata><defs
   id="defs21" /><sodipodi:namedview
   pagecolor="#ffffff"
   bordercolor="#666666"
   borderopacity="1"
   objecttolerance="10"
   gridtolerance="10"
   guidetolerance="10"
   inkscape:pageopacity="0"
   inkscape:pageshadow="2"
   inkscape:window-width="3840"
   inkscape:window-height="2119"
   id="namedview19"
   showgrid="false"
   fit-margin-top="43"
   fit-margin-left="48"
   fit-margin-right="48"
   fit-margin-bottom="48"
   inkscape:zoom="3.1714398"
   inkscape:cx="171.44813"
   inkscape:cy="293.56092"
   inkscape:window-x="0"
   inkscape:window-y="0"
   inkscape:window-maximized="1"
   inkscape:current-layer="Слой_1" />
<style
   type="text/css"
   id="style2">
	.st0{fill:#060606;}
	.st1{fill:#FD0303;}
	.st2{fill:#FD0B0B;}
	.st3{fill:#FD191A;}
</style>
<path
   style="fill:#ffffff;stroke:#000000;stroke-width:1px;stroke-linecap:butt;stroke-linejoin:miter;stroke-opacity:1"
   d="M 368.06688,481.52981 439.32789,47.026838 H 52.122047 L 118.02272,476.48479 243.51777,514.6378 Z"
   id="path822"
   inkscape:connector-curvature="0" /><g
   id="g16"
   transform="rotate(-180,271.44923,350.95)">
	<g
   id="g14">
		<path
   class="st0"
   d="m 297.5,658.8 c -63,0 -126,0 -188.9,0 -2.1,0 -4.6,0.1 -6.2,-0.9 -1.4,-0.8 -2.8,-3.3 -2.5,-4.8 2.2,-14.9 4.8,-29.8 7.3,-44.6 2,-11.9 4.2,-23.8 6.2,-35.8 5.2,-31.7 10.4,-63.4 15.5,-95.2 4.7,-28.8 9.2,-57.6 13.9,-86.3 5,-31.2 10.2,-62.5 15.1,-93.7 3.8,-24 7.6,-48 11.2,-72 0.8,-5.1 3.4,-7.2 8.1,-8.5 28.1,-7.6 56,-15.3 84.1,-23 10.3,-2.8 20.6,-6.1 31,-8.4 4.3,-0.9 9.2,-0.8 13.5,0.4 22,6.1 43.8,12.7 65.6,19.1 16.6,4.9 33.1,10.1 49.9,14.6 5.3,1.4 7.2,4.2 8,9.1 4.2,27.4 8.6,54.7 12.8,82.1 2.8,18.3 5.4,36.7 8.2,55 2.1,13.6 4.5,27.1 6.7,40.7 2.5,16 4.8,32.1 7.3,48.2 2.5,16.2 5.1,32.4 7.6,48.6 2.5,15.9 4.9,31.8 7.3,47.7 2.5,16.2 5.2,32.4 7.7,48.6 2.2,14.1 4.2,28.2 6.3,42.3 0.6,3.9 1,7.9 1.6,11.8 0.5,3.4 -0.9,5.1 -4.3,5.1 -1,0 -2,0 -3,0 -63.4,-0.1 -126.7,-0.1 -190,-0.1 z m 189.6,-7.1 c -1.8,-12.6 -3.5,-25 -5.4,-37.5 -5,-32.3 -10,-64.5 -15,-96.7 -5,-32.1 -10,-64.2 -14.9,-96.3 -4.7,-30.1 -9.3,-60.3 -14,-90.4 -5.2,-33.4 -10.5,-66.8 -15.6,-100.2 -0.4,-2.9 -1.8,-3.9 -4.1,-4.6 -9,-2.6 -18.1,-5 -27.1,-7.7 -29.9,-8.8 -59.8,-17.7 -89.7,-26.5 -1.5,-0.4 -3.3,-0.6 -4.7,-0.2 -13.7,3.7 -27.4,7.6 -41.1,11.4 -24.5,6.7 -49,13.4 -73.6,20 -3.4,0.9 -5.5,1.8 -6,6.2 -1.3,11.5 -3.7,22.9 -5.6,34.4 -2.5,15.2 -4.8,30.4 -7.2,45.7 -2.4,15.4 -4.8,30.8 -7.3,46.2 -2.5,15.5 -5.2,31 -7.7,46.5 -2.5,15.5 -4.9,31.1 -7.4,46.6 -2.5,15.4 -5.1,30.7 -7.6,46.1 -2.3,13.9 -4.5,27.8 -6.8,41.7 -2.4,14.7 -4.8,29.4 -7.2,44.1 -2.6,15.9 -5.1,31.7 -7.6,47.6 -1.2,7.8 -2.5,15.6 -3.7,23.6 126.6,0 252.9,0 379.3,0 z"
   id="path4"
   inkscape:connector-curvature="0"
   style="fill:#060606" />
		<path
   class="st1"
   d="m 279.4,445.3 c 0,-11.6 0,-23 0,-34.7 -10.9,0.9 -21.1,2.2 -31.3,2.5 -6.2,0.1 -12.6,-0.9 -18.6,-2.3 -2.4,-0.6 -4.3,-3.5 -6.5,-5.4 2.5,-1.6 4.9,-4.1 7.5,-4.5 14.8,-2.3 29.7,-4.1 44.5,-6.1 1.1,-0.1 2.2,-0.5 3.9,-0.8 -1.6,-12.1 1.8,-24.8 -6.2,-35.8 -2.5,-3.5 0.1,-8.1 4.4,-8.4 8.6,-0.6 16.5,1.7 23.6,6.4 4,2.6 3.6,6.6 3,10.8 -1.2,7.5 -2.1,15 -3.2,23.5 8.7,-1.6 16.3,-2.8 23.9,-4.3 10.9,-2.1 21.1,0.2 30.9,4.9 1.5,0.7 3.3,2.5 3.3,3.8 -0.1,1.3 -2,3.4 -3.4,3.7 -7.4,1.7 -14.9,3.2 -22.4,4.3 -10.7,1.6 -21.4,2.8 -32.5,4.2 -0.6,12.3 -1.1,24.2 -1.7,36.7 6.1,-0.4 11.9,-0.6 17.6,-1.1 24.7,-2.2 49.4,-4.3 74.1,-6.7 12.4,-1.2 22.4,3.9 31,12 1.7,1.6 3,5.5 2.2,7.4 -0.7,1.8 -4.5,3.4 -6.9,3.4 -10.8,0 -21.6,-0.6 -32.5,-0.9 -37,-1 -74,1.2 -110.8,4.9 -24.8,2.5 -49.4,6.8 -74.1,9.9 -4.2,0.5 -9,-0.3 -12.9,-2 -5.2,-2.4 -9.9,-6.1 -14.6,-9.5 -1.3,-0.9 -1.9,-2.9 -2.8,-4.4 1.6,-1 3.2,-2.6 4.9,-2.7 6.3,-0.6 12.7,-0.4 19,-1 28.4,-2.4 56.7,-4.9 85.1,-7.4 0.8,-0.1 1.3,-0.3 1.5,-0.4 z"
   id="path6"
   inkscape:connector-curvature="0"
   style="fill:#fd0303" />
		<path
   class="st1"
   d="m 188.5,337.3 c 30.3,-5.1 59.8,-6.2 88.5,-10.4 0,-12.7 0,-25 0,-36.8 -13.5,0.3 -26.3,1.1 -39.1,0.6 -4.7,-0.2 -9.4,-3.3 -14,-5.4 -1,-0.5 -2,-2.6 -1.8,-3.7 0.2,-0.9 2.2,-1.8 3.5,-1.9 11.9,-1.4 23.8,-2.6 35.7,-3.9 4.9,-0.6 9.8,-1.4 13.9,-1.9 0,-15.2 0.3,-29.8 -0.2,-44.4 -0.2,-4 -2.6,-8.1 -4.6,-11.9 -2.7,-5.2 -0.5,-10.2 5.2,-9.5 7,0.9 13.9,2.8 20.5,5.3 4.7,1.7 5.7,5.9 5,11.1 -1.8,15 -2.8,30.1 -4.2,46.5 12,-2.5 22.8,-4 33.2,-7.2 9.7,-3 18,-1.3 26.1,3.6 2.1,1.3 3.3,4.1 5,6.2 -2,1.3 -3.8,3.4 -5.9,3.8 -16.5,3.1 -33.1,5.8 -49.6,8.6 -2.6,0.4 -5.3,0.7 -8.8,1.1 0,12.4 0,24.8 0,37.6 8.9,-1.1 18.2,-2.1 27.6,-3.3 15.3,-2 30.6,-4.7 46,-6.1 11,-1 19.8,4.6 27,12.6 2.2,2.5 1.2,4.8 -1.8,5.8 -2.3,0.8 -4.9,1.1 -7.3,1.3 -34.3,2.1 -68.5,3.5 -102.7,6.3 -22.5,1.8 -45,5.3 -67.4,8.2 -10.2,1.3 -18.5,-2.8 -26.7,-7.8 -0.8,-0.6 -1.3,-2 -3.1,-4.4 z"
   id="path8"
   inkscape:connector-curvature="0"
   style="fill:#fd0303" />
		<path
   class="st2"
   d="m 288.9,554.2 c 0,-17.6 0,-34.1 0,-50.5 0,-1.3 -0.4,-2.8 0.1,-4 0.8,-1.7 2.2,-3.2 3.3,-4.7 1.2,1.6 3.5,3.2 3.6,4.9 0.3,15.2 0.2,30.3 0.2,45.5 0,2.3 0,4.6 0,8 3.4,-2.8 6,-4.8 8.6,-7.1 11.1,-9.8 22.1,-19.7 33.1,-29.6 1.4,-1.2 2.7,-2.8 4.3,-3.3 1.6,-0.5 3.6,0.1 5.4,0.3 -0.3,1.8 0.1,4.2 -0.9,5.2 -7.3,7 -14.9,13.8 -22.5,20.5 -7.2,6.4 -14.6,12.5 -22.6,19.4 2,0.1 3.4,0.3 4.7,0.3 19.5,0 39,0 58.5,0 1.3,0 2.9,-0.4 3.9,0.2 1.3,0.7 3,2.3 2.9,3.3 -0.2,1.4 -1.7,3 -3,3.8 -1.2,0.6 -2.9,0.2 -4.4,0.2 -22.5,0 -45,0 -68,0 0,2 0,3.8 0,5.6 0,21.3 0,42.7 0,64 0,1.2 0.4,2.5 -0.1,3.5 -0.8,1.6 -2.2,2.8 -3.3,4.2 -1.2,-1.5 -2.7,-2.8 -3.6,-4.5 -0.5,-0.9 -0.1,-2.3 -0.1,-3.5 0,-21.3 0,-42.7 0,-64 0,-1.6 0,-3.3 0,-5.4 -4,0 -7.7,0 -11.3,0 -18.5,0 -37,0 -55.5,0 -1,0 -2.2,0.4 -3,-0.1 -1.8,-1 -3.3,-2.4 -4.9,-3.7 1.6,-1.2 3.2,-3.5 4.9,-3.6 10.2,-0.3 20.3,-0.2 30.5,-0.2 10.6,0 21.2,0 32.8,0 -5.7,-5.1 -10.6,-9.7 -15.7,-14.1 -9.3,-8.3 -18.7,-16.5 -28.1,-24.7 -2.2,-1.9 -4.3,-4 -2.1,-6.6 2.2,-2.6 4.7,-1 6.9,0.9 13.6,12 27.2,24 40.8,35.9 1.2,1.3 2.5,2.2 4.6,3.9 z"
   id="path10"
   inkscape:connector-curvature="0"
   style="fill:#fd0b0b" />
		<path
   class="st3"
   d="m 434,612.4 c 4.1,-6.3 8.6,-13.4 13.2,-20.6 -0.6,-0.8 -1.7,-2 -3,-3.7 4.7,-1.4 9.2,-2.7 14.5,-4.3 -1.5,5.2 -2.8,9.8 -4.2,14.9 -1.7,-1.5 -2.9,-2.5 -4.2,-3.6 -14.9,12 -15.3,28.9 -14.7,46.1 -0.8,-0.1 -1.5,-0.1 -2.3,-0.2 -0.3,-1.7 -0.8,-3.3 -1,-5 -0.6,-6.6 -0.4,-13.3 -1.6,-19.8 -1.6,-8.4 -6.2,-15.3 -13,-21.2 -1.3,1.1 -2.6,2.2 -4.3,3.7 -1.4,-5 -2.7,-9.6 -4.2,-14.9 5.3,1.5 9.8,2.8 14.6,4.3 -1.5,1.7 -2.5,3 -3.1,3.7 4.7,7.2 9.2,14.2 13.3,20.6 z"
   id="path12"
   inkscape:connector-curvature="0"
   style="fill:#fd191a" />
	</g>
</g>
</svg>