<?xml version="1.0" encoding="UTF-8" standalone="no"?>
<!-- Generator: Adobe Illustrator 22.0.1, SVG Export Plug-In . SVG Version: 6.00 Build 0)  -->

<svg
   xmlns:dc="http://purl.org/dc/elements/1.1/"
   xmlns:cc="http://creativecommons.org/ns#"
   xmlns:rdf="http://www.w3.org/1999/02/22-rdf-syntax-ns#"
   xmlns:svg="http://www.w3.org/2000/svg"
   xmlns="http://www.w3.org/2000/svg"
   xmlns:sodipodi="http://sodipodi.sourceforge.net/DTD/sodipodi-0.dtd"
   xmlns:inkscape="http://www.inkscape.org/namespaces/inkscape"
   version="1.1"
   id="Слой_1"
   x="0px"
   y="0px"
   viewBox="0 0 491.03944 564.89867"
   xml:space="preserve"
   sodipodi:docname="WNK.svg"
   width="491.03943"
   height="564.89868"
   inkscape:version="0.92.3 (2405546, 2018-03-11)"><metadata
   id="metadata23"><rdf:RDF><cc:Work
       rdf:about=""><dc:format>image/svg+xml</dc:format><dc:type
         rdf:resource="http://purl.org/dc/dcmitype/StillImage" /><dc:title></dc:title></cc:Work></rdf:RDF></metadata><defs
   id="defs21" /><sodipodi:namedview
   pagecolor="#ffffff"
   bordercolor="#666666"
   borderopacity="1"
   objecttolerance="10"
   gridtolerance="10"
   guidetolerance="10"
   inkscape:pageopacity="0"
   inkscape:pageshadow="2"
   inkscape:window-width="1920"
   inkscape:window-height="1039"
   id="namedview19"
   showgrid="false"
   fit-margin-top="43"
   fit-margin-left="48"
   fit-margin-right="48"
   fit-margin-bottom="48"
   inkscape:zoom="0.79285995"
   inkscape:cx="485.71443"
   inkscape:cy="114.29215"
   inkscape:window-x="0"
   inkscape:window-y="0"
   inkscape:window-maximized="1"
   inkscape:current-layer="Слой_1"
   showguides="true"
   inkscape:guide-bbox="true"><sodipodi:guide
     position="246.48317,510.41303"
     orientation="1,0"
     id="guide835"
     inkscape:locked="false" /><sodipodi:guide
     position="267.55298,63.543829"
     orientation="0,1"
     id="guide846"
     inkscape:locked="false" /></sodipodi:namedview>
<style
   type="text/css"
   id="style2">
	.st0{fill:#060606;}
	.st1{fill:#FD0303;}
	.st2{fill:#FD0B0B;}
	.st3{fill:#FD191A;}
</style>
<path
   style="fill:#ffffff;stroke:#000000;stroke-width:1px;stroke-linecap:butt;stroke-linejoin:miter;stroke-opacity:1"
   d="M 123.38306,481.52981 52.122047,47.026838 H 439.32789 L 373.42722,476.48479 247.93217,514.6378 Z"
   id="path822"
   inkscape:connector-curvature="0"
   sodipodi:nodetypes="cccccc" /><g
   id="g16"
   transform="rotate(-180,271.44923,350.95)">
	<g
   id="g14">
		<path
   class="st0"
   d="m 297.5,658.8 c -63,0 -126,0 -188.9,0 -2.1,0 -4.6,0.1 -6.2,-0.9 -1.4,-0.8 -2.8,-3.3 -2.5,-4.8 2.2,-14.9 4.8,-29.8 7.3,-44.6 2,-11.9 4.2,-23.8 6.2,-35.8 5.2,-31.7 10.4,-63.4 15.5,-95.2 4.7,-28.8 9.2,-57.6 13.9,-86.3 5,-31.2 10.2,-62.5 15.1,-93.7 3.8,-24 7.6,-48 11.2,-72 0.8,-5.1 3.4,-7.2 8.1,-8.5 28.1,-7.6 56,-15.3 84.1,-23 10.3,-2.8 20.6,-6.1 31,-8.4 4.3,-0.9 9.2,-0.8 13.5,0.4 22,6.1 43.8,12.7 65.6,19.1 16.6,4.9 33.1,10.1 49.9,14.6 5.3,1.4 7.2,4.2 8,9.1 4.2,27.4 8.6,54.7 12.8,82.1 2.8,18.3 5.4,36.7 8.2,55 2.1,13.6 4.5,27.1 6.7,40.7 2.5,16 4.8,32.1 7.3,48.2 2.5,16.2 5.1,32.4 7.6,48.6 2.5,15.9 4.9,31.8 7.3,47.7 2.5,16.2 5.2,32.4 7.7,48.6 2.2,14.1 4.2,28.2 6.3,42.3 0.6,3.9 1,7.9 1.6,11.8 0.5,3.4 -0.9,5.1 -4.3,5.1 -1,0 -2,0 -3,0 -63.4,-0.1 -126.7,-0.1 -190,-0.1 z m 189.6,-7.1 c -1.8,-12.6 -3.5,-25 -5.4,-37.5 -5,-32.3 -10,-64.5 -15,-96.7 -5,-32.1 -10,-64.2 -14.9,-96.3 -4.7,-30.1 -9.3,-60.3 -14,-90.4 -5.2,-33.4 -10.5,-66.8 -15.6,-100.2 -0.4,-2.9 -1.8,-3.9 -4.1,-4.6 -9,-2.6 -18.1,-5 -27.1,-7.7 -29.9,-8.8 -59.8,-17.7 -89.7,-26.5 -1.5,-0.4 -3.3,-0.6 -4.7,-0.2 -13.7,3.7 -27.4,7.6 -41.1,11.4 -24.5,6.7 -49,13.4 -73.6,20 -3.4,0.9 -5.5,1.8 -6,6.2 -1.3,11.5 -3.7,22.9 -5.6,34.4 -2.5,15.2 -4.8,30.4 -7.2,45.7 -2.4,15.4 -4.8,30.8 -7.3,46.2 -2.5,15.5 -5.2,31 -7.7,46.5 -2.5,15.5 -4.9,31.1 -7.4,46.6 -2.5,15.4 -5.1,30.7 -7.6,46.1 -2.3,13.9 -4.5,27.8 -6.8,41.7 -2.4,14.7 -4.8,29.4 -7.2,44.1 -2.6,15.9 -5.1,31.7 -7.6,47.6 -1.2,7.8 -2.5,15.6 -3.7,23.6 126.6,0 252.9,0 379.3,0 z"
   id="path4"
   inkscape:connector-curvature="0"
   style="fill:#060606" />
		<path
   class="st1"
   d="m 279.4,445.3 c 0,-11.6 0,-23 0,-34.7 -10.9,0.9 -21.1,2.2 -31.3,2.5 -6.2,0.1 -12.6,-0.9 -18.6,-2.3 -2.4,-0.6 -4.3,-3.5 -6.5,-5.4 2.5,-1.6 4.9,-4.1 7.5,-4.5 14.8,-2.3 29.7,-4.1 44.5,-6.1 1.1,-0.1 2.2,-0.5 3.9,-0.8 -1.6,-12.1 1.8,-24.8 -6.2,-35.8 -2.5,-3.5 0.1,-8.1 4.4,-8.4 8.6,-0.6 16.5,1.7 23.6,6.4 4,2.6 3.6,6.6 3,10.8 -1.2,7.5 -2.1,15 -3.2,23.5 8.7,-1.6 16.3,-2.8 23.9,-4.3 10.9,-2.1 21.1,0.2 30.9,4.9 1.5,0.7 3.3,2.5 3.3,3.8 -0.1,1.3 -2,3.4 -3.4,3.7 -7.4,1.7 -14.9,3.2 -22.4,4.3 -10.7,1.6 -21.4,2.8 -32.5,4.2 -0.6,12.3 -1.1,24.2 -1.7,36.7 6.1,-0.4 11.9,-0.6 17.6,-1.1 24.7,-2.2 49.4,-4.3 74.1,-6.7 12.4,-1.2 22.4,3.9 31,12 1.7,1.6 3,5.5 2.2,7.4 -0.7,1.8 -4.5,3.4 -6.9,3.4 -10.8,0 -21.6,-0.6 -32.5,-0.9 -37,-1 -74,1.2 -110.8,4.9 -24.8,2.5 -49.4,6.8 -74.1,9.9 -4.2,0.5 -9,-0.3 -12.9,-2 -5.2,-2.4 -9.9,-6.1 -14.6,-9.5 -1.3,-0.9 -1.9,-2.9 -2.8,-4.4 1.6,-1 3.2,-2.6 4.9,-2.7 6.3,-0.6 12.7,-0.4 19,-1 28.4,-2.4 56.7,-4.9 85.1,-7.4 0.8,-0.1 1.3,-0.3 1.5,-0.4 z"
   id="path6"
   inkscape:connector-curvature="0"
   style="fill:#ed153e;fill-opacity:1" />
		<path
   class="st1"
   d="m 188.5,337.3 c 30.3,-5.1 59.8,-6.2 88.5,-10.4 0,-12.7 0,-25 0,-36.8 -13.5,0.3 -26.3,1.1 -39.1,0.6 -4.7,-0.2 -9.4,-3.3 -14,-5.4 -1,-0.5 -2,-2.6 -1.8,-3.7 0.2,-0.9 2.2,-1.8 3.5,-1.9 11.9,-1.4 23.8,-2.6 35.7,-3.9 4.9,-0.6 9.8,-1.4 13.9,-1.9 0,-15.2 0.3,-29.8 -0.2,-44.4 -0.2,-4 -2.6,-8.1 -4.6,-11.9 -2.7,-5.2 -0.5,-10.2 5.2,-9.5 7,0.9 13.9,2.8 20.5,5.3 4.7,1.7 5.7,5.9 5,11.1 -1.8,15 -2.8,30.1 -4.2,46.5 12,-2.5 22.8,-4 33.2,-7.2 9.7,-3 18,-1.3 26.1,3.6 2.1,1.3 3.3,4.1 5,6.2 -2,1.3 -3.8,3.4 -5.9,3.8 -16.5,3.1 -33.1,5.8 -49.6,8.6 -2.6,0.4 -5.3,0.7 -8.8,1.1 0,12.4 0,24.8 0,37.6 8.9,-1.1 18.2,-2.1 27.6,-3.3 15.3,-2 30.6,-4.7 46,-6.1 11,-1 19.8,4.6 27,12.6 2.2,2.5 1.2,4.8 -1.8,5.8 -2.3,0.8 -4.9,1.1 -7.3,1.3 -34.3,2.1 -68.5,3.5 -102.7,6.3 -22.5,1.8 -45,5.3 -67.4,8.2 -10.2,1.3 -18.5,-2.8 -26.7,-7.8 -0.8,-0.6 -1.3,-2 -3.1,-4.4 z"
   id="path8"
   inkscape:connector-curvature="0"
   style="fill:#ed153e;fill-opacity:1" />
		
		
	</g>
</g>
<path
   inkscape:connector-curvature="0"
   style="display:block;fill:#ed153e;fill-opacity:1;fill-rule:evenodd;stroke-width:10.90936947"
   d="m 250.01093,218.69888 -5.45468,9.81841 -5.45469,-9.81841 v -66.54716 l -50.18309,49.09215 -10.90938,3.27282 3.27283,-10.90937 49.09215,-49.09216 h -68.72903 l -9.81843,-5.45468 9.81843,-5.45469 h 77.45652 V 68.149578 l 5.45469,-9.81844 5.45468,9.81844 v 65.456212 h 78.54746 l 9.81844,5.45469 -9.81844,5.45468 h -70.9109 l 50.18311,50.18309 3.27281,10.90937 -10.90937,-3.2728 -50.18311,-49.09217 z"
   class="g6_7"
   id="path218" /><path
   inkscape:connector-curvature="0"
   style="display:block;fill:#000000;fill-opacity:1;fill-rule:evenodd;stroke-width:14.07115459"
   d="m 73.077137,137.3423 11.25691,-2.81425 9.8498,-4.22133 -4.22134,-4.22136 c 9.84981,-9.8498 16.885383,-21.10671 21.106753,-35.177882 2.81421,14.071172 9.84978,25.328082 19.69961,35.177882 l -4.22137,4.22136 11.25694,4.22133 9.8498,2.81425 -2.81424,-9.84981 -2.81422,-11.25693 -5.62848,4.22135 c -4.22133,-4.22135 -8.44266,-9.84983 -12.66403,-16.88539 -11.2569,-19.699612 -9.8498,-45.027692 -8.44268,-45.027692 h -9.84983 c 1.40713,0 2.81426,25.32808 -8.442673,45.027692 -4.22135,7.03556 -8.4427,12.66404 -12.66404,16.88539 l -5.62847,-4.22135 -2.81423,11.25693 z"
   class="g6_7"
   id="path220" /></svg>