<?xml version="1.0" encoding="UTF-8" standalone="no"?>
<!-- Generator: Adobe Illustrator 22.0.1, SVG Export Plug-In . SVG Version: 6.00 Build 0)  -->

<svg
   xmlns:dc="http://purl.org/dc/elements/1.1/"
   xmlns:cc="http://creativecommons.org/ns#"
   xmlns:rdf="http://www.w3.org/1999/02/22-rdf-syntax-ns#"
   xmlns:svg="http://www.w3.org/2000/svg"
   xmlns="http://www.w3.org/2000/svg"
   xmlns:sodipodi="http://sodipodi.sourceforge.net/DTD/sodipodi-0.dtd"
   xmlns:inkscape="http://www.inkscape.org/namespaces/inkscape"
   version="1.1"
   id="Слой_1"
   x="0px"
   y="0px"
   viewBox="0 0 486.67317 555.02226"
   xml:space="preserve"
   sodipodi:docname="WNY.svg"
   width="486.67316"
   height="555.02228"
   inkscape:version="0.92.3 (2405546, 2018-03-11)"><metadata
   id="metadata43"><rdf:RDF><cc:Work
       rdf:about=""><dc:format>image/svg+xml</dc:format><dc:type
         rdf:resource="http://purl.org/dc/dcmitype/StillImage" /><dc:title></dc:title></cc:Work></rdf:RDF></metadata><defs
   id="defs41" /><sodipodi:namedview
   pagecolor="#ffffff"
   bordercolor="#666666"
   borderopacity="1"
   objecttolerance="10"
   gridtolerance="10"
   guidetolerance="10"
   inkscape:pageopacity="0"
   inkscape:pageshadow="2"
   inkscape:window-width="1920"
   inkscape:window-height="1039"
   id="namedview39"
   showgrid="false"
   fit-margin-top="43"
   fit-margin-left="48"
   fit-margin-right="48"
   fit-margin-bottom="43"
   inkscape:zoom="5.6568542"
   inkscape:cx="308.44485"
   inkscape:cy="100.20974"
   inkscape:window-x="0"
   inkscape:window-y="0"
   inkscape:window-maximized="1"
   inkscape:current-layer="Слой_1"
   showguides="true"
   inkscape:guide-bbox="true"><sodipodi:guide
     position="243.95185,235.46655"
     orientation="1,0"
     id="guide853"
     inkscape:locked="false" /><sodipodi:guide
     position="325.125,55.25"
     orientation="0,1"
     id="guide864"
     inkscape:locked="false" /></sodipodi:namedview>
<style
   type="text/css"
   id="style2">
	.st0{fill:#060606;}
	.st1{fill:#FE0404;}
	.st2{fill:#FE0000;}
	.st3{fill:#FC0B0C;}
	.st4{fill:#FD0506;}
	.st5{fill:#FE0202;}
	.st6{fill:#FE0303;}
</style>
<path
   style="fill:#ffffff;stroke:#000000;stroke-width:1px;stroke-linecap:butt;stroke-linejoin:miter;stroke-opacity:1"
   d="m 366.43903,477.61039 70,-431.874996 -389.500001,-1.125 68.250001,430.124996 126.375,37.875 z"
   id="path900"
   inkscape:connector-curvature="0" /><g
   id="g36"
   transform="rotate(-180,269.8367,349.83724)">
	<g
   id="g34">
		<path
   class="st0"
   d="m 297.8,658.8 c -63.1,0 -126.3,0 -189.4,0 -2.3,0 -4.6,-0.3 -6.8,-1 -1.8,-0.6 -2.6,-2.2 -2.2,-4.4 1.9,-9.7 3.9,-19.5 5.6,-29.3 3,-17.8 5.9,-35.6 8.8,-53.4 2.4,-14.9 4.8,-29.7 7.2,-44.6 2.6,-16 5.2,-32 7.7,-48 2.4,-15 4.9,-30.1 7.3,-45.1 2.2,-13.7 4.3,-27.4 6.5,-41.2 1.9,-11.7 3.7,-23.5 5.6,-35.2 3.2,-19.5 6.4,-38.9 9.6,-58.4 1.9,-11.4 3.6,-22.8 5.4,-34.3 2,-13.1 4.2,-26.1 6.1,-39.2 0.6,-4.4 3,-6.6 7.1,-7.7 11,-3 21.9,-6.1 32.9,-9.1 10.6,-2.9 21.3,-5.7 32,-8.6 17,-4.6 34,-9.3 51,-14.1 4.5,-1.3 8.7,-1.2 13.1,0.1 13.9,4.2 27.8,8.4 41.7,12.5 17.6,5.1 35.1,10.2 52.7,15.3 7.3,2.1 14.4,4.8 21.8,6.5 5.2,1.2 7,4.1 7.7,8.8 1.9,12.6 4,25.2 5.9,37.8 2.1,13.9 4,27.9 6.2,41.8 2.2,13.9 4.6,27.8 6.7,41.7 2.1,13.6 4.1,27.1 6.1,40.7 1.2,7.8 2.6,15.6 3.9,23.4 1.5,9.4 2.7,18.7 4.2,28.1 0.9,5.7 2,11.4 2.9,17.1 1.4,8.9 2.5,17.7 3.9,26.6 3,19.1 6.1,38.2 9.1,57.4 1.4,9 2.5,18 3.9,27 1.6,10.1 3.5,20.2 5.1,30.4 1.2,7.4 2,14.8 3.1,22.2 1.2,7.9 2.6,15.7 3.9,23.5 0.4,2.8 0.7,5.6 0.9,8.4 0.2,2.7 -1,4.1 -3.6,4.4 -1.1,0.1 -2.3,0 -3.5,0 -63.5,-0.1 -126.8,-0.1 -190.1,-0.1 z m -0.6,-6.9 c 58.3,0 116.7,0 175,0 4,0 8,0 12,0 3.1,0 3.2,-0.1 2.7,-3 -1.7,-11.4 -3.8,-22.8 -5.3,-34.3 -2.2,-17.1 -5.2,-34 -7.9,-51.1 -2.3,-15 -4.7,-30.1 -7,-45.1 -2.4,-15.2 -4.7,-30.4 -7.1,-45.6 -2.6,-17 -5.2,-34 -7.9,-51 -2.4,-15.2 -4.7,-30.4 -7.1,-45.6 -2.3,-14.9 -4.6,-29.8 -6.9,-44.7 -2.7,-17.2 -5.4,-34.3 -8,-51.5 -2.6,-16.5 -5.3,-33.1 -7.7,-49.6 -0.4,-2.8 -1.9,-3.7 -3.9,-4.3 -10.7,-3.1 -21.5,-6.1 -32.3,-9.2 -15.1,-4.3 -30.1,-8.6 -45.1,-13.1 -13.3,-3.9 -26.5,-8 -39.7,-12.1 -1.6,-0.5 -3,-0.7 -4.8,-0.2 -7.1,2.1 -14.3,3.8 -21.5,5.8 -18.9,5.2 -37.9,10.4 -56.8,15.6 -11.9,3.3 -23.8,6.8 -35.8,9.9 -3.9,1 -6.9,2.1 -6.3,6.9 0.1,1.2 -0.6,2.6 -0.8,3.9 -2.1,13.1 -4,26.2 -6.2,39.3 -2.5,15.7 -5.2,31.3 -7.8,47 -2.4,14.5 -4.7,29.1 -7,43.6 -2.3,14.2 -4.7,28.4 -6.9,42.6 -2.2,13.7 -4.1,27.5 -6.2,41.3 -1.2,7.5 -2.7,15 -4,22.5 -1.8,11.1 -3.5,22.2 -5.3,33.3 -2.5,15.4 -5.1,30.7 -7.5,46.1 -1.8,11.5 -3.4,22.9 -5.2,34.4 -1.6,10 -3.5,19.9 -5.1,29.9 -1.8,10.9 -3.5,21.9 -5.3,32.8 -0.9,5.5 -1,5.5 4.7,5.5 61.3,0 122.7,0 184,0 z"
   id="path4"
   inkscape:connector-curvature="0"
   style="fill:#060606" />
		<path
   class="st1"
   d="m 296.8,388.9 c 8.7,-1.1 17.5,-2.1 26.2,-3.5 8.4,-1.3 16.6,-3.1 25,-4.3 3.3,-0.5 6.6,-0.3 10,-0.4 0.8,0 1.7,0.3 2.3,0.7 5.7,4 11.4,8 17,12.2 1.3,1 2.1,2.5 3.1,3.9 1,1.4 1,2.9 0,4.2 -8.4,11.6 -9.9,25.5 -13.2,38.8 -1.2,5 -2.1,10.1 -3.1,15.1 -0.2,1 -0.3,2 -0.9,2.8 -1.2,1.7 -0.7,2.9 0.8,4.1 1.2,0.9 2.2,2.1 2.9,3.4 1.3,2.4 0.2,4 -2.8,4.1 -4.6,0.2 -9.3,0.3 -14,0.6 -15.4,0.8 -30.9,1.6 -46.3,2.5 -15.9,0.9 -31.9,1.9 -47.8,2.8 -1.6,0.1 -2.6,0.1 -3,2.2 -0.5,2.7 -1.5,6 -4.7,6.4 -3.3,0.5 -4.6,-2.7 -6.3,-4.9 -3.7,-4.7 -4,-10.4 -4.9,-16 -2.4,-13.9 -4.5,-27.8 -7.1,-41.7 -1.3,-7.2 -3.4,-14.2 -8.9,-19.7 -1.1,-1.1 -2.1,-2.3 -3.3,-3 -1.7,-1.1 -2.1,-2.5 -1.7,-4.2 0.4,-1.8 1.7,-3.1 3.5,-3 3.3,0 6.6,0.1 9.8,0.8 2.4,0.6 4.7,1.1 7.3,1.1 18.5,-0.3 36.8,-2.4 55.2,-4.2 0.4,0 0.7,-0.5 1,-0.8 1.2,0.1 2.5,0.1 3.9,0 z m -32.9,71.9 c 0,0.1 0,0.2 0,0.3 11.1,-0.8 22.2,-1.5 33.3,-2.4 4,-0.3 7.9,-0.9 11.9,-1.3 8.7,-0.9 17.5,-1.9 26.3,-2.6 7.7,-0.6 5.8,1 7.6,-7.2 0.1,-0.3 0,-0.7 0.1,-1 0.8,-6.8 1.7,-13.5 2.4,-20.3 0.7,-7.4 1.3,-14.9 1.7,-22.3 0.2,-3.3 -1,-5.1 -4.2,-5.8 -3,-0.7 -6.2,-1.1 -9.3,-0.9 -6.3,0.3 -12.6,1 -18.8,1.6 -7.9,0.7 -15.9,1.4 -23.8,2.3 -8.4,0.9 -16.8,1.9 -25.2,2.8 -6.3,0.7 -12.5,1.3 -18.8,2 -1.2,0.1 -1.8,0.6 -1.8,1.8 0.1,1.2 0,2.3 0.2,3.5 2.6,16 5.2,32.1 7.7,48.1 0.3,2 1.1,2.4 3,2.2 2.4,-0.5 5,-0.6 7.7,-0.8 z"
   id="path6"
   inkscape:connector-curvature="0"
   style="fill:#ed153e;fill-opacity:1" />
		<path
   class="st2"
   d="m 276,262.9 c 3.1,-0.4 6.2,-1 9.3,-1.2 2.2,-0.2 2.7,-1 2.7,-3.1 -0.2,-11.6 0.5,-23.2 -1.2,-34.7 -0.3,-2.3 -0.9,-4.5 -1.3,-6.8 0.4,-0.5 0.9,-1 1.3,-1.5 -0.7,-0.2 -1.4,-0.4 -2.1,-0.6 -0.7,-1.6 -1.6,-3.2 -2,-5 -0.4,-2 0.6,-3.2 2.6,-3.4 7.7,-0.8 14.4,1.6 20.5,6.1 2.8,2.1 3.5,5.2 3,8.5 -1,7.7 -2.2,15.4 -3.1,23.2 -0.4,3.6 -0.6,7.3 -0.8,10.9 -0.2,3.8 0,3.9 3.8,3.3 14.9,-2.2 29.8,-4.4 44.7,-6.6 2.8,-0.4 5.6,-0.9 8.4,-1.1 11.3,-0.9 20.4,3.7 28,11.6 3.2,3.3 2.4,6 -2.1,7.1 -2.7,0.7 -5.6,1 -8.4,1.1 -12.1,0.5 -24.3,0.7 -36.4,1.4 -11.9,0.7 -23.9,1.8 -35.8,2.7 -2,0.1 -2.6,0.8 -2.5,2.7 0.1,2.1 -0.2,4.3 -0.4,6.4 -1,0 -2,0 -3,0 -4.2,0.1 -6.3,2.2 -6.4,6.3 -0.1,3.8 0.7,7.6 0.1,11.4 -0.4,3.1 0.7,4 3.8,4.3 1.8,0.1 3.6,0 5.5,0 0.1,1 0.4,1.9 0.4,2.9 0,17.4 0,34.8 0,52.2 0,1 -0.2,1.9 -0.4,2.9 -0.8,0 -1.7,0 -2.5,0 -4.8,0.2 -6.8,2.3 -6.9,7 0,2.5 0,5 -0.1,7.5 0,0.5 -0.6,0.9 -1,1.3 -0.3,-0.3 -0.8,-0.6 -0.9,-0.9 -0.4,-2.2 -0.8,-4.5 -1.1,-6.7 -0.3,-2.1 0.3,-5 -0.9,-6.1 -2.9,-2.9 1.8,-3.9 0.9,-6.1 -0.2,-0.6 0.2,-1.5 -0.1,-1.9 -1.6,-2 -0.6,-3.7 0.2,-5.5 0.3,-0.7 0.9,-1.5 0.8,-2.3 -0.5,-7.4 1.2,-14.9 -0.9,-22.2 -0.2,-0.9 0.2,-1.9 0.3,-2.9 0.1,-0.6 0.7,-1.4 0.5,-1.8 -1.2,-2.2 -0.1,-4.5 -0.3,-6.5 -0.2,-2.4 -0.4,-4.8 -0.6,-7.3 -0.1,-1.5 -0.4,-3.2 0.1,-4.5 1.7,-4.4 0.9,-8.9 0.8,-13.2 -0.2,-5.5 -2.6,-7.6 -8.3,-7.8 -0.3,0 -0.7,0 -1,0 -1.4,0.1 -1.8,-0.8 -1.6,-1.9 0.1,-0.9 0.4,-1.9 0.9,-2.7 1.4,-2.5 1,-5.1 1,-7.7 0,-1.5 -0.9,-2.5 -2.4,-2.6 -0.8,-0.1 -1.7,0 -2.5,0 -2,0 -3.1,-0.9 -3.1,-3 0.5,-1.2 0.5,-2.2 0.5,-3.2 z"
   id="path8"
   inkscape:connector-curvature="0"
   style="fill:#ed153e;fill-opacity:1" />
		<path
   class="st2"
   d="m 276,262.9 c 0,1 0,2 0,3 0,2.1 1,3 3.1,3 0.8,0 1.7,-0.1 2.5,0 1.5,0.1 2.4,1.1 2.4,2.6 0,2.6 0.4,5.3 -1,7.7 -0.5,0.8 -0.8,1.8 -0.9,2.7 -0.2,1.1 0.2,2 1.6,1.9 0.3,0 0.7,0 1,0 5.6,0.3 8.1,2.3 8.3,7.8 0.1,4.4 0.9,8.9 -0.8,13.2 -0.5,1.3 -0.2,3 -0.1,4.5 0.1,2.4 0.3,4.9 0.6,7.3 0.2,2 -0.8,4.3 0.3,6.5 0.2,0.4 -0.4,1.2 -0.5,1.8 -0.2,1 -0.6,2 -0.3,2.9 2,7.3 0.4,14.8 0.9,22.2 0,0.7 -0.5,1.5 -0.8,2.3 -0.9,1.8 -1.8,3.5 -0.2,5.5 0.3,0.4 -0.1,1.4 0.1,1.9 0.9,2.1 -3.8,3.2 -0.9,6.1 1.2,1.2 0.6,4 0.9,6.1 0.3,2.3 0.7,4.5 1.1,6.7 0.1,0.4 0.6,0.6 0.9,0.9 0.3,-0.4 1,-0.9 1,-1.3 0.1,-2.5 0.1,-5 0.1,-7.5 0,-4.6 2.1,-6.7 6.9,-7 0.8,0 1.7,0 2.5,0 0.8,9.4 -0.7,18 -7.6,25.1 -1.3,0 -2.6,0 -4,0 -2.5,-1 -3.7,-3.2 -4.8,-5.4 -3.4,-6.9 -4.3,-14.2 -3.7,-21.8 0.5,-6.1 1.1,-12.2 1.5,-18.4 0.8,-14.8 1.4,-29.6 2.1,-44.3 0.1,-1.2 0,-2.3 0,-3.5 0,-0.3 -0.1,-0.7 -0.1,-1 -0.4,0.2 -1,0.3 -1.2,0.6 -0.8,0.9 -1.4,1.9 -2.1,2.8 -9.2,11.6 -18.3,23.3 -29.3,33.3 -17.7,15.9 -37.1,29 -59.7,37.1 -5.3,1.9 -10.7,3.4 -16.1,5 -1,0.3 -2.2,0 -3.3,-0.1 -0.4,0 -0.7,-0.5 -1.1,-0.8 0.2,-0.2 0.5,-0.5 0.7,-0.7 2.8,-1.9 5.5,-3.7 8.3,-5.5 17,-11.5 32.7,-24.5 48.2,-37.9 12.3,-10.7 23.7,-22.4 33.4,-35.6 2.9,-4 5.5,-8.3 8.1,-12.6 0.7,-1.2 0.5,-2.3 -1.3,-2.1 -3.1,0.3 -6.3,0.6 -9.4,0.9 0,-1 0,-2 0,-3 -0.1,-2.9 -0.1,-2.9 -3.1,-3 -3.8,-0.2 -7.6,0.7 -11.5,0.3 -5.8,-0.6 -11.9,-1.2 -17.7,0.6 -1.3,0.4 -2.9,-0.1 -4.4,-0.3 -0.8,-0.1 -1.7,-0.8 -2.3,-0.5 -3.8,1.8 -7.9,0.6 -11.8,0.8 -2.8,0.2 -2.8,0 -3.3,-3.3 3.4,-0.5 6.8,-1.1 10.3,-1.5 7.4,-0.8 14.9,-1.4 22.3,-2.3 9.7,-1.1 19.4,-2.4 29.1,-3.6 1.4,0 3.3,0 5.1,-0.1 z m -5,40.1 c 0,-0.2 0,-0.3 0,-0.5 -0.4,-1.4 1.1,-3.4 -1.1,-4.2 -0.2,-0.1 -1.6,2.2 -1.8,3.5 -0.6,2.9 -2.1,4.4 -5.1,4.2 -1.5,-0.1 -1.7,0.7 -2.2,1.9 -0.7,2 -0.6,4.7 -3.5,5.4 -1.4,0.3 -3.1,0.5 -4,1.4 -0.9,0.9 -0.9,2.7 -1.3,4.1 -0.1,0.3 -0.2,0.6 -0.3,0.9 -1,1.5 -1.3,3.2 0.1,4.5 0.6,0.5 1.9,0.8 2.6,0.6 1.7,-0.6 1.6,-2.3 1.5,-3.8 -0.2,-2.3 0.4,-3.9 3.1,-4 0.4,0 0.8,-0.6 1.3,-0.6 1.5,-0.3 2.5,-0.5 2.7,-2.7 0.2,-3.3 2.4,-5.4 5.8,-5.6 1.9,-0.1 2.2,-0.9 2.1,-2.5 0.1,-1 0.1,-1.8 0.1,-2.6 z m -29.7,28.9 c 1.2,0 2.2,0.1 3.2,0 0.8,-0.2 2.2,-0.6 2.3,-1 0.2,-1 -0.2,-2.3 -0.7,-3.2 -0.7,-1.2 -1.6,-0.5 -2.5,0 -0.8,0.5 -1.8,0.8 -2.7,1.3 -1.2,0.6 -3.6,1.6 -3.5,1.8 0.6,2.3 2.7,0.6 3.9,1.1 z m 37.5,-43.5 c 0.1,0.1 -0.2,-1 -0.8,-1.3 -0.9,-0.4 -3.1,2.5 -2.8,3.8 0.1,0.4 0.9,0.8 1.4,0.9 1.9,0.4 2.7,-0.5 2.2,-3.4 z m -46.1,50.5 c -1.2,-0.5 -1.8,-1 -2.2,-0.9 -0.5,0.1 -0.9,0.6 -1.3,0.9 0.4,0.3 0.9,0.9 1.3,0.9 0.5,0.1 1,-0.4 2.2,-0.9 z"
   id="path10"
   inkscape:connector-curvature="0"
   style="fill:#ed153e;fill-opacity:1" />
		
		<path
   class="st2"
   d="m 304.4,305.9 c -1.8,0 -3.6,0.1 -5.5,0 -3.2,-0.3 -4.3,-1.2 -3.8,-4.3 0.6,-3.9 -0.2,-7.6 -0.1,-11.4 0.1,-4.1 2.2,-6.2 6.4,-6.3 1,0 2,0 3,0 0.1,2.3 0.4,4.6 0.4,6.9 0,2 0.6,2.8 2.6,3.3 8.5,2.1 16.9,4.4 25.4,6.7 16.6,4.5 32.8,10.2 48.5,17.4 10.2,4.7 18.5,11.8 23.2,22.3 1,2.2 1.8,4.6 2.4,7 1.1,4.5 -0.8,9.3 -7.1,9.5 -4.2,0.1 -8.2,-0.8 -11.9,-2.8 -14.3,-7.9 -27.6,-17.1 -40.8,-26.7 -12,-8.7 -24.4,-16.6 -37.4,-23.7 -0.9,-0.5 -1.7,-1 -2.6,-1.4 -1.3,-0.7 -2.2,-0.6 -2.2,1.2 -0.2,0.7 -0.4,1.5 -0.5,2.3 z m 45.8,8 c 0,0 0,0 0,0 -2.7,0 -5.3,0 -8,0.1 -0.3,0 -0.9,0.5 -1,0.8 0,0.3 0.4,0.7 0.7,1 0.1,0.1 0.3,0 0.5,0.1 1.7,0.2 3.5,-0.4 5.2,1.1 1.8,1.7 1.1,3.7 1.4,5.6 0.1,0.4 0.4,1.2 0.6,1.2 2.7,0.3 5.5,1 8.1,0.7 3.9,-0.5 6.7,1.1 7.1,5.1 0.2,1.5 0.4,2.2 2.1,2.6 2.5,0.5 4.8,1.6 5.1,4.9 0.2,2.1 1.7,3.3 4.2,3 2.3,-0.3 4.7,0.1 7,-0.1 2,-0.2 3.3,0.8 4.1,2.2 0.8,1.2 1,2.7 1.5,4.1 0.3,0.6 0.8,1.6 1.3,1.7 2.6,0.1 5.3,0 8,-0.1 0.2,0 0.5,-0.5 0.5,-0.7 0,-0.3 -0.1,-0.7 -0.3,-0.8 -0.6,-0.2 -1.3,-0.3 -1.9,-0.5 -3.9,-0.9 -5.4,-3.6 -5.6,-7.4 -0.1,-2.8 -0.4,-5.5 -0.6,-8.3 -2.8,-0.1 -5.6,-0.1 -8.5,-0.2 -0.2,0 -0.3,0 -0.5,0 -5.3,0 -6,-0.6 -6.3,-5.8 -0.1,-1.7 -0.7,-2.3 -2.4,-2.3 -2.3,0.1 -4.7,-0.2 -7,0.1 -3.2,0.3 -5,-1.1 -6.1,-3.9 -0.5,-1.3 -0.6,-3.4 -1.5,-3.9 -1.3,-0.7 -3.2,-0.2 -4.9,-0.3 -0.8,0 -1.8,0 -2.8,0 z"
   id="path14"
   inkscape:connector-curvature="0"
   style="fill:#ed153e;fill-opacity:1" />
		<path
   class="st2"
   d="m 208.9,270.5 c 0.5,3.3 0.5,3.5 3.3,3.3 3.9,-0.2 7.9,0.9 11.8,-0.8 0.6,-0.3 1.5,0.4 2.3,0.5 1.5,0.2 3.1,0.7 4.4,0.3 5.9,-1.8 11.9,-1.2 17.7,-0.6 4,0.4 7.7,-0.4 11.5,-0.3 2.9,0.1 3,0.1 3.1,3 0,1 0,2 0,3 -7,1 -14.1,2.1 -21.1,3.1 -5.9,0.9 -11.8,1.6 -17.6,2.7 -10.9,1.9 -20.1,-2.2 -28.8,-8 -0.3,-0.2 -0.4,-0.9 -0.6,-1.3 0,-0.6 0,-1.2 0,-1.9 4.2,-2.9 9.2,-2.6 14,-3 z"
   id="path16"
   inkscape:connector-curvature="0"
   style="fill:#ed153e;fill-opacity:1" />
		
		<path
   class="st5"
   d="m 284.8,215 c 0.7,0.2 1.4,0.4 2.1,0.6 -0.4,0.5 -0.9,1 -1.3,1.5 -0.3,-0.7 -0.6,-1.4 -0.8,-2.1 z"
   id="path20"
   inkscape:connector-curvature="0"
   style="fill:#ed153e;fill-opacity:1" />
		<path
   class="st6"
   d="m 194.9,273.5 c 0,0.6 0,1.2 0,1.9 -0.9,-0.7 -0.9,-1.3 0,-1.9 z"
   id="path22"
   inkscape:connector-curvature="0"
   style="fill:#ed153e;fill-opacity:1" />
		<path
   class="st2"
   d="m 271,303 c 0,0.8 0,1.7 0,2.5 0.1,1.5 -0.2,2.4 -2.1,2.5 -3.4,0.2 -5.6,2.3 -5.8,5.6 -0.1,2.1 -1.2,2.4 -2.7,2.7 -0.5,0.1 -0.9,0.6 -1.3,0.6 -2.7,0.1 -3.3,1.7 -3.1,4 0.1,1.5 0.2,3.2 -1.5,3.8 -0.7,0.3 -2,0 -2.6,-0.6 -1.4,-1.3 -1.1,-3 -0.1,-4.5 0.2,-0.3 0.3,-0.6 0.3,-0.9 0.4,-1.4 0.4,-3.2 1.3,-4.1 0.9,-0.9 2.6,-1.1 4,-1.4 3,-0.6 2.8,-3.4 3.5,-5.4 0.5,-1.3 0.7,-2.1 2.2,-1.9 3,0.2 4.5,-1.2 5.1,-4.2 0.2,-1.3 1.6,-3.5 1.8,-3.5 2.2,0.8 0.6,2.8 1.1,4.2 -0.1,0.2 -0.1,0.4 -0.1,0.6 z"
   id="path24"
   inkscape:connector-curvature="0"
   style="fill:#ed153e;fill-opacity:1" />
		<path
   class="st2"
   d="m 241.3,331.9 c -1.2,-0.5 -3.3,1.2 -4,-1.1 -0.1,-0.3 2.3,-1.2 3.5,-1.8 0.9,-0.4 1.8,-0.8 2.7,-1.3 0.9,-0.6 1.9,-1.2 2.5,0 0.5,0.9 0.8,2.2 0.7,3.2 -0.1,0.5 -1.5,0.9 -2.3,1 -0.9,0.1 -1.9,0 -3.1,0 z"
   id="path26"
   inkscape:connector-curvature="0"
   style="fill:#ed153e;fill-opacity:1" />
		<path
   class="st2"
   d="m 278.8,288.4 c 0.5,2.9 -0.3,3.8 -2.2,3.4 -0.5,-0.1 -1.3,-0.5 -1.4,-0.9 -0.3,-1.3 1.9,-4.2 2.8,-3.8 0.6,0.3 0.9,1.4 0.8,1.3 z"
   id="path28"
   inkscape:connector-curvature="0"
   style="fill:#ed153e;fill-opacity:1" />
		<path
   class="st2"
   d="m 232.7,338.9 c -1.2,0.5 -1.8,1 -2.2,0.9 -0.5,-0.1 -0.9,-0.6 -1.3,-0.9 0.4,-0.3 0.9,-0.9 1.3,-0.9 0.5,-0.1 1,0.3 2.2,0.9 z"
   id="path30"
   inkscape:connector-curvature="0"
   style="fill:#ed153e;fill-opacity:1" />
		<path
   class="st2"
   d="m 350.2,313.9 c 1,0 2,0 3,0 1.7,0 3.6,-0.4 4.9,0.3 0.9,0.5 1,2.5 1.5,3.9 1,2.8 2.9,4.2 6.1,3.9 2.3,-0.2 4.7,0 7,-0.1 1.7,-0.1 2.3,0.5 2.4,2.3 0.3,5.2 1,5.7 6.3,5.8 0.2,0 0.3,0 0.5,0 2.8,0.1 5.6,0.1 8.5,0.2 0.2,2.8 0.5,5.5 0.6,8.3 0.2,3.8 1.6,6.5 5.6,7.4 0.6,0.1 1.3,0.2 1.9,0.5 0.2,0.1 0.4,0.5 0.3,0.8 0,0.3 -0.3,0.7 -0.5,0.7 -2.7,0.1 -5.3,0.2 -8,0.1 -0.5,0 -1,-1 -1.3,-1.7 -0.6,-1.3 -0.8,-2.9 -1.5,-4.1 -0.9,-1.4 -2.1,-2.4 -4.1,-2.2 -2.3,0.2 -4.7,-0.2 -7,0.1 -2.5,0.3 -4.1,-0.9 -4.2,-3 -0.3,-3.4 -2.6,-4.4 -5.1,-4.9 -1.8,-0.4 -2,-1.1 -2.1,-2.6 -0.4,-4 -3.2,-5.5 -7.1,-5.1 -2.6,0.3 -5.4,-0.3 -8.1,-0.7 -0.3,0 -0.6,-0.8 -0.6,-1.2 -0.3,-1.9 0.4,-3.9 -1.4,-5.6 -1.6,-1.5 -3.4,-0.8 -5.2,-1.1 -0.2,0 -0.4,0 -0.5,-0.1 -0.3,-0.3 -0.7,-0.7 -0.7,-1 0,-0.3 0.6,-0.8 1,-0.8 2.5,-0.1 5.2,-0.1 7.8,-0.1 0,0 0,0 0,0 z"
   id="path32"
   inkscape:connector-curvature="0"
   style="fill:#ed153e;fill-opacity:1" />
	</g>
</g>
<path
   style="fill:#ed153e;fill-opacity:1;stroke:none;stroke-width:1px;stroke-linecap:butt;stroke-linejoin:miter;stroke-opacity:1"
   d="m 294.40378,367.05049 c -0.0318,0.0142 -0.62661,0.28061 -0.7071,0.30936 -0.101,0.0361 -0.20762,0.0545 -0.30936,0.0884 -0.0753,0.0251 -0.14732,0.0589 -0.22097,0.0884 -0.0737,0.0295 -0.15002,0.0529 -0.22097,0.0884 -0.0768,0.0384 -0.14278,0.097 -0.22098,0.13259 -0.0848,0.0385 -0.17952,0.0517 -0.26516,0.0884 -0.80644,0.34561 0.0733,0.007 -0.66291,0.35355 -0.14356,0.0676 -0.30003,0.10582 -0.44194,0.17678 -0.095,0.0475 -0.17678,0.11785 -0.26517,0.17677 -0.10312,0.0589 -0.20313,0.12366 -0.30936,0.17678 -0.071,0.0355 -0.15133,0.0504 -0.22097,0.0884 -0.25146,0.13716 -0.26407,0.19205 -0.48614,0.35355 -0.17968,0.13068 -0.37898,0.24927 -0.57452,0.35355 -0.11626,0.062 -0.2357,0.11786 -0.35355,0.17678 -0.0884,0.0442 -0.17142,0.10133 -0.26517,0.13258 -0.15625,0.0521 -0.32988,0.0363 -0.48613,0.0884 -0.0625,0.0208 -0.1151,0.0653 -0.17678,0.0884 -0.38417,0.096 -0.0273,-0.007 -0.26517,0.0884 -0.0433,0.0173 -0.0962,0.0151 -0.13258,0.0442 -0.0415,0.0332 -0.0508,0.095 -0.0884,0.13259 -0.0375,0.0376 -0.095,0.0508 -0.13258,0.0884 -0.0376,0.0376 -0.0508,0.095 -0.0884,0.13259 -0.0376,0.0376 -0.0911,0.0552 -0.13258,0.0884 -0.0325,0.026 -0.0559,0.0624 -0.0884,0.0884 -0.0415,0.0332 -0.095,0.0508 -0.13258,0.0884 -0.0376,0.0376 -0.0476,0.0986 -0.0884,0.13258 -0.0506,0.0422 -0.11785,0.0589 -0.17678,0.0884 -0.0884,0.0442 -0.17263,0.0979 -0.26516,0.13258 -0.0569,0.0213 -0.11991,0.0229 -0.17678,0.0442 -0.30599,0.11475 -0.0606,0.0433 -0.30936,0.22097 -0.0536,0.0383 -0.12407,0.0489 -0.17677,0.0884 -0.0667,0.05 -0.11786,0.11785 -0.17678,0.17677 -0.0589,0.0589 -0.1219,0.11407 -0.17678,0.17678 -0.13697,0.15654 -0.15343,0.24182 -0.30936,0.39775 -0.46718,0.46718 0.12844,-0.24149 -0.35355,0.30936 -0.0485,0.0554 -0.0841,0.12134 -0.13258,0.17677 -0.0549,0.0627 -0.11785,0.11786 -0.17678,0.17678 -0.0737,0.0737 -0.14389,0.1509 -0.22097,0.22097 -0.24677,0.22434 -0.34158,0.26838 -0.61872,0.48614 -0.0829,0.0651 -0.38416,0.32636 -0.48613,0.39775 -0.0704,0.0493 -0.1506,0.0833 -0.22098,0.13258 -0.0773,0.0541 -0.14731,0.11785 -0.22097,0.17677 -0.14731,0.11786 -0.30171,0.22736 -0.44194,0.35356 -0.0774,0.0697 -0.13963,0.1559 -0.22097,0.22097 -0.0671,0.0537 -0.15389,0.0789 -0.22097,0.13258 -0.0813,0.0651 -0.13841,0.15746 -0.22097,0.22097 -0.11016,0.0847 -0.23929,0.14187 -0.35355,0.22097 -0.0776,0.0537 -0.14621,0.11927 -0.22097,0.17678 -0.13289,0.10222 -0.48463,0.35204 -0.61872,0.48614 -0.58657,0.58657 0.13101,-0.0347 -0.44194,0.48613 -0.0851,0.0774 -0.18713,0.13643 -0.26517,0.22097 -0.0999,0.10825 -0.161,0.24939 -0.26516,0.35356 -0.11877,0.11876 -0.2681,0.20258 -0.39775,0.30936 -0.12088,0.0995 -0.23613,0.20575 -0.35356,0.30935 -0.13301,0.11737 -0.25583,0.24712 -0.39774,0.35356 -0.15366,0.11524 -0.33248,0.19411 -0.48614,0.30936 -0.15228,0.1142 -0.61999,0.55703 -0.7513,0.7071 -0.097,0.11087 -0.17472,0.23727 -0.26517,0.35356 -0.11582,0.14891 -0.24036,0.29102 -0.35355,0.44194 -0.0879,0.11725 -0.44677,0.62838 -0.53033,0.79549 -0.0132,0.0264 0.003,0.0591 0,0.0884 -0.0121,0.13285 -0.018,0.26694 -0.0442,0.39775 -0.0496,0.24811 -0.24505,0.84016 -0.30936,1.06066 -0.047,0.16125 -0.0795,0.32679 -0.13258,0.48614 -0.0502,0.15052 -0.12437,0.29218 -0.17678,0.44194 -0.0508,0.14516 -0.0755,0.29914 -0.13258,0.44194 -0.0612,0.15292 -0.15981,0.28902 -0.22097,0.44194 -0.0571,0.1428 -0.0729,0.3002 -0.13259,0.44194 -0.0589,0.13979 -0.15639,0.26052 -0.22097,0.39775 -0.0536,0.11389 -0.0763,0.24098 -0.13258,0.35355 -0.0692,0.13849 -0.30289,0.47117 -0.39775,0.61872 -0.0752,0.11691 -0.14019,0.24047 -0.22097,0.35356 -0.0669,0.0936 -0.15715,0.16943 -0.22097,0.26516 -0.0841,0.1262 -0.13684,0.27155 -0.22097,0.39775 -0.0638,0.0957 -0.15875,0.16838 -0.22097,0.26516 -0.0713,0.11084 -0.11218,0.23872 -0.17678,0.35356 -0.0737,0.11785 -0.14731,0.2357 -0.22097,0.35355 -0.0295,0.0737 -0.0499,0.15162 -0.0884,0.22097 -0.0715,0.12878 -0.18709,0.22863 -0.26516,0.35355 -0.0349,0.0559 -0.0501,0.12317 -0.0884,0.17678 -0.12027,0.16837 -0.15848,0.11429 -0.30936,0.26517 -0.0521,0.0521 -0.0841,0.12134 -0.13258,0.17677 -0.10975,0.12543 -0.23571,0.23571 -0.35356,0.35356 -0.21295,0.21295 -0.44499,0.41473 -0.61871,0.66291 -0.0493,0.0704 -0.0833,0.1506 -0.13259,0.22097 -0.0541,0.0773 -0.12268,0.1437 -0.17677,0.22097 -0.0493,0.0704 -0.0871,0.14813 -0.13259,0.22097 -0.0281,0.045 -0.062,0.0865 -0.0884,0.13258 -0.0327,0.0572 -0.0501,0.12317 -0.0884,0.17678 -0.0363,0.0509 -0.0935,0.0838 -0.13259,0.13258 -0.069,0.0862 -0.0194,0.13475 -0.0884,0.22097 -0.0332,0.0415 -0.0986,0.0476 -0.13259,0.0884 -0.0422,0.0506 -0.0535,0.12091 -0.0884,0.17678 -0.039,0.0625 -0.0968,0.11239 -0.13259,0.17678 -0.0385,0.0693 -0.0589,0.14731 -0.0884,0.22097 -0.0295,0.0736 -0.0589,0.14731 -0.0884,0.22097 -0.0295,0.0737 -0.0464,0.1537 -0.0884,0.22097 -0.0331,0.053 -0.0963,0.0817 -0.13258,0.13258 -0.0487,0.0681 -0.11039,0.22058 -0.13259,0.30936 -0.005,0.0181 0.005,0.083 0,0.0884 -0.21125,0.21125 -0.002,-0.12638 -0.0884,0.13258 -0.007,0.0198 -0.0295,0.0295 -0.0442,0.0442 -0.13269,0.13269 -0.10655,0.11306 -0.30936,0.26516 -0.10138,0.076 -0.20891,0.14371 -0.30936,0.22097 -0.15155,0.11658 -0.41157,0.33997 -0.53033,0.48614 -0.41306,0.50838 -0.23954,0.38604 -0.57452,0.97227 -0.3105,0.54337 -0.22471,0.23996 -0.48614,0.79549 -0.0536,0.11389 -0.0798,0.23928 -0.13258,0.35356 -0.036,0.078 -0.0942,0.14414 -0.13258,0.22097 -0.0355,0.071 -0.0529,0.15001 -0.0884,0.22097 -0.0384,0.0768 -0.0915,0.14556 -0.13258,0.22097 -0.0473,0.0867 -0.0853,0.17841 -0.13259,0.26517 -0.0411,0.0754 -0.097,0.14277 -0.13258,0.22097 -0.0385,0.0848 -0.0467,0.18183 -0.0884,0.26516 -0.0329,0.0659 -0.096,0.11283 -0.13258,0.17678 -0.0231,0.0404 -0.0234,0.0909 -0.0442,0.13258 0.0245,0.10945 -0.0996,0.1109 -0.13259,0.17678 -0.007,0.0132 0,0.0295 0,0.0442 0,0.0295 0.007,0.0598 0,0.0884 -0.0246,0.0986 -0.20039,0.27506 -0.22097,0.30936 -0.0408,0.068 -0.0499,0.15162 -0.0884,0.22097 -0.0358,0.0644 -0.0996,0.1109 -0.13258,0.17678 -0.0132,0.0264 0.007,0.0598 0,0.0884 -0.0533,0.21342 -0.021,-0.002 -0.0884,0.13259 -0.0139,0.0278 0.0139,0.149 0,0.17677 -0.0186,0.0373 -0.0677,0.0522 -0.0884,0.0884 -0.0394,0.0689 -0.0551,0.14894 -0.0884,0.22097 -0.0552,0.11964 -0.12488,0.23245 -0.17678,0.35356 -0.0367,0.0856 -0.0565,0.1776 -0.0884,0.26516 -0.20316,0.5587 0.001,-0.0714 -0.13258,0.39775 -0.0128,0.0448 -0.0314,0.0878 -0.0442,0.13258 -0.0167,0.0584 -0.0229,0.11991 -0.0442,0.17678 -0.0231,0.0617 -0.0676,0.11428 -0.0884,0.17678 -0.008,0.0253 0,0.17948 0,0.22097 0,0.38301 0,0.76603 0,1.14904 0,0.0442 0,0.0884 0,0.13259 0,0.0295 -0.0236,0.0707 0,0.0884 0.0486,0.0364 0.12245,0.017 0.17678,0.0442 0.0659,0.0329 0.11431,0.0935 0.17678,0.13258 0.0559,0.0349 0.12316,0.0501 0.17677,0.0884 0.0509,0.0363 0.0806,0.0979 0.13258,0.13258 0.0388,0.0258 0.0893,0.0269 0.13259,0.0442 0.0306,0.0122 0.0596,0.0282 0.0884,0.0442 0.10382,0.0577 0.2082,0.11453 0.30935,0.17678 0.0905,0.0557 0.17015,0.12927 0.26517,0.17677 0.0543,0.0272 0.12038,0.0216 0.17678,0.0442 0.16527,0.0661 0.32086,0.15486 0.48613,0.22097 0.0564,0.0226 0.12148,0.0191 0.17678,0.0442 0.10812,0.0491 0.20124,0.12763 0.30936,0.17678 0.0553,0.0251 0.1186,0.0267 0.17677,0.0442 0.0915,0.0275 0.32553,0.11804 0.44195,0.13259 0.0585,0.007 0.11785,0 0.17677,0 0.14732,0 0.29463,0 0.44194,0 0.10312,0 0.20624,0 0.30936,0 0.0442,0 0.089,0.007 0.13259,0 0.16363,-0.0273 0.21453,-0.10976 0.35355,-0.22097 0.0737,-0.0589 0.15047,-0.11411 0.22097,-0.17678 0.0623,-0.0554 0.111,-0.12562 0.17678,-0.17678 0.0678,-0.0527 0.1506,-0.0833 0.22097,-0.13258 0.15455,-0.10819 0.28325,-0.25154 0.44194,-0.35355 0.25516,-0.16404 0.53666,-0.28377 0.7955,-0.44194 0.12817,-0.0783 0.74026,-0.4972 0.83968,-0.57453 0.44864,-0.34894 0.29793,-0.29907 0.75131,-0.70711 0.15562,-0.14006 0.31776,-0.27329 0.48613,-0.39774 0.13901,-0.10275 1.03862,-0.68505 1.14905,-0.7513 0.52352,-0.31412 0.4406,-0.18049 0.88388,-0.57453 0.14014,-0.12457 0.26517,-0.26516 0.39775,-0.39775 0.39634,-0.39634 0.51585,-0.49383 0.88388,-0.97227 0.58837,-0.76487 0.17034,-0.42415 0.92808,-1.06066 0.66089,-0.55514 0.52374,-0.37862 1.28163,-0.88388 0.16672,-0.11115 0.32309,-0.23709 0.48614,-0.35355 0.14632,-0.10452 0.30493,-0.1929 0.44194,-0.30936 0.15874,-0.13493 0.29463,-0.29463 0.44194,-0.44195 0.13259,-0.13258 0.2688,-0.26163 0.39775,-0.39774 0.1363,-0.14388 0.26144,-0.29807 0.39775,-0.44195 0.29688,-0.31337 0.53058,-0.53854 0.88388,-0.79549 0.15534,-0.11297 0.32878,-0.19921 0.48614,-0.30936 0.1376,-0.0963 0.26158,-0.21102 0.39774,-0.30936 0.16332,-0.11795 0.53838,-0.34553 0.70711,-0.48613 0.08,-0.0667 0.1509,-0.1439 0.22097,-0.22098 0.46456,-0.51101 -0.005,-0.0178 0.39775,-0.53033 0.0968,-0.12313 0.21905,-0.22561 0.30936,-0.35355 0.0875,-0.12391 0.14188,-0.26833 0.22097,-0.39775 0.12272,-0.20081 0.34174,-0.50855 0.48614,-0.7071 0.0433,-0.0596 0.096,-0.11283 0.13258,-0.17678 0.0231,-0.0404 0.0234,-0.0909 0.0442,-0.13258 0.009,-0.0186 0.0326,-0.0269 0.0442,-0.0442 0.0183,-0.0274 0.0209,-0.0651 0.0442,-0.0884 0.0376,-0.0376 0.0926,-0.0534 0.13258,-0.0884 0.13676,-0.11966 0.44545,-0.46135 0.53033,-0.57453 0.12748,-0.16996 0.23075,-0.35696 0.35356,-0.53033 1.25156,-1.66875 -0.36288,0.51208 0.7071,-1.01646 0.0963,-0.1376 0.21967,-0.25574 0.30936,-0.39775 0.088,-0.13926 0.14211,-0.29735 0.22097,-0.44194 0.098,-0.17967 0.20937,-0.35177 0.30936,-0.53033 0.10628,-0.18978 0.18515,-0.39598 0.30936,-0.57453 0.11318,-0.16269 0.27009,-0.29034 0.39775,-0.44194 0.10819,-0.12848 0.19777,-0.27221 0.30936,-0.39775 0.12457,-0.14014 0.26516,-0.26516 0.39775,-0.39774 0.10312,-0.10312 0.20624,-0.20624 0.30936,-0.30936 0.0884,-0.0884 0.16974,-0.18443 0.26516,-0.26517 0.0967,-0.0819 0.21201,-0.13984 0.30936,-0.22097 0.08,-0.0667 0.14731,-0.14731 0.22097,-0.22097 0.0737,-0.0737 0.14731,-0.14731 0.22097,-0.22097 0.14732,-0.14732 0.3055,-0.28451 0.44194,-0.44194 0.11001,-0.12693 0.20183,-0.26872 0.30936,-0.39775 0.41746,-0.50095 0.2898,-0.27887 0.66292,-0.7955 0.0933,-0.12917 0.16146,-0.27676 0.26516,-0.39774 0.0749,-0.0874 0.18035,-0.14323 0.26517,-0.22097 0.0921,-0.0845 0.17677,-0.17678 0.26516,-0.26517 0.0589,-0.0589 0.12472,-0.1117 0.17678,-0.17678 0.0664,-0.0829 0.11631,-0.17782 0.17677,-0.26516 0.0721,-0.10419 0.14268,-0.20971 0.22097,-0.30936 0.0839,-0.1068 0.19319,-0.19419 0.26517,-0.30936 0.004,-0.006 0.34838,-0.78629 0.35355,-0.79549 0.0621,-0.11045 0.16134,-0.19755 0.22097,-0.30936 0.0592,-0.11106 0.0798,-0.23928 0.13259,-0.35356 0.036,-0.078 0.0942,-0.14414 0.13258,-0.22097 0.0355,-0.0709 0.0499,-0.15162 0.0884,-0.22097 0.0358,-0.0644 0.0884,-0.11785 0.13258,-0.17678 0.0442,-0.0589 0.0854,-0.12019 0.13258,-0.17677 0.0667,-0.08 0.14732,-0.14732 0.22097,-0.22097 0.17131,-0.17131 0.34279,-0.33323 0.48614,-0.53033 0.34016,-0.46773 0.0281,-0.0522 0.30936,-0.57453 0.0504,-0.0935 0.11974,-0.17554 0.17678,-0.26516 0.0461,-0.0725 0.0909,-0.14588 0.13258,-0.22097 0.032,-0.0576 0.0501,-0.12317 0.0884,-0.17678 0.0363,-0.0509 0.0926,-0.0846 0.13258,-0.13258 0.11635,-0.13962 0.0586,-0.0977 0.13258,-0.22097 0.0273,-0.0455 0.0611,-0.087 0.0884,-0.13259 0.11585,-0.19307 -0.0381,0.032 0.0884,-0.22097 0.009,-0.0186 0.0349,-0.0256 0.0442,-0.0442 0.0137,-0.0274 -0.0131,-0.1637 0,-0.17678 0.0233,-0.0233 0.0714,-0.016 0.0884,-0.0442 0.0312,-0.0521 0.0282,-0.11818 0.0442,-0.17678 0.0282,-0.10347 0.0608,-0.20573 0.0884,-0.30936 0.0313,-0.11737 0.0571,-0.23617 0.0884,-0.35355 0.0276,-0.10363 0.0674,-0.2042 0.0884,-0.30936 0.0233,-0.11646 0.0154,-0.23833 0.0442,-0.35355 0.0305,-0.12211 0.0928,-0.23415 0.13259,-0.35356 0.14584,-0.43752 0.2519,-0.8883 0.39774,-1.32582 0.0398,-0.11941 0.095,-0.23342 0.13259,-0.35356 0.0362,-0.11594 0.0475,-0.23915 0.0884,-0.35355 0.0659,-0.18442 0.17313,-0.31739 0.26517,-0.48613 0.0473,-0.0868 0.0853,-0.17842 0.13258,-0.26517 0.0411,-0.0754 0.0942,-0.14414 0.13258,-0.22097 0.0355,-0.071 0.0562,-0.14848 0.0884,-0.22097 0.0268,-0.0602 0.0624,-0.11622 0.0884,-0.17678 0.0183,-0.0428 0.0234,-0.0909 0.0442,-0.13258 0.009,-0.0186 0.0349,-0.0256 0.0442,-0.0442 0.007,-0.0132 0,-0.0295 0,-0.0442 0,-0.0295 0,-0.0589 0,-0.0884 0,-0.0736 0,-0.14731 0,-0.22097 0,-0.22097 0,-0.44194 0,-0.66291 0,-0.14731 0,-0.29463 0,-0.44194 0,-0.0145 0.004,-0.126 0,-0.13259 -0.0765,-0.11469 -0.079,-0.0674 -0.17678,-0.13258 -0.0173,-0.0115 -0.0295,-0.0295 -0.0442,-0.0442 -0.0147,-0.0147 -0.0326,-0.0269 -0.0442,-0.0442 -0.0183,-0.0274 -0.0209,-0.0651 -0.0442,-0.0884 -0.003,-0.003 -0.16854,-0.0829 -0.17678,-0.0884 -0.0173,-0.0116 -0.0295,-0.0295 -0.0442,-0.0442 -0.0737,-0.0736 -0.14731,-0.14731 -0.22097,-0.22097 -0.0295,-0.0295 -0.0551,-0.0634 -0.0884,-0.0884 -0.0264,-0.0198 -0.061,-0.0259 -0.0884,-0.0442 -0.10113,-0.0674 0.0276,-0.035 -0.13258,-0.0884 -0.014,-0.005 -0.0295,0 -0.0442,0 -0.0295,0 -0.0589,0 -0.0884,0 -0.10312,0 -0.20624,0 -0.30936,0 -0.30936,0 -0.61872,0 -0.92808,0 -0.20624,0 -0.41248,0 -0.61872,0 -0.0599,0 -0.28012,-0.01 -0.30936,0 -0.0198,0.007 -0.0269,0.0326 -0.0442,0.0442 -0.0644,0.0429 -0.0921,0.0276 -0.13258,0.0884 -0.0155,0.0232 -0.045,0.11811 -0.0884,0.13259 -0.0419,0.014 -0.0884,0 -0.13259,0 -0.0147,0 -0.0442,0.0147 -0.0442,0 0,-0.0147 0.0589,0 0.0442,0 -0.0589,0 -0.11785,0 -0.17677,0 -0.0295,0 -0.0595,-0.006 -0.0884,0 -0.0596,0.0119 -0.11785,0.0295 -0.17678,0.0442 z"
   id="path866"
   inkscape:connector-curvature="0" /><path
   style="opacity:1;vector-effect:none;fill:#ed153e;fill-opacity:1;stroke:none;stroke-width:1px;stroke-linecap:butt;stroke-linejoin:miter;stroke-miterlimit:4;stroke-dasharray:none;stroke-dashoffset:0;stroke-opacity:1"
   d="m 248.44184,421.63029 c 0.0842,-0.50545 0.10912,-0.61003 0.13259,-1.32582 0.0179,-0.54477 0,-1.09012 0,-1.63518 0,-1.06066 0,-2.12133 0,-3.18199 0,-3.59445 0,-7.18891 0,-10.78337 0,-3.49134 0,-6.98268 0,-10.47402 0,-1.04593 0,-2.09186 0,-3.13779 0,-0.50087 0,-1.00173 0,-1.5026 0,-0.0737 0,-0.14731 0,-0.22097 0,-0.0442 0.0155,-0.0912 0,-0.13258 -0.0651,-0.17359 -0.20633,-0.29475 -0.30936,-0.44195 -0.0493,-0.0704 -0.0833,-0.1506 -0.13259,-0.22097 -0.14108,-0.20154 -0.22136,-0.26555 -0.39774,-0.44194 -0.0589,-0.0589 -0.1145,-0.12141 -0.17678,-0.17678 -0.0705,-0.0627 -0.14731,-0.11785 -0.22097,-0.17677 -0.0737,-0.0589 -0.14652,-0.11887 -0.22097,-0.17678 -0.0581,-0.0452 -0.1247,-0.0805 -0.17678,-0.13258 -0.0521,-0.0521 -0.0771,-0.12827 -0.13258,-0.17678 -0.13759,-0.12038 -0.25143,-0.12952 -0.39775,-0.22097 -0.0625,-0.039 -0.11239,-0.0968 -0.17678,-0.13258 -0.27653,-0.15363 -0.15661,-0.0375 -0.44194,-0.13258 -0.0625,-0.0208 -0.11427,-0.0676 -0.17677,-0.0884 -0.19326,-0.0644 -0.32273,-0.0442 -0.53033,-0.0442 -0.11786,0 -0.23571,0 -0.35356,0 -0.38301,0 -0.76603,0 -1.14905,0 -0.38301,0 -0.76603,0 -1.14905,0 -0.10311,0 -0.20623,0 -0.30935,0 -0.0589,0 -0.12262,-0.0232 -0.17678,0 -0.0574,0.0246 -0.0846,0.0926 -0.13258,0.13259 -0.0408,0.034 -0.0894,0.0575 -0.13259,0.0884 -0.0599,0.0428 -0.11282,0.096 -0.17677,0.13259 -0.25368,0.14496 -0.0132,-0.0774 -0.26517,0.13258 -0.08,0.0667 -0.13963,0.1559 -0.22097,0.22097 -0.0415,0.0332 -0.0865,0.062 -0.13258,0.0884 -0.0572,0.0327 -0.12617,0.0462 -0.17678,0.0884 -0.0408,0.034 -0.0508,0.095 -0.0884,0.13258 -0.46718,0.46718 0.12844,-0.24149 -0.35355,0.30936 -0.0485,0.0554 -0.0841,0.12134 -0.13258,0.17678 -0.23534,0.26895 -0.10439,0.0913 -0.35356,0.30935 -0.0627,0.0549 -0.11785,0.11786 -0.17677,0.17678 -0.0442,0.0442 -0.0817,0.0963 -0.13258,0.13258 -0.0536,0.0383 -0.12317,0.0501 -0.17678,0.0884 -0.0509,0.0363 -0.0884,0.0884 -0.13258,0.13258 -0.11076,0.11076 -0.10759,0.11592 -0.26517,0.22098 -0.10462,0.0697 -0.11141,0.023 -0.22097,0.13258 -0.0376,0.0376 -0.0508,0.095 -0.0884,0.13258 -0.0376,0.0376 -0.095,0.0508 -0.13258,0.0884 -0.0376,0.0376 -0.0552,0.0911 -0.0884,0.13258 -0.026,0.0325 -0.0624,0.0559 -0.0884,0.0884 -0.0332,0.0415 -0.0508,0.095 -0.0884,0.13258 -0.0375,0.0376 -0.0986,0.0476 -0.13258,0.0884 -0.0422,0.0506 -0.0535,0.12091 -0.0884,0.17678 -0.039,0.0625 -0.096,0.11282 -0.13258,0.17677 -7.8e-4,10e-4 -0.0865,0.26037 -0.0884,0.26517 -0.0122,0.0306 -0.0272,0.0601 -0.0442,0.0884 -0.0273,0.0455 -0.0687,0.0833 -0.0884,0.13258 -0.0109,0.0274 0.006,0.0595 0,0.0884 -0.009,0.0457 -0.0314,0.0878 -0.0442,0.13258 -0.0252,0.0883 -0.0783,0.31674 -0.0884,0.39775 -0.005,0.0438 0.0121,0.0901 0,0.13258 -0.0181,0.0634 -0.0653,0.11509 -0.0884,0.17678 -0.0426,0.11374 -0.05,0.23831 -0.0884,0.35355 -0.0253,0.0758 -0.0948,0.15794 -0.13258,0.22097 -0.0622,0.10365 -0.0378,0.0945 -0.0884,0.22097 -0.0404,0.10102 -0.0703,0.11722 -0.13258,0.22097 -0.0622,0.10365 -0.0378,0.0945 -0.0884,0.22097 -0.0404,0.10103 -0.0703,0.11722 -0.13258,0.22098 -0.0663,0.11048 -0.0442,0.13258 -0.13259,0.26516 -0.0231,0.0347 -0.0653,0.0537 -0.0884,0.0884 -0.0989,0.0786 -0.0749,0.21316 -0.13259,0.30936 -0.0214,0.0357 -0.0589,0.0589 -0.0884,0.0884 -0.0147,0.0147 -0.0376,0.0244 -0.0442,0.0442 -0.008,0.0238 0,0.13936 0,0.17678 0,0.0884 0,0.17677 0,0.26516 0,0.0589 0.008,0.11845 0,0.17678 -0.0106,0.0744 -0.0367,0.14623 -0.0442,0.22097 -0.007,0.0733 0,0.14731 0,0.22097 0,0.14731 0,0.29463 0,0.44194 0,0.0884 0,0.17678 0,0.26517 0,0.0105 0.005,0.16687 0,0.17677 -0.009,0.0186 -0.0376,0.0244 -0.0442,0.0442 -0.009,0.028 0.0208,0.0676 0,0.0884 -0.0208,0.0208 -0.062,-0.0132 -0.0884,0 -0.0132,0.007 0,0.0295 0,0.0442 0,0.0589 0,0.11785 0,0.17678 0,0.16204 0,0.32409 0,0.48613 0,0.13259 0.007,0.26535 0,0.39775 -0.0525,0.99682 -0.0431,-0.15895 -0.0884,0.97227 -0.008,0.19136 0,0.38302 0,0.57453 0,0.39774 0,0.79549 0,1.19324 0,1.34056 0,2.68111 0,4.02167 0,0.36828 0,0.73657 0,1.10485 0,0.16205 0,0.32409 0,0.48614 0,0.0884 -0.007,0.17708 0,0.26516 0.007,0.0893 0.0295,0.17678 0.0442,0.26517 0.10478,0.62868 -0.0326,-0.15213 0.13258,0.61872 0.0188,0.0876 0.0206,0.17871 0.0442,0.26516 0.0209,0.0765 0.0589,0.14732 0.0884,0.22097 0.027,0.0676 0.10949,0.26118 0.13259,0.35356 0.0141,0.0565 -0.0141,0.16477 0,0.22097 0.008,0.032 0.032,0.0578 0.0442,0.0884 0.0173,0.0433 0.0234,0.0909 0.0442,0.13258 0.1112,0.2224 0.10031,0.0477 0.17677,0.35355 0.0253,0.10106 0.0156,0.2092 0.0442,0.30936 0.0308,0.10788 0.0971,0.20293 0.13258,0.30936 0.0553,0.166 0.15051,0.64663 0.17678,0.7955 0.079,0.44799 0.006,0.16086 0.0884,0.53033 0.0132,0.0593 0.017,0.12245 0.0442,0.17677 0.0186,0.0373 0.067,0.0527 0.0884,0.0884 0.024,0.0399 0.0269,0.0893 0.0442,0.13258 0.0471,0.11786 0.0591,0.0744 0.0884,0.22097 0.006,0.0289 -0.0109,0.061 0,0.0884 0.0197,0.0493 0.0611,0.087 0.0884,0.13259 0.0622,0.10364 0.0378,0.0945 0.0884,0.22097 0.0661,0.16537 0.0288,0.0134 0.13258,0.22097 0.10772,0.21544 -0.0249,0.0545 0.0884,0.30936 0.0349,0.0785 0.10322,0.14024 0.13258,0.22097 0.0306,0.0842 0.0282,0.177 0.0442,0.26516 0.0134,0.0739 0.0318,0.14688 0.0442,0.22097 0.0171,0.10275 0.0113,0.21054 0.0442,0.30936 0.0272,0.0815 0.10068,0.14122 0.13258,0.22097 6.9e-4,0.002 0.0867,0.43516 0.0884,0.44195 0.0113,0.0452 0.0384,0.0863 0.0442,0.13258 0.0146,0.11694 0,0.2357 0,0.35355 0,0.0295 -0.0132,0.062 0,0.0884 0.0186,0.0373 0.067,0.0527 0.0884,0.0884 0.0656,0.1094 0.0795,0.4327 0.0884,0.48613 0.0247,0.14819 0.0671,0.29322 0.0884,0.44195 0.023,0.16107 0.0151,0.32604 0.0442,0.48613 1.5e-4,8.5e-4 0.26431,0.96888 0.26516,0.97227 0.48837,1.95349 -0.242,-0.8201 0.30936,1.14905 0.0674,0.24078 0.16671,0.72614 0.26517,0.97227 0.0328,0.082 0.31326,0.63514 0.39774,0.7513 0.15052,0.20696 0.39718,0.30879 0.57453,0.48614 0.0667,0.0667 0.11007,0.15427 0.17677,0.22097 0.19225,0.19224 0.283,0.19906 0.44195,0.39775 0.0664,0.0829 0.11041,0.18221 0.17677,0.26516 0.0521,0.0651 0.11785,0.11786 0.17678,0.17678 0.14035,0.14035 0.27189,0.29147 0.44194,0.39775 0.0559,0.0349 0.12091,0.0535 0.17678,0.0884 0.0625,0.039 0.11684,0.0898 0.17677,0.13258 0.0818,0.0584 0.28475,0.18657 0.35356,0.22097 0.0709,0.0355 0.15001,0.0529 0.22097,0.0884 0.0768,0.0384 0.14247,0.0977 0.22097,0.13258 0.0144,0.006 0.34472,0.0833 0.35355,0.0884 0.0543,0.031 0.0783,0.10157 0.13259,0.13258 0.0527,0.0301 0.11837,0.0275 0.17677,0.0442 0.0448,0.0128 0.0893,0.0269 0.13258,0.0442 0.0735,0.0294 0.16168,0.0881 0.22098,0.13258 0.0167,0.0125 0.0256,0.0349 0.0442,0.0442 0.0132,0.007 0.0295,0 0.0442,0 0.0147,0 0.0295,0 0.0442,0 0.13258,0 0.26516,0 0.39775,0 0.1915,0 0.38301,0 0.57452,0 0.0737,0 0.14874,0.0144 0.22097,0 0.0551,-0.011 0.19122,-0.11771 0.22097,-0.13259 0.15058,-0.0753 0.33035,-0.0742 0.48614,-0.13258 0.35355,-0.13258 0.0442,-0.0442 0.26516,-0.13258 0.12648,-0.0506 0.11733,-0.0262 0.22097,-0.0884 0.10376,-0.0623 0.11995,-0.0922 0.22097,-0.13258 0.0433,-0.0173 0.0893,-0.0269 0.13259,-0.0442 0.0306,-0.0122 0.0571,-0.0338 0.0884,-0.0442 0.014,-0.005 0.0295,0 0.0442,0 0.0295,0 0.0589,0 0.0884,0 0.11785,0 0.2357,0 0.35355,0 0.0442,0 0.0884,0 0.13258,0 0.0147,0 0.0338,0.0104 0.0442,0 0.0233,-0.0233 0.0168,-0.0701 0.0442,-0.0884 0.0245,-0.0163 0.0604,0.009 0.0884,0 0.0198,-0.007 0.0256,-0.0349 0.0442,-0.0442 0.0264,-0.0132 0.0604,0.009 0.0884,0 0.0312,-0.0104 0.0589,-0.0295 0.0884,-0.0442 0.0295,-0.0147 0.0601,-0.0272 0.0884,-0.0442 0.0455,-0.0273 0.0851,-0.0646 0.13258,-0.0884 0.0132,-0.007 0.0298,-0.003 0.0442,0 0.0596,0.0119 0.11633,0.0502 0.17677,0.0442 0.0927,-0.009 0.17558,-0.0628 0.26517,-0.0884 0.0283,-0.008 0.0589,0 0.0884,0"
   id="path872"
   inkscape:connector-curvature="0" /><path
   style="opacity:1;vector-effect:none;fill:#ed153e;fill-opacity:1;stroke:none;stroke-width:1px;stroke-linecap:butt;stroke-linejoin:miter;stroke-miterlimit:4;stroke-dasharray:none;stroke-dashoffset:0;stroke-opacity:1"
   d="m 264.61691,415.5315 c 0.1841,-0.1841 0.29858,-0.27906 0.44194,-0.48614 0.15821,-0.22853 0.28448,-0.47806 0.44194,-0.7071 0.0835,-0.1214 0.17678,-0.23571 0.26517,-0.35356 0.13258,-0.16204 0.27725,-0.31491 0.39775,-0.48613 1.00599,-1.42957 -0.1542,0.055 0.92807,-1.5468 0.29844,-0.44169 0.79393,-0.99991 1.14905,-1.41421 0.83829,-0.97801 0.2413,-0.25435 1.06066,-1.32583 0.20406,-0.26684 0.42751,-0.5193 0.61872,-0.79549 0.80944,-1.1692 0.35172,-0.59447 0.92808,-1.67938 0.1209,-0.22758 0.26897,-0.4397 0.39775,-0.66291 0.0922,-0.15989 0.17725,-0.32384 0.26516,-0.48614 0.1036,-0.19125 0.21777,-0.37724 0.30936,-0.57452 0.90222,-1.94325 -0.4156,0.68095 0.57452,-1.37002 0.0946,-0.19588 0.21552,-0.37831 0.30936,-0.57453 0.0685,-0.14313 0.11234,-0.29695 0.17678,-0.44194 0.0535,-0.1204 0.1261,-0.23193 0.17678,-0.35355 0.01,-0.023 0.0602,-0.27179 0.0884,-0.30936 0.0198,-0.0264 0.0651,-0.0209 0.0884,-0.0442 0.0104,-0.0104 -0.0104,-0.0338 0,-0.0442 0.0104,-0.0104 0.0354,0.0118 0.0442,0 0.073,-0.0974 0.20211,-0.48183 0.22097,-0.53033 0.0575,-0.14787 0.13058,-0.29015 0.17678,-0.44194 0.0572,-0.18803 0.0908,-0.38247 0.13258,-0.57453 0.13286,-0.61118 0.0526,-0.3015 0.17677,-0.97227 0.14751,-0.79651 0.1049,-0.53718 0.30936,-1.32582 0.21455,-0.82753 0.0565,-0.22915 0.22098,-0.92808 0.0278,-0.11825 0.0646,-0.23444 0.0884,-0.35355 0.0204,-0.10215 0.0189,-0.20831 0.0442,-0.30936 0.0697,-0.2788 0.10073,-0.14292 0.13258,-0.39775 0.007,-0.0585 0,-0.11785 0,-0.17678 0,-0.16204 0,-0.32409 0,-0.48613 0,-0.36829 0,-0.73657 0,-1.10486 0,-0.25043 0,-0.50087 0,-0.7513 0,-0.0268 0.007,-0.29818 0,-0.30936 -0.0183,-0.0274 -0.0571,-0.0338 -0.0884,-0.0442 -0.0576,-0.0192 -0.11785,-0.0295 -0.17677,-0.0442 -0.0589,-0.0147 -0.11991,-0.0229 -0.17678,-0.0442 -0.37713,-0.14142 -0.002,-0.0448 -0.30936,-0.13258 -0.0584,-0.0167 -0.11785,-0.0295 -0.17678,-0.0442 -0.0589,-0.0147 -0.12624,-0.0105 -0.17677,-0.0442 -0.0442,-0.0295 -0.0442,-0.10312 -0.0884,-0.13258 -0.0505,-0.0337 -0.11838,-0.0275 -0.17678,-0.0442 -0.31868,-0.091 0.0315,0.0189 -0.22097,-0.13258 -0.04,-0.024 -0.0893,-0.0269 -0.13258,-0.0442 -0.0306,-0.0122 -0.0578,-0.032 -0.0884,-0.0442 -0.0433,-0.0173 -0.0962,-0.0151 -0.13258,-0.0442 -0.0415,-0.0332 -0.0508,-0.095 -0.0884,-0.13259 -0.0376,-0.0376 -0.095,-0.0508 -0.13258,-0.0884 -0.0376,-0.0376 -0.0442,-0.10312 -0.0884,-0.13259 -0.0505,-0.0337 -0.12624,-0.0105 -0.17678,-0.0442 -0.0442,-0.0295 -0.0442,-0.10312 -0.0884,-0.13258 -0.0505,-0.0337 -0.11837,-0.0275 -0.17677,-0.0442 -0.0448,-0.0128 -0.0893,-0.0269 -0.13259,-0.0442 -0.11196,-0.0448 -0.19739,-0.13199 -0.30936,-0.17678 -0.0417,-0.10959 -0.11915,-0.025 -0.17677,-0.0442 -0.0942,-0.0314 -0.10483,-0.0606 -0.17678,-0.13259 -0.0147,-0.0147 -0.0269,-0.0326 -0.0442,-0.0442 -0.008,-0.005 -0.17395,-0.0856 -0.17678,-0.0884 -0.0233,-0.0233 -0.0168,-0.0701 -0.0442,-0.0884 -0.014,-0.009 -0.15088,0.009 -0.17678,0 -0.0198,-0.007 -0.0269,-0.0326 -0.0442,-0.0442 -0.0274,-0.0183 -0.0589,-0.0295 -0.0884,-0.0442 -0.0295,-0.0147 -0.0571,-0.0338 -0.0884,-0.0442 -0.027,-0.009 -0.23103,0 -0.26517,0 -0.0147,0 -0.0338,0.0104 -0.0442,0 -0.0233,-0.0233 -0.0147,-0.0737 -0.0442,-0.0884 -0.0395,-0.0198 -0.0892,0.009 -0.13258,0 -0.0323,-0.006 -0.0561,-0.0377 -0.0884,-0.0442 -0.0722,-0.0145 -0.14874,0.0144 -0.22097,0 -0.0457,-0.009 -0.0874,-0.0329 -0.13258,-0.0442 -0.0143,-0.004 -0.0295,0 -0.0442,0 -0.0737,0 -0.14732,0 -0.22097,0 -0.19151,0 -0.38302,0 -0.57453,0 -0.17678,0 -0.35355,0 -0.53033,0 -0.0805,0 -0.33168,-0.0219 -0.39775,0.0442 -0.0329,0.0329 -0.0151,0.0962 -0.0442,0.13258 -0.0332,0.0415 -0.095,0.0508 -0.13258,0.0884 -0.22203,0.22203 0.007,0.0466 -0.13259,0.22097 -2.1e-4,2.7e-4 -0.17934,0.19322 -0.22097,0.22097 -0.0274,0.0183 -0.0651,0.0209 -0.0884,0.0442 -0.055,0.0549 -0.0442,0.11111 -0.0442,0.17677 0,0.0147 0.008,0.0319 0,0.0442 -0.0875,0.1312 -0.10277,0.0586 -0.22097,0.17677 -0.0376,0.0376 -0.0508,0.095 -0.0884,0.13259 -0.25417,0.25417 -0.11256,-5e-4 -0.35355,0.30935 -0.0527,0.0678 -0.0833,0.1506 -0.13258,0.22098 -0.18644,0.26633 -0.16832,0.15986 -0.30936,0.44194 -0.0355,0.0709 -0.0499,0.15162 -0.0884,0.22097 -0.0358,0.0644 -0.0996,0.11089 -0.13258,0.17677 -0.0272,0.0543 -0.0275,0.11838 -0.0442,0.17678 -0.0128,0.0448 -0.0314,0.0878 -0.0442,0.13258 -0.0167,0.0584 -0.0229,0.11991 -0.0442,0.17678 -0.0463,0.12337 -0.12487,0.23245 -0.17677,0.35355 -0.0183,0.0428 -0.0258,0.0898 -0.0442,0.13259 -0.026,0.0605 -0.0652,0.11509 -0.0884,0.17677 -0.0426,0.11375 -0.039,0.24255 -0.0884,0.35356 -0.0349,0.0785 -0.0942,0.14414 -0.13259,0.22097 -0.0355,0.0709 -0.0529,0.15001 -0.0884,0.22097 -0.0384,0.0768 -0.0942,0.14414 -0.13258,0.22097 -0.0355,0.0709 -0.0463,0.1537 -0.0884,0.22097 -0.0331,0.053 -0.10157,0.0783 -0.13258,0.13258 -0.0301,0.0527 -0.0229,0.11991 -0.0442,0.17678 -0.0463,0.12337 -0.12488,0.23244 -0.17678,0.35355 -0.0367,0.0856 -0.0422,0.18427 -0.0884,0.26517 -0.0365,0.0639 -0.0917,0.11549 -0.13258,0.17677 -0.0183,0.0274 -0.032,0.0578 -0.0442,0.0884 -0.0173,0.0433 -0.0151,0.0962 -0.0442,0.13259 -0.0332,0.0415 -0.10312,0.0442 -0.13258,0.0884 -0.0337,0.0505 -0.025,0.11916 -0.0442,0.17678 -0.0914,0.27432 0.004,-0.14688 -0.0884,0.22097 -0.0127,0.0508 0.0227,0.1314 0,0.17678 -0.0186,0.0373 -0.0653,0.0537 -0.0884,0.0884 -0.22635,0.33952 0.0686,0.0158 -0.22097,0.35355 -0.0407,0.0475 -0.0884,0.0884 -0.13259,0.13258 -0.11785,0.11785 -0.24206,0.22967 -0.35355,0.35356 -0.29912,0.33235 -0.17306,0.21539 -0.44194,0.61871 -0.0703,0.10544 -0.15068,0.20392 -0.22097,0.30936 -0.0834,0.12505 -0.32341,0.51424 -0.39775,0.66292 -0.0355,0.071 -0.0529,0.15001 -0.0884,0.22097 -0.0384,0.0768 -0.0909,0.14588 -0.13258,0.22097 -0.032,0.0576 -0.0518,0.12196 -0.0884,0.17677 -0.10464,0.15697 -0.25849,0.27899 -0.35355,0.44195 -0.0565,0.0969 -0.0749,0.21315 -0.13258,0.30936 -0.0758,0.12632 -0.19136,0.22606 -0.26517,0.35355 -0.0892,0.15404 -0.13179,0.33209 -0.22097,0.48613 -0.0738,0.12749 -0.18514,0.22988 -0.26517,0.35356 -0.0824,0.12733 -0.14058,0.26913 -0.22097,0.39775 -0.22483,0.35973 -0.19919,0.23415 -0.39774,0.57452 -0.0498,0.0854 -0.0828,0.17981 -0.13259,0.26516 -0.0535,0.0918 -0.12927,0.17016 -0.17677,0.26517 -0.0563,0.11258 -0.0821,0.23824 -0.13259,0.35355 -0.46356,1.05957 0.12108,-0.40137 -0.35355,0.7513 -0.10596,0.25735 -0.17682,0.48628 -0.26516,0.75131 -0.0442,0.13258 -0.0952,0.26309 -0.13259,0.39774 -0.0364,0.13086 -0.0501,0.26745 -0.0884,0.39775 -0.071,0.2415 -0.19413,0.46561 -0.26516,0.70711 -0.0383,0.13029 -0.0479,0.26811 -0.0884,0.39774 -0.0669,0.21417 -0.18848,0.40785 -0.26516,0.61872 -0.0208,0.0571 -0.0229,0.11991 -0.0442,0.17678 -0.14142,0.37712 -0.0448,0.002 -0.13258,0.30936 -0.0167,0.0584 -0.0295,0.11785 -0.0442,0.17678 -0.0147,0.0589 -0.0375,0.1164 -0.0442,0.17677 -0.0135,0.12154 0.0162,0.37271 0,0.48614 -0.0989,0.69233 -0.0839,0.0294 -0.13258,0.66291 -0.007,0.0881 0,0.17678 0,0.26517 0,0.10312 0,0.20624 0,0.30936 0,0.0147 0,0.0295 0,0.0442 0,0.0147 -0.0123,0.036 0,0.0442 0.0388,0.0258 0.10163,0.009 0.13258,0.0442 0.12,0.135 0.41846,0.72971 0.48614,0.83969 0.13918,0.22618 0.28386,0.44951 0.44194,0.66291 0.32606,0.44018 0.71967,0.80806 1.10485,1.19324 0.0442,0.0442 0.44195,0.44194 0.53033,0.53033 0.0442,0.0442 0.0884,0.0884 0.13259,0.13258 0.0295,0.0295 0.0559,0.0624 0.0884,0.0884 0.0519,0.0415 0.15213,0.10505 0.22098,0.13259 0.12648,0.0506 0.11732,0.0262 0.22097,0.0884 0.10375,0.0623 0.11995,0.0922 0.22097,0.13259 0.0865,0.0346 0.17953,0.0517 0.26516,0.0884 0.0606,0.026 0.11509,0.0653 0.17678,0.0884 0.15579,0.0584 0.33555,0.0573 0.48613,0.13259 0.0475,0.0237 0.0833,0.0687 0.13259,0.0884 0.0274,0.0109 0.0589,0 0.0884,0 0.0457,0 0.27568,-0.008 0.30935,0 0.032,0.008 0.0578,0.032 0.0884,0.0442 0.0288,0.0115 0.18643,0.0538 0.22097,0.0884 0.0233,0.0233 0.0179,0.0686 0.0442,0.0884 0.0373,0.028 0.0893,0.0269 0.13258,0.0442 0.0306,0.0122 0.0561,0.0377 0.0884,0.0442 0.0433,0.009 0.0884,0 0.13258,0 0.11785,0 0.2357,0 0.35355,0 0.0263,0 0.29851,0.005 0.30936,0 0.0132,-0.007 0,-0.0295 0,-0.0442 0,-0.0147 0,-0.0295 0,-0.0442 0,-0.0263 -0.005,-0.2985 0,-0.30935 0.0132,-0.0264 0.0676,0.0208 0.0884,0 0.0104,-0.0104 -0.0104,-0.0338 0,-0.0442 0.0106,-0.0106 0.16614,0.0106 0.17678,0 0.0208,-0.0208 -0.0208,-0.0675 0,-0.0884 0.0104,-0.0104 0.0297,0.003 0.0442,0 0.29967,-0.0599 0.0638,-0.063 0.44195,0"
   id="path874"
   inkscape:connector-curvature="0" /><path
   style="opacity:1;vector-effect:none;fill:#ed153e;fill-opacity:1;stroke:none;stroke-width:1px;stroke-linecap:butt;stroke-linejoin:miter;stroke-miterlimit:4;stroke-dasharray:none;stroke-dashoffset:0;stroke-opacity:1"
   d="m 243.75726,319.1882 c 0,0.61872 0,1.23744 0,1.85616 0,0.13258 0.0132,0.26582 0,0.39774 -0.0573,0.57297 -0.30627,1.09558 -0.48614,1.63519 -0.39652,1.32176 0.097,-0.26283 -0.26516,0.7513 -0.17041,0.47715 -0.0228,0.13536 -0.13258,0.57452 -0.13054,0.52214 -0.0437,-0.002 -0.22097,0.57453 -0.0264,0.0856 -0.0282,0.177 -0.0442,0.26516 -0.13299,0.73148 0.0732,-0.42998 -0.13258,0.53033 -0.0232,0.10841 -0.056,0.45578 -0.0884,0.57453 -0.21656,0.79405 0.0117,-0.25159 -0.13258,0.39774 -4.5e-4,0.002 -0.0883,0.44153 -0.0884,0.44195 -0.037,0.12029 -0.0928,0.23414 -0.13258,0.35355 -0.0339,0.10174 -0.0564,0.20699 -0.0884,0.30936 -0.0417,0.13339 -0.0952,0.26309 -0.13258,0.39775 -0.0364,0.13086 -0.0555,0.26598 -0.0884,0.39774 -0.026,0.10405 -0.0674,0.2042 -0.0884,0.30936 -0.0233,0.11646 -0.0154,0.23833 -0.0442,0.35356 -0.004,0.0143 -0.0442,0.0147 -0.0442,0 0,-0.0147 0.0564,-0.008 0.0442,0 -0.0548,0.0365 -0.14952,0.0284 -0.17678,0.0884 -0.0552,0.12145 -0.0364,0.26458 -0.0442,0.39775 -0.0138,0.2353 0.0131,0.47177 0,0.70711 -0.0819,1.4735 0.004,-0.73694 -0.13258,0.97227 -0.0153,0.1909 0,0.38302 0,0.57452 0,0.36829 0,0.73657 0,1.10486 0,0.29463 0,0.58925 0,0.88388 0,0.14732 0.008,0.29483 0,0.44194 -0.007,0.13322 -0.0375,0.26452 -0.0442,0.39775 -0.008,0.16185 0,0.32409 0,0.48614 0,0.16204 0,0.32409 0,0.48613 0,0.47141 0,0.94281 0,1.41422 0,0.17677 0.0153,0.35422 0,0.53033 -0.0143,0.16408 -0.0728,0.32217 -0.0884,0.48613 -0.0196,0.20531 0,0.41248 0,0.61872 0,0.2799 0,0.55979 0,0.83969 0,0.13258 0,0.26517 0,0.39775 0,0.0954 -0.0306,0.23459 0.0442,0.30936 0.0376,0.0376 0.0901,0.0565 0.13259,0.0884 0.0687,0.0515 0.0372,0.0884 0.13258,0.0884 0.0295,0 0.0589,0 0.0884,0 0.0147,0 0.031,-0.007 0.0442,0 0.0186,0.009 0.0275,0.0317 0.0442,0.0442 0.0593,0.0445 0.14752,0.1032 0.22097,0.13258 0.0433,0.0173 0.0893,0.0269 0.13258,0.0442 0.0306,0.0122 0.0561,0.0377 0.0884,0.0442 0.0433,0.009 0.0916,-0.0164 0.13258,0 0.0387,0.0155 0.0497,0.0729 0.0884,0.0884 0.041,0.0164 0.0884,0 0.13258,0 0.10312,0 0.20624,0 0.30936,0 0.33882,0 0.67764,0 1.01647,0 0.10312,0 0.20624,0 0.30936,0 0.0442,0 0.0884,0 0.13258,0 0.11245,0 0.11624,0.0163 0.22097,-0.0884 0.0376,-0.0376 0.0602,-0.0875 0.0884,-0.13258 0.173,-0.27681 0.12134,-0.19474 0.26516,-0.53033 0.25878,-0.60382 0.0228,-0.0295 0.22097,-0.57453 0.0271,-0.0745 0.0633,-0.14571 0.0884,-0.22097 0.0283,-0.085 0.0458,-0.22424 0.0884,-0.30936 0.009,-0.0186 0.0349,-0.0256 0.0442,-0.0442 0.0132,-0.0264 -0.0163,-0.0639 0,-0.0884 0.0231,-0.0347 0.0653,-0.0537 0.0884,-0.0884 0.009,-0.0137 -0.007,-0.19994 0,-0.22097 0.007,-0.0198 0.0349,-0.0256 0.0442,-0.0442 0.007,-0.0132 0,-0.0295 0,-0.0442 0,-0.0147 0,-0.0295 0,-0.0442 0,-0.10312 0,-0.20624 0,-0.30936 0,-0.0147 0,-0.0295 0,-0.0442 0,-0.0147 -0.007,-0.031 0,-0.0442 0.009,-0.0186 0.0391,-0.024 0.0442,-0.0442 0.009,-0.0343 0,-0.29864 0,-0.35356 0,-0.0295 -0.009,-0.0604 0,-0.0884 0.0104,-0.0312 0.0338,-0.0571 0.0442,-0.0884 0.0155,-0.0465 -0.0212,-0.18913 0,-0.22097 0.0183,-0.0274 0.0701,-0.0168 0.0884,-0.0442 0.0163,-0.0245 -0.006,-0.0595 0,-0.0884 0.009,-0.0457 0.0351,-0.0869 0.0442,-0.13258 0.0115,-0.0578 -0.0186,-0.12087 0,-0.17678 0.007,-0.0198 0.0295,-0.0295 0.0442,-0.0442 0.0147,-0.0589 0.0356,-0.11665 0.0442,-0.17678 0.006,-0.0437 -0.0122,-0.0901 0,-0.13258 0.0181,-0.0634 0.0652,-0.11509 0.0884,-0.17678 0.0427,-0.11374 0.055,-0.23675 0.0884,-0.35355 0.0128,-0.0448 0.0278,-0.089 0.0442,-0.13258 0.0279,-0.0743 0.0691,-0.14401 0.0884,-0.22097 0.0253,-0.10106 0.0284,-0.20641 0.0442,-0.30936 0.0136,-0.0886 0.0306,-0.1766 0.0442,-0.26517 0.0158,-0.10295 0.0238,-0.20721 0.0442,-0.30936 0.0238,-0.11912 0.0712,-0.23329 0.0884,-0.35355 0.0125,-0.0875 -0.008,-0.17714 0,-0.26516 0.007,-0.0748 0.0367,-0.14623 0.0442,-0.22098 0.007,-0.0733 0,-0.14731 0,-0.22097 0,-0.20624 -0.0114,-0.41279 0,-0.61872 0.008,-0.14782 0.0368,-0.29407 0.0442,-0.44194 0.0147,-0.29426 -0.0147,-0.58962 0,-0.88388 0.007,-0.14786 0.0364,-0.2941 0.0442,-0.44194 0.007,-0.1324 -0.012,-0.26571 0,-0.39775 0.0175,-0.19297 0.0763,-0.38114 0.0884,-0.57452 0.0796,-1.2729 -0.0787,-0.39323 0.0442,-1.45841 -0.0312,-0.31191 0.13951,-0.58574 0.17678,-0.88389 0.0146,-0.11694 0,-0.2357 0,-0.35355 0,-0.11785 0,-0.2357 0,-0.35355 0,-0.48614 0,-0.97227 0,-1.45841 0,-0.92808 0,-1.85615 0,-2.78423 0,-0.35356 0,-0.70711 0,-1.06066 0,-0.10312 0.0157,-0.20744 0,-0.30936 -0.0142,-0.0921 -0.0674,-0.17438 -0.0884,-0.26517 -0.13258,-0.57449 0.056,-0.0559 -0.13258,-0.57452 -0.21138,-0.58129 -0.001,0.0405 -0.13259,-0.35355 -0.0147,-0.0442 -0.035,-0.0869 -0.0442,-0.13259 -0.006,-0.0289 0,-0.0589 0,-0.0884 0,-0.0442 0,-0.0884 0,-0.13258 0,-0.0295 0.007,-0.0598 0,-0.0884 -0.0302,-0.12089 -0.0621,-0.0711 -0.13258,-0.17677 -0.008,-0.0123 0.004,-0.0299 0,-0.0442 -0.0113,-0.0452 -0.0234,-0.0909 -0.0442,-0.13258 -0.009,-0.0186 -0.0349,-0.0256 -0.0442,-0.0442 -0.0137,-0.0274 0.0131,-0.1637 0,-0.17678 -0.0104,-0.0104 -0.0302,0.005 -0.0442,0 -0.0312,-0.0104 -0.0571,-0.0338 -0.0884,-0.0442 -0.014,-0.005 -0.031,0.007 -0.0442,0 -0.0186,-0.009 -0.0256,-0.0349 -0.0442,-0.0442 -0.0274,-0.0137 -0.1637,0.0131 -0.17678,0 -0.0233,-0.0233 -0.0209,-0.0651 -0.0442,-0.0884 -0.0104,-0.0104 -0.0302,0.005 -0.0442,0 -0.0312,-0.0104 -0.061,-0.0259 -0.0884,-0.0442 -0.0173,-0.0116 -0.0269,-0.0326 -0.0442,-0.0442 -0.0274,-0.0183 -0.0601,-0.0272 -0.0884,-0.0442 -0.0455,-0.0273 -0.087,-0.0611 -0.13258,-0.0884 -0.0282,-0.017 -0.061,-0.0259 -0.0884,-0.0442 -0.0173,-0.0116 -0.0244,-0.0376 -0.0442,-0.0442 -0.0419,-0.014 -0.0884,0 -0.13259,0 -0.0884,0 -0.17677,0 -0.26516,0 -0.2799,0 -0.55979,0 -0.83969,0"
   id="path878"
   inkscape:connector-curvature="0" /><path
   style="opacity:1;vector-effect:none;fill:#ed153e;fill-opacity:1;stroke:none;stroke-width:1px;stroke-linecap:butt;stroke-linejoin:miter;stroke-miterlimit:4;stroke-dasharray:none;stroke-dashoffset:0;stroke-opacity:1"
   d="m 244.2434,340.22463 c -0.0589,-0.0737 -0.14175,-0.13339 -0.17678,-0.22097 -0.0558,-0.13949 -0.0589,-0.29463 -0.0884,-0.44195 -0.22702,-1.13511 0.0408,0.28563 -0.13258,-0.92807 -0.0212,-0.14872 -0.0623,-0.294 -0.0884,-0.44195 -0.0181,-0.10258 -0.0224,-0.2075 -0.0442,-0.30935 -0.0225,-0.10487 -0.0674,-0.2042 -0.0884,-0.30936 -0.0233,-0.11647 -0.0154,-0.23833 -0.0442,-0.35356 -0.0305,-0.1221 -0.10375,-0.23103 -0.13258,-0.35355 -0.0306,-0.12985 -0.021,-0.26638 -0.0442,-0.39775 -0.0211,-0.11963 -0.0646,-0.23443 -0.0884,-0.35355 -0.0204,-0.10215 -0.0208,-0.20786 -0.0442,-0.30936 -0.0138,-0.06 -0.13862,-0.41746 -0.17677,-0.48614 -0.0715,-0.12877 -0.18709,-0.22863 -0.26517,-0.35355 -0.0349,-0.0559 -0.0501,-0.12317 -0.0884,-0.17678 -0.0363,-0.0508 -0.0919,-0.0851 -0.13258,-0.13258 -0.0959,-0.11185 -0.17086,-0.24038 -0.26516,-0.35355 -0.0267,-0.032 -0.0624,-0.0558 -0.0884,-0.0884 -0.0332,-0.0415 -0.0565,-0.0901 -0.0884,-0.13258 -0.025,-0.0333 -0.0653,-0.0537 -0.0884,-0.0884 -0.0183,-0.0274 -0.0338,-0.0571 -0.0442,-0.0884 -0.009,-0.028 0.0208,-0.0675 0,-0.0884 -0.0233,-0.0233 -0.0651,-0.0209 -0.0884,-0.0442 -0.0466,-0.0466 -0.0357,-0.13725 -0.0884,-0.17678 -0.0373,-0.0279 -0.0953,-0.0162 -0.13258,-0.0442 -0.0263,-0.0198 -0.0259,-0.061 -0.0442,-0.0884 -0.0115,-0.0173 -0.0295,-0.0295 -0.0442,-0.0442 -0.0147,-0.0147 -0.0269,-0.0326 -0.0442,-0.0442 -0.0274,-0.0183 -0.0701,-0.0168 -0.0884,-0.0442 -0.0163,-0.0245 0,-0.0589 0,-0.0884 0,-0.0147 0.0104,-0.0338 0,-0.0442 -0.0104,-0.0104 -0.031,0.007 -0.0442,0 -0.0373,-0.0186 -0.0489,-0.0752 -0.0884,-0.0884 -0.0279,-0.009 -0.062,0.0132 -0.0884,0 -0.0373,-0.0186 -0.0527,-0.067 -0.0884,-0.0884 -0.04,-0.024 -0.0893,-0.0269 -0.13258,-0.0442 -0.0306,-0.0122 -0.0578,-0.032 -0.0884,-0.0442 -0.0433,-0.0173 -0.0926,-0.0202 -0.13259,-0.0442 -0.0357,-0.0214 -0.0497,-0.0729 -0.0884,-0.0884 -0.041,-0.0164 -0.0884,0 -0.13259,0 -0.10312,0 -0.20624,0 -0.30936,0 -0.36828,0 -0.73657,0 -1.10485,0 -0.22097,0 -0.44194,0 -0.66291,0 -0.0279,0 -0.33832,-0.006 -0.35356,0 -0.0387,0.0155 -0.0558,0.0624 -0.0884,0.0884 -0.0415,0.0332 -0.095,0.0508 -0.13259,0.0884 -0.0376,0.0376 -0.0469,0.0994 -0.0884,0.13258 -0.0364,0.0291 -0.0926,0.0202 -0.13258,0.0442 -0.0357,0.0214 -0.0589,0.0589 -0.0884,0.0884 -0.0442,0.0295 -0.087,0.0611 -0.13258,0.0884 -0.0282,0.0169 -0.061,0.0259 -0.0884,0.0442 -0.0173,0.0116 -0.0295,0.0295 -0.0442,0.0442 -0.0147,0.0147 -0.0376,0.0244 -0.0442,0.0442 -0.009,0.0279 0,0.0589 0,0.0884 -0.0295,0.0295 -0.0729,0.0497 -0.0884,0.0884 -0.0164,0.041 0,0.0884 0,0.13258 0,0.0442 0,0.0884 0,0.13258 0,0.26517 0,0.53033 0,0.7955 0,0.55979 0,1.11958 0,1.67937 0,0.50087 0,1.00174 0,1.50261 0,0.13258 0,0.26516 0,0.39774 0,0.0589 -0.0186,0.12088 0,0.17678 0.0132,0.0395 0.0624,0.0558 0.0884,0.0884 0.0332,0.0415 0.0611,0.087 0.0884,0.13258 0.0169,0.0283 0.0178,0.0686 0.0442,0.0884 0.0373,0.0279 0.0953,0.0162 0.13258,0.0442 0.0264,0.0198 0.0209,0.0651 0.0442,0.0884 0.0346,0.0345 0.19221,0.0769 0.22097,0.0884 0.0306,0.0122 0.0601,0.0272 0.0884,0.0442 0.10376,0.0623 0.11995,0.0922 0.22097,0.13259 0.0433,0.0173 0.0878,0.0314 0.13259,0.0442 0.0584,0.0167 0.12095,0.0203 0.17677,0.0442 0.0488,0.0209 0.0829,0.0697 0.13259,0.0884 0.0703,0.0264 0.14731,0.0295 0.22097,0.0442 0.0736,0.0147 0.14731,0.0295 0.22097,0.0442 0.0736,0.0147 0.14971,0.0204 0.22097,0.0442 0.0625,0.0208 0.11509,0.0652 0.17678,0.0884 0.15578,0.0584 0.33555,0.0573 0.48613,0.13259 0.0475,0.0238 0.0833,0.0687 0.13258,0.0884 0.0274,0.0109 0.0589,0 0.0884,0 0.0442,0 0.0892,-0.009 0.13258,0 0.0323,0.006 0.0559,0.0388 0.0884,0.0442 0.0581,0.01 0.11831,-0.007 0.17678,0 0.0603,0.008 0.11785,0.0295 0.17678,0.0442 0.0589,0.0147 0.12094,0.0203 0.17677,0.0442 0.0488,0.0209 0.0838,0.0675 0.13259,0.0884 0.0558,0.0239 0.11785,0.0295 0.17677,0.0442 0.0589,0.0147 0.11651,0.0367 0.17678,0.0442 0.0585,0.007 0.11785,0 0.17678,0 0.14731,0 0.29462,0 0.44194,0 0.45667,0 0.91334,0 1.37002,0 0.16204,0 0.32409,0 0.48613,0 0.0307,0 0.16366,-0.008 0.17678,0 0.0632,0.0379 0.10348,0.12526 0.17678,0.13259 0.0927,0.009 0.17677,-0.0589 0.26516,-0.0884"
   id="path882"
   inkscape:connector-curvature="0" /><path
   style="opacity:1;vector-effect:none;fill:#ed153e;fill-opacity:1;stroke:none;stroke-width:1px;stroke-linecap:butt;stroke-linejoin:miter;stroke-miterlimit:4;stroke-dasharray:none;stroke-dashoffset:0;stroke-opacity:1"
   d="m 205.21994,391.48987 c -0.0161,-0.45213 0.0564,-1.19294 -0.0884,-1.59099 -0.0866,-0.23819 -0.28987,-0.41596 -0.44194,-0.61872 -0.67395,-0.8986 0.003,0.003 -0.83969,-0.83969 -0.11877,-0.11877 -0.20258,-0.26809 -0.30936,-0.39775 -0.0996,-0.12088 -0.21767,-0.2266 -0.30936,-0.35355 -0.40074,-0.55488 -0.13093,-0.30688 -0.48613,-0.83969 -0.0638,-0.0957 -0.15715,-0.16943 -0.22097,-0.26516 -0.0942,-0.14128 -0.14851,-0.3549 -0.26517,-0.48614 -0.0627,-0.0705 -0.15427,-0.11008 -0.22097,-0.17678 -0.0376,-0.0376 -0.0487,-0.0973 -0.0884,-0.13258 -0.21873,-0.19443 -0.37485,-0.24767 -0.61872,-0.39775 -0.0905,-0.0557 -0.17677,-0.11785 -0.26516,-0.17677 -0.0884,-0.0589 -0.17926,-0.1143 -0.26517,-0.17678 -0.0763,-0.0555 -0.14731,-0.11785 -0.22097,-0.17678 -0.0939,-0.0751 -0.22476,-0.16647 -0.30936,-0.26516 -0.0614,-0.0716 -0.11466,-0.14999 -0.17677,-0.22097 -0.0552,-0.0631 -0.15771,-0.1256 -0.17678,-0.22097 -0.0145,-0.0722 0,-0.14732 0,-0.22098 0,-0.11785 0,-0.2357 0,-0.35355 0,-0.29463 0,-0.58925 0,-0.88388 0,-0.0589 0,-0.11785 0,-0.17678 0,-0.0442 0.006,-0.0888 0,-0.13258 -0.009,-0.0601 -0.0295,-0.11785 -0.0442,-0.17678 -0.0147,-0.0589 -0.0229,-0.1199 -0.0442,-0.17677 -0.0231,-0.0617 -0.0624,-0.11623 -0.0884,-0.17678 -0.082,-0.19137 6.7e-4,-0.0962 -0.13258,-0.30936 -0.0781,-0.12502 -0.19866,-0.25867 -0.30936,-0.35355 -0.0509,-0.0436 -0.33473,-0.21052 -0.35355,-0.22097 -0.0576,-0.032 -0.12091,-0.0535 -0.17678,-0.0884 -0.0625,-0.039 -0.12019,-0.0854 -0.17678,-0.13259 -0.08,-0.0667 -0.14731,-0.14731 -0.22097,-0.22097 -0.0295,-0.0295 -0.0559,-0.0624 -0.0884,-0.0884 -0.0415,-0.0332 -0.0911,-0.0552 -0.13259,-0.0884 -0.0325,-0.026 -0.0527,-0.067 -0.0884,-0.0884 -0.0399,-0.024 -0.0893,-0.0269 -0.13258,-0.0442 -0.0306,-0.0122 -0.0589,-0.0295 -0.0884,-0.0442 -0.0295,-0.0147 -0.062,-0.0244 -0.0884,-0.0442 -0.0333,-0.025 -0.0527,-0.067 -0.0884,-0.0884 -0.10639,-0.0638 -0.13154,-0.0168 -0.22097,-0.0884 -0.0488,-0.039 -0.0884,-0.0884 -0.13259,-0.13258 -0.10085,-0.10086 -0.12509,-0.13343 -0.26516,-0.22097 -0.0803,-0.096 -0.21195,-0.0769 -0.30936,-0.13259 -0.064,-0.0365 -0.11432,-0.0935 -0.17678,-0.13258 -0.0559,-0.0349 -0.12091,-0.0535 -0.17677,-0.0884 -0.0625,-0.039 -0.11684,-0.0898 -0.17678,-0.13258 -0.0864,-0.0617 -0.17407,-0.12212 -0.26517,-0.17678 -0.19307,-0.11584 0.032,0.0381 -0.22097,-0.0884 -0.13577,-0.0679 0.0731,-0.0249 -0.0884,-0.13258 -0.0245,-0.0163 -0.0604,0.009 -0.0884,0 -0.0395,-0.0132 -0.0511,-0.0697 -0.0884,-0.0884 -0.0417,-0.0208 -0.0926,-0.0202 -0.13258,-0.0442 -0.0357,-0.0214 -0.0511,-0.0697 -0.0884,-0.0884 -0.0543,-0.0272 -0.11916,-0.025 -0.17678,-0.0442 -0.15052,-0.0502 -0.29463,-0.11785 -0.44194,-0.17678 -0.0737,-0.0295 -0.14499,-0.0656 -0.22097,-0.0884 -0.072,-0.0216 -0.14971,-0.0204 -0.22097,-0.0442 -0.13259,-0.0442 -0.15468,-0.0884 -0.26517,-0.13258 -0.0442,-0.0147 -0.0884,-0.0295 -0.13258,-0.0442 -0.0147,-0.0147 -0.0256,-0.0349 -0.0442,-0.0442 -0.0132,-0.007 -0.0338,0.0104 -0.0442,0 -0.0233,-0.0233 -0.0178,-0.0686 -0.0442,-0.0884 -0.0373,-0.028 -0.0893,-0.0269 -0.13259,-0.0442 -0.0306,-0.0122 -0.0578,-0.032 -0.0884,-0.0442 -0.0433,-0.0173 -0.0962,-0.0151 -0.13259,-0.0442 -0.0415,-0.0332 -0.0575,-0.0894 -0.0884,-0.13259 -0.0976,-0.13667 -0.21304,-0.26014 -0.30936,-0.39774 -0.0493,-0.0704 -0.0811,-0.15226 -0.13259,-0.22097 -0.0375,-0.05 -0.0926,-0.0846 -0.13258,-0.13259 -0.034,-0.0408 -0.0552,-0.0911 -0.0884,-0.13258 -0.026,-0.0325 -0.0653,-0.0537 -0.0884,-0.0884 -0.0693,-0.10398 -0.0864,-0.21895 -0.17677,-0.30936 -0.0538,-0.0538 -0.0987,-0.0207 -0.13258,-0.0884 -0.007,-0.0132 0,-0.0295 0,-0.0442 0,-0.0295 0,-0.0589 0,-0.0884 0,-0.0884 0.011,-0.17746 0,-0.26516 -0.0288,-0.23017 -0.0327,-0.14129 -0.17678,-0.30936 -0.0479,-0.0559 -0.0805,-0.1247 -0.13258,-0.17678 -0.20965,-0.20964 -0.29615,-0.20365 -0.57453,-0.35355 -0.15126,-0.0815 -0.28828,-0.18834 -0.44194,-0.26517 -0.071,-0.0355 -0.15162,-0.0499 -0.22097,-0.0884 -0.0644,-0.0358 -0.11684,-0.0898 -0.17678,-0.13258 -0.0432,-0.0309 -0.0894,-0.0575 -0.13258,-0.0884 -0.0599,-0.0428 -0.11432,-0.0935 -0.17678,-0.13258 -0.0559,-0.0349 -0.12407,-0.0489 -0.17677,-0.0884 -0.0667,-0.05 -0.1145,-0.12141 -0.17678,-0.17677 -0.31938,-0.2839 -0.11043,-0.0828 -0.35355,-0.26517 -0.0271,-0.0203 -0.34183,-0.27829 -0.39775,-0.30936 -0.0693,-0.0385 -0.15162,-0.0499 -0.22097,-0.0884 -0.0644,-0.0358 -0.11432,-0.0935 -0.17678,-0.13258 -0.0559,-0.0349 -0.12317,-0.0501 -0.17678,-0.0884 -0.0509,-0.0363 -0.0817,-0.0962 -0.13258,-0.13258 -0.4526,-0.32329 0.0513,0.0838 -0.30936,-0.13258 -0.0357,-0.0214 -0.0527,-0.067 -0.0884,-0.0884 -0.0399,-0.024 -0.0893,-0.0269 -0.13258,-0.0442 -0.0306,-0.0122 -0.0578,-0.032 -0.0884,-0.0442 -0.0433,-0.0173 -0.0926,-0.0202 -0.13258,-0.0442 -0.0357,-0.0214 -0.0527,-0.0669 -0.0884,-0.0884 -0.0399,-0.024 -0.0893,-0.0269 -0.13258,-0.0442 -0.0306,-0.0122 -0.0578,-0.032 -0.0884,-0.0442 -0.0433,-0.0173 -0.0926,-0.0202 -0.13258,-0.0442 -0.0357,-0.0214 -0.0527,-0.067 -0.0884,-0.0884 -0.35935,-0.21561 0.0473,0.0905 -0.22097,-0.0884 -0.0173,-0.0116 -0.0244,-0.0376 -0.0442,-0.0442 -0.0301,-0.01 -0.19754,0.0117 -0.22097,0 -0.0475,-0.0238 -0.087,-0.0611 -0.13259,-0.0884 -0.0142,-0.009 -0.17494,-0.0859 -0.17677,-0.0884 -0.0559,-0.0745 -0.039,-0.18616 -0.0884,-0.26517 -0.05,-0.08 -0.11368,-0.15086 -0.17678,-0.22097 -0.17149,-0.19054 -0.28547,-0.27776 -0.48614,-0.44194 -0.073,-0.0597 -0.14731,-0.11785 -0.22097,-0.17678 -0.0736,-0.0589 -0.14248,-0.12445 -0.22097,-0.17677 -0.0548,-0.0365 -0.12091,-0.0535 -0.17677,-0.0884 -0.34383,-0.21489 -0.0491,-0.0481 -0.26517,-0.22097 -0.0415,-0.0332 -0.0911,-0.0552 -0.13258,-0.0884 -0.0325,-0.026 -0.0527,-0.067 -0.0884,-0.0884 -0.04,-0.024 -0.0926,-0.0202 -0.13258,-0.0442 -0.0357,-0.0214 -0.0537,-0.0653 -0.0884,-0.0884 -0.0548,-0.0365 -0.12091,-0.0535 -0.17678,-0.0884 -0.0625,-0.039 -0.11684,-0.0898 -0.17677,-0.13258 -0.0699,-0.0499 -0.30401,-0.20033 -0.35356,-0.22097 -0.51518,-0.21466 -0.11743,0.0673 -0.57452,-0.26517 -0.61952,-0.49562 0.16177,0.11324 -0.44194,-0.30936 -0.0773,-0.0541 -0.14249,-0.12445 -0.22097,-0.17677 -0.0548,-0.0365 -0.12317,-0.0501 -0.17678,-0.0884 -0.0509,-0.0363 -0.0817,-0.0963 -0.13258,-0.13259 -0.0536,-0.0383 -0.12091,-0.0535 -0.17678,-0.0884 -0.0625,-0.039 -0.11432,-0.0935 -0.17678,-0.13259 -0.0559,-0.0349 -0.12316,-0.0501 -0.17677,-0.0884 -0.0509,-0.0363 -0.0846,-0.0926 -0.13259,-0.13259 -0.0408,-0.034 -0.0884,-0.0589 -0.13258,-0.0884 -0.0442,-0.0295 -0.0851,-0.0646 -0.13258,-0.0884 -0.0417,-0.0208 -0.0893,-0.0269 -0.13258,-0.0442 -0.0306,-0.0122 -0.0578,-0.032 -0.0884,-0.0442 -0.0433,-0.0173 -0.0926,-0.0202 -0.13258,-0.0442 -0.0357,-0.0214 -0.0511,-0.0697 -0.0884,-0.0884 -0.0543,-0.0272 -0.11838,-0.0275 -0.17678,-0.0442 -0.0448,-0.0128 -0.0893,-0.0269 -0.13258,-0.0442 -0.0306,-0.0122 -0.0561,-0.0377 -0.0884,-0.0442 -0.0578,-0.0115 -0.11785,0 -0.17678,0 -0.0147,0 -0.0295,0 -0.0442,0 -0.0147,0 -0.0338,0.0104 -0.0442,0 -0.1463,-0.1463 -0.0381,-0.13605 -0.17677,-0.30936 -0.13395,-0.16743 -0.53596,-0.49881 -0.66291,-0.61871 -0.35329,-0.33367 -0.38626,-0.42029 -0.75131,-0.70711 -0.0835,-0.0656 -0.18018,-0.11304 -0.26516,-0.17678 -0.092,-0.069 -0.16943,-0.15715 -0.26517,-0.22097 -0.22097,-0.14731 -0.24552,-0.0982 -0.44194,-0.22097 -0.0625,-0.039 -0.11239,-0.0968 -0.17677,-0.13258 -0.0694,-0.0385 -0.1537,-0.0464 -0.22097,-0.0884 -0.053,-0.0331 -0.0796,-0.0995 -0.13259,-0.13258 -0.0673,-0.0421 -0.15294,-0.0476 -0.22097,-0.0884 -0.0809,-0.0485 -0.14731,-0.11785 -0.22097,-0.17678 -0.0737,-0.0589 -0.15047,-0.11411 -0.22097,-0.17677 -0.0623,-0.0554 -0.111,-0.12562 -0.17678,-0.17678 -0.0678,-0.0527 -0.15316,-0.0798 -0.22097,-0.13258 -0.25159,-0.19568 -0.1068,-0.11933 -0.26516,-0.30936 -0.04,-0.048 -0.0926,-0.0846 -0.13259,-0.13259 -0.034,-0.0408 -0.0508,-0.095 -0.0884,-0.13258 -0.0376,-0.0376 -0.095,-0.0508 -0.13259,-0.0884 -0.0376,-0.0376 -0.0508,-0.095 -0.0884,-0.13258 -0.0376,-0.0376 -0.095,-0.0508 -0.13259,-0.0884 -0.0233,-0.0233 -0.0178,-0.0686 -0.0442,-0.0884 -0.0373,-0.0279 -0.0909,-0.0234 -0.13258,-0.0442 -0.0186,-0.009 -0.0269,-0.0326 -0.0442,-0.0442 -0.0274,-0.0183 -0.062,-0.0244 -0.0884,-0.0442 -0.0333,-0.025 -0.0589,-0.0589 -0.0884,-0.0884 -0.0147,-0.0147 -0.0256,-0.0349 -0.0442,-0.0442 -0.0264,-0.0132 -0.0639,0.0163 -0.0884,0 -0.12159,-0.0811 -0.0909,-0.13636 -0.17677,-0.26517 -0.0523,-0.0785 -0.11785,-0.14731 -0.17678,-0.22097 -0.0589,-0.0736 -0.11368,-0.15086 -0.17678,-0.22097 -0.0697,-0.0774 -0.15176,-0.14311 -0.22097,-0.22097 -0.0489,-0.055 -0.0805,-0.12469 -0.13258,-0.17678 -0.18151,-0.18151 -0.2371,-0.17279 -0.44194,-0.30935 -0.0613,-0.0409 -0.11785,-0.0884 -0.17678,-0.13259 -0.0737,-0.0295 -0.15162,-0.0499 -0.22097,-0.0884 -0.0644,-0.0358 -0.11239,-0.0968 -0.17678,-0.13258 -0.0693,-0.0385 -0.14847,-0.0562 -0.22097,-0.0884 -0.36157,-0.16069 0.0215,-0.0196 -0.39774,-0.17677 -0.0436,-0.0164 -0.0909,-0.0234 -0.13259,-0.0442 -0.0768,-0.0384 -0.14414,-0.0942 -0.22097,-0.13258 -0.071,-0.0355 -0.15294,-0.0476 -0.22097,-0.0884 -0.14302,-0.0858 -0.28062,-0.23643 -0.39775,-0.35355 -0.13258,-0.13258 -0.26516,-0.26517 -0.39774,-0.39775 -0.0442,-0.0442 -0.0855,-0.0914 -0.13259,-0.13258 -0.071,-0.0621 -0.15047,-0.11411 -0.22097,-0.17678 -0.0623,-0.0554 -0.11011,-0.12677 -0.17677,-0.17677 -0.0527,-0.0395 -0.12617,-0.0462 -0.17678,-0.0884 -0.0408,-0.034 -0.0508,-0.095 -0.0884,-0.13259 -0.0233,-0.0233 -0.061,-0.0259 -0.0884,-0.0442 -0.10153,-0.0677 0.0189,-0.0252 -0.0884,-0.13258 -0.0135,-0.0136 -0.20731,0.0137 -0.22097,0 -0.0104,-0.0104 0.005,-0.0302 0,-0.0442 -0.0104,-0.0312 -0.0231,-0.0631 -0.0442,-0.0884 -0.0533,-0.064 -0.11785,-0.11785 -0.17678,-0.17677 -0.27628,-0.27629 -0.16971,-0.18305 -0.48613,-0.44194 -0.073,-0.0597 -0.14009,-0.12825 -0.22097,-0.17678 -0.068,-0.0408 -0.15002,-0.0529 -0.22098,-0.0884 -0.0768,-0.0384 -0.14414,-0.0942 -0.22097,-0.13258 -0.0709,-0.0355 -0.14731,-0.0589 -0.22097,-0.0884 -0.0737,-0.0295 -0.14571,-0.0633 -0.22097,-0.0884 -0.0576,-0.0192 -0.11785,-0.0295 -0.17677,-0.0442 -0.0589,-0.0147 -0.11749,-0.031 -0.17678,-0.0442 -0.0733,-0.0163 -0.14902,-0.0226 -0.22097,-0.0442 -0.076,-0.0228 -0.14353,-0.0712 -0.22097,-0.0884 -0.0575,-0.0128 -0.11821,0.007 -0.17678,0 -0.29321,-0.0326 -0.13324,-0.0333 -0.35355,-0.0884 -0.0729,-0.0182 -0.14971,-0.0204 -0.22097,-0.0442 -0.0625,-0.0208 -0.11509,-0.0653 -0.17678,-0.0884 -0.0569,-0.0213 -0.11785,-0.0295 -0.17678,-0.0442 -0.0589,-0.0147 -0.11748,-0.031 -0.17677,-0.0442 -0.0733,-0.0163 -0.15064,-0.0178 -0.22097,-0.0442 -0.0497,-0.0186 -0.0829,-0.0697 -0.13259,-0.0884 -0.14066,-0.0528 -0.29942,-0.0409 -0.44194,-0.0884 -0.10643,-0.0355 -0.2037,-0.0949 -0.30936,-0.13258 -0.101,-0.0361 -0.20486,-0.0643 -0.30936,-0.0884 -0.0873,-0.0202 -0.18095,-0.0136 -0.26516,-0.0442 -0.0807,-0.0294 -0.14414,-0.0942 -0.22097,-0.13259 -0.071,-0.0355 -0.14848,-0.0562 -0.22097,-0.0884 -0.0602,-0.0268 -0.1151,-0.0653 -0.17678,-0.0884 -0.0569,-0.0213 -0.11916,-0.025 -0.17678,-0.0442 -0.0312,-0.0104 -0.0589,-0.0295 -0.0884,-0.0442 -0.37924,-0.18962 0.003,0.0106 -0.30936,-0.17678 -0.19307,-0.11585 0.032,0.0381 -0.22097,-0.0884 -0.0507,-0.0253 -0.0615,-0.0922 -0.0884,-0.13258 -0.0592,-0.0888 -0.0316,-0.0105 -0.13259,-0.0442 -0.0336,-0.0112 -0.13053,-0.17473 -0.13258,-0.17678 -0.0376,-0.0376 -0.0922,-0.0538 -0.13258,-0.0884 -0.18562,-0.1591 -0.19888,-0.23202 -0.39775,-0.39775 -0.16187,-0.13489 -0.48766,-0.33679 -0.66291,-0.44194 -0.48592,-0.29155 -0.12686,-0.0796 -0.66291,-0.30936 -0.0908,-0.0389 -0.17842,-0.0853 -0.26517,-0.13258 -0.22056,-0.1203 -0.20442,-0.14971 -0.44194,-0.22097 -0.1439,-0.0432 -0.29805,-0.0452 -0.44194,-0.0884 -0.076,-0.0228 -0.14642,-0.0613 -0.22097,-0.0884 -0.0876,-0.0318 -0.17917,-0.0525 -0.26517,-0.0884 -0.0912,-0.038 -0.1721,-0.0993 -0.26516,-0.13258 -0.11441,-0.0409 -0.23761,-0.0522 -0.35356,-0.0884 -0.12013,-0.0375 -0.23608,-0.0874 -0.35355,-0.13258 -0.074,-0.0285 -0.15002,-0.0529 -0.22097,-0.0884 -0.0768,-0.0384 -0.14588,-0.0909 -0.22097,-0.13258 -0.0576,-0.032 -0.12317,-0.0501 -0.17678,-0.0884 -0.0509,-0.0363 -0.0846,-0.0926 -0.13258,-0.13258 -0.0408,-0.034 -0.0911,-0.0552 -0.13258,-0.0884 -0.19116,-0.19115 0.0117,-0.007 -0.17678,-0.13258 -0.0173,-0.0116 -0.0256,-0.0349 -0.0442,-0.0442 -0.0132,-0.007 -0.031,0.007 -0.0442,0 -0.0186,-0.009 -0.0295,-0.0295 -0.0442,-0.0442 -0.0442,-0.0442 -0.0796,-0.0995 -0.13259,-0.13258 -0.0673,-0.042 -0.15001,-0.0529 -0.22097,-0.0884 -0.20979,-0.1049 -0.27597,-0.18676 -0.48613,-0.30936 -0.0854,-0.0498 -0.18043,-0.0817 -0.26517,-0.13258 -0.0666,-0.04 -0.357,-0.27767 -0.39775,-0.30936 -0.20711,-0.16109 -0.41375,-0.32216 -0.61871,-0.48614 -0.0737,-0.0589 -0.1414,-0.12613 -0.22098,-0.17677 -0.0834,-0.0531 -0.17841,-0.0853 -0.26516,-0.13259 -0.0754,-0.0411 -0.14277,-0.097 -0.22097,-0.13258 -0.0848,-0.0385 -0.18035,-0.0498 -0.26517,-0.0884 -0.0782,-0.0355 -0.14414,-0.0942 -0.22097,-0.13258 -0.0709,-0.0355 -0.15001,-0.0529 -0.22097,-0.0884 -0.61461,-0.36877 0.15951,0.0798 -0.44194,-0.22097 -0.0768,-0.0384 -0.1408,-0.10175 -0.22097,-0.13258 -0.11338,-0.0436 -0.23831,-0.05 -0.35355,-0.0884 -0.10644,-0.0355 -0.20465,-0.0923 -0.30936,-0.13258 -0.087,-0.0335 -0.17821,-0.0549 -0.26517,-0.0884 -0.10471,-0.0403 -0.2058,-0.0894 -0.30936,-0.13258 -0.0732,-0.0305 -0.15209,-0.049 -0.22097,-0.0884 -0.0362,-0.0207 -0.0589,-0.0589 -0.0884,-0.0884 -0.0147,-0.0147 -0.0244,-0.0376 -0.0442,-0.0442 -2e-4,-7e-5 -0.13254,4e-5 -0.13258,0 -0.0104,-0.0104 0.007,-0.031 0,-0.0442 -0.0287,-0.0573 -0.19961,-0.15492 -0.26517,-0.17677 -0.1361,-0.0454 -0.25764,-0.0534 -0.39775,-0.0884 -0.10404,-0.026 -0.20419,-0.0674 -0.30936,-0.0884 -0.11646,-0.0233 -0.23597,-0.0274 -0.35355,-0.0442 -0.0887,-0.0127 -0.17678,-0.0295 -0.26516,-0.0442 -0.0884,-0.0147 -0.17678,-0.0295 -0.26517,-0.0442 -0.0737,-0.0295 -0.14353,-0.0712 -0.22097,-0.0884 -0.0575,-0.0128 -0.11831,0.007 -0.17678,0 -0.0603,-0.008 -0.1165,-0.0367 -0.17677,-0.0442 -0.0585,-0.007 -0.11785,0 -0.17678,0 -0.0884,0 -0.17678,0 -0.26516,0 -0.30936,0 -0.61872,0 -0.92808,0 -0.86915,0 -1.73831,0 -2.60746,0 -0.94281,0 -1.88562,0 -2.82843,0 -0.30935,0 -0.61871,0 -0.92807,0 -0.0884,0 -0.17678,0 -0.26517,0 -0.0295,0 -0.0595,-0.006 -0.0884,0 -0.25039,0.0501 -0.0296,0.0178 -0.22097,0.13259 -0.0399,0.024 -0.0893,0.0269 -0.13258,0.0442 -0.0306,0.0122 -0.0578,0.032 -0.0884,0.0442 -0.0433,0.0173 -0.0953,0.0163 -0.13258,0.0442 -0.0264,0.0198 -0.0178,0.0686 -0.0442,0.0884 -0.0373,0.0279 -0.0909,0.0234 -0.13259,0.0442 -0.0186,0.009 -0.0269,0.0326 -0.0442,0.0442 -0.11293,0.0753 -0.0812,0.005 -0.17678,0.13258 -0.0444,0.0592 -0.0629,0.15731 -0.0884,0.22097 -0.0404,0.10102 -0.0703,0.11721 -0.13258,0.22097 -0.0622,0.10364 -0.0378,0.0945 -0.0884,0.22097 -0.0404,0.10102 -0.0703,0.11721 -0.13258,0.22097 -0.11585,0.19308 0.0381,-0.032 -0.0884,0.22097 -0.009,0.0186 -0.0376,0.0244 -0.0442,0.0442 -0.0186,0.0559 0.0264,0.12407 0,0.17677 -0.0186,0.0373 -0.072,0.0501 -0.0884,0.0884 -0.0381,0.0888 -0.0814,0.5395 -0.0884,0.57453 -0.006,0.0323 -0.0338,0.0571 -0.0442,0.0884 -0.005,0.014 0,0.0295 0,0.0442 0,0.0589 0,0.11785 0,0.17677 0,0.11786 0,0.23571 0,0.35356 0,0.30936 0,0.61872 0,0.92808 0,0.53033 0,1.06066 0,1.59099 0,0.14731 0,0.29462 0,0.44194 0,0.0736 -0.0145,0.14874 0,0.22097 0.0156,0.0778 0.0605,0.14669 0.0884,0.22097 0.0164,0.0436 0.0234,0.0909 0.0442,0.13258 0.0384,0.0768 0.0942,0.14414 0.13258,0.22097 0.0355,0.071 0.0589,0.14732 0.0884,0.22097 0.0295,0.0737 0.0656,0.14499 0.0884,0.22097 0.0216,0.072 0.0226,0.14903 0.0442,0.22098 0.0228,0.076 0.0589,0.14731 0.0884,0.22097 0.0589,0.14731 0.1266,0.29142 0.17678,0.44194 0.0192,0.0576 0.0195,0.12127 0.0442,0.17677 0.0349,0.0785 0.0977,0.14248 0.13258,0.22098 0.0493,0.111 0.0405,0.24189 0.0884,0.35355 0.0209,0.0488 0.0675,0.0838 0.0884,0.13258 0.0478,0.11166 0.05,0.23831 0.0884,0.35355 0.0504,0.15112 0.0367,0.0329 0.13258,0.17678 0.008,0.0123 -0.0104,0.0338 0,0.0442 0.20595,0.20595 -0.0469,-0.27021 0.22097,0.22097 0.0537,0.0985 0.0851,0.20769 0.13259,0.30936 0.14629,0.31348 0.18675,0.37102 0.35355,0.66291 0.0589,0.10312 0.11089,0.21054 0.17678,0.30936 0.0523,0.0785 0.12445,0.14248 0.17677,0.22097 0.0659,0.0988 0.1109,0.21054 0.17678,0.30936 0.0817,0.12257 0.17805,0.23476 0.26516,0.35355 0.0749,0.10219 0.14732,0.20624 0.22097,0.30936 0.0737,0.10312 0.15245,0.20276 0.22098,0.30936 0.0642,0.0999 0.11089,0.21054 0.17677,0.30936 0.17889,0.26833 0.1542,0.16992 0.35356,0.39775 0.47477,0.54259 -0.17107,-0.16917 0.22097,0.35355 0.05,0.0667 0.12677,0.11011 0.17677,0.17678 0.0395,0.0527 0.0535,0.12091 0.0884,0.17677 0.43464,0.69542 -0.16883,-0.38184 0.22097,0.39775 0.0384,0.0768 0.0942,0.14414 0.13258,0.22097 0.0355,0.071 0.0529,0.15002 0.0884,0.22097 0.0384,0.0768 0.0942,0.14414 0.13259,0.22097 0.0355,0.071 0.0556,0.14875 0.0884,0.22097 0.0409,0.09 0.0917,0.17521 0.13259,0.26517 0.093,0.20468 0.0771,0.25694 0.22097,0.44194 0.0512,0.0658 0.12254,0.11351 0.17677,0.17678 0.17382,0.20279 -0.009,0.0736 0.22097,0.26516 0.13682,0.11401 0.15125,0.0615 0.26517,0.22097 0.29293,0.58586 -0.11218,-0.15127 0.22097,0.26517 0.0223,0.0279 0.024,0.15531 0.0884,0.17678 0.0279,0.009 0.0589,0 0.0884,0 0.0147,0 0.031,-0.007 0.0442,0 0.0186,0.009 0.0295,0.0295 0.0442,0.0442 0.0442,0.0442 0.0884,0.0884 0.13258,0.13258 0.10312,0.10312 0.2118,0.20096 0.30936,0.30936 0.077,0.0855 0.14988,0.1747 0.22097,0.26517 0.2563,0.32619 0.25257,0.34442 0.48613,0.66291 0.31367,0.42773 0.22,0.26354 0.48614,0.70711 0.0693,0.11552 0.25387,0.43579 0.30936,0.57452 0.0226,0.0564 0.0105,0.12624 0.0442,0.17678 0.2235,0.149 0.07,0.007 0.17678,0.22097 0.0381,0.0763 0.11163,0.0395 0.17678,0.0884 0.0263,0.0198 0.0295,0.0589 0.0442,0.0884 0.0442,0.0147 0.0953,0.0163 0.13258,0.0442 0.0264,0.0198 0.0244,0.062 0.0442,0.0884 0.025,0.0333 0.0559,0.0624 0.0884,0.0884 0.35355,0.2357 -0.0737,-0.0737 0.22097,0.22097 0.0376,0.0375 0.0986,0.0476 0.13258,0.0884 0.0422,0.0506 0.0462,0.12617 0.0884,0.17678 0.034,0.0408 0.095,0.0508 0.13258,0.0884 0.0376,0.0376 0.0469,0.0994 0.0884,0.13258 0.0364,0.0291 0.0893,0.0269 0.13258,0.0442 0.0306,0.0122 0.0601,0.0272 0.0884,0.0442 0.0455,0.0273 0.087,0.0611 0.13258,0.0884 0.10365,0.0622 0.0945,0.0378 0.22097,0.0884 0.10102,0.0404 0.11722,0.0703 0.22097,0.13258 0.0283,0.017 0.0578,0.032 0.0884,0.0442 0.0433,0.0173 0.0962,0.0151 0.13258,0.0442 0.0415,0.0332 0.0508,0.095 0.0884,0.13258 0.0376,0.0376 0.0884,0.0589 0.13259,0.0884 0.0295,0.0442 0.0508,0.095 0.0884,0.13258 0.0376,0.0376 0.095,0.0508 0.13259,0.0884 0.18028,0.18028 -0.0199,0.10795 0.22097,0.17678 0.11213,0.032 0.20339,0.043 0.30936,0.0884 0.0605,0.026 0.11509,0.0653 0.17677,0.0884 0.15579,0.0584 0.33556,0.0573 0.48614,0.13259 0.0768,0.0384 0.14414,0.0942 0.22097,0.13258 0.071,0.0355 0.14848,0.0562 0.22097,0.0884 0.0602,0.0267 0.11509,0.0652 0.17678,0.0884 0.11374,0.0427 0.24254,0.0391 0.35355,0.0884 0.0785,0.0349 0.14414,0.0942 0.22097,0.13259 0.14191,0.0709 0.30003,0.10582 0.44194,0.17677 0.0768,0.0384 0.14025,0.10323 0.22097,0.13258 0.0842,0.0306 0.17701,0.0282 0.26517,0.0442 0.0739,0.0134 0.14616,0.0374 0.22097,0.0442 0.088,0.008 0.17678,0 0.26517,0 0.1915,0 0.38301,0 0.57452,0 0.11785,0 0.2357,0 0.35355,0 0.0442,0 0.0915,-0.0164 0.13259,0 0.0493,0.0197 0.0851,0.0646 0.13258,0.0884 0.10034,0.0502 0.20624,0.0884 0.30936,0.13258 0.13258,0.0884 0.25984,0.18533 0.39775,0.26517 0.14253,0.0825 0.29796,0.14098 0.44194,0.22097 0.12148,0.0675 0.23496,0.1485 0.35355,0.22097 0.14659,0.0896 0.3012,0.16665 0.44194,0.26517 0.20891,0.14623 0.73601,0.60933 0.92808,0.7513 0.9192,0.67941 0.15435,0.0123 1.01647,0.7513 0.15047,0.12898 0.29034,0.27008 0.44194,0.39775 0.50412,0.42452 0.25628,0.18354 0.7071,0.53033 0.0912,0.0702 0.16718,0.16067 0.26517,0.22097 0.0956,0.0588 0.20749,0.0856 0.30936,0.13258 0.0897,0.0414 0.17678,0.0884 0.26516,0.13258 0.0884,0.0442 0.17841,0.0853 0.26517,0.13258 0.0754,0.0411 0.14247,0.0977 0.22097,0.13259 0.0555,0.0247 0.1199,0.0229 0.17678,0.0442 0.0617,0.0231 0.11785,0.0589 0.17677,0.0884 0.0295,0.0147 0.061,0.0259 0.0884,0.0442 0.0173,0.0116 0.0269,0.0326 0.0442,0.0442 0.0274,0.0183 0.0651,0.0209 0.0884,0.0442 0.0233,0.0233 0.0209,0.0651 0.0442,0.0884 0.0104,0.0104 0.0295,0 0.0442,0 0.0442,0 0.0897,-0.0107 0.13258,0 0.077,0.0192 0.15245,0.0484 0.22098,0.0884 0.10946,0.0639 0.20122,0.15489 0.30935,0.22097 0.15751,0.0962 0.33041,0.16607 0.48614,0.26516 0.32596,0.20743 0.60212,0.45549 0.92808,0.66292 0.17266,0.10987 0.35355,0.20624 0.53033,0.30936 0.93282,0.54414 0.1182,0.0842 1.14905,0.61871 0.19309,0.10013 0.37998,0.21209 0.57452,0.30936 0.18865,0.0943 0.38587,0.17084 0.57453,0.26517 0.13565,0.0678 0.26051,0.15639 0.39774,0.22097 0.11389,0.0536 0.24563,0.0678 0.35356,0.13258 0.11646,0.0699 0.20624,0.17678 0.30936,0.26517 0.11785,0.0736 0.23178,0.15399 0.35355,0.22097 0.17318,0.0952 0.35654,0.17103 0.53033,0.26516 0.17995,0.0975 0.35355,0.20624 0.53033,0.30936 0.42115,0.24568 0.83912,0.5006 1.28163,0.70711 0.13036,0.15008 0.32765,0.10885 0.48614,0.17678 0.0488,0.0209 0.0833,0.0687 0.13258,0.0884 0.0274,0.0109 0.0589,0 0.0884,0 0.10312,0 0.20624,0 0.30936,0 0.2357,0 0.4714,0 0.7071,0 0.10312,0 0.2075,-0.0161 0.30936,0 0.17635,0.0279 1.29262,0.34281 1.32583,0.35356 0.2395,0.0775 0.46745,0.18813 0.7071,0.26516 0.17348,0.0558 0.35823,0.0727 0.53033,0.13258 0.16812,0.0585 0.32409,0.14732 0.48614,0.22098 0.16205,0.0736 0.32452,0.14637 0.48614,0.22097 0.2214,0.10218 0.43803,0.21505 0.66291,0.30936 0.23214,0.0974 0.47338,0.17167 0.70711,0.26516 0.41351,0.16541 0.67976,0.28567 1.06066,0.48614 0.26842,0.14128 0.52418,0.30628 0.79549,0.44194 0.12977,0.0649 0.26517,0.11785 0.39775,0.17678 0.13258,0.0589 0.25926,0.1335 0.39775,0.17677 0.0994,0.0311 0.20786,0.0208 0.30935,0.0442 0.0908,0.021 0.17381,0.0701 0.26517,0.0884 0.0569,0.0114 0.27414,0 0.35355,0 0.23571,0 0.47141,0 0.70711,0 0.13258,0 0.26517,0 0.39775,0 0.13258,0 0.26946,-0.0335 0.39775,0 0.21711,0.0566 0.41144,0.17923 0.61871,0.26517 0.39674,0.1645 0.80144,0.31022 1.19325,0.48614 0.33055,0.14841 0.6466,0.32727 0.97227,0.48613 0.26475,0.12915 1.34105,0.64001 1.63518,0.7513 0.27453,0.10388 0.55634,0.18858 0.83969,0.26517 0.83205,0.22488 0.7203,0.15116 1.5468,0.26516 0.17753,0.0245 0.354,0.0563 0.53033,0.0884 0.14781,0.0269 0.29287,0.0697 0.44194,0.0884 0.0877,0.011 0.17678,0 0.26516,0 0.0884,0 0.17678,0 0.26517,0 0.0884,0 0.17708,-0.007 0.26516,0 0.4232,0.0353 0.11134,0.0304 0.48614,0.13258 0.0865,0.0236 0.17934,0.0185 0.26517,0.0442 0.0631,0.0189 0.11509,0.0652 0.17677,0.0884 0.0569,0.0213 0.11916,0.025 0.17678,0.0442 0.0312,0.0104 0.0561,0.0377 0.0884,0.0442 0.0586,0.0117 0.1546,0 0.22097,0 0.19151,0 0.38301,0 0.57452,0 0.10312,0 0.20824,-0.0202 0.30936,0 0.12342,0.0247 0.23669,0.0858 0.35356,0.13258 0.27171,0.10869 0.42798,0.19184 0.7071,0.30936 0.88023,0.37063 0.004,-0.001 0.88389,0.30936 0.10579,0.0373 0.20749,0.0856 0.30935,0.13259 0.0897,0.0414 0.17142,0.10133 0.26517,0.13258 0.085,0.0283 0.17934,0.0184 0.26516,0.0442 0.30585,0.0917 0.0562,0.0683 0.30936,0.17678 0.0558,0.0239 0.11991,0.0229 0.17678,0.0442 0.0925,0.0347 0.17142,0.10134 0.26517,0.13259 0.0576,0.0192 0.11837,0.0275 0.17677,0.0442 0.0448,0.0128 0.0869,0.0351 0.13259,0.0442 0.0439,0.009 0.17453,0 0.22097,0 0.0884,0 0.17677,0 0.26516,0 0.0884,0 0.17781,-0.0134 0.26517,0 0.106,0.0163 0.20449,0.0659 0.30936,0.0884 0.35882,0.0769 0.26758,-0.002 0.61871,0.13259 0.0922,0.0355 0.17293,0.0971 0.26517,0.13258 0.1001,0.0385 0.20699,0.0564 0.30936,0.0884 0.26678,0.0834 0.52734,0.18629 0.79549,0.26516 0.11655,0.0343 0.23675,0.055 0.35356,0.0884 0.68909,0.19688 -0.1527,-0.004 0.53033,0.13258 0.0596,0.0119 0.11664,0.0356 0.17677,0.0442 0.0875,0.0125 0.1785,-0.0173 0.26517,0 0.10414,0.0208 0.20727,0.15976 0.30936,0.17677 0.0581,0.01 0.1183,-0.007 0.17677,0 0.0603,0.008 0.11651,0.0367 0.17678,0.0442 0.0877,0.011 0.17678,0 0.26517,0 0.22097,0 0.44194,0 0.66291,0 0.11785,0 0.2357,0 0.35355,0 0.0442,0 0.089,-0.007 0.13258,0 0.16663,0.0278 0.11246,0.0562 0.26517,0.13258 0.0417,0.0208 0.0893,0.0269 0.13258,0.0442 0.11785,0.0471 0.0744,0.0591 0.22097,0.0884 0.0289,0.006 0.062,-0.0132 0.0884,0 0.0373,0.0186 0.0537,0.0653 0.0884,0.0884 0.0109,0.007 0.23087,0 0.26516,0 0.20624,0 0.41248,0 0.61872,0 0.0737,0 0.14732,0 0.22097,0 0.0147,0 0.0295,0 0.0442,0 0.0147,0 0.0376,0.0132 0.0442,0 0.0187,-0.0374 -0.0157,-0.17374 0,-0.22097 0.0251,-0.0753 0.0589,-0.14731 0.0884,-0.22097 z"
   id="path886"
   inkscape:connector-curvature="0" /><path
   style="opacity:1;vector-effect:none;fill:#ed153e;fill-opacity:1;stroke:#ed153e;stroke-width:1px;stroke-linecap:butt;stroke-linejoin:miter;stroke-miterlimit:4;stroke-dasharray:none;stroke-dashoffset:0;stroke-opacity:1"
   d="m 332.49916,428.12684 c -1.98874,0 -3.97747,0 -5.96621,0 -0.36829,0 -0.73657,0 -1.10486,0 -0.0884,0 -0.17677,0 -0.26516,0 -0.0737,0 -0.1485,0.0132 -0.22097,0 -0.0917,-0.0167 -0.17407,-0.0689 -0.26517,-0.0884 -0.11613,-0.0249 -0.23598,-0.0274 -0.35355,-0.0442 -0.0887,-0.0127 -0.177,-0.0282 -0.26517,-0.0442 -0.0739,-0.0134 -0.15037,-0.0185 -0.22097,-0.0442 -0.0929,-0.0338 -0.17014,-0.10544 -0.26516,-0.13258 -0.043,-0.0123 -0.73296,-0.0855 -0.7513,-0.0884 -0.1484,-0.0234 -0.29254,-0.0727 -0.44194,-0.0884 -0.26371,-0.0278 -0.53101,0.0189 -0.7955,0 -0.0749,-0.005 -0.14623,-0.0367 -0.22097,-0.0442 -0.0733,-0.007 -0.14731,0 -0.22097,0 -0.16205,0 -0.32409,0 -0.48614,0 -0.57452,0 -1.14905,0 -1.72357,0 -0.89862,0 -1.79723,0 -2.69584,0 -0.39775,0 -0.79594,-0.0186 -1.19325,0 -0.68301,0.032 -3.37871,0.29528 -3.84489,0.35356 -1.1665,0.14581 -2.07117,0.35488 -3.22618,0.53033 -2.24266,0.34066 -1.47905,0.20792 -3.53553,0.39775 -0.42767,0.0395 -0.8539,0.0937 -1.28163,0.13258 -0.38257,0.0348 -0.76619,0.057 -1.14905,0.0884 -1.11085,0.091 -1.71305,0.13914 -2.78423,0.26516 -0.33935,0.0399 -0.67942,0.0764 -1.01647,0.13258 -0.19386,0.0323 -0.38135,0.0964 -0.57452,0.13259 -0.0434,0.008 -0.0884,0 -0.13258,0 -0.0442,0 -0.0884,0 -0.13259,0 -0.15677,0 -0.33542,-0.0126 -0.48613,0 -0.14836,0.0124 -0.49904,0.0927 -0.61872,0.13258 -0.10644,0.0355 -0.20015,0.10689 -0.30936,0.13258 -0.14411,0.0339 -0.29651,0.0165 -0.44194,0.0442 -0.165,0.0314 -0.32088,0.10253 -0.48614,0.13258 -0.16009,0.0291 -0.32522,0.0201 -0.48613,0.0442 -0.13432,0.0202 -0.264,0.0648 -0.39775,0.0884 -0.11696,0.0206 -0.23794,0.017 -0.35356,0.0442 -0.13603,0.032 -0.26046,0.10644 -0.39774,0.13259 -0.17426,0.0332 -0.35473,0.0191 -0.53033,0.0442 -2.08105,0.29729 0.62049,-0.0461 -1.37002,0.30936 -0.18909,0.0338 -0.38407,0.0194 -0.57453,0.0442 -0.57302,0.0747 -0.36944,0.13216 -1.01646,0.17678 -0.23515,0.0162 -0.47141,0 -0.70711,0 -0.25043,0 -0.50087,0 -0.7513,0 -0.73657,0 -1.47314,0 -2.20971,0 -0.79549,0 -1.59099,0 -2.38648,0 -0.32409,0 -0.64857,0.0158 -0.97228,0 -0.30753,-0.015 -1.74778,-0.20275 -1.94454,-0.22097 -0.4264,-0.0395 -0.85458,-0.0567 -1.28163,-0.0884 -0.47572,-0.0352 -1.43039,-0.10729 -1.94454,-0.17677 -0.26641,-0.036 -0.5307,-0.0863 -0.7955,-0.13259 -1.05165,-0.18404 -0.92592,-0.16444 -1.98874,-0.39774 -0.7524,-0.16517 -0.72582,-0.12167 -1.37002,-0.39775 -0.223,-0.0433 -0.37576,-0.22102 -0.57452,-0.30936 -0.0555,-0.0247 -0.12245,-0.017 -0.17678,-0.0442 -0.28778,-0.14389 0.0881,-0.0443 -0.17677,-0.13258 -0.014,-0.005 -0.0376,0.0132 -0.0442,0 -0.0132,-0.0264 0.005,-0.0593 0,-0.0884 -0.01,-0.0599 -0.017,-0.12245 -0.0442,-0.17677 -0.0329,-0.0659 -0.0968,-0.11239 -0.13259,-0.17678 -0.0385,-0.0694 -0.0529,-0.15001 -0.0884,-0.22097 -0.0384,-0.0768 -0.0977,-0.14248 -0.13259,-0.22097 -0.0247,-0.0555 -0.0275,-0.11838 -0.0442,-0.17678 -0.0128,-0.0448 -0.0314,-0.0878 -0.0442,-0.13258 -0.0167,-0.0584 -0.0229,-0.11991 -0.0442,-0.17678 -0.0231,-0.0617 -0.0653,-0.11509 -0.0884,-0.17677 -0.034,-0.0907 -0.0674,-0.31375 -0.0884,-0.39775 -0.0113,-0.0452 -0.0384,-0.0864 -0.0442,-0.13258 -0.009,-0.0731 0,-0.14732 0,-0.22098 0,-0.13258 0,-0.26516 0,-0.39774 0,-0.47141 0,-0.94281 0,-1.41422 0,-0.17677 0,-0.35355 0,-0.53033 0,-0.0736 -0.0144,-0.14874 0,-0.22097 0.0356,-0.17784 0.0322,-0.0203 0.0884,-0.13258 0.0208,-0.0417 0.0162,-0.0953 0.0442,-0.13258 0.0395,-0.0527 0.13019,-0.0418 0.17678,-0.0884 0.0233,-0.0233 0.0209,-0.0651 0.0442,-0.0884 0.003,-0.003 0.16855,-0.0829 0.17678,-0.0884 0.0173,-0.0115 0.0295,-0.0295 0.0442,-0.0442 0.0737,-0.0737 0.14732,-0.14732 0.22098,-0.22097 0.14731,-0.14732 0.29462,-0.29463 0.44194,-0.44194 0.0442,-0.0442 0.0884,-0.0884 0.13258,-0.13259 0.0295,-0.0295 0.0634,-0.055 0.0884,-0.0884 0.0319,-0.0425 0.0508,-0.095 0.0884,-0.13259 0.007,-0.007 0.11538,0.006 0.13258,0 0.0312,-0.0104 0.061,-0.0259 0.0884,-0.0442 0.0608,-0.0405 0.0455,-0.0682 0.0884,-0.13258 0.045,-0.0675 0.13179,-0.0651 0.17677,-0.13259 0.0183,-0.0274 0.0259,-0.061 0.0442,-0.0884 0.0115,-0.0173 0.0295,-0.0295 0.0442,-0.0442 0.0147,-0.0147 0.0244,-0.0376 0.0442,-0.0442 0.0202,-0.007 0.15712,0.01 0.17678,0 0.0186,-0.009 0.0295,-0.0295 0.0442,-0.0442 0.0442,-0.0442 0.0884,-0.0884 0.13258,-0.13258 0.0147,-0.0147 0.024,-0.0391 0.0442,-0.0442 0.0429,-0.0107 0.0892,0.009 0.13259,0 0.0323,-0.006 0.0561,-0.0377 0.0884,-0.0442 0.0433,-0.009 0.0931,0.0198 0.13259,0 0.0295,-0.0147 0.0209,-0.0651 0.0442,-0.0884 0.0104,-0.0104 0.0295,0 0.0442,0 0.0147,0 0.0295,0 0.0442,0 0.10312,0 0.20624,0 0.30936,0 0.0147,0 0.0295,0 0.0442,0 0.0147,0 0.031,0.007 0.0442,0 0.0186,-0.009 0.0269,-0.0326 0.0442,-0.0442 0.0274,-0.0183 0.061,-0.0259 0.0884,-0.0442 0.13258,-0.0884 -0.0884,0 0.13258,-0.13258 0.0399,-0.024 0.0909,-0.0234 0.13258,-0.0442 0.0186,-0.009 0.0256,-0.0349 0.0442,-0.0442 0.0417,-0.0208 0.0953,-0.0162 0.13258,-0.0442 0.0263,-0.0198 0.0209,-0.0651 0.0442,-0.0884 0.0104,-0.0104 0.031,0.007 0.0442,0 0.0186,-0.009 0.0244,-0.0376 0.0442,-0.0442 0.0251,-0.008 0.17935,0 0.22097,0 0.19822,0 0.19898,0 0.44195,0 0.55979,0 1.11958,0 1.67937,0 1.79723,0 3.59446,0 5.39169,0 0.2799,0 0.5598,0 0.83969,0 0.0884,0 0.17678,0 0.26517,0 0.0589,0 0.11814,0.006 0.17677,0 0.3337,-0.0334 0.25939,-0.057 0.61872,-0.17678 0.10175,-0.0339 0.207,-0.0564 0.30936,-0.0884 0.44929,-0.1404 0.42035,-0.16362 0.92808,-0.26516 0.66999,-0.134 1.02732,-0.16452 1.72357,-0.22097 0.23539,-0.0191 0.47106,-0.0368 0.70711,-0.0442 0.23559,-0.007 0.4714,0 0.70711,0 0.25043,0 0.50086,0 0.7513,0 1.2227,0 2.44541,0 3.66811,0 0.54506,0 1.09013,0 1.63519,0 0.14731,0 0.29463,0 0.44194,0 0.0884,0 0.17849,0.0173 0.26516,0 0.13704,-0.0274 0.26517,-0.0884 0.39775,-0.13258 0.25044,-0.0589 0.49857,-0.12864 0.7513,-0.17678 1.15921,-0.2208 1.04063,-0.16124 2.20971,-0.26516 0.86624,-0.077 1.23025,-0.14611 2.16552,-0.17678 0.47115,-0.0154 0.94281,0 1.41421,0 0.35355,0 0.70711,0 1.06066,0 1.66465,0 3.32929,0 4.99394,0 0.57453,0 1.14905,0 1.72357,0 0.13259,0 0.26517,0 0.39775,0 0.17678,0 0.35395,0.0118 0.53033,0 0.26621,-0.0177 0.53039,-0.0584 0.7955,-0.0884 0.86819,-0.0983 1.85533,-0.23357 2.74004,-0.26516 0.42693,-0.0153 0.85442,0 1.28163,0 0.5156,0 1.03119,0 1.54679,0 1.67938,0 3.35876,0 5.03814,0 1.17851,0 2.35702,0 3.53553,0 0.2799,0 0.5598,0 0.83969,0 0.20624,0 0.41261,-0.007 0.61872,0 0.20663,0.007 0.42022,-0.0137 0.61872,0.0442 0.16492,0.0481 0.299,0.16987 0.44194,0.26517 0.27119,0.18079 0.40413,0.29623 0.61872,0.53033 0.19639,0.21424 0.35249,0.47259 0.57452,0.66291 0.0559,0.0479 0.1247,0.0805 0.17678,0.13258 0.0376,0.0376 0.0476,0.0986 0.0884,0.13258 0.0506,0.0422 0.12091,0.0535 0.17677,0.0884 0.1218,0.0761 0.28632,0.23136 0.39775,0.30936 0.0704,0.0493 0.15225,0.0811 0.22097,0.13258 0.11667,0.0875 0.1927,0.22186 0.30936,0.30936 0.0527,0.0395 0.12617,0.0462 0.17678,0.0884 0.0408,0.034 0.0508,0.095 0.0884,0.13259 0.0376,0.0376 0.0994,0.0469 0.13258,0.0884 0.0291,0.0364 0.0234,0.0909 0.0442,0.13259 0.009,0.0186 0.0295,0.0295 0.0442,0.0442 0.0147,0.0147 0.0244,0.0376 0.0442,0.0442 0.028,0.009 0.0676,-0.0208 0.0884,0 0.0329,0.0329 0.0329,0.0874 0.0442,0.13259 0.0182,0.0729 0.0308,0.14706 0.0442,0.22097 0.016,0.0882 0.0206,0.17871 0.0442,0.26516 0.0209,0.0765 0.0633,0.14571 0.0884,0.22097 0.0555,0.22197 0.025,0.11916 0.0884,0.30936 0.0147,0.0442 0.0202,0.0926 0.0442,0.13259 0.0214,0.0357 0.0729,0.0497 0.0884,0.0884 0.0164,0.041 0,0.0884 0,0.13259 0,0.10312 0,0.20624 0,0.30936 0,0.14731 0,0.29462 0,0.44194 0,0.0589 -0.007,0.1183 0,0.17677 0.008,0.0603 0.0367,0.11651 0.0442,0.17678 0.0104,0.083 0,0.30216 0,0.39775 0,0.0295 -0.009,0.0604 0,0.0884 0.007,0.0198 0.0376,0.0244 0.0442,0.0442 0.009,0.0277 -0.003,0.28237 0,0.30936 0.009,0.0745 0.0367,0.14623 0.0442,0.22097 0.0117,0.11727 0,0.2357 0,0.35355 0,0.0442 0,0.0884 0,0.13259 0,0.0295 -0.0132,0.062 0,0.0884 0.0186,0.0373 0.0653,0.0537 0.0884,0.0884 0.008,0.0123 -0.0104,0.0338 0,0.0442 0.0208,0.0208 0.0676,-0.0208 0.0884,0 0.0104,0.0104 0,0.0295 0,0.0442 0,0.11785 0,0.2357 0,0.35356 0,0.0736 0,0.14731 0,0.22097 0,0.0147 0.0147,0.0442 0,0.0442 -0.0147,0 0.0147,-0.0442 0,-0.0442 -0.0208,0 -0.0256,0.0349 -0.0442,0.0442 -0.0132,0.007 -0.0295,0 -0.0442,0 -0.0442,0 -0.0884,0 -0.13258,0 -0.13258,0 -0.26516,0 -0.39775,0 -0.0442,0 -0.0892,-0.009 -0.13258,0 -0.20993,0.042 -0.12364,0.10249 -0.30936,0.17678 -0.0209,0.008 -0.22368,0 -0.26516,0 -0.0147,0 -0.031,-0.007 -0.0442,0 -0.0186,0.009 -0.0349,0.0256 -0.0442,0.0442 -0.007,0.0132 0,0.0295 0,0.0442 0,0.0147 0,0.0295 0,0.0442 0,0.0295 0,0.0589 0,0.0884 0,0.0147 -0.008,0.0316 0,0.0442 0.0379,0.0632 0.0884,0.11785 0.13258,0.17678 z"
   id="path888"
   inkscape:connector-curvature="0" /><path
   style="opacity:1;vector-effect:none;fill:#ed153e;fill-opacity:1;stroke:#ed153e;stroke-width:1.15467048px;stroke-linecap:butt;stroke-linejoin:miter;stroke-miterlimit:4;stroke-dasharray:none;stroke-dashoffset:0;stroke-opacity:1"
   d="m 330.27755,429.17609 -0.0238,-1.58343"
   id="path898"
   inkscape:connector-curvature="0" /><path
   inkscape:connector-curvature="0"
   style="display:block;fill:#ed153e;fill-opacity:1;fill-rule:evenodd;stroke-width:10.35113907"
   d="m 247.28515,208.2669 -6.21068,9.31602 -5.17557,-9.31602 v -63.14195 l -46.58013,46.58012 -11.38624,3.10535 3.10533,-10.35114 46.58012,-46.58012 h -65.21217 l -9.31602,-5.17558 9.31602,-5.17556 H 235.8989 V 65.421174 l 5.17557,-9.31602 6.21068,9.31602 v 62.106846 h 73.4931 l 10.35114,5.17556 -10.35114,5.17558 h -66.24729 l 47.61523,47.61523 2.07023,10.35115 -10.35114,-3.10534 -47.61523,-46.58013 z"
   class="g6_7"
   id="path246" /><path
   inkscape:connector-curvature="0"
   style="display:block;fill:#000000;fill-opacity:1;fill-rule:evenodd;stroke-width:14.00680161"
   d="M 107.31725,119.38931 V 56.358684 h 4.20207 v 63.030626 h 8.40408 l -5.60274,9.80475 -4.20201,8.40408 -5.60274,-8.40408 -5.602741,-9.80475 z"
   class="g6_7"
   id="path248" /></svg>