<?xml version="1.0" encoding="UTF-8" standalone="no"?>
<!-- Generator: Adobe Illustrator 22.0.1, SVG Export Plug-In . SVG Version: 6.00 Build 0)  -->

<svg
   xmlns:dc="http://purl.org/dc/elements/1.1/"
   xmlns:cc="http://creativecommons.org/ns#"
   xmlns:rdf="http://www.w3.org/1999/02/22-rdf-syntax-ns#"
   xmlns:svg="http://www.w3.org/2000/svg"
   xmlns="http://www.w3.org/2000/svg"
   xmlns:sodipodi="http://sodipodi.sourceforge.net/DTD/sodipodi-0.dtd"
   xmlns:inkscape="http://www.inkscape.org/namespaces/inkscape"
   version="1.1"
   id="Слой_1"
   x="0px"
   y="0px"
   viewBox="0 0 491.49427 560.61412"
   xml:space="preserve"
   sodipodi:docname="WRY.svg"
   inkscape:version="0.92.3 (2405546, 2018-03-11)"
   width="491.49426"
   height="560.61414"><metadata
   id="metadata25"><rdf:RDF><cc:Work
       rdf:about=""><dc:format>image/svg+xml</dc:format><dc:type
         rdf:resource="http://purl.org/dc/dcmitype/StillImage" /><dc:title></dc:title></cc:Work></rdf:RDF></metadata><defs
   id="defs23" /><sodipodi:namedview
   pagecolor="#ffffff"
   bordercolor="#666666"
   borderopacity="1"
   objecttolerance="10"
   gridtolerance="10"
   guidetolerance="10"
   inkscape:pageopacity="0"
   inkscape:pageshadow="2"
   inkscape:window-width="3840"
   inkscape:window-height="2119"
   id="namedview21"
   showgrid="false"
   inkscape:zoom="2.8284271"
   inkscape:cx="5.6879297"
   inkscape:cy="187.41955"
   inkscape:window-x="0"
   inkscape:window-y="0"
   inkscape:window-maximized="1"
   inkscape:current-layer="Слой_1"
   fit-margin-top="43"
   fit-margin-left="48"
   fit-margin-right="48"
   fit-margin-bottom="43" />
<style
   type="text/css"
   id="style2">
	.st0{fill:#040404;}
	.st1{fill:#2F2F2F;}
	.st2{fill:#FD0404;}
	.st3{fill:#FD0B0B;}
	.st4{fill:#FD0405;}
</style>
<path
   style="fill:#ffffff;stroke:#000000;stroke-width:1px;stroke-linecap:butt;stroke-linejoin:miter;stroke-opacity:1"
   d="M 369.48891,480.63859 439.27565,48.317573 52.215682,47.425723 118.21208,477.07122 244.4079,514.97456 Z"
   id="path832"
   inkscape:connector-curvature="0" /><g
   id="g18"
   transform="rotate(-180,271.92214,351.46526)">
	<g
   id="g16">
		<path
   class="st0"
   d="m 104,659.9 c -0.8,-0.5 -1.6,-1 -2.3,-1.6 -1.2,-1.2 -1.6,-2.4 -1.2,-4.4 2.3,-11.5 4.4,-23.1 6.4,-34.7 2.3,-13.5 4.3,-27.1 6.5,-40.7 1.2,-7.8 2.3,-15.7 3.6,-23.5 1.4,-8.7 2.9,-17.3 4.4,-26 2.8,-17 5.7,-34 8.4,-50.9 2.3,-14.4 4.6,-28.8 6.9,-43.1 2.4,-14.7 4.8,-29.4 7.1,-44.1 2.6,-16 5,-32 7.6,-48 2.4,-14.9 4.9,-29.7 7.4,-44.6 2.3,-14.4 4.7,-28.7 7,-43.1 1.5,-9.3 3.1,-18.6 4.1,-27.9 0.6,-5.1 2.7,-8 7.8,-9.3 14.2,-3.6 28.3,-7.4 42.5,-11.3 15.5,-4.2 30.9,-8.6 46.3,-12.9 9.5,-2.6 19.1,-5.2 28.6,-7.9 3.9,-1.1 7.5,-0.5 11.2,0.6 14.1,4.2 28.2,8.4 42.2,12.5 17.4,5.1 34.8,10.1 52.2,15.2 7.8,2.3 15.5,4.6 23.2,6.9 3.1,0.9 5.1,2.3 5.5,6 0.8,7.2 2.4,14.4 3.6,21.6 1.4,8.1 2.8,16.3 4,24.4 1.8,12 3.4,24 5.2,36 2.2,13.9 4.6,27.8 6.7,41.7 2.5,15.9 4.7,31.7 7.2,47.6 2.5,16.3 5.2,32.7 7.8,49 2.1,13.6 4.1,27.2 6.2,40.8 2.9,18.5 5.9,36.9 8.8,55.4 1.8,11.6 3.4,23.2 5.2,34.9 1.2,7.7 2.7,15.3 3.9,23 1.4,9.2 2.7,18.4 4,27.6 1.2,8.2 2.3,16.4 3.7,24.5 0.4,2.5 0,4.5 -1.6,6.3 -0.7,0 -1.3,0 -2,0 -1.3,-1.9 -3.3,-0.9 -5,-0.9 -125.4,-0.1 -250.7,-0.1 -376.1,-0.1 -1.3,0 -2.7,-0.1 -4,0.1 -0.3,0 -0.6,0.6 -1,0.9 -0.7,0 -1.3,0 -2,0 z m 194.2,-7 c 57.8,0 115.6,0 173.5,0 4.5,0 9,0 13.5,0 3.2,0 3.3,-0.1 2.8,-3.4 -1.7,-11.3 -3.4,-22.5 -5.1,-33.8 -2.6,-17 -5.3,-34 -7.9,-51 -2.3,-15 -4.7,-30.1 -7,-45.1 -2.4,-15.4 -4.7,-30.8 -7.1,-46.1 -2.6,-16.8 -5.2,-33.7 -7.9,-50.5 -2.4,-15.2 -4.7,-30.4 -7.1,-45.6 -2.3,-14.9 -4.6,-29.8 -6.9,-44.6 -2.7,-17.3 -5.4,-34.7 -8.1,-52 -2.6,-16.4 -5.2,-32.7 -7.7,-49.1 -0.5,-3.4 -0.8,-3.6 -4.1,-4.6 -10.4,-3 -20.9,-6 -31.3,-9 -15.4,-4.4 -30.7,-8.8 -46.1,-13.3 -13.1,-3.9 -26.2,-7.9 -39.3,-11.9 -1.6,-0.5 -3,-0.9 -4.8,-0.3 -18.2,5.1 -36.5,10.2 -54.8,15.2 -7.1,2 -14.3,3.7 -21.5,5.7 -13.7,3.8 -27.3,7.7 -41,11.5 -1.6,0.4 -2.8,0.7 -3.1,2.6 -0.6,4.6 -1.4,9.2 -2.1,13.8 -1.1,7.2 -2,14.5 -3.1,21.7 -0.8,5.4 -2,10.7 -2.8,16 -1.4,9 -2.7,18.1 -4.2,27.1 -1.2,7.3 -2.6,14.6 -3.8,21.9 -1.5,9.2 -2.7,18.4 -4.1,27.6 -0.8,5.4 -2,10.7 -2.9,16 -1.5,9.2 -2.7,18.4 -4.2,27.6 -1.2,7.3 -2.6,14.6 -3.8,21.9 -1.5,9.2 -2.7,18.3 -4.1,27.5 -1.3,8 -2.9,16 -4.2,23.9 -1,6.4 -1.8,12.8 -2.8,19.2 -1.3,8 -2.8,15.9 -4.1,23.9 -1.1,6.6 -1.8,13.1 -2.9,19.7 -0.8,5 -2,10 -2.8,15 -1.8,11.5 -3.4,22.9 -5.2,34.4 -1.5,9.5 -3.4,18.9 -4.9,28.4 -1.9,11.4 -3.6,22.9 -5.5,34.3 -0.9,5.5 -1,5.5 4.7,5.5 61.1,-0.1 122.4,-0.1 183.8,-0.1 z"
   id="path4"
   inkscape:connector-curvature="0"
   style="fill:#040404" />
		<path
   class="st1"
   d="m 106,659.9 c 0.3,-0.3 0.6,-0.9 1,-0.9 1.3,-0.1 2.7,-0.1 4,-0.1 125.4,0 250.7,0 376.1,0.1 1.6,0 3.6,-1 5,0.9 -128.8,0 -257.4,0 -386.1,0 z"
   id="path6"
   inkscape:connector-curvature="0"
   style="fill:#2f2f2f" />
		<path
   class="st2"
   d="m 379.6,461.6 c 7.1,-0.6 14.3,-1 21.4,-1.8 13.1,-1.6 22.9,-10.3 26.2,-23.1 1.3,-5 2.6,-9.9 3.9,-14.9 0.3,-1.1 0.5,-2.3 0.9,-3.3 0.6,-1.6 0.6,-4.1 2.8,-4.1 0.8,0 1.9,2.5 2.3,4 1.8,6.6 3.4,13.2 5,19.8 1.2,4.9 2.7,9.6 5.9,13.5 0.5,0.6 0.9,1.4 1.4,2.1 2.3,3.3 2.3,6.6 -0.2,9.7 -2.2,2.7 -4.5,5.4 -7.3,7.4 -7.4,5.3 -15.9,8.1 -24.8,9.9 -12.4,2.5 -25,3.8 -37.7,3 -12.1,-0.8 -24.2,-2 -35.6,-6.4 -4.4,-1.7 -8.7,-4 -12.9,-6.4 -9,-5.3 -14,-13.5 -15.9,-23.7 -1.9,-10.3 -2.3,-20.8 -1.4,-31.3 0.8,-9.4 1.1,-18.9 1.3,-28.4 0.2,-12.7 0,-25.3 0,-38 0,-5.5 -0.8,-10.9 -3.2,-16 -1.4,-2.9 -0.4,-5.1 2.6,-5.5 2.9,-0.5 6,-0.7 8.6,1.3 0.8,0.6 1.8,0.9 2.5,1.6 3.4,3 7.3,3.5 11.6,2.8 10.5,-1.7 21,-3.4 31.4,-5.1 3.3,-0.5 6.5,-1.3 9.8,-1.8 1.8,-0.2 2.6,-0.9 2.8,-2.8 0.8,-6.9 1.9,-13.8 2.7,-20.7 0.5,-3.8 -0.3,-4.9 -4.4,-4.6 -6.6,0.5 -13.3,1 -19.7,2.5 -7.9,1.9 -15.5,4.7 -23.2,7.4 -5.9,2 -7.6,1.8 -11.9,-2.7 -0.8,-0.8 -1.7,-1.6 -2.4,-2.5 -2.7,-3.4 -2.9,-6.5 -0.8,-9.6 3.8,-5.7 5.1,-12.3 5.5,-18.9 0.6,-10.5 0.5,-21 -1.9,-31.3 -1,-4.5 -2.9,-8.7 -4.5,-13.1 -0.8,-2.3 -2.1,-4.6 -2.6,-6.9 -0.6,-3.2 0.4,-4.8 3.7,-5.4 2.2,-0.4 4.7,-0.5 6.9,0.1 4,1 7.9,2.5 11.8,3.9 0.9,0.3 1.8,0.9 2.6,1.4 3.6,2.4 4.6,4.6 3.4,8.9 -1.8,6.4 -2.9,12.9 -3.3,19.6 -0.2,3 0,3.2 2.9,2.4 11.8,-3.3 23.7,-6.3 35.3,-10.2 7.2,-2.4 13.7,-2.8 20.7,0.3 3.4,1.5 6.8,2.7 9.6,5.1 3.1,2.7 2.5,5.2 -1.4,6.5 -1.2,0.4 -2.6,0.5 -3.9,0.7 -11.5,1.5 -23,3 -34.5,4.6 -4.8,0.7 -9.5,1.9 -14.2,2.3 -4.4,0.3 -8.9,-0.2 -13.4,-0.6 -1.7,-0.2 -2.6,0 -2.8,1.8 -0.7,6.1 -1.5,12.2 -2,18.3 -0.4,5.1 2.1,6 5.8,5.8 11.5,-0.5 22.8,-1.8 33.9,-5 3.2,-0.9 6.5,-1.8 9.7,-2 7.6,-0.4 14.8,1.5 21.1,6 3.1,2.2 3.3,4.5 1.4,8.4 -1.9,3.9 -4.2,7.5 -5.8,11.5 -2.5,6.1 -4.5,12.5 -6.8,18.7 -0.6,1.7 -0.4,2.6 1.1,3.7 1.7,1.3 3.3,2.8 4.6,4.5 1.4,1.9 0.5,3.6 -1.8,3.9 -1.1,0.2 -2.3,0 -3.5,0.1 -9.1,0.8 -18.2,1.6 -27.3,2.5 -6.9,0.7 -13.9,1.6 -20.8,2.4 -3.6,0.4 -7.3,0.9 -10.9,1.1 -1.7,0.1 -2.4,1 -2.7,2.4 -1.4,6.5 -2.8,12.9 -4.1,19.4 -0.3,1.5 0.4,2.2 1.9,1.9 13.7,-2.5 27.5,-4.6 41.1,-7.5 6.6,-1.4 12.8,-0.8 19.1,0.9 1.7,0.5 3.4,1.4 5,2.3 2.6,1.5 2.6,3.3 -0.1,4.7 -1.6,0.9 -3.4,1.5 -5.1,1.8 -4.4,0.8 -8.9,1.3 -13.3,1.9 -7.9,1.1 -15.8,2 -23.7,3.3 -7.7,1.3 -15.5,2.3 -23.3,2 -2.2,-0.1 -3,0.6 -3.2,2.6 -0.4,5.5 -0.9,10.9 -1.4,16.4 -0.1,1.3 0.5,1.8 1.8,1.7 3.5,-0.3 7,-0.6 10.4,-1.1 11.8,-1.8 23.6,-3.6 35.4,-5.6 6.9,-1.2 13.5,-0.6 20,1.7 1.2,0.4 2.5,1 3.6,1.7 2.7,1.6 2.6,3.8 -0.3,5.1 -2.4,1 -5,1.9 -7.6,2.2 -15.2,1.7 -30.4,3.4 -45.6,4.8 -5.1,0.5 -10.3,0.4 -15.5,0.4 -1.5,0 -2.6,0.1 -2.6,2 -0.1,5.5 -0.3,11 -0.6,16.5 -0.1,2.1 0.7,2.6 2.6,2.4 7.1,-0.9 14.2,-1.5 21.3,-2.5 10.5,-1.5 21,-3.5 31.5,-4.7 6.3,-0.7 12.5,0.8 18.1,4 2.8,1.6 2.9,3.2 0,4.6 -2.8,1.3 -5.9,2.2 -9,2.6 -11.7,1.4 -23.4,2.8 -35.1,3.8 -8.2,0.7 -16.5,1.1 -24.8,1.4 -3.2,0.1 -3.6,0.4 -2.5,3.4 2.8,7.7 8.4,12.7 16,15.4 6.7,2.4 13.7,4.1 20.9,4.1 3.8,0 7.7,0 11.5,0 0,0.1 0,0.4 0,0.6 z"
   id="path8"
   inkscape:connector-curvature="0"
   style="fill:#fd0404" />
		<path
   class="st2"
   d="m 273.4,396.7 c -10,8.8 -19.2,16.8 -28.3,24.7 -2,1.7 -4.2,3.2 -6.4,4.6 -2.7,1.7 -5.5,1.5 -7.9,-0.5 -2.8,-2.3 -5.4,-4.9 -8.4,-7.6 -0.4,0.8 -0.9,1.7 -1.1,2.7 -3.2,12.9 -7.8,25.4 -14.9,36.7 -4.9,7.7 -10.9,14.3 -18.6,19.2 -1.2,0.8 -2.6,1.6 -3.9,2.1 -0.6,0.2 -1.8,0 -2.2,-0.5 -0.3,-0.4 -0.1,-1.6 0.2,-2.2 2.3,-3.7 4.7,-7.2 6.9,-11 9.2,-15.4 15.2,-32 18.2,-49.7 2.7,-15.9 4.1,-32 4,-48.1 0,-4 -0.4,-8 -1,-11.9 -0.4,-2.4 -1.7,-4.6 -2.6,-6.9 -0.5,-1.1 -1.4,-1.9 -1.7,-3 -1.9,-6.4 -0.1,-8.2 5.5,-7.5 0.5,0.1 1,0.1 1.5,0.3 6.5,2.8 13.1,1.9 19.9,0.9 10.8,-1.7 21.5,-3.8 32,-7.2 1.1,-0.4 2.3,-0.5 3.3,-1.1 4.7,-2.6 8.9,-1.4 12.9,1.4 3.8,2.7 7.8,5.1 11.3,8.2 4.1,3.5 4,5.5 2,10.6 -1.5,4 -2.9,8.1 -3.5,12.3 -0.8,5.1 -1.2,10.3 -1.1,15.4 0.2,18.5 0.4,37 1.2,55.4 0.4,10 0.1,19.9 -2.3,29.7 -1.5,6.1 -4.7,11.3 -8.7,16 -0.8,0.9 -1.6,1.7 -2.6,2.4 -3.3,2.4 -5,2.3 -7.9,-0.5 -3.3,-3.3 -6.4,-6.8 -9.8,-10 -5.1,-5 -10.4,-9.8 -15.6,-14.7 -0.6,-0.6 -1.2,-1.1 -1.8,-1.8 -1,-1.2 -0.5,-2.2 1.1,-2.3 1.5,-0.1 3,0 4.5,0.1 5.1,0.5 10.3,0.9 15.4,1.5 3.6,0.4 6,-0.6 7,-4 1,-3.3 1.8,-6.8 2,-10.2 0.5,-14.3 0.8,-28.6 1.4,-43.5 z m -0.7,-14.9 c -0.3,-9.1 -0.5,-18.3 -0.8,-27.4 -0.1,-1.6 -0.6,-3.3 -0.8,-4.9 -0.4,-2.4 -2,-3.3 -4.2,-3.5 -0.8,-0.1 -1.7,-0.1 -2.5,-0.1 -10.8,0.1 -21.4,2.4 -32,4.2 -0.8,0.1 -1.8,0.9 -2.2,1.7 -0.8,1.6 -1.4,3.4 -1.9,5.1 -0.5,1.5 0.2,2.5 1.8,2.9 4.5,1 9.1,1.8 13.5,3.3 5,1.7 9.8,4 14.6,6.3 2.8,1.3 4.5,3.9 4.4,6.8 -0.1,3.2 -0.7,6.6 -1.9,9.6 -1.2,3.1 -5.1,4.1 -8,2.1 -3.4,-2.3 -6.6,-5 -9.5,-7.9 -4.2,-4 -8.1,-8.4 -12.2,-12.5 -0.9,-0.9 -2.1,-1.4 -3.2,-2 -0.2,1.1 -0.4,2.2 -0.4,3.3 0.1,11 -0.6,21.9 -2.2,32.8 -0.3,2 -0.8,3.9 -1,5.9 -0.3,2.5 0.1,2.9 2.7,2.5 2.3,-0.4 4.5,-1.1 6.7,-1.7 11.1,-2.9 21.4,-8 31.5,-13.2 7.9,-4.3 7.8,-4.4 7.6,-13.3 z"
   id="path10"
   inkscape:connector-curvature="0"
   style="fill:#fd0404" />
		<path
   class="st3"
   d="m 302,572.4 c -0.1,1.7 -0.3,2.8 -0.3,3.9 0,12.7 0.1,25.3 0.1,38 0,4.7 0.6,4 4.2,3.9 1.8,0 3.7,0.1 5.5,0 3.2,-0.2 4.3,-0.2 2.2,3.9 -4.4,8.3 -8.9,16.7 -13.3,25 -1.2,2.3 -1.9,2.3 -3.1,0 -4.1,-7.2 -8.2,-14.4 -12.3,-21.6 -0.8,-1.4 -1.6,-2.8 -2.3,-4.3 -1.2,-2.6 -1,-2.8 1.6,-2.8 2.5,-0.1 5,-0.1 7.5,-0.1 2.1,0.1 3.1,-0.7 3,-2.9 -0.2,-2.7 -0.4,-5.3 -0.4,-8 -0.1,-10.2 -0.1,-20.3 -0.2,-30.5 0,-1 -0.1,-1.9 -0.2,-3.5 -1.6,1.5 -2.8,2.6 -3.9,3.7 -12.7,12.7 -25.5,25.4 -38.2,38.1 -0.8,0.8 -1.6,1.7 -2.5,2.4 -1.9,1.5 -4.1,1.5 -5.9,0 -1.7,-1.4 -2.1,-3.9 -0.7,-5.9 0.8,-1.2 2,-2.3 3,-3.3 12.6,-12.6 25.2,-25.2 37.9,-37.8 0.8,-0.8 1.7,-1.6 2.4,-2.5 0.5,-0.6 0.7,-1.4 1,-2.1 -0.6,-0.1 -1.3,-0.4 -1.9,-0.4 -13.6,0 -27.3,0.1 -40.9,0.1 -1.7,0 -2.4,0.7 -2.3,2.4 0.1,2.8 0.1,5.7 0.1,8.5 0,2.3 -0.5,2.6 -2.7,1.6 -2.4,-1.1 -4.8,-2.4 -7.1,-3.6 -6.6,-3.5 -13.1,-7.1 -19.7,-10.7 -1.6,-0.9 -1.4,-1.4 0.2,-2.3 8.3,-4.7 16.6,-9.6 24.9,-14.4 0.4,-0.2 0.9,-0.5 1.3,-0.7 2.5,-1.2 2.9,-1 3,1.6 0.1,2.3 0,4.7 0,7 0.1,2.5 0.8,3.3 3.1,3.5 0.7,0.1 1.3,-0.1 2,-0.1 12.2,-0.2 24.3,-0.4 36.5,-0.6 0.7,0 1.3,0.1 2,0.1 0.5,0 0.9,-0.3 1.4,-0.4 -0.2,-0.6 -0.3,-1.3 -0.7,-1.7 -5.3,-5.4 -10.6,-10.9 -16,-16.3 -8.2,-8.2 -16.4,-16.3 -24.5,-24.5 -0.8,-0.8 -1.6,-1.7 -2.3,-2.6 -1.8,-2.3 -1.7,-5 0.3,-6.7 1.8,-1.6 4.2,-1.6 6.2,0.4 5,4.9 9.9,9.9 14.8,14.8 8.8,8.8 17.6,17.7 26.5,26.5 0.7,0.7 1.4,1.3 2.7,2.4 0.1,-1.8 0.3,-3 0.3,-4.2 0,-12 -0.1,-24 -0.1,-36 0,-4.2 0,-4.2 -4.4,-4.2 -2.2,0 -4.3,0.1 -6.5,0 -2.1,-0.1 -2.5,-0.6 -1.6,-2.3 4.9,-8.9 9.8,-17.7 14.7,-26.6 1,-1.8 1.7,-1.8 2.7,-0.1 4.7,8.4 9.4,16.8 14.1,25.2 0.2,0.3 0.3,0.6 0.4,0.9 0.9,2.2 0.7,2.7 -1.6,2.8 -2.5,0.1 -5,0 -7.5,0.1 -2.9,0.1 -3.3,0.4 -3.3,3.1 0,13.3 0.1,26.7 0.2,40 0,0.7 0.5,1.4 0.8,2.1 0.7,-0.3 1.5,-0.4 2.1,-0.9 0.9,-0.7 1.7,-1.6 2.5,-2.4 13,-12.9 26,-25.9 38.9,-38.8 1.1,-1.1 2.1,-2.2 3.3,-3.1 1.7,-1.2 3.4,-1 5,0.5 2,1.8 2.5,3.2 1.2,5.2 -0.8,1.4 -2,2.6 -3.2,3.8 -12.8,12.8 -25.7,25.7 -38.5,38.5 -1.1,1.1 -2.2,2.4 -3.8,4.1 6.3,0 11.9,0 17.5,0 8,0 15.9,0 23.9,-0.1 3.3,0 3.3,-0.1 3.3,-3.4 0,-2.5 -0.1,-5 0,-7.5 0.1,-2.3 0.6,-2.6 2.7,-1.4 7.6,4.3 15.3,8.6 22.9,12.8 1.7,0.9 3.4,1.9 5.1,2.8 -0.9,2.6 -3.5,2.7 -5.4,3.8 -6.9,4 -13.9,7.7 -20.8,11.6 -0.4,0.2 -0.8,0.6 -1.2,0.8 -2.3,1.1 -3,0.7 -3.1,-1.7 -0.1,-2.8 -0.1,-5.7 0,-8.5 0,-1.7 -0.7,-2.2 -2.4,-2.2 -5.5,0.1 -11,0 -16.5,0.1 -7.1,0.1 -14.2,0.3 -21.3,0.5 -0.8,0 -1.7,-0.1 -2.5,0.1 -0.5,0.1 -1.1,0.5 -1.4,0.9 -0.1,0.2 0.2,0.9 0.5,1.2 3.9,4 7.9,8 11.9,12 9.9,9.9 19.9,19.8 29.8,29.7 0.8,0.8 1.6,1.7 2.2,2.7 1.1,1.9 0.7,4.6 -1,5.9 -1.4,1.2 -3.9,1.2 -5.5,0 -1.1,-0.8 -1.9,-1.8 -2.9,-2.7 -13.3,-13.3 -26.6,-26.6 -39.9,-39.9 -1.2,-0.6 -2.2,-1.5 -3.6,-2.7 z"
   id="path12"
   inkscape:connector-curvature="0"
   style="fill:#fd0b0b" />
		<path
   class="st4"
   d="m 278.3,258.5 c 2.3,1.6 4.5,3 6.6,4.6 1.3,1 2.4,2.3 3.4,3.6 1,1.3 1,2.7 0.2,4.2 -5,9.3 -10,18.7 -15.1,28 -1,1.9 -2.3,3.7 -3.8,6 5.2,-0.9 9.9,-1.8 14.6,-2.6 4.2,-0.7 8.5,-1.8 12.7,-2.1 4.7,-0.4 9.2,1 13.2,3.6 1.1,0.7 2,1.8 2.7,2.9 1.7,2.7 1.1,4.3 -2,5.2 -1.9,0.5 -3.9,0.7 -5.9,0.9 -21.5,1.7 -42.8,5.2 -63.9,9.6 -17.3,3.6 -34.5,7.9 -51.8,11.8 -8.9,2 -16.2,-1.7 -23,-6.8 -0.5,-0.4 -0.9,-1 -1.2,-1.6 -1.3,-2.1 -0.8,-3.3 1.7,-4 1.6,-0.4 3.2,-0.7 4.9,-1 17.7,-2.7 35.4,-5.4 53.1,-8 2.1,-0.3 2.4,-0.7 1.6,-2.7 -5.1,-12.6 -8.3,-25.8 -11.7,-39 -0.2,-0.9 -0.5,-1.9 -0.4,-2.9 0.1,-1.2 -0.6,-1.3 -1.5,-1.4 -2.6,-0.3 -5.3,-0.6 -7.9,-1 -3,-0.5 -5.7,-1.8 -7.7,-4.2 -2.2,-2.5 -1.7,-4.3 1.5,-4.9 4.9,-0.8 9.9,-1.2 14.8,-2 11.9,-2 23.9,-4.1 35.8,-6.2 0.6,-0.1 1.1,-0.6 1.6,-1 -0.4,-0.5 -0.7,-1 -1.1,-1.4 -7.9,-6.7 -13.2,-15.3 -18.5,-24 -0.4,-0.7 -0.8,-1.5 -1,-2.3 -0.6,-2.1 0.1,-3.4 2.3,-3.3 4,0.2 8,0.4 11.8,1.4 4.3,1.1 8.5,2.8 12.6,4.5 9.7,4.2 12.3,10.5 8.9,20.5 -0.2,0.4 -0.3,0.9 -0.8,2.1 4.8,-1.4 9.1,-2.4 13.2,-4.1 4.3,-1.8 8.4,-1.7 12.5,0 2.7,1.1 5.6,2.2 8,3.9 4,2.7 3.6,6.2 -0.9,7.7 -6.4,2.4 -12.8,4.1 -19.5,6 z m -58.4,8.6 c 2.5,2 4.5,3.8 6.5,5.4 8,6.4 11.3,15 11.6,24.8 0.1,3.8 0,7.7 0,11.5 0,1 -0.1,2 1.5,1.7 5.7,-1.1 11.4,-2.1 17.1,-3.1 2.2,-0.4 3.4,-1.4 4,-3.6 1.6,-6.8 3.9,-13.4 5.1,-20.2 1,-6 1.2,-12.2 1.2,-18.3 0,-4.5 -1.1,-4.9 -5.6,-4.2 -6.4,1 -12.8,2 -19.2,2.9 -7.2,1.1 -14.4,2 -22.2,3.1 z"
   id="path14"
   inkscape:connector-curvature="0"
   style="fill:#fd0405" />
	</g>
</g>
<path
   style="fill:#000000;stroke:none;stroke-width:1px;stroke-linecap:butt;stroke-linejoin:miter;stroke-opacity:1"
   d="m 438.57375,45.496973 -386.588538,0.13258 -0.64081,-2.62955 H 439.30295 Z"
   id="path834"
   inkscape:connector-curvature="0" /></svg>