<?xml version="1.0" encoding="UTF-8" standalone="no"?>
<!-- Generator: Adobe Illustrator 22.0.1, SVG Export Plug-In . SVG Version: 6.00 Build 0)  -->

<svg
   xmlns:dc="http://purl.org/dc/elements/1.1/"
   xmlns:cc="http://creativecommons.org/ns#"
   xmlns:rdf="http://www.w3.org/1999/02/22-rdf-syntax-ns#"
   xmlns:svg="http://www.w3.org/2000/svg"
   xmlns="http://www.w3.org/2000/svg"
   xmlns:sodipodi="http://sodipodi.sourceforge.net/DTD/sodipodi-0.dtd"
   xmlns:inkscape="http://www.inkscape.org/namespaces/inkscape"
   version="1.1"
   id="Слой_1"
   x="0px"
   y="0px"
   viewBox="0 0 490.84342 560.99998"
   xml:space="preserve"
   sodipodi:docname="WTO.svg"
   width="490.84341"
   height="561"
   inkscape:version="0.92.3 (2405546, 2018-03-11)"><metadata
   id="metadata23"><rdf:RDF><cc:Work
       rdf:about=""><dc:format>image/svg+xml</dc:format><dc:type
         rdf:resource="http://purl.org/dc/dcmitype/StillImage" /><dc:title></dc:title></cc:Work></rdf:RDF></metadata><defs
   id="defs21" /><sodipodi:namedview
   pagecolor="#ffffff"
   bordercolor="#666666"
   borderopacity="1"
   objecttolerance="10"
   gridtolerance="10"
   guidetolerance="10"
   inkscape:pageopacity="0"
   inkscape:pageshadow="2"
   inkscape:window-width="1920"
   inkscape:window-height="1039"
   id="namedview19"
   showgrid="false"
   fit-margin-top="43"
   fit-margin-left="48"
   fit-margin-right="48"
   fit-margin-bottom="43"
   inkscape:zoom="3.1714398"
   inkscape:cx="302.5903"
   inkscape:cy="78.577133"
   inkscape:window-x="0"
   inkscape:window-y="0"
   inkscape:window-maximized="1"
   inkscape:current-layer="Слой_1"
   showguides="true"
   inkscape:guide-bbox="true"><sodipodi:guide
     position="247.20633,369.86354"
     orientation="1,0"
     id="guide820"
     inkscape:locked="false" /><sodipodi:guide
     position="277.0288,59.864976"
     orientation="0,1"
     id="guide858"
     inkscape:locked="false" /></sodipodi:namedview>
<style
   type="text/css"
   id="style2">
	.st0{fill:#040404;}
	.st1{fill:#2F2F2F;}
	.st2{fill:#FD0303;}
	.st3{fill:#FD0B0B;}
	.st4{fill:#FD0202;}
</style>
<path
   style="fill:#ffffff;stroke:#000000;stroke-width:1px;stroke-linecap:butt;stroke-linejoin:miter;stroke-opacity:1"
   d="M 368.81682,480.85416 C 399.08699,290.40438 438.81658,46.98182 438.81658,46.98182 L 50.664793,46.35119 116.56546,476.75508 245.52897,514.27747 Z"
   id="path822"
   inkscape:connector-curvature="0" /><g
   id="g16"
   transform="rotate(-180,271.61304,351.45)">
	<g
   id="g14">
		<path
   class="st0"
   d="m 302,184.9 c 16.7,5 33.3,10 50,15 13.1,3.9 26.2,7.9 39.3,11.8 10.3,3.1 20.5,6.4 30.9,9 5.1,1.3 7,4 7.7,8.7 4.6,29.6 9.4,59.3 13.9,88.9 4.5,29 8.8,58.1 13.2,87.1 4.9,32.3 9.9,64.6 15,96.8 2.8,18 6,35.9 8.8,53.9 4.2,27.1 8.2,54.1 12.2,81.2 0.8,5.4 1.7,10.8 2.2,16.2 0.2,2.1 -0.8,4.2 -1.3,6.4 -0.7,0 -1.3,0 -2,0 -1.7,-0.3 -3.4,-0.9 -5.2,-0.9 -125.2,0 -250.4,0 -375.7,0 -1.7,0 -3.4,0.6 -5.2,0.9 -0.7,0 -1.3,0 -2,0 -3.3,-1.8 -3.9,-4.1 -3.1,-8 2.7,-13.5 4.8,-27.1 7.1,-40.6 2.1,-12.6 4.2,-25.2 6.3,-37.8 5.2,-31.7 10.4,-63.4 15.5,-95.2 4.6,-28.6 9.2,-57.2 13.8,-85.8 5.1,-31.4 10.2,-62.8 15.2,-94.2 3.8,-24 7.6,-48 11.2,-72 0.7,-4.8 3.1,-7.1 7.6,-8.3 28.2,-7.6 56.4,-15.3 84.5,-23.1 11.6,-3.2 23.2,-6.6 34.9,-9.9 1.9,-0.1 3.5,-0.1 5.2,-0.1 z M 108.7,652.7 c 126.6,0 252.9,0 379.4,0 -1.8,-12.4 -3.5,-24.7 -5.4,-36.9 -5.1,-32.7 -10.2,-65.5 -15.3,-98.2 -2,-12.8 -4.4,-25.5 -6.4,-38.3 -2.9,-19 -5.5,-38.1 -8.4,-57.1 -4.6,-30.1 -9.3,-60.3 -14,-90.4 -5.2,-33.4 -10.5,-66.8 -15.6,-100.2 -0.4,-2.9 -1.8,-3.9 -4.1,-4.6 -9,-2.6 -18.1,-5 -27.1,-7.7 -29.9,-8.8 -59.8,-17.7 -89.7,-26.5 -1.5,-0.4 -3.3,-0.7 -4.8,-0.3 -37,10.1 -73.8,20.5 -110.9,30.2 -7.4,1.9 -9.7,5.3 -10.7,12.3 -3.3,23.5 -7.2,46.9 -10.9,70.3 -3.2,20.2 -6.7,40.5 -9.9,60.7 -4.4,27.5 -8.7,55 -13.1,82.5 -4.9,30.1 -9.9,60.1 -14.9,90.2 -4,24 -7.9,48 -11.8,72.1 -2.1,13.9 -4.2,27.8 -6.4,41.9 z"
   id="path4"
   inkscape:connector-curvature="0"
   style="fill:#040404" />
		<path
   class="st1"
   d="m 106,659.9 c 1.7,-0.3 3.4,-0.9 5.2,-0.9 125.2,0 250.4,0 375.7,0 1.7,0 3.4,0.6 5.2,0.9 -128.8,0 -257.4,0 -386.1,0 z"
   id="path6"
   inkscape:connector-curvature="0"
   style="fill:#2f2f2f" />
		<path
   class="st2"
   d="m 253.9,355.5 c 0,-7.3 -0.3,-14 0.1,-20.7 0.5,-7.6 2.5,-15.2 2.4,-22.7 -0.4,-19.5 -1.3,-38.9 -2.5,-58.4 -0.4,-5.9 -2.9,-11.6 -4.1,-17.4 -1.1,-5.2 -0.2,-6 4.9,-5.6 9.7,0.8 17.9,5 24.9,11.4 3.7,3.4 4.3,7.3 2.6,12.2 -2.1,6.4 -4.6,13.1 -4.6,19.7 -0.1,21.6 0.9,43.2 1.5,64.9 0,1 0.4,1.9 0.7,3.3 1.4,-0.5 2.6,-0.8 3.8,-1.3 13.3,-6 26.7,-11.9 39.9,-18.1 4.6,-2.2 9,-5.1 13.2,-7.9 3.4,-2.3 5.4,-5.2 2.7,-9.6 -2,-3.3 0,-5.2 3.4,-5 11,0.6 20.8,4.6 28.5,12.7 4.5,4.7 3.9,9.3 -2.1,12.1 -10.7,4.9 -21.6,9.5 -32.8,13 -27.8,8.5 -55.6,17.2 -81.2,31.4 -8.5,4.7 -16.5,10.6 -24.2,16.6 -3.6,2.8 -6.5,6.7 -8.9,10.6 -8,13.3 -3.6,26.3 10.7,32.2 13.4,5.6 27.6,7.1 41.9,8.1 20,1.5 39.5,-2.3 58.9,-6.3 3.6,-0.7 7.2,-1 10.8,-1.7 11.1,-2.1 18.6,3.4 24.6,11.6 4.4,5.9 3.7,9.8 -3.1,12.4 -7.7,2.9 -15.8,5.5 -23.9,6.6 -26.5,3.6 -53.1,4.2 -79.4,-2.3 -14.3,-3.6 -27.6,-9.6 -40.1,-17.4 -18.3,-11.5 -22.8,-31.7 -11.7,-50.3 5.2,-8.7 12.5,-15.1 20.9,-20.4 7.5,-5.1 15.1,-9.5 22.2,-13.7 z"
   id="path8"
   inkscape:connector-curvature="0"
   style="opacity:1;fill:#ed153e;fill-opacity:1" />
		
		
	</g>
</g>
<path
   inkscape:connector-curvature="0"
   style="display:block;fill:#ed153e;fill-opacity:1;fill-rule:evenodd;stroke-width:11.14956856"
   d="m 249.21189,223.60738 -5.5748,10.03462 -5.57477,-10.03462 v -68.01237 l -51.28802,50.17305 -11.14958,3.34492 3.34482,-11.14957 50.17306,-50.17305 h -70.2422 l -10.03464,-5.57479 10.03464,-5.57479 h 79.16192 V 69.74337 l 5.57477,-10.03463 5.5748,10.03463 v 66.89741 h 80.27684 l 10.03463,5.57479 -10.03463,5.57479 h -72.4722 l 51.28801,51.28801 3.3449,11.14954 -11.14957,-3.3449 -51.28798,-50.17306 z"
   class="g6_7"
   id="path262" /><path
   inkscape:connector-curvature="0"
   style="display:block;fill:#000000;fill-opacity:1;fill-rule:evenodd;stroke-width:9.80660439"
   d="M 107.27416,137.33714 V 59.86498 h 10.78725 v 78.45285 l -4.9033,7.84527 z"
   class="g3_7"
   id="path270" /></svg>