<?xml version="1.0" encoding="UTF-8" standalone="no"?>
<!-- Generator: Adobe Illustrator 22.0.1, SVG Export Plug-In . SVG Version: 6.00 Build 0)  -->

<svg
   xmlns:dc="http://purl.org/dc/elements/1.1/"
   xmlns:cc="http://creativecommons.org/ns#"
   xmlns:rdf="http://www.w3.org/1999/02/22-rdf-syntax-ns#"
   xmlns:svg="http://www.w3.org/2000/svg"
   xmlns="http://www.w3.org/2000/svg"
   xmlns:sodipodi="http://sodipodi.sourceforge.net/DTD/sodipodi-0.dtd"
   xmlns:inkscape="http://www.inkscape.org/namespaces/inkscape"
   version="1.1"
   id="Слой_1"
   x="0px"
   y="0px"
   viewBox="0 0 490.84342 560.99998"
   xml:space="preserve"
   sodipodi:docname="WTO.svg"
   width="490.84341"
   height="561"
   inkscape:version="0.92.3 (2405546, 2018-03-11)"><metadata
   id="metadata23"><rdf:RDF><cc:Work
       rdf:about=""><dc:format>image/svg+xml</dc:format><dc:type
         rdf:resource="http://purl.org/dc/dcmitype/StillImage" /><dc:title></dc:title></cc:Work></rdf:RDF></metadata><defs
   id="defs21" /><sodipodi:namedview
   pagecolor="#ffffff"
   bordercolor="#666666"
   borderopacity="1"
   objecttolerance="10"
   gridtolerance="10"
   guidetolerance="10"
   inkscape:pageopacity="0"
   inkscape:pageshadow="2"
   inkscape:window-width="3840"
   inkscape:window-height="2119"
   id="namedview19"
   showgrid="false"
   fit-margin-top="43"
   fit-margin-left="48"
   fit-margin-right="48"
   fit-margin-bottom="43"
   inkscape:zoom="3.1714398"
   inkscape:cx="175.46505"
   inkscape:cy="533.76589"
   inkscape:window-x="0"
   inkscape:window-y="0"
   inkscape:window-maximized="1"
   inkscape:current-layer="Слой_1" />
<style
   type="text/css"
   id="style2">
	.st0{fill:#040404;}
	.st1{fill:#2F2F2F;}
	.st2{fill:#FD0303;}
	.st3{fill:#FD0B0B;}
	.st4{fill:#FD0202;}
</style>
<path
   style="fill:#ffffff;stroke:#000000;stroke-width:1px;stroke-linecap:butt;stroke-linejoin:miter;stroke-opacity:1"
   d="M 368.81682,480.85416 C 399.08699,290.40438 438.81658,46.98182 438.81658,46.98182 L 50.664793,46.35119 116.56546,476.75508 245.52897,514.27747 Z"
   id="path822"
   inkscape:connector-curvature="0" /><g
   id="g16"
   transform="rotate(-180,271.61304,351.45)">
	<g
   id="g14">
		<path
   class="st0"
   d="m 302,184.9 c 16.7,5 33.3,10 50,15 13.1,3.9 26.2,7.9 39.3,11.8 10.3,3.1 20.5,6.4 30.9,9 5.1,1.3 7,4 7.7,8.7 4.6,29.6 9.4,59.3 13.9,88.9 4.5,29 8.8,58.1 13.2,87.1 4.9,32.3 9.9,64.6 15,96.8 2.8,18 6,35.9 8.8,53.9 4.2,27.1 8.2,54.1 12.2,81.2 0.8,5.4 1.7,10.8 2.2,16.2 0.2,2.1 -0.8,4.2 -1.3,6.4 -0.7,0 -1.3,0 -2,0 -1.7,-0.3 -3.4,-0.9 -5.2,-0.9 -125.2,0 -250.4,0 -375.7,0 -1.7,0 -3.4,0.6 -5.2,0.9 -0.7,0 -1.3,0 -2,0 -3.3,-1.8 -3.9,-4.1 -3.1,-8 2.7,-13.5 4.8,-27.1 7.1,-40.6 2.1,-12.6 4.2,-25.2 6.3,-37.8 5.2,-31.7 10.4,-63.4 15.5,-95.2 4.6,-28.6 9.2,-57.2 13.8,-85.8 5.1,-31.4 10.2,-62.8 15.2,-94.2 3.8,-24 7.6,-48 11.2,-72 0.7,-4.8 3.1,-7.1 7.6,-8.3 28.2,-7.6 56.4,-15.3 84.5,-23.1 11.6,-3.2 23.2,-6.6 34.9,-9.9 1.9,-0.1 3.5,-0.1 5.2,-0.1 z M 108.7,652.7 c 126.6,0 252.9,0 379.4,0 -1.8,-12.4 -3.5,-24.7 -5.4,-36.9 -5.1,-32.7 -10.2,-65.5 -15.3,-98.2 -2,-12.8 -4.4,-25.5 -6.4,-38.3 -2.9,-19 -5.5,-38.1 -8.4,-57.1 -4.6,-30.1 -9.3,-60.3 -14,-90.4 -5.2,-33.4 -10.5,-66.8 -15.6,-100.2 -0.4,-2.9 -1.8,-3.9 -4.1,-4.6 -9,-2.6 -18.1,-5 -27.1,-7.7 -29.9,-8.8 -59.8,-17.7 -89.7,-26.5 -1.5,-0.4 -3.3,-0.7 -4.8,-0.3 -37,10.1 -73.8,20.5 -110.9,30.2 -7.4,1.9 -9.7,5.3 -10.7,12.3 -3.3,23.5 -7.2,46.9 -10.9,70.3 -3.2,20.2 -6.7,40.5 -9.9,60.7 -4.4,27.5 -8.7,55 -13.1,82.5 -4.9,30.1 -9.9,60.1 -14.9,90.2 -4,24 -7.9,48 -11.8,72.1 -2.1,13.9 -4.2,27.8 -6.4,41.9 z"
   id="path4"
   inkscape:connector-curvature="0"
   style="fill:#040404" />
		<path
   class="st1"
   d="m 106,659.9 c 1.7,-0.3 3.4,-0.9 5.2,-0.9 125.2,0 250.4,0 375.7,0 1.7,0 3.4,0.6 5.2,0.9 -128.8,0 -257.4,0 -386.1,0 z"
   id="path6"
   inkscape:connector-curvature="0"
   style="fill:#2f2f2f" />
		<path
   class="st2"
   d="m 253.9,355.5 c 0,-7.3 -0.3,-14 0.1,-20.7 0.5,-7.6 2.5,-15.2 2.4,-22.7 -0.4,-19.5 -1.3,-38.9 -2.5,-58.4 -0.4,-5.9 -2.9,-11.6 -4.1,-17.4 -1.1,-5.2 -0.2,-6 4.9,-5.6 9.7,0.8 17.9,5 24.9,11.4 3.7,3.4 4.3,7.3 2.6,12.2 -2.1,6.4 -4.6,13.1 -4.6,19.7 -0.1,21.6 0.9,43.2 1.5,64.9 0,1 0.4,1.9 0.7,3.3 1.4,-0.5 2.6,-0.8 3.8,-1.3 13.3,-6 26.7,-11.9 39.9,-18.1 4.6,-2.2 9,-5.1 13.2,-7.9 3.4,-2.3 5.4,-5.2 2.7,-9.6 -2,-3.3 0,-5.2 3.4,-5 11,0.6 20.8,4.6 28.5,12.7 4.5,4.7 3.9,9.3 -2.1,12.1 -10.7,4.9 -21.6,9.5 -32.8,13 -27.8,8.5 -55.6,17.2 -81.2,31.4 -8.5,4.7 -16.5,10.6 -24.2,16.6 -3.6,2.8 -6.5,6.7 -8.9,10.6 -8,13.3 -3.6,26.3 10.7,32.2 13.4,5.6 27.6,7.1 41.9,8.1 20,1.5 39.5,-2.3 58.9,-6.3 3.6,-0.7 7.2,-1 10.8,-1.7 11.1,-2.1 18.6,3.4 24.6,11.6 4.4,5.9 3.7,9.8 -3.1,12.4 -7.7,2.9 -15.8,5.5 -23.9,6.6 -26.5,3.6 -53.1,4.2 -79.4,-2.3 -14.3,-3.6 -27.6,-9.6 -40.1,-17.4 -18.3,-11.5 -22.8,-31.7 -11.7,-50.3 5.2,-8.7 12.5,-15.1 20.9,-20.4 7.5,-5.1 15.1,-9.5 22.2,-13.7 z"
   id="path8"
   inkscape:connector-curvature="0"
   style="fill:#fd0303" />
		<path
   class="st3"
   d="m 297,567.6 c 0,23.7 0,46.7 0,69.7 0,2.9 1.3,7.4 -3.4,7.4 -4.7,0.1 -3.6,-4.3 -3.6,-7.3 -0.1,-21.3 0,-42.7 0,-64 0,-1.8 0,-3.6 0,-5.8 -6.1,0 -11.7,0 -17.3,0 -16.5,0 -33,0 -49.5,0 -1,0 -2.2,0.4 -3,-0.1 -1.7,-1 -3.3,-2.5 -4.9,-3.7 1.6,-1.2 3.2,-3.5 4.9,-3.5 10.8,-0.3 21.7,-0.2 32.5,-0.2 9.9,0 19.9,0 30.8,0 -5.7,-5.2 -10.7,-9.7 -15.7,-14.1 -9.3,-8.3 -18.7,-16.5 -28.1,-24.7 -2.2,-1.9 -4.3,-4 -2.1,-6.6 2.2,-2.6 4.7,-1 6.9,1 13.6,12 27.2,24 40.8,35.9 1.2,1.1 2.5,2 4.6,3.6 0,-3.6 0,-6.3 0,-9.1 0,-14.2 0,-28.3 0,-42.5 0,-3 -1.2,-7.3 3.4,-7.5 4.8,-0.1 3.6,4.3 3.6,7.2 0.1,15 0,30 0,45 0,1.6 0,3.2 0,5.9 3.2,-2.6 5.8,-4.6 8.2,-6.7 11.2,-9.9 22.3,-20 33.5,-29.9 1.4,-1.2 2.7,-2.8 4.3,-3.3 1.6,-0.5 3.6,0.2 5.4,0.3 -0.3,1.8 0,4.2 -1,5.2 -7.5,7.1 -15.1,13.9 -22.9,20.7 -7.1,6.2 -14.3,12.3 -22.1,19.1 2,0.1 3.4,0.3 4.7,0.3 19.2,0 38.3,0 57.5,0 1.2,0 2.5,-0.4 3.5,0.1 1.7,0.9 4.1,2.1 4.3,3.5 0.5,2.7 -1.8,4 -4.5,3.9 -1.7,0 -3.3,0 -5,0 -21.6,0.2 -43.4,0.2 -65.8,0.2 z"
   id="path10"
   inkscape:connector-curvature="0"
   style="fill:#fd0b0b" />
		<path
   class="st4"
   d="m 444,607.6 c 0,9.5 0.1,19 -0.1,28.5 0,1.6 -1.5,3.2 -2.3,4.7 -0.9,-1.5 -2.5,-3 -2.5,-4.5 -0.2,-19.3 -0.2,-38.6 0,-57.9 0,-1.5 1.6,-3 2.5,-4.5 0.8,1.6 2.2,3.1 2.3,4.7 0.2,9.7 0.1,19.4 0.1,29 z"
   id="path12"
   inkscape:connector-curvature="0"
   style="fill:#fd0202" />
	</g>
</g>
</svg>