<?xml version="1.0" encoding="UTF-8" standalone="no"?>
<!-- Generator: Adobe Illustrator 22.0.1, SVG Export Plug-In . SVG Version: 6.00 Build 0)  -->

<svg
   xmlns:dc="http://purl.org/dc/elements/1.1/"
   xmlns:cc="http://creativecommons.org/ns#"
   xmlns:rdf="http://www.w3.org/1999/02/22-rdf-syntax-ns#"
   xmlns:svg="http://www.w3.org/2000/svg"
   xmlns="http://www.w3.org/2000/svg"
   xmlns:sodipodi="http://sodipodi.sourceforge.net/DTD/sodipodi-0.dtd"
   xmlns:inkscape="http://www.inkscape.org/namespaces/inkscape"
   version="1.1"
   id="Слой_1"
   x="0px"
   y="0px"
   viewBox="0 0 490.90229 559.6226"
   xml:space="preserve"
   sodipodi:docname="WUM.svg"
   width="490.90228"
   height="559.62262"
   inkscape:version="0.92.3 (2405546, 2018-03-11)"><metadata
   id="metadata27"><rdf:RDF><cc:Work
       rdf:about=""><dc:format>image/svg+xml</dc:format><dc:type
         rdf:resource="http://purl.org/dc/dcmitype/StillImage" /><dc:title></dc:title></cc:Work></rdf:RDF></metadata><defs
   id="defs25" /><sodipodi:namedview
   pagecolor="#ffffff"
   bordercolor="#666666"
   borderopacity="1"
   objecttolerance="10"
   gridtolerance="10"
   guidetolerance="10"
   inkscape:pageopacity="0"
   inkscape:pageshadow="2"
   inkscape:window-width="1920"
   inkscape:window-height="1039"
   id="namedview23"
   showgrid="false"
   fit-margin-top="43"
   fit-margin-left="48"
   fit-margin-right="48"
   fit-margin-bottom="43"
   inkscape:zoom="0.56063665"
   inkscape:cx="-52.848742"
   inkscape:cy="175.25561"
   inkscape:window-x="0"
   inkscape:window-y="0"
   inkscape:window-maximized="1"
   inkscape:current-layer="Слой_1"
   showguides="true"
   inkscape:guide-bbox="true"><sodipodi:guide
     position="246.89102,409.59313"
     orientation="1,0"
     id="guide840"
     inkscape:locked="false" /><sodipodi:guide
     position="218.72456,56.186122"
     orientation="0,1"
     id="guide848"
     inkscape:locked="false" /></sodipodi:namedview>
<style
   type="text/css"
   id="style2">
	.st0{fill:#0A0A0A;}
	.st1{fill:#FD0303;}
	.st2{fill:#FD0B0C;}
	.st3{fill:#FD0404;}
	.st4{fill:#FD0505;}
	.st5{fill:#FD0304;}
</style>
<path
   style="fill:#ffffff;stroke:#000000;stroke-width:1px;stroke-linecap:butt;stroke-linejoin:miter;stroke-opacity:1"
   d="m 368.56036,481.16948 70.31507,-435.133603 -387.52116,0.94595 66.84661,429.142633 125.17974,37.8377 z"
   id="path821"
   inkscape:connector-curvature="0" /><g
   id="g20"
   transform="rotate(-180,271.78194,350.85)">
	<g
   id="g18">
		<path
   class="st0"
   d="m 298.5,658.5 c -62.8,0 -125.6,0 -188.5,0 -2,0 -4,-0.2 -5.9,-0.5 -3,-0.5 -3.8,-2.2 -3.3,-5.4 4.7,-27 9.4,-53.9 13.9,-80.9 5.1,-31.1 10.1,-62.2 15.1,-93.3 2.3,-14.5 4.7,-29 7,-43.4 2.8,-18.2 5.4,-36.5 8.3,-54.7 1.9,-11.9 4.2,-23.7 6.1,-35.6 2.7,-17.1 5.2,-34.3 7.9,-51.4 1.9,-12 4.2,-24 6.3,-36 1.9,-11.2 3.7,-22.4 5.4,-33.6 0.5,-3.5 2.3,-5 5.6,-5.9 17.6,-4.8 35.1,-9.8 52.7,-14.6 21.4,-5.9 42.7,-11.9 64.2,-17.4 4.2,-1.1 9.2,-0.9 13.4,0.3 22.1,6.2 44.1,12.9 66.1,19.4 16.8,4.9 33.6,10 50.6,14.6 4.9,1.3 6.1,4.6 6.7,8.6 3.8,24.6 7.4,49.3 11.2,74 3.1,20 6.7,40 9.8,60 4.2,27.2 8,54.5 12.2,81.8 3.1,20 6.6,40 9.7,60 3.5,22.7 6.7,45.4 10.2,68.1 3.5,22.7 7.3,45.3 10.8,67.9 0.7,4.6 0.9,9.2 1.5,13.8 0.4,3.1 -1.1,4.2 -3.9,4.4 -1,0 -2,0 -3,0 -63.4,-0.2 -126.7,-0.2 -190.1,-0.2 z m 189.7,-6.8 c -1.9,-13 -3.7,-25.6 -5.6,-38.2 -4.9,-31.8 -9.8,-63.5 -14.7,-95.3 -5,-32.4 -10.1,-64.8 -15.1,-97.3 -4.6,-30 -9.3,-59.9 -13.9,-89.9 -5.2,-33.6 -10.5,-67.1 -15.9,-100.7 -0.3,-1.6 -2.1,-3.7 -3.7,-4.2 -9.1,-2.9 -18.4,-5.3 -27.5,-8 -24.7,-7.2 -49.7,-13.6 -74,-21.9 -12.4,-4.2 -23.4,-4.3 -35.8,-0.6 -33.5,10 -67.4,18.7 -101.2,28.2 -1.4,0.4 -3.2,2.3 -3.4,3.7 -4.2,25.7 -8.2,51.4 -12.3,77.1 -3.9,23.8 -8,47.6 -11.8,71.5 -3.8,23.7 -7.3,47.5 -11.1,71.2 -4.9,30.6 -9.9,61.2 -14.9,91.7 -3.6,21.7 -7.3,43.4 -10.8,65.2 -2.6,15.7 -5,31.4 -7.5,47.4 126.2,0.1 252.5,0.1 379.2,0.1 z"
   id="path4"
   inkscape:connector-curvature="0"
   style="fill:#0a0a0a" />
		<path
   class="st1"
   d="m 305.1,321.2 c -0.5,9 -0.9,17.1 -1.3,25.6 11.4,-1.2 22.2,-2.3 33.1,-3.4 18.7,-1.9 37.4,-3.7 56.1,-5.5 1.3,-0.1 2.8,-0.3 4,0.2 9.6,4.4 19.3,8.9 28.7,13.7 4.1,2 4.7,5.8 2.3,9.3 -10.2,15.4 -10.4,33 -11.9,50.4 -1.5,17.6 -4,35 -10,51.8 -5.6,15.9 -15.5,28.2 -30.4,36.2 -8,4.3 -10.7,3.6 -15.7,-3.9 -7.2,-10.8 -14.2,-21.7 -21.1,-32.7 -0.8,-1.3 -0.5,-3.2 -0.7,-4.9 1.5,0.1 3.1,0 4.5,0.5 5.6,2.1 11.2,4.2 16.7,6.6 5,2.2 8.8,0.8 12.7,-2.6 10.9,-9.8 17.1,-22.2 18.7,-36.5 2.1,-18.2 3.5,-36.4 4.9,-54.7 0.8,-10.6 -3.8,-15.2 -14.3,-15.2 -43.7,0.2 -87.2,3.4 -129.9,13.1 -6.7,1.5 -13.1,4.5 -19.5,7.3 -5.4,2.4 -7.7,2.5 -11.3,-2.2 -5.2,-6.8 -8.5,-13.8 -4.9,-23 5.8,-14.5 7.2,-30 7.9,-45.5 0.6,-14.6 0.8,-29.3 1.1,-44 0.2,-9.3 -1.2,-18.1 -6.5,-26.2 -3.5,-5.4 -1,-10 5.4,-9.4 4.8,0.5 9.4,2.8 14.1,4.2 2,0.6 4.1,1.5 6.1,1.3 35.8,-3.4 71.5,-7.5 106.4,-16.3 8.4,-2.1 15.4,1.5 21.8,6.2 3.5,2.6 2.5,5.7 -2.5,6.9 -9,2.2 -18.2,4.1 -27.3,5.6 -11.5,1.9 -23,3.2 -35.2,4.9 4.2,4.1 3.4,8.5 2.3,13.3 -1.1,4.5 -1.2,9.2 -1.8,14.5 9.5,-1.6 18.3,-3 27,-4.4 10.2,-1.6 19.8,0.6 29,5.1 1.4,0.7 3.3,2.6 3.2,3.8 -0.1,1.3 -2,3.1 -3.5,3.6 -3.9,1.4 -7.9,2.6 -12,3.1 -14.5,1.7 -29.1,3.2 -44.2,4.7 -0.4,7.6 -0.8,14.8 -1.3,22.7 11.2,-1.7 21.8,-3.4 32.4,-4.9 10.1,-1.5 19.5,0.9 28.4,5.4 4.4,2.2 4.3,4.9 -0.2,7 -3.6,1.6 -7.5,2.7 -11.4,3.2 -16.4,1.8 -33,3.3 -49.9,5.1 z m -67.3,5 c -0.3,7.5 -0.8,16.2 -0.9,25 -0.1,2.9 0.4,5.9 4.8,5.2 14.6,-2.4 29.2,-4.7 43.8,-7 0,-8.6 0,-16.9 0,-24.8 -16.1,0.5 -31.6,1 -47.7,1.6 z m 7.2,-84.3 c -1.5,11.3 -3,22.1 -4.6,33.6 15.7,-1.9 30,-3.6 44.6,-5.3 -0.4,-8.8 1.2,-17.2 -3.1,-25 -1.3,-2.4 -2.7,-3.5 -5.8,-3.4 -9.7,0.3 -19.5,0.1 -31.1,0.1 z m 40,44 c -15.1,0.9 -29.9,4.2 -44.9,0.1 -0.5,9.4 -1,18.3 -1.6,27.7 15.9,-1.8 31.2,-3.5 46.4,-5.2 0.1,-7.9 0.1,-15.1 0.1,-22.6 z"
   id="path6"
   inkscape:connector-curvature="0"
   style="fill:#ed153e;fill-opacity:1" />
		
		<path
   class="st3"
   d="m 195.7,413.4 c -2.9,11.2 -5.7,22.4 -8.9,33.5 -0.7,2.6 -2.5,5 -4,7.4 -1.9,2.9 -3.9,6 -8.2,5.2 -4.6,-0.9 -8.1,-3.3 -9.6,-7.8 -2.6,-8 -2.6,-16.1 0.5,-23.9 5.4,-13.5 11.1,-26.9 16.7,-40.3 0.4,-1.1 1.5,-2.2 2.6,-2.5 0.6,-0.2 2,1.1 2.4,2 3.8,8.3 8,16.5 7.1,26.1 0.5,0.1 0.9,0.2 1.4,0.3 z"
   id="path10"
   inkscape:connector-curvature="0"
   style="fill:#ed153e;fill-opacity:1" />
		<path
   class="st3"
   d="m 365.6,410.2 c -0.3,4.7 -0.7,9.3 -5.6,11.6 -5.2,2.4 -10.2,0.9 -13.6,-3 -8.6,-9.9 -16.8,-20.1 -25,-30.3 -2.1,-2.7 -0.5,-5.4 3.1,-5 12.2,1.3 23.8,4.7 34.2,11.2 5.5,3.2 6.9,9.3 6.9,15.5 z"
   id="path12"
   inkscape:connector-curvature="0"
   style="fill:#ed153e;fill-opacity:1" />
		<path
   class="st4"
   d="m 310,415.2 c -0.5,2.4 -0.7,5 -1.6,7.2 -2.5,6.4 -10.9,8.2 -15.5,2.5 -7.6,-9.6 -14.3,-19.9 -20.9,-30.2 -1.9,-2.9 0.4,-5 3.4,-4.6 10.4,1.5 20.8,4.2 28.8,11.2 3.5,3 4.5,8.8 6.7,13.3 -0.3,0.2 -0.6,0.4 -0.9,0.6 z"
   id="path14"
   inkscape:connector-curvature="0"
   style="fill:#ed153e;fill-opacity:1" />
		<path
   class="st5"
   d="m 255.1,422.1 c -0.1,0.7 -0.3,2.7 -0.8,4.5 -2.4,7.6 -10.4,9.7 -15.4,3.7 -4.8,-5.9 -8.7,-12.5 -12.8,-18.9 -1.7,-2.6 -3.2,-5.4 -4.4,-8.3 -0.8,-2 -0.9,-4.2 -1.3,-6.4 2.2,-0.3 4.6,-1.3 6.6,-0.7 5.8,1.8 11.6,4 17.2,6.4 7.9,3.4 11,10 10.9,19.7 z"
   id="path16"
   inkscape:connector-curvature="0"
   style="fill:#ed153e;fill-opacity:1" />
	</g>
</g>
<path
   inkscape:connector-curvature="0"
   style="display:block;fill:#ed153e;fill-opacity:1;fill-rule:evenodd;stroke-width:11.2364397"
   d="m 303.56441,122.21953 10.11278,5.61824 -10.11278,5.61823 -47.19308,1.12363 31.46204,30.33839 11.23644,-12.36008 6.74187,22.47287 6.74186,22.47289 -22.47287,-6.74187 -22.47289,-6.74185 12.36009,-11.23644 -30.3384,-30.33841 v 44.94577 l -5.61822,11.23644 -6.74186,-10.11279 v -47.19304 l -30.33837,30.33837 12.36008,12.3601 -22.47289,6.74185 -22.47288,5.61823 6.74186,-21.34925 6.74186,-22.47287 11.23647,11.23644 30.33837,-29.21475 h -46.06941 l -10.11279,-6.74186 10.11279,-5.61824 h 46.06941 l -30.33837,-30.338373 -11.23647,11.236443 -6.74186,-21.349233 -6.74186,-22.47288 22.47288,6.74184 22.47289,5.61824 -12.36008,12.36008 30.33837,31.462033 V 66.037327 l 6.74186,-10.11278 5.61822,10.11278 v 48.316703 l 30.3384,-30.338383 -12.36009,-12.36008 22.47289,-5.61824 22.47287,-6.74184 -6.74186,22.47288 -6.74187,21.349233 -11.23644,-11.236443 -30.33838,30.338373 z"
   class="g6_7"
   id="path184" /><path
   inkscape:connector-curvature="0"
   style="display:block;fill-rule:evenodd;stroke-width:5.45095778"
   d="m 154.78369,129.77408 -11.9921,-3.81567 -11.44701,-3.27057 5.99605,-6.54115 -19.62345,-19.078373 -19.07836,19.078373 6.54114,6.54115 -11.99211,3.81567 -11.9921,3.27057 3.27059,-11.9921 3.27057,-11.9921 6.54115,6.54113 19.62345,-19.623453 -19.62345,-19.07837 -5.99605,5.99606 -3.81567,-11.9921 -3.27059,-11.44702 11.9921,3.27059 11.99211,3.27057 -6.54114,6.54114 19.07836,19.07837 19.62345,-19.07837 -5.99605,-6.54114 11.44701,-3.27057 11.9921,-3.27059 -3.27055,11.44702 -3.27061,11.9921 -6.54113,-6.54115 -19.62346,19.62346 19.62346,19.623453 6.54113,-6.54113 3.27061,11.9921 z"
   class="g3_7"
   id="path150" /></svg>