<?xml version="1.0" standalone="no"?>
<!DOCTYPE svg PUBLIC "-//W3C//DTD SVG 20010904//EN"
 "http://www.w3.org/TR/2001/REC-SVG-20010904/DTD/svg10.dtd">
<svg version="1.0" xmlns="http://www.w3.org/2000/svg" width="2048" height="2048" viewBox="-539 -571 2048 1876">
<g transform="translate(-539,1140) scale(1,-1)" fill="#000000" stroke="none">
<path d="M952 1141v475q221 -9 221 -55q0 -28 -96 -60v-360h553l106 147q87 -76 152 -155l-22 -43h-1682l-23 51h791zM131 -31q355 322 541 875q194 -77 194 -119q0 -28 -98 -31q-230 -505 -602 -764zM1214 860q360 -283 553 -553q111 -157 111 -246q0 -84 -72 -84q-51 0 -100 113 q-153 361 -528 733z" />
</g>
</svg>
