<?xml version="1.0" standalone="no"?>
<!DOCTYPE svg PUBLIC "-//W3C//DTD SVG 20010904//EN"
 "http://www.w3.org/TR/2001/REC-SVG-20010904/DTD/svg10.dtd">
<svg version="1.0" xmlns="http://www.w3.org/2000/svg" viewBox="-539 -571 2048 1876">
<g transform="translate(-539,1140) scale(1,-1)" fill="#000000" stroke="none">
<path  d="M98 -31q287 266 422 652q88 253 127 604q207 -44 207 -88q0 -28 -86 -50q-82 -436 -224 -700q-144 -266 -407 -459zM1177 1483l88 107q127 -97 127 -127q0 -20 -30 -35l-74 -37q27 -449 192 -776q163 -317 484 -563q-55 -36 -103 -113q-593 482 -645 1493h-442l-19 51 h422z" />
</g>
</svg>
