<?xml version="1.0" standalone="no"?>
<!DOCTYPE svg PUBLIC "-//W3C//DTD SVG 20010904//EN"
 "http://www.w3.org/TR/2001/REC-SVG-20010904/DTD/svg10.dtd">
<svg version="1.0" xmlns="http://www.w3.org/2000/svg" width="2048" height="2048" viewBox="-539 -571 2048 1876">
<g transform="translate(-539,1140) scale(1,-1)" fill="#000000" stroke="none">
<path d="M774 1057h-547l-18 51h565v538q223 -3 223 -53q0 -28 -94 -61v-414h390l82 100q137 -100 137 -135q0 -17 -21 -28l-57 -35v-916q0 -48 31-61q28 -14 116 -14q115 0 142 27q50 47 71 434l60 -17q0 -306 16 -369q16 -49 68 -49q-6 -101 -84 -123q-62 -16 -246 -16 q-205 0 -254 31q-45 27 -45 129v991h-406q-9 -444 -160 -721q-174 -318 -596 -493l-30 47q464 249 594 702q57 193 63 455z" />
</g>
</svg>
