<?xml version="1.0" standalone="no"?>
<!DOCTYPE svg PUBLIC "-//W3C//DTD SVG 20010904//EN"
 "http://www.w3.org/TR/2001/REC-SVG-20010904/DTD/svg10.dtd">
<svg version="1.0" xmlns="http://www.w3.org/2000/svg" width="2048" height="2048" viewBox="-539 -571 2048 1876">
<g transform="translate(-539,1140) scale(1,-1)" fill="#000000" stroke="none">
<path d="M1024 1667l674 -398l145 -1255h-1638l145 1255zM1024 1573l-592 -355l-125 -1122h1434l-125 1122z" />
</g>
<g transform="translate(-539,1140) scale(1,-1)" fill="#ffffff" stroke="none">
<path d="M1024 1573l-592 -355l-125 -1122h1434l-125 1122z" />
</g>
<g transform="translate(-80,960) scale(1.5,-1.5)" fill="#000000" stroke="none">
<path d="M193.5 31q-76.5 47 -117 127.5t-40.5 181.5q0 95 39.5 181.5t118 140.5t189.5 54q43 0 97.5 -13t92.5 -36h1l-4 42h77v-233h-65q-13 81 -63 124t-123 44q-66 0 -112 -39.5t-69 -104.5t-23 -140q0 -133 55 -215t154 -82q32 0 73.5 7t67.5 20v93q0 56 4 90q-26 -2 -49 -2
l-26 -1v77h266v-66q-25 -1 -39 -7t-21 -24.5t-7 -55.5v-160h-24q-23 0 -45.5 -5t-57.5 -16q-52 -15 -87 -22t-80 -7q-106 0 -182.5 47z" />
</g>
</svg>
