<?xml version="1.0" standalone="no"?>
<!DOCTYPE svg PUBLIC "-//W3C//DTD SVG 20010904//EN"
 "http://www.w3.org/TR/2001/REC-SVG-20010904/DTD/svg10.dtd">
<svg version="1.0" xmlns="http://www.w3.org/2000/svg" viewBox="-539 -571 2048 1876">
<g transform="translate(-539,1140) scale(1,-1)" fill="#000000" stroke="none">
<path d="M1024 1667l674 -398l145 -1255h-1638l145 1255zM1024 1573l-592 -355l-125 -1122h1434l-125 1122z" />
</g>
<g transform="translate(-539,1140) scale(1,-1)" fill="#ffffff" stroke="none">
<path d="M1024 1573l-592 -355l-125 -1122h1434l-125 1122z" />
</g>
<g transform="translate(0,960) scale(1.5,-1.5)" fill="#d9534f" stroke="none">
<path d="M50 66q27 1 41 6.5t22 23.5t8 57v383q0 56 4 90l-75 -3v77h287v-66q-27 -1 -41 -6.5t-22 -23.5t-8 -57v-383q0 -54 -4 -88h134q60 1 93 42.5t33 121.5h67l-6 -240h-533v66z" />
</g>
</svg>
