<?xml version="1.0" standalone="no"?>
<!DOCTYPE svg PUBLIC "-//W3C//DTD SVG 20010904//EN"
 "http://www.w3.org/TR/2001/REC-SVG-20010904/DTD/svg10.dtd">
<svg version="1.0" xmlns="http://www.w3.org/2000/svg" width="2048" height="2048" viewBox="-539 -571 2048 1876">
<g transform="translate(-539,1140) scale(1,-1)" fill="#000000" stroke="none">
<path d="M1024 1667l674 -398l145 -1255h-1638l145 1255zM1024 1573l-592 -355l-125 -1122h1434l-125 1122z" />
</g>
<g transform="translate(-539,1140) scale(1,-1)" fill="#ffffff" stroke="none">
<path d="M1024 1573l-592 -355l-125 -1122h1434l-125 1122z" />
</g>
<g transform="translate(-60,960) scale(1.5,-1.5)" fill="#000000" stroke="none">
<path d="M50 66q27 1 41 6.5t22 23.5t8 57v383q0 56 4 90l-75 -3v77h287v-66q-27 -1 -41 -6.5t-22 -23.5t-8 -57v-152h72l77 131q48 84 68 100v1q-22 -2 -38 -2.5t-25 -1.5v77h245v-66q-43 -2 -80.5 -22t-74.5 -80l-96 -154v-1q38 -23 63 -58l103 -145q74 -105 131 -108v-66h-154
q-11 1 -43.5 35.5t-54.5 66.5l-99 144q-14 20 -30 40t-28 29h-36v-151q0 -56 -4 -90q32 3 75 3v-77h-287v66z" />
</g>
</svg>
