<?xml version="1.0" encoding="UTF-8" standalone="no"?>
<svg
   xmlns:dc="http://purl.org/dc/elements/1.1/"
   xmlns:cc="http://creativecommons.org/ns#"
   xmlns:rdf="http://www.w3.org/1999/02/22-rdf-syntax-ns#"
   xmlns:svg="http://www.w3.org/2000/svg"
   xmlns="http://www.w3.org/2000/svg"
   xmlns:xlink="http://www.w3.org/1999/xlink"
   xmlns:sodipodi="http://sodipodi.sourceforge.net/DTD/sodipodi-0.dtd"
   xmlns:inkscape="http://www.inkscape.org/namespaces/inkscape"
   inkscape:export-ydpi="365.56299"
   inkscape:export-xdpi="365.56299"
   inkscape:export-filename="D:\Pictures\Chess Variants\Shogi\pieces\Wood\V2\0HI.png"
   inkscape:version="1.0 (4035a4fb49, 2020-05-01)"
   sodipodi:docname="0OU.svg"
   id="svg1717"
   version="1.1"
   height="60"
   width="52.157">
  <metadata
     id="metadata1723">
    <rdf:RDF>
      <cc:Work
         rdf:about="">
        <dc:format>image/svg+xml</dc:format>
        <dc:type
           rdf:resource="http://purl.org/dc/dcmitype/StillImage" />
        <dc:title></dc:title>
      </cc:Work>
    </rdf:RDF>
  </metadata>
  <defs
     id="defs1721">
    <filter
       id="filter1552"
       inkscape:label="Drop Shadow"
       style="color-interpolation-filters:sRGB">
      <feFlood
         id="feFlood1542"
         result="flood"
         flood-color="rgb(0,0,0)"
         flood-opacity="0.498039" />
      <feComposite
         id="feComposite1544"
         result="composite1"
         operator="in"
         in2="SourceGraphic"
         in="flood" />
      <feGaussianBlur
         id="feGaussianBlur1546"
         result="blur"
         stdDeviation="2.5"
         in="composite1" />
      <feOffset
         id="feOffset1548"
         result="offset"
         dy="4.41314e-15"
         dx="4.57967e-15" />
      <feComposite
         id="feComposite1550"
         result="composite2"
         operator="over"
         in2="offset"
         in="SourceGraphic" />
    </filter>
    <filter
       id="filter1540"
       inkscape:label="Drop Shadow"
       style="color-interpolation-filters:sRGB">
      <feFlood
         id="feFlood1530"
         result="flood"
         flood-color="rgb(0,0,0)"
         flood-opacity="0.498039" />
      <feComposite
         id="feComposite1532"
         result="composite1"
         operator="in"
         in2="SourceGraphic"
         in="flood" />
      <feGaussianBlur
         id="feGaussianBlur1534"
         result="blur"
         stdDeviation="2.5"
         in="composite1" />
      <feOffset
         id="feOffset1536"
         result="offset"
         dy="4.41314e-15"
         dx="4.57967e-15" />
      <feComposite
         id="feComposite1538"
         result="composite2"
         operator="over"
         in2="offset"
         in="SourceGraphic" />
    </filter>
    <filter
       id="drop-shadow-9">
      <feGaussianBlur
         id="feGaussianBlur5056"
         stdDeviation="2"
         result="blur"
         in="SourceAlpha" />
      <feOffset
         id="feOffset5058"
         dy="2"
         dx="2"
         result="offsetBlur" />
      <feBlend
         id="feBlend5060"
         mode="normal"
         in2="offsetBlur"
         in="SourceGraphic" />
    </filter>
    <filter
       id="drop-shadow-2">
      <feGaussianBlur
         id="feGaussianBlur6807"
         stdDeviation="2"
         result="blur"
         in="SourceAlpha" />
      <feOffset
         id="feOffset6809"
         dy="2"
         dx="2"
         result="offsetBlur" />
      <feBlend
         id="feBlend6811"
         mode="normal"
         in2="offsetBlur"
         in="SourceGraphic" />
    </filter>
    <filter
       id="drop-shadow-2-8">
      <feGaussianBlur
         id="feGaussianBlur6807-2"
         stdDeviation="2"
         result="blur"
         in="SourceAlpha" />
      <feOffset
         id="feOffset6809-8"
         dy="2"
         dx="2"
         result="offsetBlur" />
      <feBlend
         id="feBlend6811-0"
         mode="normal"
         in2="offsetBlur"
         in="SourceGraphic" />
    </filter>
    <filter
       id="drop-shadow-6">
      <feGaussianBlur
         id="feGaussianBlur5056-9"
         stdDeviation="2"
         result="blur"
         in="SourceAlpha" />
      <feOffset
         id="feOffset5058-0"
         dy="2"
         dx="2"
         result="offsetBlur" />
      <feBlend
         id="feBlend5060-9"
         mode="normal"
         in2="offsetBlur"
         in="SourceGraphic" />
    </filter>
    <filter
       id="drop-shadow-22">
      <feGaussianBlur
         id="feGaussianBlur5056-0-5"
         stdDeviation="2"
         result="blur"
         in="SourceAlpha" />
      <feOffset
         id="feOffset5058-0-0"
         dy="2"
         dx="2"
         result="offsetBlur" />
      <feBlend
         id="feBlend5060-0"
         mode="normal"
         in2="offsetBlur"
         in="SourceGraphic" />
    </filter>
    <linearGradient
       id="linearGradient12530"
       inkscape:collect="always">
      <stop
         id="stop12526"
         offset="0"
         style="stop-color:#dfb459;stop-opacity:1" />
      <stop
         style="stop-color:#dead54;stop-opacity:1"
         offset="0.04123921"
         id="stop16843" />
      <stop
         style="stop-color:#e1b85f;stop-opacity:1"
         offset="0.08247842"
         id="stop12556" />
      <stop
         style="stop-color:#dba84d;stop-opacity:1"
         offset="0.16495684"
         id="stop12532" />
      <stop
         id="stop12564"
         offset="0.3052367"
         style="stop-color:#dfb765;stop-opacity:1" />
      <stop
         id="stop12558"
         offset="0.53886235"
         style="stop-color:#d8a94e;stop-opacity:1" />
      <stop
         style="stop-color:#d5ab53;stop-opacity:1"
         offset="0.58579648"
         id="stop12562" />
      <stop
         id="stop12534"
         offset="0.83974683"
         style="stop-color:#e0bf6e;stop-opacity:1" />
      <stop
         style="stop-color:#daae52;stop-opacity:1"
         offset="0.92426348"
         id="stop16845" />
      <stop
         style="stop-color:#d9af57;stop-opacity:1"
         offset="0.96230692"
         id="stop12560" />
      <stop
         id="stop12528"
         offset="1"
         style="stop-color:#e1b663;stop-opacity:1" />
    </linearGradient>
    <linearGradient
       spreadMethod="repeat"
       gradientUnits="userSpaceOnUse"
       y2="30.266588"
       x2="-15.094454"
       y1="30.266588"
       x1="-30.848997"
       id="linearGradient54948"
       xlink:href="#linearGradient12530"
       inkscape:collect="always" />
    <filter
       id="drop-shadow-62">
      <feGaussianBlur
         id="feGaussianBlur5056-7"
         stdDeviation="2"
         result="blur"
         in="SourceAlpha" />
      <feOffset
         id="feOffset5058-9"
         dy="2"
         dx="2"
         result="offsetBlur" />
      <feBlend
         id="feBlend5060-1"
         mode="normal"
         in2="offsetBlur"
         in="SourceGraphic" />
    </filter>
  </defs>
  <sodipodi:namedview
     inkscape:document-rotation="0"
     inkscape:snap-nodes="true"
     inkscape:current-layer="g9438"
     inkscape:window-maximized="1"
     inkscape:window-y="-8"
     inkscape:window-x="1912"
     inkscape:cy="27.390196"
     inkscape:cx="27.704939"
     inkscape:zoom="7.8666669"
     showgrid="false"
     id="namedview1719"
     inkscape:window-height="1017"
     inkscape:window-width="1920"
     inkscape:pageshadow="2"
     inkscape:pageopacity="0"
     guidetolerance="10"
     gridtolerance="10"
     objecttolerance="10"
     borderopacity="1"
     bordercolor="#666666"
     pagecolor="#ffffff" />
  <!--
Created by Hari Seldon and modified by orangain, licensed under Creative Commons Attribution-Share Alike 3.0 Unported.
See: https://creativecommons.org/licenses/by-sa/3.0/deed.en

Original file is available at: https://commons.wikimedia.org/wiki/File:Shogi_gyokusho(svg).svg
-->
  <filter
     id="drop-shadow">
    <feGaussianBlur
       id="feGaussianBlur1692"
       stdDeviation="2"
       result="blur"
       in="SourceAlpha" />
    <feOffset
       id="feOffset1694"
       dy="2"
       dx="2"
       result="offsetBlur" />
    <feBlend
       id="feBlend1696"
       mode="normal"
       in2="offsetBlur"
       in="SourceGraphic" />
  </filter>
  <g
     id="g9438"
     style="display:inline"
     transform="matrix(1.3333333,0,0,-1.3333333,-70.30806,375.85074)">
    <g
       style="fill:#75581b;fill-opacity:1;filter:url(#drop-shadow-6)"
       id="g55026"
       transform="matrix(0.75000002,0,0,-0.75000002,80.923325,281.2116)">
      <path
         id="path55024"
         transform="translate(-37.589704,-0.90194937)"
         d="M 26.628906 7.1386719 L 13.791016 10.748047 L 6.9257812 54.027344 L 6.1113281 54.029297 L 6.7402344 55.197266 L 46.673828 55.197266 C 44.37097 40.312141 42.598822 24.647608 39.884766 11.035156 L 39.255859 9.8652344 L 39.458984 10.910156 L 26.628906 7.1386719 z "
         style="fill:#84631f;fill-opacity:1" />
    </g>
    <g
       transform="matrix(0.75000002,0,0,-0.75000002,80.451421,282.088)"
       id="g5765"
       style="fill:#ffd5e5;fill-opacity:1;">
      <path
         sodipodi:nodetypes="cccccc"
         d="m -10.959998,6.2374999 -12.838,3.608 -7.051,44.4501771 39.9340001,-1.77e-4 c -2.3028583,-14.885125 -4.0759435,-30.550548 -6.79,-44.163 z"
         id="path5763"
         inkscape:connector-curvature="0"
         style="fill:url(#linearGradient54948);fill-opacity:1;" />
    </g>
    <path
       inkscape:connector-curvature="0"
       id="path55035"
       d="m 57.314672,241.36624 0.47155,-0.87613 h 29.950196 l -0.471245,0.87626 z"
       style="fill:#654b13;stroke:none;stroke-width:0.75px;stroke-linecap:butt;stroke-linejoin:miter;stroke-opacity:1;fill-opacity:1" />
    <g
       transform="matrix(0.75000002,0,0,-0.75000002,69.303765,254.78868)"
       id="g15473">
      <g
         aria-label="王"
         style="font-style:normal;font-variant:normal;font-weight:normal;font-stretch:normal;font-size:26.6667px;line-height:1.25;font-family:KaiTi;-inkscape-font-specification:KaiTi;letter-spacing:0px;word-spacing:0px;fill:#000000;fill-opacity:1;stroke:none;stroke-width:1;stroke-miterlimit:4;stroke-dasharray:none"
         id="text5169-7"
         transform="translate(-21.91312,-38.895837)">
        <path
           d="m 20.8285,24.613991 c -1.722222,0 -4.415094,-0.628931 -5.248427,-1.462264 0,-0.194444 1.498424,-0.121069 1.665094,-0.204402 0.194445,-0.08333 0.611111,-0.152778 1.25,-0.208334 0.666667,-0.08333 1.430556,-0.166667 2.291667,-0.25 0.888889,-0.08333 2.222222,-0.277778 4,-0.583333 1.777778,-0.305555 3.694445,-0.694444 5.75,-1.166667 0.416667,-0.111111 0.902778,-0.166666 1.458333,-0.166666 1.222223,0 2.152778,0.375 2.791667,1.125 0.02778,0.277777 -0.02778,0.499999 -0.166667,0.666666 -0.138889,0.138889 -0.458333,0.277778 -0.958333,0.416667 -0.5,0.111111 -1.027778,0.208334 -1.583333,0.291667 -0.527778,0.05555 -1.375,0.180553 -2.541667,0.375 -1.166667,0.194444 -2.305556,0.402777 -3.416667,0.625 0.694445,0.361111 1.041667,0.916666 1.041667,1.666666 l -0.208333,2.25 -0.125,4.041667 v 0.04167 l 4.00393,-0.579403 c 0.166667,-0.02778 1.308701,-0.253934 1.586479,-0.253934 1.083333,0 1.875,0.347222 2.375,1.041666 -0.02778,0.38889 -0.541669,0.722223 -1.541667,1 -1,0.277778 -3.243187,0.5 -4.465409,0.666667 -1.222222,0.138889 -1.861111,0.222222 -1.916667,0.25 l -0.125,0.208333 -0.25,8.208334 c 3.25,-0.222222 5.930556,-0.472222 8.041667,-0.75 l 3.583334,-0.625 h 0.166666 0.125 c 0.805556,0 1.652778,0.430556 2.541667,1.291667 0.916667,0.833333 1.375,1.472222 1.375,1.916666 -0.111111,0.194445 -0.388889,0.291667 -0.833333,0.291667 -0.416667,0 -2.236111,-0.152778 -5.458334,-0.458333 l -2.666667,-0.166667 c -2.305555,0 -5.527778,0.194444 -9.666667,0.583333 -4.138889,0.388889 -6.356918,0.784068 -7.856918,1.25629 l -1.875,0.541667 c -0.02778,0 -0.08334,0.01389 -0.166667,0.04167 h -0.166667 c -0.555555,0 -1.152777,-0.208333 -1.791666,-0.625 -0.638889,-0.416667 -1.111112,-0.888889 -1.416667,-1.416666 0,-0.305556 0.08333,-0.527778 0.25,-0.666667 l 0.190252,0.03538 c 1.611269,0.299616 3.833333,-0.166667 6.583333,-0.5 2.75,-0.333333 5,-0.5 6.75,-0.5 h 0.166667 l 0.125,-8.25 -3.75,0.25 c -1.222222,-0.02778 -2.917191,-0.233493 -3.528302,-0.900158 0,-0.305555 0.180556,-0.472222 0.541667,-0.5 l 2.653302,-0.266509 4.041666,-0.541667 v -6.083333 c 0,-0.805556 -0.263889,-1.513889 -0.791666,-2.125 -1,0.111111 -1.944445,0.166666 -2.833334,0.166666 z"
           style="font-style:normal;font-variant:normal;font-weight:normal;font-stretch:normal;font-size:42.6667px;font-family:'cwTeX Q Kai';-inkscape-font-specification:'cwTeX Q Kai';stroke:#000000;stroke-width:1;stroke-miterlimit:4;stroke-dasharray:none;stroke-opacity:1"
           id="path5171-2"
           inkscape:connector-curvature="0"
           sodipodi:nodetypes="cccccscscccccccccccscscccccccsccsccscccssccssscccccccsccc" />
      </g>
    </g>
  </g>
</svg>
