<?xml version="1.0" standalone="no"?>
<!DOCTYPE svg PUBLIC "-//W3C//DTD SVG 20010904//EN"
 "http://www.w3.org/TR/2001/REC-SVG-20010904/DTD/svg10.dtd">
<svg version="1.0" xmlns="http://www.w3.org/2000/svg" viewBox="-539 -571 2048 1876">
<g transform="translate(-539,1140) scale(1,-1)" fill="#000000" stroke="none">
<path d="M1420 551q79 -24 110 -35q70 88 123 207q140 -71 140 -105q0 -24 -81 -24q-56 -48 -127 -99q221 -83 221 -174q0 -63 -57 -63q-31 0 -67 49q-72 92 -252 188q43 -213 196 -348q93 -80 131 -80q64 0 107 262l53 -22q-18 -136 -18 -199q0 -98 61 -110q-15 -91 -104 -91
q-157 0 -326 160q-226 217 -229 644h-266v-818h-117v818h-297q-15 -273 -110 -464q-114 -233 -379 -389l-33 43q361 279 401 799h-360l-18 52h380q3 31 3 86v291q-150 -50 -322 -86l-25 47q365 110 582 280q129 -77 129 -113q0 -20 -50 -20q-2 0 -49 4q-71 -37 -145 -67
v-336q0 -53 -2 -76h295v590q198 -9 198 -51q0 -28 -81 -56v-483h245l78 90q121 -96 121 -118q0 -13 -18 -25l-48 -32q3 -85 7 -126zM1424 1311q64 -15 110 -31q69 91 125 224q145 -75 145 -111q0 -25 -81 -25q-56 -55 -130 -108q195 -71 195 -150q0 -61 -55 -61
q-29 0 -70 47q-70 88 -231 166q42 -210 196 -324q79 -57 117 -57q51 0 88 219l49 -22q-9 -102 -9 -133q0 -105 60 -117q-9 -90 -104 -90q-168 0 -332 158q-181 178 -196 577h-1082l-18 51h1081l74 94q126 -96 126 -125q0 -17 -20 -28l-49 -31q4 -83 11 -123z" />
</g>
</svg>
