<?xml version="1.0" standalone="no"?>
<!DOCTYPE svg PUBLIC "-//W3C//DTD SVG 20010904//EN"
 "http://www.w3.org/TR/2001/REC-SVG-20010904/DTD/svg10.dtd">
<svg version="1.0" xmlns="http://www.w3.org/2000/svg" width="2048" height="2048" viewBox="-539 -571 2048 1876">
<g transform="translate(-539,1140) scale(1,-1)" fill="#000000" stroke="none">
<path d="M 1576,399 545,399 Q 498,44 178,-142 l -37,41 q 293,232 293,660 l 0,498 Q 321,947 188,850 l -35,39 q 350,312 543,813 195,-34 195,-76 0,-30 -103,-49 -22,-47 -41,-84 l 391,0 80,92 q 139,-111 139,-147 0,-14 -20,-23 l -64,-22 q -87,-114 -208,-226 l 493,0 84,103 q 129,-102 129,-132 0,-14 -17,-24 l -57,-35 0,-997 q 0,-203 -234,-203 -3,61 -85,92 -69,23 -244,47 l 0,55 q 176,-20 362,-20 80,0 80,72 l 0,274 z m -997,768 410,0 q 95,135 149,275 l -419,0 Q 638,1296 549,1183 l 10,-6 z m -24,-51 0,-295 438,0 0,295 -438,0 z m1021,-665 0,319 -464,0 0,-319 464,0 z m 0,370 0,295 -464,0 0,-295 464,0 z M 551,451 l 442,0 0,319 -438,0 0,-213 q 0,-32 -4,-106 z" />
</g>
</svg>
