<?xml version="1.0" standalone="no"?>
<!DOCTYPE svg PUBLIC "-//W3C//DTD SVG 20010904//EN"
 "http://www.w3.org/TR/2001/REC-SVG-20010904/DTD/svg10.dtd">
<svg version="1.0" xmlns="http://www.w3.org/2000/svg" viewBox="-539 -571 2048 1876">
<g transform="translate(-539,1140) scale(1,-1)" fill="#d9534f" stroke="none">
<path d="M1112 602h561l80 97q129 -99 129 -130q0 -14 -16 -24l-54 -35q-21 -438 -102 -549q-73 -100 -219 -100q0 60 -78 88q-51 18 -217 43v57q171 -22 293 -22t153 102q45 141 52 422h-1170v-104h-121v1143q46 -18 146 -70h1001l97 137q68 -62 139 -152l-21 -37h-653v-231h356
l97 121q65 -63 122 -131l-24 -41h-551v-256h356l97 119q61 -52 125 -129l-23 -41h-555v-277zM993 602v277h-469v-277h469zM524 930h469v256h-469v-256zM524 1237h469v231h-469v-231zM1208 498q282 -145 282 -279q0 -72 -70 -72q-44 0 -65 70q-39 118 -180 244zM882 444
q250 -175 250 -331q0 -76 -68 -76q-54 0 -63 61q-21 159 -154 316zM616 391q160 -184 160 -352q0 -109 -84 -109q-60 0 -60 66v14q5 58 5 70q0 133 -62 293zM366 379l53 -17q-6 -233 -88 -358q-67 -106 -149 -106q-76 0 -76 74q0 33 57 69q160 102 203 338z" />
</g>
</svg>
