<?xml version="1.0" standalone="no"?>
<!DOCTYPE svg PUBLIC "-//W3C//DTD SVG 20010904//EN"
 "http://www.w3.org/TR/2001/REC-SVG-20010904/DTD/svg10.dtd">
<svg version="1.0" xmlns="http://www.w3.org/2000/svg" viewBox="-539 -571 2048 1876">
<g transform="translate(-539,1140) scale(1,-1)" fill="#000000" stroke="none">
<path d="M1024 1667l674 -398l145 -1255h-1638l145 1255zM1024 1573l-592 -355l-125 -1122h1434l-125 1122z" />
</g>
<g transform="translate(-539,1140) scale(1,-1)" fill="#ffffff" stroke="none">
<path d="M1024 1573l-592 -355l-125 -1122h1434l-125 1122z" />
</g>
<g transform="translate(30,960) scale(1.5,-1.5)" fill="#000000" stroke="none">
<path d="M219.5 -3q-46.5 13 -85.5 36h-1l3 -42h-77v234h66q13 -82 63 -125.5t122 -43.5q52 0 86 27.5t34 66.5q0 32 -22.5 55t-50 36t-87.5 37q-110 44 -168.5 100t-58.5 147q0 46 23 89.5t75.5 72.5t135.5 29q43 0 90 -12.5t78 -35.5h1l-4 41h78v-233h-66q-13 82 -57.5 125
t-113.5 43q-45 0 -77.5 -24.5t-32.5 -61.5q0 -44 37 -74t125 -66q101 -40 164.5 -92.5t63.5 -139.5q0 -59 -32 -105t-90 -71.5t-134 -25.5q-41 0 -87.5 13z" />
</g>
</svg>
