<?xml version="1.0" standalone="no"?>
<!DOCTYPE svg PUBLIC "-//W3C//DTD SVG 20010904//EN"
 "http://www.w3.org/TR/2001/REC-SVG-20010904/DTD/svg10.dtd">
<svg version="1.0" xmlns="http://www.w3.org/2000/svg" width="2048" height="2048" viewBox="-539 -571 2048 1876">
<g transform="translate(-539,1140) scale(1,-1)" fill="#000000" stroke="none">
<path d="M1024 1667l674 -398l145 -1255h-1638l145 1255zM1024 1573l-592 -355l-125 -1122h1434l-125 1122z" />
</g>
<g transform="translate(-539,1140) scale(1,-1)" fill="#ffffff" stroke="none">
<path d="M1024 1573l-592 -355l-125 -1122h1434l-125 1122z" />
</g>
<g transform="translate(-100,960) scale(1.5,-1.5)" fill="#d9534f" stroke="none">
<path d="M262 399q-25 32 -55 75h-1l2 -310q0 -56 -4 -90q32 3 75 3v-77h-228v66q27 1 41 6.5t22 23.5t8 57l-2 383q0 67 4 90l-76 -3v77h157l306 -386q42 -55 70 -95h1v317q0 65 3 90l-75 -3v77h228v-66q-27 -1 -41 -6.5t-22 -23.5t-8 -57v-557h-85z" />
</g>
</svg>
